# Blender v2.79 (sub 0) OBJ File: 'tile.blend'
# www.blender.org
mtllib grasstile.mtl
o Cube
v 1.000000 -0.200000 -1.000000
v 1.000000 -0.200000 1.000000
v -1.000000 -0.200000 1.000000
v -1.000000 -0.200000 -1.000000
v 1.000000 0.200000 -0.999999
v 0.999999 0.200000 1.000001
v -1.000000 0.200000 1.000000
v -1.000000 0.200000 -1.000000
v 1.000000 0.200000 0.000001
v 0.000000 0.200000 -1.000000
v -0.000001 0.200000 1.000000
v -1.000000 0.200000 -0.000000
v -0.000000 0.232389 0.000000
v 1.000000 0.200000 0.500001
v -0.500000 0.200000 -1.000000
v -0.500000 0.200000 1.000000
v -1.000000 0.200000 -0.500000
v 1.000000 0.200000 -0.499999
v 0.500000 0.200000 -1.000000
v 0.499999 0.200000 1.000000
v -1.000000 0.200000 0.500000
v -0.000000 0.232233 0.500000
v 0.000000 0.220185 -0.500000
v 0.500000 0.221002 0.000000
v -0.500000 0.240672 0.000000
v -0.500000 0.244812 -0.500000
v 0.500000 0.220348 -0.500000
v 0.500000 0.209643 0.500000
v -0.500000 0.200966 0.500000
v 1.000000 0.200000 0.750001
v -0.750000 0.200000 -1.000000
v -0.750000 0.200000 1.000000
v -1.000000 0.200000 -0.750000
v 1.000000 0.200000 -0.249999
v 0.250000 0.200000 -1.000000
v 0.249999 0.200000 1.000000
v -1.000000 0.200000 0.250000
v -0.000000 0.204758 0.750000
v -0.000000 0.226913 -0.250000
v 0.750000 0.215001 0.000000
v -0.250000 0.238000 0.000000
v 1.000000 0.200000 0.250001
v -0.250000 0.200000 -1.000000
v -0.250001 0.200000 1.000000
v -1.000000 0.200000 -0.250000
v 1.000000 0.200000 -0.749999
v 0.750000 0.200000 -1.000000
v 0.749999 0.200000 1.000000
v -1.000000 0.200000 0.750000
v -0.000000 0.245061 0.250000
v 0.000000 0.206983 -0.750000
v 0.250000 0.234619 0.000000
v -0.750000 0.235504 -0.000000
v -0.500000 0.251358 -0.250000
v -0.500000 0.224048 -0.750000
v -0.250000 0.234140 -0.500000
v -0.750000 0.239983 -0.500000
v 0.500000 0.226023 -0.250000
v 0.500000 0.218242 -0.750000
v 0.750000 0.220363 -0.500000
v 0.250000 0.222144 -0.500000
v 0.500000 0.209655 0.750000
v 0.500000 0.219337 0.250000
v 0.750000 0.212604 0.500000
v 0.250000 0.231916 0.500000
v -0.500000 0.195314 0.750000
v -0.500000 0.225896 0.250000
v -0.250000 0.218855 0.500000
v -0.750000 0.198747 0.500000
v -0.750000 0.214543 0.250000
v -0.250000 0.239660 0.250000
v -0.250000 0.196130 0.750000
v 0.250000 0.237910 0.250000
v 0.750000 0.208558 0.250000
v 0.750000 0.211616 0.750000
v 0.250000 0.204343 -0.750000
v 0.750000 0.225474 -0.750000
v 0.750000 0.212939 -0.250000
v -0.750000 0.221013 -0.750000
v -0.250000 0.217394 -0.750000
v -0.250000 0.231185 -0.250000
v -0.750000 0.246869 -0.250000
v 0.250000 0.238351 -0.250000
v 0.250000 0.209890 0.750000
v -0.750000 0.198904 0.750000
vn 0.0000 -1.0000 0.0000
vn 0.0022 1.0000 -0.0022
vn 1.0000 0.0000 0.0000
vn -0.0000 -0.0000 1.0000
vn -1.0000 -0.0000 -0.0000
vn 0.0000 0.0000 -1.0000
vn -0.0103 0.9995 0.0293
vn -0.0273 0.9996 -0.0035
vn -0.1625 0.9865 0.0224
vn 0.0456 0.9989 0.0077
vn 0.0345 0.9966 -0.0748
vn -0.1210 0.9919 -0.0376
vn 0.0381 0.9993 0.0059
vn -0.0145 0.9999 0.0060
vn 0.0014 0.9981 -0.0619
vn -0.0039 0.9991 0.0425
vn 0.0156 0.9998 0.0113
vn 0.0149 0.9992 0.0376
vn -0.0016 0.9999 -0.0171
vn -0.0629 0.9939 0.0909
vn -0.0266 0.9991 0.0316
vn -0.0270 0.9963 0.0812
vn -0.0329 0.9969 0.0713
vn -0.0995 0.9942 0.0417
vn -0.0374 0.9970 0.0671
vn 0.0004 0.9996 -0.0287
vn -0.0222 0.9994 0.0262
vn -0.0173 0.9998 0.0018
vn -0.0438 0.9940 0.0998
vn -0.0373 0.9977 0.0566
vn 0.0814 0.9962 0.0313
vn 0.0642 0.9979 -0.0032
vn 0.0098 0.9994 -0.0319
vn 0.0423 0.9991 -0.0081
vn 0.0471 0.9988 0.0129
vn 0.0335 0.9993 0.0162
vn 0.0232 0.9995 0.0232
vn 0.0484 0.9988 0.0020
vn -0.0098 0.9999 0.0020
vn -0.0242 0.9989 -0.0398
vn -0.0278 0.9986 -0.0451
vn 0.0053 0.9997 -0.0226
vn 0.0913 0.9958 0.0102
vn 0.0508 0.9974 -0.0508
vn -0.0144 0.9961 -0.0871
vn 0.0558 0.9984 -0.0041
vn 0.0664 0.9977 0.0148
vn 0.0261 0.9997 0.0035
vn -0.0157 0.9967 -0.0792
vn -0.0060 0.9959 -0.0898
vn -0.0420 0.9982 -0.0420
vn 0.0486 0.9970 -0.0597
vn 0.0208 0.9986 -0.0487
vn 0.0133 0.9965 -0.0826
vn 0.0198 0.9995 -0.0246
vn 0.0364 0.9993 -0.0075
vn 0.0616 0.9981 -0.0072
vn -0.0193 0.9988 0.0441
vn -0.0186 0.9995 -0.0269
vn -0.1711 0.9852 -0.0136
vn 0.0518 0.9985 0.0175
vn 0.0282 0.9986 -0.0437
vn -0.0268 0.9986 -0.0458
vn 0.0005 0.9992 0.0391
vn 0.0449 0.9980 0.0439
vn -0.0096 0.9951 0.0985
vn 0.0072 0.9999 -0.0116
vn 0.0027 0.9999 0.0110
vn 0.0047 1.0000 -0.0003
usemtl Material
s off
f 1//1 2//1 3//1 4//1
f 85//2 49//2 7//2 32//2
f 1//3 5//3 46//3 18//3 34//3 9//3 42//3 14//3 30//3 6//3 2//3
f 2//4 6//4 48//4 20//4 36//4 11//4 44//4 16//4 32//4 7//4 3//4
f 3//5 7//5 49//5 21//5 37//5 12//5 45//5 17//5 33//5 8//5 4//5
f 5//6 1//6 4//6 8//6 31//6 15//6 43//6 10//6 35//6 19//6 47//6
f 84//7 38//7 11//7 36//7
f 83//8 39//8 13//8 52//8
f 82//9 45//9 12//9 53//9
f 81//10 54//10 25//10 41//10
f 80//11 55//11 26//11 56//11
f 79//12 33//12 17//12 57//12
f 78//13 58//13 24//13 40//13
f 77//14 59//14 27//14 60//14
f 76//15 51//15 23//15 61//15
f 75//16 62//16 20//16 48//16
f 74//17 63//17 28//17 64//17
f 73//18 50//18 22//18 65//18
f 72//19 66//19 16//19 44//19
f 71//20 67//20 29//20 68//20
f 70//21 37//21 21//21 69//21
f 67//22 70//22 69//22 29//22
f 25//23 53//23 70//23 67//23
f 53//24 12//24 37//24 70//24
f 50//25 71//25 68//25 22//25
f 13//26 41//26 71//26 50//26
f 41//27 25//27 67//27 71//27
f 38//28 72//28 44//28 11//28
f 22//29 68//29 72//29 38//29
f 68//30 29//30 66//30 72//30
f 63//31 73//31 65//31 28//31
f 24//32 52//32 73//32 63//32
f 52//33 13//33 50//33 73//33
f 42//34 74//34 64//34 14//34
f 9//35 40//35 74//35 42//35
f 40//36 24//36 63//36 74//36
f 30//37 75//37 48//37 6//37
f 14//38 64//38 75//38 30//38
f 64//39 28//39 62//39 75//39
f 59//40 76//40 61//40 27//40
f 19//41 35//41 76//41 59//41
f 35//42 10//42 51//42 76//42
f 46//43 77//43 60//43 18//43
f 5//44 47//44 77//44 46//44
f 47//45 19//45 59//45 77//45
f 34//46 78//46 40//46 9//46
f 18//47 60//47 78//47 34//47
f 60//48 27//48 58//48 78//48
f 55//49 79//49 57//49 26//49
f 15//50 31//50 79//50 55//50
f 31//51 8//51 33//51 79//51
f 51//52 80//52 56//52 23//52
f 10//53 43//53 80//53 51//53
f 43//54 15//54 55//54 80//54
f 39//55 81//55 41//55 13//55
f 23//56 56//56 81//56 39//56
f 56//57 26//57 54//57 81//57
f 54//58 82//58 53//58 25//58
f 26//59 57//59 82//59 54//59
f 57//60 17//60 45//60 82//60
f 58//61 83//61 52//61 24//61
f 27//62 61//62 83//62 58//62
f 61//63 23//63 39//63 83//63
f 62//64 84//64 36//64 20//64
f 28//65 65//65 84//65 62//65
f 65//66 22//66 38//66 84//66
f 66//67 85//67 32//67 16//67
f 29//68 69//68 85//68 66//68
f 69//69 21//69 49//69 85//69
