# Blender v3.0.0 OBJ File: ''
# www.blender.org
mtllib rubbertile.mtl
o Cube.001
v 1.000000 -0.200000 -1.000000
v 1.000000 -0.200000 1.000000
v -1.000000 -0.200000 1.000000
v -1.000000 -0.200000 -1.000000
v 1.000000 0.200000 -0.999999
v 1.000000 0.197913 -0.749999
v 1.000000 0.200000 -0.499999
v 1.000000 0.200000 -0.249999
v 1.000000 0.200000 0.000001
v 1.000000 0.200000 0.250001
v 1.000000 0.200000 0.500001
v 1.000000 0.200000 0.750001
v 0.999999 0.200000 1.000001
v 0.749999 0.200000 1.000000
v 0.499999 0.200000 1.000000
v 0.249999 0.200000 1.000000
v -0.000001 0.199973 1.000000
v -0.250001 0.199970 1.000000
v -0.500000 0.200000 1.000000
v -0.750000 0.200000 1.000000
v -1.000000 0.200000 1.000000
v -1.000000 0.200000 0.750000
v -1.000000 0.200000 0.500000
v -1.000000 0.200000 0.250000
v -1.000000 0.192792 0.000000
v -1.000000 0.183674 -0.250000
v -1.000000 0.186611 -0.500000
v -1.000000 0.195153 -0.750000
v -1.000000 0.200000 -1.000000
v -0.750000 0.199968 -1.000000
v -0.500000 0.199970 -1.000000
v -0.250000 0.199971 -1.000000
v 0.000000 0.200000 -1.000000
v 0.250000 0.200000 -1.000000
v 0.500000 0.200000 -1.000000
v 0.750000 0.197913 -1.000000
v -0.903361 0.197927 -0.691945
v -0.904779 0.191045 -0.460872
v -0.978697 0.190890 -0.460890
v -0.977279 0.197772 -0.691963
v -0.230951 0.200390 0.903114
v -0.000017 0.200847 0.902729
v -0.000042 0.200858 0.983074
v -0.230976 0.200401 0.983458
v -0.692817 0.200934 0.902779
v -0.461885 0.200545 0.902974
v -0.461910 0.200556 0.983319
v -0.692843 0.200945 0.983123
v 0.903018 0.201854 0.692824
v 0.903143 0.202062 0.903183
v -0.903422 0.201916 -0.902899
v -0.692816 0.201599 -0.902822
v -0.902765 0.201060 0.902772
v 0.903585 0.202284 -0.230910
v 0.903386 0.202147 0.000023
v -0.000017 0.201453 -0.902783
v 0.230918 0.201705 -0.902884
v 0.230917 0.201507 0.902806
v -0.903116 0.201991 0.230484
v -0.904266 0.196279 -0.001282
v 0.903232 0.202022 0.230957
v 0.903246 0.202035 0.461890
v -0.461884 0.201767 -0.902989
v -0.230950 0.201543 -0.902830
v -0.905073 0.188570 -0.231448
v 0.903250 0.200271 -0.692859
v 0.903788 0.202408 -0.461989
v 0.461989 0.202181 -0.903393
v 0.692858 0.200234 -0.903214
v 0.692784 0.201798 0.903023
v 0.461851 0.201878 0.903111
v -0.902764 0.201078 0.692823
v -0.902735 0.201316 0.461889
v 0.903512 0.202289 -0.903504
v -0.978184 0.196124 -0.001301
v -0.978991 0.188415 -0.231467
v -0.976653 0.201161 0.461872
v -0.977034 0.201836 0.230466
v -0.976683 0.200904 0.902753
v -0.976682 0.200923 0.692805
v 0.461825 0.201889 0.983456
v 0.230892 0.201519 0.983150
v 0.903118 0.202073 0.983528
v 0.692759 0.201809 0.983367
v 0.980928 0.202570 -0.461916
v 0.980726 0.202446 -0.230837
v 0.980652 0.202451 -0.903430
v 0.980391 0.200433 -0.692786
v 0.980388 0.202197 0.461964
v 0.980158 0.202016 0.692897
v 0.980525 0.202308 0.000096
v 0.980373 0.202184 0.231030
v 0.000014 0.201441 -0.989537
v 0.230948 0.201693 -0.989637
v 0.462019 0.202168 -0.990146
v 0.692889 0.200222 -0.989967
v -0.903392 0.201904 -0.989652
v -0.692787 0.201587 -0.989576
v -0.461854 0.201755 -0.989742
v -0.230920 0.201531 -0.989583
v -0.902785 0.365594 0.902771
v -0.976703 0.209350 0.902752
v 0.902998 0.366388 0.692823
v 0.903124 0.366596 0.903182
v 0.461970 0.366715 -0.903394
v 0.692840 0.364768 -0.903215
v 0.692869 0.208667 -0.989968
v 0.462000 0.210614 -0.990147
v 0.461832 0.366412 0.903110
v 0.461806 0.210334 0.983454
v 0.903231 0.364805 -0.692860
v 0.903768 0.366942 -0.461990
v -0.230969 0.366077 -0.902831
v -0.000035 0.365987 -0.902785
v -0.905093 0.353104 -0.231450
v -0.904799 0.355579 -0.460874
v 0.903366 0.366681 0.000022
v 0.980507 0.210754 0.000095
v -0.230971 0.364924 0.903113
v -0.461905 0.365079 0.902973
v 0.903213 0.366556 0.230956
v 0.903228 0.366569 0.461889
v 0.230898 0.366239 -0.902885
v -0.903135 0.366525 0.230483
v -0.904286 0.360813 -0.001283
v 0.903492 0.366823 -0.903506
v 0.980371 0.208878 -0.692787
v 0.980633 0.210896 -0.903432
v 0.230898 0.366041 0.902805
v -0.000035 0.365381 0.902728
v -0.977053 0.210281 0.230465
v -0.692836 0.366133 -0.902824
v -0.692806 0.210032 -0.989577
v -0.979010 0.196860 -0.231468
v -0.978203 0.204569 -0.001302
v 0.903566 0.366818 -0.230912
v -0.461903 0.366301 -0.902990
v -0.461930 0.209001 0.983318
v -0.903381 0.362461 -0.691946
v -0.903441 0.366450 -0.902900
v 0.980706 0.210891 -0.230838
v 0.980909 0.211015 -0.461917
v -0.692837 0.365468 0.902778
v -0.902784 0.365612 0.692822
v -0.902755 0.365850 0.461888
v 0.980368 0.210642 0.461962
v 0.230928 0.210138 -0.989638
v -0.000005 0.209886 -0.989538
v 0.692765 0.366332 0.903022
v -0.692837 0.364713 0.692822
v 0.230898 0.371050 0.692823
v -0.000035 0.362327 0.692823
v 0.230898 0.380706 -0.230913
v -0.000035 0.376779 -0.230913
v -0.000035 0.368027 0.000021
v 0.230898 0.368863 0.000022
v -0.692836 0.376614 -0.230913
v -0.692836 0.377546 0.000021
v -0.230969 0.373895 -0.230913
v -0.461903 0.379159 -0.230913
v -0.461903 0.369757 0.000021
v -0.230969 0.366239 0.000021
v -0.230969 0.369420 -0.692780
v -0.461903 0.373837 -0.692780
v -0.461903 0.376739 -0.461846
v -0.230969 0.371896 -0.461846
v -0.692836 0.374359 -0.692780
v -0.692836 0.377076 -0.461846
v 0.692765 0.377087 -0.230912
v 0.461832 0.379288 -0.230912
v 0.461832 0.372877 0.000022
v 0.692765 0.378914 0.000022
v 0.692766 0.378729 -0.692780
v 0.461832 0.379913 -0.692780
v 0.461832 0.380498 -0.461846
v 0.692765 0.381786 -0.461845
v 0.230898 0.369496 -0.692780
v -0.000035 0.368627 -0.692780
v -0.000035 0.373027 -0.461846
v 0.230898 0.378051 -0.461846
v 0.692765 0.375943 0.692823
v 0.461832 0.374211 0.692823
v 0.692765 0.373217 0.230956
v 0.461832 0.373352 0.230956
v 0.461832 0.371017 0.461889
v 0.692765 0.376816 0.461889
v 0.230898 0.372712 0.230956
v -0.000035 0.370759 0.230956
v -0.000035 0.371315 0.461889
v 0.230898 0.376878 0.461889
v -0.230969 0.354702 0.692823
v -0.461903 0.358201 0.692822
v -0.230969 0.371612 0.230955
v -0.461903 0.372929 0.230955
v -0.461903 0.358942 0.461888
v -0.230969 0.365443 0.461888
v -0.692836 0.376349 0.230955
v -0.692836 0.364548 0.461888
v -0.976672 0.209606 0.461870
v -0.978716 0.199335 -0.460891
v -0.977298 0.206217 -0.691965
v -0.976701 0.209368 0.692804
v -0.000062 0.209303 0.983073
v -0.230996 0.208846 0.983457
v 0.230872 0.209964 0.983149
v -0.692862 0.209390 0.983122
v 0.903098 0.210518 0.983526
v 0.692740 0.210255 0.983366
v 0.980353 0.210629 0.231029
v 0.980139 0.210461 0.692896
v -0.461872 0.210201 -0.989743
v -0.230940 0.209976 -0.989584
v -0.903410 0.210349 -0.989653
vn 0.0000 -1.0000 -0.0000
vn 1.0000 0.0000 0.0000
vn -0.0000 -0.0000 1.0000
vn -1.0000 -0.0000 0.0000
vn 0.0000 0.0000 -1.0000
vn 0.0021 -0.9996 -0.0298
vn 0.0020 -1.0000 0.0001
vn -0.0017 -1.0000 0.0001
vn 0.0204 0.9998 -0.0003
vn 0.0206 0.9998 -0.0005
vn 0.0200 0.9998 0.0002
vn 0.0008 0.9998 -0.0189
vn 0.0005 0.9998 -0.0185
vn -0.0002 0.9998 -0.0177
vn 0.0004 1.0000 0.0096
vn -0.0053 1.0000 0.0053
vn 0.0007 1.0000 0.0088
vn -0.0396 0.9990 0.0192
vn 0.0236 0.9997 0.0003
vn 0.0223 0.9998 0.0003
vn 0.0238 0.9997 0.0003
vn -0.0002 0.9999 -0.0159
vn -0.0007 0.9998 -0.0197
vn -0.0003 0.9999 -0.0171
vn -0.0010 0.9999 0.0166
vn -0.0012 1.0000 0.0095
vn -0.0017 0.9999 0.0135
vn -0.0313 0.9992 -0.0267
vn -0.0360 0.9989 -0.0308
vn 0.0213 0.9998 0.0001
vn 0.0206 0.9998 0.0001
vn 0.0212 0.9998 0.0001
vn -0.0002 0.9998 -0.0175
vn 0.0004 0.9999 -0.0171
vn 0.0003 0.9999 -0.0166
vn 0.0004 0.9998 -0.0177
vn -0.0004 1.0000 0.0059
vn 0.0007 1.0000 0.0072
vn 0.0004 1.0000 0.0058
vn -0.0009 1.0000 0.0062
vn -0.0524 0.9986 0.0112
vn 0.0204 0.9998 -0.0088
vn 0.0205 0.9998 -0.0080
vn 0.0243 0.9997 -0.0006
vn 0.0075 0.9998 -0.0185
vn 0.0084 0.9998 -0.0191
vn -0.0002 0.9998 -0.0209
vn -0.0004 0.9998 0.0199
vn -0.0000 0.9998 0.0185
vn -0.0007 0.9998 0.0181
vn -0.0000 0.9998 0.0194
vn -0.0114 0.9999 0.0000
vn -0.0133 0.9999 0.0005
vn -0.0154 0.9999 0.0013
vn -0.0113 0.9999 0.0002
vn -0.0536 0.9981 0.0318
vn -0.0166 0.9999 0.0014
vn -0.0407 0.9986 -0.0349
vn 0.0311 0.9995 0.0089
vn -0.0090 0.9995 -0.0310
vn -0.0006 0.9998 0.0204
vn 0.0021 -0.9994 0.0335
vn 0.0021 -1.0000 -0.0029
vn 0.0021 -1.0000 -0.0001
vn 0.0016 -1.0000 0.0001
vn 0.0013 -1.0000 0.0001
vn 0.0021 -1.0000 -0.0005
vn 0.0021 -1.0000 -0.0096
vn 0.0021 -1.0000 -0.0008
vn 0.0011 -1.0000 0.0001
vn -0.0084 -1.0000 0.0001
vn -0.0015 -1.0000 0.0001
vn -0.0010 -1.0000 0.0001
vn -0.0002 0.0000 1.0000
vn -0.0001 0.0000 1.0000
vn -0.0003 0.0000 1.0000
vn 1.0000 0.0002 -0.0000
vn 1.0000 0.0001 -0.0006
vn 1.0000 -0.0001 0.0002
vn 0.0048 0.4858 -0.8741
vn 1.0000 0.0002 0.0005
vn 1.0000 0.0001 -0.0023
vn 0.0002 -0.0000 -1.0000
vn -1.0000 -0.0001 -0.0013
vn 0.0009 -0.0000 -1.0000
vn -0.0006 0.0000 1.0000
vn 1.0000 0.0002 0.0001
vn 1.0000 0.0001 -0.0001
vn -0.0022 -0.0000 -1.0000
vn -1.0000 -0.0001 0.0050
vn 0.8963 0.4434 0.0054
vn 0.0003 -0.0000 -1.0000
vn -0.9039 0.4276 -0.0112
vn 1.0000 0.0001 0.0009
vn -0.0007 -0.0000 -1.0000
vn -1.0000 -0.0002 0.0001
vn -1.0000 -0.0001 0.0003
vn -1.0000 -0.0001 0.0002
vn 0.8963 0.4434 0.0010
vn -0.0002 -0.0000 -1.0000
vn -0.0014 -0.0000 -1.0000
vn 0.0002 -0.0004 -1.0000
vn -1.0000 -0.0001 -0.0001
vn -0.0009 0.4858 -0.8741
vn 0.0004 0.0000 1.0000
vn 0.0038 1.0000 -0.0008
vn 0.0024 1.0000 -0.0018
vn -0.0203 0.9998 0.0047
vn -0.0080 0.9991 0.0420
vn -0.0102 0.9991 0.0400
vn -0.0945 0.9954 -0.0185
vn 0.0190 0.9991 0.0369
vn 0.0200 0.9997 -0.0116
vn 0.0210 0.9997 -0.0106
vn -0.0788 0.9969 0.0087
vn -0.0032 0.9999 0.0114
vn -0.0105 0.9999 0.0106
vn -0.0002 1.0000 -0.0079
vn -0.0128 0.9995 -0.0280
vn -0.0036 0.9991 0.0414
vn -0.0056 0.9993 0.0359
vn -0.0123 0.9999 -0.0027
vn -0.0143 0.9999 -0.0039
vn -0.0163 0.9998 -0.0102
vn 0.0079 0.9991 -0.0406
vn -0.0112 0.9990 0.0436
vn -0.0203 0.9994 0.0270
vn 0.0195 0.9983 0.0557
vn 0.0243 0.9997 -0.0043
vn -0.0628 0.9980 -0.0096
vn -0.0109 0.9999 0.0122
vn -0.0040 0.9999 -0.0159
vn 0.0042 0.9998 -0.0180
vn -0.0175 0.9993 -0.0316
vn -0.0300 0.9989 0.0373
vn -0.0292 0.9987 0.0427
vn -0.0300 0.9989 0.0374
vn -0.0065 0.9997 0.0249
vn 0.0113 0.9999 -0.0040
vn 0.0086 1.0000 0.0009
vn -0.0101 0.9999 -0.0094
vn -0.0081 0.9999 -0.0118
vn 0.0401 0.9992 -0.0078
vn 0.0436 0.9990 -0.0028
vn 0.0448 0.9989 0.0126
vn -0.0128 0.9999 0.0113
vn 0.0221 0.9995 0.0223
vn 0.0470 0.9989 0.0023
vn -0.0163 0.9999 -0.0050
vn -0.0236 0.9990 -0.0391
vn -0.0024 0.9999 -0.0140
vn -0.0003 0.9999 -0.0141
vn -0.0004 0.9999 -0.0144
vn 0.0681 0.9976 -0.0113
vn 0.0281 0.9992 -0.0283
vn 0.0068 0.9979 -0.0644
vn 0.0594 0.9982 0.0104
vn 0.0020 0.9999 0.0128
vn 0.0019 0.9999 -0.0122
vn -0.0015 1.0000 -0.0082
vn -0.0275 0.9996 -0.0101
vn 0.0006 0.9999 -0.0146
vn -0.0007 0.9999 -0.0149
vn 0.0019 0.9999 -0.0142
vn 0.0101 0.9996 -0.0259
vn -0.0101 0.9993 0.0355
vn -0.0140 0.9998 -0.0132
vn -0.0087 0.9999 -0.0124
vn 0.0114 0.9998 0.0183
vn -0.0048 1.0000 -0.0042
vn -0.1055 0.9944 0.0063
vn -0.0022 1.0000 -0.0031
vn -0.0194 0.9997 -0.0139
vn -0.0077 0.9995 0.0305
vn 0.0058 1.0000 0.0057
vn 0.0149 0.9997 -0.0182
vn 0.0262 0.9997 0.0012
vn -1.0000 -0.0022 0.0036
vn -1.0000 -0.0022 0.0016
vn -1.0000 -0.0022 -0.0062
vn -1.0000 -0.0023 -0.0000
vn -0.9039 0.4276 0.0027
vn -0.9039 0.4276 0.0000
vn -0.9039 0.4276 0.0072
vn 0.0017 0.0001 1.0000
vn -0.0013 0.0001 1.0000
vn -0.0008 0.0001 1.0000
vn -0.0008 0.0002 1.0000
vn -0.0019 0.4577 0.8891
vn -1.0000 -0.0002 -0.0005
vn -0.0012 0.4577 0.8891
vn 0.0000 0.4577 0.8891
vn 0.0006 0.4577 0.8891
vn 1.0000 0.0023 0.0007
vn 1.0000 0.0023 0.0009
vn 1.0000 0.0024 0.0010
vn 1.0000 0.0023 0.0013
vn -0.0009 0.0000 1.0000
vn 0.8963 0.4434 0.0012
vn 0.8963 0.4434 0.0008
vn 0.0008 -0.0001 -1.0000
vn 0.0007 -0.0001 -1.0000
vn -0.0004 -0.0001 -1.0000
vn 0.0004 -0.0001 -1.0000
vn -1.0000 -0.0002 -0.0002
vn 0.0010 0.4858 -0.8741
vn 0.0011 0.4858 -0.8741
vn 0.0105 0.9998 -0.0185
vn -0.0278 0.9994 -0.0198
vn 0.0533 0.9986 -0.0036
vn 0.0008 0.9993 -0.0375
vn 0.0219 0.9997 -0.0096
vn -0.0056 0.9992 0.0395
vn -0.0309 0.9990 0.0320
vn 0.0052 1.0000 0.0002
usemtl Material.001
s 1
f 1//1 2//1 3//1 4//1
f 1//2 5//2 6//2 7//2 8//2 9//2 10//2 11//2 12//2 13//2 2//2
f 2//3 13//3 14//3 15//3 16//3 17//3 18//3 19//3 20//3 21//3 3//3
f 3//4 21//4 22//4 23//4 24//4 25//4 26//4 27//4 28//4 29//4 4//4
f 5//5 1//5 4//5 29//5 30//5 31//5 32//5 33//5 34//5 35//5 36//5
f 37//6 38//6 39//6 40//6
f 41//7 42//7 43//7 44//7
f 45//8 46//8 47//8 48//8
f 49//9 50//10 13//10 12//11
f 51//12 52//13 30//14 29//12
f 45//15 53//16 21//16 20//17
f 37//18 51//18 29//18 28//18
f 54//19 55//20 9//20 8//21
f 56//22 57//23 34//24 33//22
f 58//25 42//26 17//26 16//27
f 59//28 60//29 25//29 24//28
f 61//30 62//31 11//31 10//32
f 63//33 64//34 32//35 31//36
f 41//37 46//38 19//39 18//40
f 65//41 38//41 27//41 26//41
f 66//42 67//43 7//44 6//42
f 68//45 69//46 36//46 35//47
f 70//48 71//49 15//50 14//51
f 72//52 73//53 23//54 22//55
f 62//31 49//9 12//11 11//31
f 52//13 63//33 31//36 30//14
f 46//38 45//15 20//17 19//39
f 38//56 37//56 28//56 27//56
f 67//43 54//19 8//21 7//44
f 57//23 68//45 35//47 34//24
f 71//49 58//25 16//27 15//50
f 73//53 59//57 24//57 23//54
f 55//20 61//30 10//32 9//20
f 64//34 56//22 33//22 32//35
f 42//26 41//37 18//40 17//26
f 60//29 65//58 26//58 25//29
f 74//59 66//59 6//59 5//59
f 69//60 74//60 5//60 36//60
f 50//61 70//48 14//51 13//61
f 53//16 72//52 22//55 21//16
f 65//62 60//62 75//62 76//62
f 59//63 73//63 77//63 78//63
f 72//64 53//64 79//64 80//64
f 58//65 71//65 81//65 82//65
f 70//66 50//66 83//66 84//66
f 54//67 67//67 85//67 86//67
f 66//68 74//68 87//68 88//68
f 49//69 62//69 89//69 90//69
f 61//67 55//67 91//67 92//67
f 57//70 56//70 93//70 94//70
f 69//71 68//71 95//71 96//71
f 52//72 51//72 97//72 98//72
f 64//73 63//73 99//73 100//73
usemtl Material.002
f 53//74 101//75 102//76 79//76
f 50//77 49//78 103//78 104//79
f 105//80 106//80 107//80 108//80
f 71//81 109//81 110//81 81//81
f 67//82 66//82 111//82 112//82
f 56//83 64//83 113//83 114//83
f 38//84 65//84 115//84 116//84
f 55//85 117//85 118//85 91//85
f 46//86 41//86 119//86 120//86
f 106//87 69//87 96//87 107//87
f 62//88 61//88 121//88 122//88
f 68//89 57//89 123//89 105//89
f 60//90 59//90 124//90 125//90
f 126//91 111//91 127//91 128//91
f 42//76 58//76 129//76 130//76
f 124//92 59//92 78//92 131//92
f 132//87 52//87 98//87 133//87
f 125//93 115//93 134//93 135//93
f 55//94 54//94 136//94 117//94
f 63//95 52//95 132//95 137//95
f 46//81 120//81 138//81 47//81
f 51//96 37//97 139//97 140//98
f 112//99 136//99 141//99 142//99
f 74//100 69//101 106//101 126//102
f 53//74 45//3 143//3 101//75
f 73//103 72//103 144//103 145//103
f 62//85 122//85 146//85 89//85
f 114//104 123//104 147//104 148//104
f 71//105 70//105 149//105 109//105
f 150//106 144//106 101//107 143//107
f 151//108 152//108 130//108 129//108
f 153//109 154//110 155//110 156//109
f 157//111 115//111 125//111 158//111
f 159//112 160//112 161//112 162//112
f 163//113 164//113 165//114 166//114
f 167//115 139//115 116//115 168//115
f 169//116 170//116 171//117 172//117
f 173//118 174//118 175//118 176//118
f 177//119 178//119 179//119 180//119
f 181//120 182//121 109//121 149//120
f 183//122 184//122 185//123 186//123
f 187//124 188//124 189//124 190//124
f 191//125 192//125 120//125 119//125
f 193//126 194//126 195//126 196//126
f 197//127 124//127 145//127 198//127
f 194//128 197//128 198//128 195//128
f 161//129 158//129 197//129 194//129
f 158//130 125//130 124//130 197//130
f 188//131 193//131 196//131 189//131
f 155//132 162//133 193//133 188//132
f 152//134 191//134 119//134 130//134
f 189//135 196//136 191//136 152//137
f 196//138 195//138 192//138 191//138
f 184//139 187//139 190//140 185//140
f 171//141 156//142 187//142 184//141
f 156//142 155//132 188//132 187//142
f 121//143 183//143 186//144 122//144
f 117//145 172//145 183//145 121//145
f 172//117 171//117 184//146 183//146
f 103//147 181//147 149//147 104//147
f 122//144 186//144 181//148 103//148
f 186//123 185//123 182//149 181//149
f 105//150 123//150 177//150 174//150
f 123//151 114//152 178//153 177//151
f 111//154 173//154 176//154 112//154
f 126//155 106//155 173//155 111//155
f 106//156 105//156 174//156 173//156
f 112//157 176//157 169//157 136//157
f 176//158 175//158 170//116 169//116
f 164//159 167//159 168//160 165//160
f 132//161 140//161 139//161 167//161
f 178//153 163//162 166//163 179//163
f 114//152 113//164 163//162 178//153
f 113//165 137//165 164//165 163//165
f 154//110 159//166 162//166 155//110
f 179//167 166//168 159//168 154//167
f 160//169 157//169 158//169 161//169
f 165//160 168//160 157//170 160//170
f 168//171 116//171 115//171 157//171
f 175//172 180//172 153//172 170//172
f 180//173 179//167 154//167 153//173
f 182//121 151//174 129//174 109//121
f 185//140 190//140 151//175 182//175
f 192//176 150//176 143//176 120//176
f 195//177 198//177 150//177 192//177
f 76//178 75//178 135//178 134//178
f 78//179 77//179 199//179 131//179
f 40//180 39//180 200//180 201//180
f 80//181 79//181 102//181 202//181
f 115//92 65//92 76//92 134//92
f 145//182 124//182 131//182 199//182
f 73//76 145//76 199//76 77//76
f 101//183 144//183 202//183 102//183
f 38//76 116//76 200//76 39//76
f 144//92 72//92 80//92 202//92
f 139//92 37//92 40//92 201//92
f 60//76 125//76 135//76 75//76
f 116//184 139//184 201//184 200//184
f 44//185 43//185 203//185 204//185
f 82//186 81//186 110//186 205//186
f 48//187 47//187 138//187 206//187
f 84//188 83//188 207//188 208//188
f 109//189 129//189 205//189 110//189
f 42//81 130//81 203//81 43//81
f 143//190 45//190 48//190 206//190
f 119//190 41//190 44//190 204//190
f 104//191 149//191 208//191 207//191
f 149//190 70//190 84//190 208//190
f 129//190 58//190 82//190 205//190
f 50//77 104//79 207//81 83//81
f 120//192 143//192 206//192 138//192
f 130//193 119//193 204//193 203//193
f 92//194 91//194 118//194 209//194
f 86//195 85//195 142//195 141//195
f 90//196 89//196 146//196 210//196
f 88//197 87//197 128//197 127//197
f 67//85 112//85 142//85 85//85
f 136//198 54//198 86//198 141//198
f 122//199 103//199 210//199 146//199
f 117//200 121//200 209//200 118//200
f 121//198 61//198 92//198 209//198
f 111//198 66//198 88//198 127//198
f 103//198 49//198 90//198 210//198
f 74//100 126//102 128//85 87//85
f 96//201 95//201 108//201 107//201
f 100//202 99//202 211//202 212//202
f 94//203 93//203 148//203 147//203
f 98//204 97//204 213//204 133//204
f 51//96 140//98 213//205 97//205
f 63//205 137//205 211//205 99//205
f 140//206 132//206 133//206 213//206
f 113//87 64//87 100//87 212//87
f 137//207 113//207 212//207 211//207
f 123//87 57//87 94//87 147//87
f 68//205 105//205 108//205 95//205
f 56//205 114//205 148//205 93//205
usemtl Material.003
f 162//133 161//208 194//208 193//133
f 174//209 177//209 180//209 175//209
f 136//210 169//210 172//210 117//210
f 137//211 132//211 167//211 164//211
f 166//114 165//114 160//212 159//212
f 170//213 153//109 156//109 171//213
f 190//214 189//135 152//137 151//214
f 198//215 145//215 144//106 150//106
