# Blender v3.0.0 OBJ File: 'spongetest1.blend'
# www.blender.org
mtllib spongetile.mtl
o Cube.001
v 1.000000 -0.200000 -1.000000
v 1.000000 -0.200000 1.000000
v -1.000000 -0.200000 1.000000
v -1.000000 -0.200000 -1.000000
v 1.000000 0.200000 -0.999999
v 1.000000 0.200000 -0.749999
v 1.000000 0.200000 -0.499999
v 1.000000 0.200000 -0.249999
v 1.000000 0.200000 0.000001
v 1.000000 0.200000 0.250001
v 1.000000 0.200000 0.500001
v 1.000000 0.200000 0.750001
v 0.999999 0.200000 1.000001
v 0.749999 0.200000 1.000000
v 0.499999 0.200000 1.000000
v 0.249999 0.200000 1.000000
v -0.000001 0.200000 1.000000
v -0.250001 0.200000 1.000000
v -0.500000 0.200000 1.000000
v -0.750000 0.200000 1.000000
v -1.000000 0.200000 1.000000
v -1.000000 0.200000 0.750000
v -1.000000 0.200000 0.500000
v -1.000000 0.200000 0.250000
v -1.000000 0.200000 0.000000
v -1.000000 0.200000 -0.250000
v -1.000000 0.200000 -0.500000
v -1.000000 0.200000 -0.750000
v -1.000000 0.200000 -1.000000
v -0.750000 0.200000 -1.000000
v -0.500000 0.200000 -1.000000
v -0.250000 0.200000 -1.000000
v 0.000000 0.200000 -1.000000
v 0.250000 0.200000 -1.000000
v 0.500000 0.200000 -1.000000
v 0.750000 0.200000 -1.000000
v 0.868865 0.226229 0.665088
v 0.869254 0.226770 0.782954
v -0.867123 0.226899 -0.917308
v -0.735273 0.226910 -0.917307
v -0.700407 0.224227 0.834876
v -0.843337 0.223940 0.819833
v 0.812794 0.223843 -0.299378
v 0.812918 0.223579 -0.054390
v -0.888504 0.196235 0.176646
v -0.888519 0.196450 -0.068353
v 0.846679 0.226336 0.190598
v 0.872510 0.228174 0.440291
v -0.490337 0.228798 -0.878395
v -0.245349 0.253440 -0.830441
v -0.882130 0.204126 -0.309155
v -0.870652 0.217536 -0.546640
v 0.860282 0.271127 -0.720514
v 0.839709 0.240552 -0.536518
v 0.734602 0.226229 0.803914
v 0.489613 0.228242 0.870184
v -0.850727 0.219373 0.680643
v -0.880982 0.203413 0.426407
v -0.452357 0.224757 0.857772
v -0.867123 0.226899 -0.785457
v 0.244626 0.276701 -0.886562
v 0.485905 0.293756 -0.884672
v 0.249994 0.226705 0.895381
v 0.025100 0.225401 0.896019
v -0.207522 0.226687 0.872320
v 0.858779 0.278926 -0.835955
v 0.726542 0.291401 -0.836012
v -0.878672 0.320226 -0.809177
v -0.901282 0.312227 -0.568496
v -0.846569 0.393327 -0.548381
v -0.810609 0.399541 -0.774732
v 0.255962 0.380663 -0.930368
v -0.000366 0.367809 -0.878958
v -0.000323 0.420531 -0.870896
v 0.244665 0.427938 -0.904811
v -0.841850 0.301314 0.649576
v -0.835411 0.306375 0.794380
v -0.758888 0.387519 0.705494
v -0.766355 0.384917 0.566869
v -0.499922 0.324691 -0.905986
v -0.740698 0.320210 -0.946742
v -0.678758 0.399547 -0.906583
v -0.464190 0.399532 -0.878463
v 0.768615 0.311795 0.809879
v 0.909501 0.312361 0.783131
v 0.869293 0.395619 0.746282
v 0.734640 0.395334 0.771738
v -0.878901 0.320207 -0.946951
v -0.810609 0.399541 -0.906583
v 0.898914 0.363880 -0.876043
v 0.760556 0.384174 -0.876103
v 0.729520 0.427659 -0.867172
v 0.861888 0.417433 -0.868492
v -0.683289 0.306805 0.813173
v -0.613142 0.388838 0.723146
v -0.904673 0.281272 0.422335
v -0.847978 0.375332 0.377785
v 0.900545 0.358883 -0.755874
v 0.863300 0.416591 -0.752082
v 0.512288 0.313901 0.903802
v 0.489653 0.396396 0.859512
v -0.925543 0.285595 -0.322595
v -0.934013 0.275450 -0.071815
v -0.893850 0.376340 -0.071789
v -0.885999 0.381233 -0.311634
v 0.909094 0.311795 0.662215
v 0.868905 0.395334 0.629877
v 0.508879 0.392289 -0.928049
v 0.488252 0.429690 -0.909115
v -0.208745 0.316882 0.930084
v 0.032357 0.313944 0.958816
v 0.033508 0.398625 0.921742
v -0.197363 0.400965 0.893526
v 0.869686 0.333013 -0.561221
v 0.826846 0.410244 -0.543902
v -0.256693 0.345434 -0.870613
v -0.245310 0.409981 -0.864004
v 0.872074 0.311907 0.201987
v 0.819438 0.310387 -0.054340
v 0.779338 0.397458 -0.054314
v 0.828694 0.395390 0.190674
v -0.441373 0.311552 0.875781
v -0.405785 0.394371 0.817059
v 0.263367 0.312295 0.956685
v 0.253926 0.395992 0.918702
v 0.912908 0.313830 0.462841
v 0.872549 0.396360 0.440940
v 0.819345 0.322862 -0.310667
v 0.779251 0.408270 -0.299301
v 0.258605 0.402943 0.792896
v 0.030995 0.403496 0.800688
v 0.274265 0.446080 -0.328925
v -0.000381 0.428141 -0.328925
v -0.000381 0.417155 -0.054279
v 0.274265 0.418896 -0.054279
v -0.770389 0.384735 -0.316494
v -0.777953 0.381577 -0.070476
v -0.275163 0.410470 -0.329014
v -0.553480 0.399831 -0.332168
v -0.559171 0.400635 -0.063668
v -0.276241 0.417104 -0.055073
v -0.251479 0.411742 -0.764925
v -0.477105 0.399937 -0.776376
v -0.527624 0.404781 -0.596656
v -0.272727 0.415486 -0.595878
v -0.696705 0.401761 -0.792659
v -0.732736 0.396061 -0.557999
v 0.748788 0.432107 -0.766303
v 0.501125 0.442376 -0.797752
v 0.543579 0.452496 -0.598831
v 0.722514 0.426250 -0.555516
v 0.251333 0.443741 -0.796268
v -0.000336 0.434166 -0.770906
v -0.000378 0.446528 -0.598450
v 0.272312 0.459144 -0.599660
v 0.753196 0.401451 0.666888
v 0.502702 0.405449 0.735422
v 0.274264 0.409537 0.223213
v 0.000100 0.415586 0.221184
v 0.016806 0.416053 0.544967
v 0.273524 0.414445 0.538603
v -0.207029 0.406998 0.772421
v -0.423011 0.396740 0.699713
v -0.274081 0.420787 0.221401
v -0.557527 0.400025 0.209789
v -0.500801 0.398761 0.474620
v -0.247153 0.419925 0.524101
v -0.777949 0.380184 0.180492
v -0.893852 0.376117 0.173199
v -0.723922 0.379515 0.396794
v 0.542549 0.411443 0.221437
v 0.544792 0.418501 0.529851
v 0.524616 0.417653 -0.054282
v 0.721495 0.401457 0.196913
v 0.754192 0.405445 0.465888
v 0.678296 0.404189 -0.054307
v 0.678338 0.422352 -0.305305
v 0.525039 0.442659 -0.326531
v -0.639108 0.389800 0.600941
v -0.934015 0.275223 0.184512
v -0.000361 0.269095 -0.838418
vn 0.0000 -1.0000 -0.0000
vn 1.0000 0.0000 0.0000
vn -0.0000 -0.0000 1.0000
vn -1.0000 -0.0000 0.0000
vn 0.0000 0.0000 -1.0000
vn 0.2014 0.9795 -0.0003
vn 0.2002 0.9798 -0.0017
vn 0.2016 0.9795 0.0042
vn -0.0000 0.9509 -0.3094
vn 0.0073 0.9582 -0.2860
vn 0.0103 0.9576 -0.2878
vn -0.0059 0.9909 0.1347
vn 0.1256 0.9921 0.0005
vn 0.0331 0.9995 0.0004
vn 0.1962 0.9805 -0.0137
vn -0.0217 0.9624 -0.2708
vn -0.0764 0.9968 0.0256
vn 0.3460 0.9346 0.0822
vn 0.0258 0.9863 0.1628
vn -0.0981 0.9948 -0.0256
vn 0.2029 0.9792 0.0056
vn 0.0172 0.9641 -0.2649
vn -0.0082 0.9879 0.1549
vn -0.1616 0.9867 0.0177
vn 0.1717 0.9842 0.0432
vn -0.0255 0.8006 -0.5987
vn 0.0087 0.9737 0.2278
vn 0.0072 0.9729 0.2310
vn -0.0012 0.9712 0.2382
vn -0.0076 0.9999 -0.0142
vn -0.0081 0.9761 0.2171
vn 0.0062 0.9999 0.0157
vn 0.4800 0.8771 0.0167
vn 0.0292 0.8930 -0.4490
vn 0.0054 0.9921 0.1253
vn -0.1472 0.9891 -0.0088
vn -0.7785 0.6226 -0.0787
vn -0.1719 0.2965 -0.9394
vn -0.7259 0.6876 0.0170
vn 0.1384 0.3233 -0.9361
vn 0.1635 0.4641 0.8706
vn -0.7585 0.6516 0.0006
vn 0.0155 0.1780 -0.9839
vn -0.0821 0.7689 0.6340
vn -0.7124 0.6728 0.1993
vn 0.8319 0.5550 0.0030
vn 0.0007 0.4521 -0.8920
vn 0.2971 0.5040 0.8110
vn -0.9261 0.3767 -0.0193
vn 0.9015 0.4327 -0.0046
vn 0.1781 0.4203 -0.8897
vn -0.1051 0.4042 0.9086
vn 0.8578 0.4807 0.1818
vn -0.0385 0.1277 -0.9911
vn -0.8741 0.4797 -0.0769
vn 0.8881 0.4228 -0.1802
vn -0.2538 0.5324 0.8075
vn 0.1976 0.4653 0.8628
vn 0.8945 0.4210 -0.1506
vn 0.8882 0.4201 0.1860
vn 0.0143 0.4077 0.9130
vn 0.0092 0.9988 0.0489
vn 0.0102 0.9986 0.0511
vn 0.0063 0.9991 0.0430
vn 0.0083 0.9988 0.0479
vn -0.0357 0.9970 0.0693
vn -0.0375 0.9992 0.0154
vn -0.0479 0.9987 -0.0143
vn -0.0459 0.9984 -0.0340
vn -0.0190 0.9996 0.0229
vn 0.0877 0.9961 -0.0138
vn -0.0458 0.9963 -0.0724
vn 0.0324 0.9970 0.0705
vn 0.0143 0.9999 -0.0088
vn -0.0541 0.9977 0.0413
vn -0.0796 0.9967 0.0155
vn -0.0357 0.9993 0.0119
vn -0.0886 0.9961 0.0041
vn -0.0402 0.9992 0.0033
vn 0.0169 0.9999 -0.0005
vn 0.0094 0.9999 -0.0039
vn 0.0059 0.9991 0.0423
vn 0.0071 0.9990 0.0446
vn 0.0037 0.9989 0.0461
vn 0.0098 0.9987 0.0494
vn -0.0800 0.9955 0.0513
vn -0.0114 0.9998 -0.0191
vn -0.0012 0.9996 0.0282
vn 0.0644 0.9977 -0.0190
vn 0.0613 0.9981 -0.0018
vn 0.0710 0.9974 0.0087
vn 0.0305 0.9991 0.0288
vn 0.0684 0.9976 0.0137
vn 0.0506 0.9976 0.0472
vn 0.0153 0.9976 -0.0668
vn -0.0023 0.9917 -0.1283
vn -0.0503 0.9891 -0.1380
vn 0.1367 0.9894 0.0493
vn 0.1050 0.9941 -0.0265
vn 0.0380 0.9956 -0.0861
vn 0.1006 0.9932 0.0580
vn 0.1417 0.9892 0.0380
vn 0.1307 0.9905 0.0417
vn -0.0163 0.9999 -0.0013
vn 0.0054 0.9999 -0.0114
vn -0.0098 0.9999 -0.0097
vn -0.1023 0.9933 -0.0532
vn -0.0682 0.9945 -0.0790
vn -0.0491 0.9987 -0.0154
vn -0.0322 0.9995 0.0079
vn -0.0884 0.9952 0.0430
vn -0.0781 0.9969 0.0025
vn -0.0531 0.9983 0.0255
vn -0.0243 0.9987 0.0450
vn 0.0088 0.9954 0.0950
vn 0.0190 0.9989 0.0427
vn -0.0555 0.9968 0.0582
vn 0.0097 0.9979 0.0646
vn -0.0060 0.9986 0.0526
vn 0.0058 0.9989 0.0471
vn -0.0389 0.9990 0.0209
vn -0.0611 0.9981 0.0039
vn -0.0279 0.9989 -0.0387
vn 0.9765 -0.1588 0.1459
vn -0.8665 -0.4991 -0.0004
vn 0.0310 -0.3997 -0.9161
vn 0.9345 -0.3354 -0.1195
vn 0.1396 -0.5024 0.8533
vn 0.1880 -0.3146 -0.9304
vn -0.9113 -0.4040 0.0799
vn -0.1260 -0.3845 0.9145
vn 0.9716 -0.1689 -0.1660
vn -0.0004 -0.3898 -0.9209
vn 0.9374 -0.3398 0.0767
vn -0.0964 -0.5543 0.8267
vn 0.9050 -0.4255 -0.0010
vn -0.8719 -0.4877 -0.0440
vn 0.2876 -0.3051 0.9079
vn 0.0008 -0.3018 -0.9534
vn 0.9000 -0.4345 -0.0356
vn -0.9800 -0.0484 0.1931
vn -0.1098 0.2885 0.9512
vn -0.0473 -0.3943 -0.9178
vn 0.9041 -0.4271 0.0119
vn -0.9923 -0.1238 0.0008
vn 0.1700 -0.1089 0.9794
vn 0.1592 -0.2733 -0.9487
vn 0.9975 -0.0703 -0.0022
vn -0.9922 0.1167 0.0444
vn -0.1722 0.0500 0.9838
vn -0.1663 -0.3709 -0.9136
vn -0.9706 -0.2326 -0.0613
vn -0.2395 0.7306 0.6394
vn 0.9071 0.4205 0.0192
vn 0.8969 0.4418 0.0207
vn -0.8696 0.4728 0.1422
vn 0.0910 0.2077 -0.9739
vn -0.0160 0.4604 -0.8876
vn -0.9291 0.3699 0.0003
vn -0.0221 0.9998 -0.0035
vn 0.0541 0.9983 -0.0224
vn -0.0654 0.9978 -0.0051
vn 0.0078 0.9998 0.0198
vn -0.0401 0.9991 0.0166
vn 0.0045 -0.5807 0.8141
vn -0.9098 -0.4026 -0.1006
vn 0.1712 -0.4364 -0.8833
vn 0.1034 0.9913 0.0819
vn -0.0939 0.9953 0.0256
vn -0.1984 0.9801 0.0000
vn -0.0591 0.8815 -0.4685
vn -0.0023 0.9703 0.2421
vn -0.0093 0.9828 0.1842
vn 0.0582 0.8357 -0.5461
vn 0.1502 0.9885 -0.0158
vn -0.0352 0.9374 -0.3464
usemtl Material.001
s 1
f 1//1 2//1 3//1 4//1
f 1//2 5//2 6//2 7//2 8//2 9//2 10//2 11//2 12//2 13//2 2//2
f 2//3 13//3 14//3 15//3 16//3 17//3 18//3 19//3 20//3 21//3 3//3
f 3//4 21//4 22//4 23//4 24//4 25//4 26//4 27//4 28//4 29//4 4//4
f 5//5 1//5 4//5 29//5 30//5 31//5 32//5 33//5 34//5 35//5 36//5
f 37//6 38//7 13//7 12//8
f 39//9 40//10 30//11 29//9
f 41//12 42//12 21//12 20//12
f 43//13 44//13 9//13 8//13
f 45//14 46//14 25//14 24//14
f 47//15 48//15 11//15 10//15
f 49//16 50//16 32//16 31//16
f 51//17 52//17 27//17 26//17
f 53//18 54//18 7//18 6//18
f 55//19 56//19 15//19 14//19
f 57//20 58//20 23//20 22//20
f 48//21 37//6 12//8 11//21
f 40//10 49//22 31//22 30//11
f 59//23 41//23 20//23 19//23
f 52//24 60//24 28//24 27//24
f 54//25 43//25 8//25 7//25
f 61//26 62//26 35//26 34//26
f 56//27 63//28 16//29 15//27
f 58//30 45//30 24//30 23//30
f 64//31 65//31 18//31 17//31
f 46//32 51//32 26//32 25//32
f 66//33 53//33 6//33 5//33
f 67//34 66//34 5//34 36//34
f 38//35 55//35 14//35 13//35
f 42//36 57//36 22//36 21//36
usemtl Material.002
f 68//37 69//37 70//37 71//37
f 72//38 73//38 74//38 75//38
f 76//39 77//39 78//39 79//39
f 80//40 81//40 82//40 83//40
f 84//41 85//41 86//41 87//41
f 88//42 68//42 71//42 89//42
f 90//43 91//43 92//43 93//43
f 77//44 94//44 95//44 78//44
f 96//45 76//45 79//45 97//45
f 98//46 90//46 93//46 99//46
f 81//47 88//47 89//47 82//47
f 100//48 84//48 87//48 101//48
f 102//49 103//49 104//49 105//49
f 85//50 106//50 107//50 86//50
f 91//51 108//51 109//51 92//51
f 110//52 111//52 112//52 113//52
f 114//53 98//53 99//53 115//53
f 73//54 116//54 117//54 74//54
f 69//55 102//55 105//55 70//55
f 118//56 119//56 120//56 121//56
f 122//57 110//57 113//57 123//57
f 124//58 100//58 101//58 125//58
f 126//59 118//59 121//59 127//59
f 128//60 114//60 115//60 129//60
f 111//61 124//61 125//61 112//61
f 130//62 131//63 112//64 125//65
f 132//66 133//66 134//66 135//66
f 136//67 105//67 104//67 137//67
f 138//68 139//68 140//68 141//68
f 142//69 143//69 144//69 145//69
f 146//70 71//70 70//70 147//70
f 148//71 149//71 150//71 151//71
f 152//72 153//72 154//72 155//72
f 156//73 157//73 101//73 87//73
f 158//74 159//74 160//74 161//74
f 162//75 163//75 123//75 113//75
f 164//76 165//76 166//76 167//76
f 168//77 169//77 97//77 170//77
f 140//78 137//78 168//78 165//78
f 137//79 104//79 169//79 168//79
f 159//80 164//80 167//80 160//80
f 134//81 141//81 164//81 159//81
f 131//63 162//82 113//83 112//64
f 160//84 167//85 162//82 131//63
f 167//86 166//86 163//86 162//86
f 171//87 158//87 161//87 172//87
f 173//88 135//88 158//88 171//88
f 121//89 174//89 175//89 127//89
f 120//90 176//90 174//90 121//90
f 176//91 173//91 171//91 174//91
f 107//92 156//92 87//92 86//92
f 127//93 175//93 156//93 107//93
f 175//94 172//94 157//94 156//94
f 149//95 152//95 155//95 150//95
f 109//96 75//96 152//96 149//96
f 75//97 74//97 153//97 152//97
f 99//98 148//98 151//98 115//98
f 93//99 92//99 148//99 99//99
f 92//100 109//100 149//100 148//100
f 129//101 177//101 176//101 120//101
f 115//102 151//102 177//102 129//102
f 151//103 150//103 178//103 177//103
f 143//104 146//104 147//104 144//104
f 83//105 82//105 146//105 143//105
f 82//106 89//106 71//106 146//106
f 153//107 142//107 145//107 154//107
f 74//108 117//108 142//108 153//108
f 117//109 83//109 143//109 142//109
f 133//110 138//110 141//110 134//110
f 154//111 145//111 138//111 133//111
f 139//112 136//112 137//112 140//112
f 144//113 147//113 136//113 139//113
f 147//114 70//114 105//114 136//114
f 178//115 132//115 135//115 173//115
f 150//116 155//116 132//116 178//116
f 155//117 154//117 133//117 132//117
f 157//118 130//118 125//118 101//118
f 172//119 161//119 130//119 157//119
f 161//120 160//84 131//63 130//62
f 163//121 179//121 95//121 123//121
f 166//122 170//122 179//122 163//122
f 170//123 97//123 79//123 179//123
f 43//124 54//124 114//124 128//124
f 46//125 45//125 180//125 103//125
f 62//126 61//126 72//126 108//126
f 48//127 47//127 118//127 126//127
f 63//128 56//128 100//128 124//128
f 50//129 49//129 80//129 116//129
f 45//130 58//130 96//130 180//130
f 59//131 65//131 110//131 122//131
f 47//132 44//132 119//132 118//132
f 181//133 50//133 116//133 73//133
f 54//134 53//134 98//134 114//134
f 65//135 64//135 111//135 110//135
f 38//136 37//136 106//136 85//136
f 51//137 46//137 103//137 102//137
f 56//138 55//138 84//138 100//138
f 40//139 39//139 88//139 81//139
f 53//140 66//140 90//140 98//140
f 58//141 57//141 76//141 96//141
f 42//142 41//142 94//142 77//142
f 66//143 67//143 91//143 90//143
f 37//144 48//144 126//144 106//144
f 39//145 60//145 68//145 88//145
f 55//146 38//146 85//146 84//146
f 49//147 40//147 81//147 80//147
f 44//148 43//148 128//148 119//148
f 57//149 42//149 77//149 76//149
f 41//150 59//150 122//150 94//150
f 61//151 181//151 73//151 72//151
f 60//152 52//152 69//152 68//152
usemtl Material.003
f 94//153 122//153 123//153 95//153
f 119//154 128//154 129//154 120//154
f 106//155 126//155 127//155 107//155
f 180//156 96//156 97//156 169//156
f 116//157 80//157 83//157 117//157
f 108//158 72//158 75//158 109//158
f 103//159 180//159 169//159 104//159
f 179//160 79//160 78//160 95//160
f 174//161 171//161 172//161 175//161
f 141//162 140//162 165//162 164//162
f 135//163 134//163 159//163 158//163
f 145//164 144//164 139//164 138//164
f 64//165 63//165 124//165 111//165
f 52//166 51//166 102//166 69//166
f 67//167 62//167 108//167 91//167
usemtl Material.004
f 177//168 178//168 173//168 176//168
f 165//169 168//169 170//169 166//169
usemtl Material.005
f 60//170 39//170 29//170 28//170
f 181//171 61//171 34//171 33//171
f 63//28 64//172 17//172 16//29
f 65//173 59//173 19//173 18//173
f 62//174 67//174 36//174 35//174
f 44//175 47//175 10//175 9//175
f 50//176 181//176 33//176 32//176
