# Blender v2.79 (sub 0) OBJ File: 'tile2.blend'
# www.blender.org
mtllib tile2.mtl
o Cube
v 1.000000 -0.200000 -1.000000
v 1.000000 -0.200000 1.000000
v -1.000000 -0.200000 1.000000
v -1.000000 -0.200000 -1.000000
v 1.000000 0.200000 -0.999999
v 0.999999 0.200000 1.000001
v -1.000000 0.200000 1.000000
v -1.000000 0.200000 -1.000000
v 1.000000 0.200000 0.000001
v 0.000000 0.200000 -1.000000
v -0.000001 0.200000 1.000000
v -1.000000 0.200000 -0.000000
v -0.000000 0.252621 0.000000
v 1.000000 0.200000 0.500001
v -0.500000 0.200000 -1.000000
v -0.500000 0.200000 1.000000
v -1.000000 0.200000 -0.500000
v 1.000000 0.200000 -0.499999
v 0.500000 0.200000 -1.000000
v 0.499999 0.200000 1.000000
v -1.000000 0.200000 0.500000
v -0.000000 0.240351 0.500000
v 0.000000 0.236173 -0.500000
v 0.500000 0.232395 0.000000
v -0.500000 0.245070 0.000000
v -0.500000 0.236526 -0.500000
v 0.500000 0.217023 -0.500000
v 0.500000 0.248391 0.500000
v -0.500000 0.215371 0.500000
v 1.000000 0.200000 0.750001
v -0.750000 0.200000 -1.000000
v -0.750000 0.200000 1.000000
v -1.000000 0.200000 -0.750000
v 1.000000 0.200000 -0.249999
v 0.250000 0.200000 -1.000000
v 0.249999 0.200000 1.000000
v -1.000000 0.200000 0.250000
v -0.000000 0.232859 0.750000
v -0.000000 0.250281 -0.250000
v 0.750000 0.216940 0.000000
v -0.250000 0.253492 0.000000
v 1.000000 0.200000 0.250001
v -0.250000 0.200000 -1.000000
v -0.250001 0.200000 1.000000
v -1.000000 0.200000 -0.250000
v 1.000000 0.200000 -0.749999
v 0.750000 0.200000 -1.000000
v 0.749999 0.200000 1.000000
v -1.000000 0.200000 0.750000
v -0.000000 0.248892 0.250000
v 0.000000 0.217650 -0.750000
v 0.250000 0.244683 0.000000
v -0.750000 0.230698 -0.000000
v -0.500000 0.247663 -0.250000
v -0.500000 0.220371 -0.750000
v -0.250000 0.240164 -0.500000
v -0.750000 0.228171 -0.500000
v 0.500000 0.224049 -0.250000
v 0.500000 0.209466 -0.750000
v 0.750000 0.209466 -0.500000
v 0.250000 0.226424 -0.500000
v 0.500000 0.248024 0.750000
v 0.500000 0.242323 0.250000
v 0.750000 0.234136 0.500000
v 0.250000 0.250432 0.500000
v -0.500000 0.204649 0.750000
v -0.500000 0.231513 0.250000
v -0.250000 0.225909 0.500000
v -0.750000 0.207022 0.500000
v -0.750000 0.219766 0.250000
v -0.250000 0.240988 0.250000
v -0.250000 0.215988 0.750000
v 0.250000 0.249237 0.250000
v 0.750000 0.226153 0.250000
v 0.750000 0.237256 0.750000
v 0.250000 0.212569 -0.750000
v 0.750000 0.204759 -0.750000
v 0.750000 0.212117 -0.250000
v -0.750000 0.216265 -0.750000
v -0.250000 0.221028 -0.750000
v -0.250000 0.253951 -0.250000
v -0.750000 0.233927 -0.250000
v 0.250000 0.238370 -0.250000
v 0.250000 0.245801 0.750000
v -0.750000 0.200625 0.750000
vn 0.0000 -1.0000 0.0000
vn -0.0012 1.0000 0.0012
vn 1.0000 0.0000 0.0000
vn -0.0000 -0.0000 1.0000
vn -1.0000 -0.0000 -0.0000
vn 0.0000 0.0000 -1.0000
vn -0.0256 0.9875 0.1554
vn 0.0397 0.9991 -0.0173
vn -0.1282 0.9917 0.0064
vn -0.0294 0.9995 0.0061
vn -0.0086 0.9975 -0.0704
vn -0.0885 0.9958 -0.0237
vn 0.0547 0.9982 -0.0263
vn 0.0245 0.9994 -0.0245
vn 0.0296 0.9975 -0.0646
vn 0.0212 0.9855 0.1681
vn 0.0607 0.9978 -0.0280
vn -0.0208 0.9997 0.0147
vn -0.0227 0.9989 0.0412
vn -0.0399 0.9973 0.0623
vn -0.0535 0.9982 0.0254
vn -0.0401 0.9975 0.0576
vn -0.0521 0.9974 0.0489
vn -0.1004 0.9947 0.0217
vn -0.0446 0.9979 0.0471
vn -0.0141 0.9994 0.0324
vn -0.0357 0.9980 0.0520
vn -0.0336 0.9947 0.0972
vn -0.0625 0.9974 0.0347
vn -0.0437 0.9982 0.0412
vn 0.0179 0.9997 -0.0145
vn 0.0384 0.9988 -0.0289
vn 0.0152 0.9999 -0.0016
vn 0.1197 0.9927 -0.0158
vn 0.0859 0.9961 -0.0184
vn 0.0631 0.9973 -0.0382
vn 0.0741 0.9945 0.0741
vn 0.1413 0.9899 -0.0062
vn 0.0500 0.9987 -0.0055
vn 0.0250 0.9988 -0.0428
vn 0.0062 0.9990 -0.0440
vn 0.0101 0.9981 -0.0603
vn 0.0284 0.9996 -0.0094
vn 0.0095 0.9999 -0.0095
vn 0.0094 0.9996 -0.0284
vn 0.0580 0.9983 -0.0096
vn 0.0431 0.9991 -0.0053
vn 0.0389 0.9991 -0.0193
vn -0.0249 0.9981 -0.0560
vn -0.0082 0.9973 -0.0731
vn -0.0325 0.9989 -0.0325
vn 0.0147 0.9971 -0.0751
vn 0.0067 0.9970 -0.0771
vn -0.0013 0.9966 -0.0825
vn 0.0091 1.0000 -0.0038
vn 0.0153 0.9983 -0.0557
vn -0.0198 0.9986 -0.0498
vn -0.0561 0.9984 0.0116
vn -0.0441 0.9985 -0.0337
vn -0.1232 0.9923 -0.0114
vn 0.0531 0.9982 -0.0293
vn 0.0474 0.9982 -0.0379
vn 0.0432 0.9977 -0.0520
vn -0.0044 0.9828 0.1844
vn -0.0004 1.0000 0.0100
vn -0.0460 0.9986 0.0242
vn -0.0080 0.9999 0.0105
vn -0.0247 0.9991 0.0342
vn -0.0153 0.9998 0.0128
usemtl Material
s off
f 1//1 2//1 3//1 4//1
f 85//2 49//2 7//2 32//2
f 1//3 5//3 46//3 18//3 34//3 9//3 42//3 14//3 30//3 6//3 2//3
f 2//4 6//4 48//4 20//4 36//4 11//4 44//4 16//4 32//4 7//4 3//4
f 3//5 7//5 49//5 21//5 37//5 12//5 45//5 17//5 33//5 8//5 4//5
f 5//6 1//6 4//6 8//6 31//6 15//6 43//6 10//6 35//6 19//6 47//6
f 84//7 38//7 11//7 36//7
f 83//8 39//8 13//8 52//8
f 82//9 45//9 12//9 53//9
f 81//10 54//10 25//10 41//10
f 80//11 55//11 26//11 56//11
f 79//12 33//12 17//12 57//12
f 78//13 58//13 24//13 40//13
f 77//14 59//14 27//14 60//14
f 76//15 51//15 23//15 61//15
f 75//16 62//16 20//16 48//16
f 74//17 63//17 28//17 64//17
f 73//18 50//18 22//18 65//18
f 72//19 66//19 16//19 44//19
f 71//20 67//20 29//20 68//20
f 70//21 37//21 21//21 69//21
f 67//22 70//22 69//22 29//22
f 25//23 53//23 70//23 67//23
f 53//24 12//24 37//24 70//24
f 50//25 71//25 68//25 22//25
f 13//26 41//26 71//26 50//26
f 41//27 25//27 67//27 71//27
f 38//28 72//28 44//28 11//28
f 22//29 68//29 72//29 38//29
f 68//30 29//30 66//30 72//30
f 63//31 73//31 65//31 28//31
f 24//32 52//32 73//32 63//32
f 52//33 13//33 50//33 73//33
f 42//34 74//34 64//34 14//34
f 9//35 40//35 74//35 42//35
f 40//36 24//36 63//36 74//36
f 30//37 75//37 48//37 6//37
f 14//38 64//38 75//38 30//38
f 64//39 28//39 62//39 75//39
f 59//40 76//40 61//40 27//40
f 19//41 35//41 76//41 59//41
f 35//42 10//42 51//42 76//42
f 46//43 77//43 60//43 18//43
f 5//44 47//44 77//44 46//44
f 47//45 19//45 59//45 77//45
f 34//46 78//46 40//46 9//46
f 18//47 60//47 78//47 34//47
f 60//48 27//48 58//48 78//48
f 55//49 79//49 57//49 26//49
f 15//50 31//50 79//50 55//50
f 31//51 8//51 33//51 79//51
f 51//52 80//52 56//52 23//52
f 10//53 43//53 80//53 51//53
f 43//54 15//54 55//54 80//54
f 39//55 81//55 41//55 13//55
f 23//56 56//56 81//56 39//56
f 56//57 26//57 54//57 81//57
f 54//58 82//58 53//58 25//58
f 26//59 57//59 82//59 54//59
f 57//60 17//60 45//60 82//60
f 58//61 83//61 52//61 24//61
f 27//62 61//62 83//62 58//62
f 61//63 23//63 39//63 83//63
f 62//64 84//64 36//64 20//64
f 28//65 65//65 84//65 62//65
f 65//66 22//66 38//66 84//66
f 66//67 85//67 32//67 16//67
f 29//68 69//68 85//68 66//68
f 69//69 21//69 49//69 85//69
