# Blender v2.79 (sub 0) OBJ File: 'tile2.blend'
# www.blender.org
mtllib tile3.mtl
o Cube
v 1.000000 -0.200000 -1.000000
v 1.000000 -0.200000 1.000000
v -1.000000 -0.200000 1.000000
v -1.000000 -0.200000 -1.000000
v 1.000000 0.200000 -0.999999
v 0.999999 0.200000 1.000001
v -1.000000 0.200000 1.000000
v -1.000000 0.200000 -1.000000
v 1.000000 0.200000 0.000001
v 0.000000 0.200000 -1.000000
v -0.000001 0.200000 1.000000
v -1.000000 0.200000 -0.000000
v -0.000000 0.228469 0.000000
v 1.000000 0.200000 0.500001
v -0.500000 0.200000 -1.000000
v -0.500000 0.200000 1.000000
v -1.000000 0.200000 -0.500000
v 1.000000 0.200000 -0.499999
v 0.500000 0.200000 -1.000000
v 0.499999 0.200000 1.000000
v -1.000000 0.200000 0.500000
v -0.000000 0.199247 0.500000
v 0.000000 0.223017 -0.500000
v 0.500000 0.201873 0.000000
v -0.500000 0.222874 0.000000
v -0.500000 0.224393 -0.500000
v 0.500000 0.198542 -0.500000
v 0.500000 0.220949 0.500000
v -0.500000 0.180628 0.500000
v 1.000000 0.200000 0.750001
v -0.750000 0.200000 -1.000000
v -0.750000 0.200000 1.000000
v -1.000000 0.200000 -0.750000
v 1.000000 0.200000 -0.249999
v 0.250000 0.200000 -1.000000
v 0.249999 0.200000 1.000000
v -1.000000 0.200000 0.250000
v -0.000000 0.201529 0.750000
v -0.000000 0.232799 -0.250000
v 0.750000 0.197442 0.000000
v -0.250000 0.230188 0.000000
v 1.000000 0.200000 0.250001
v -0.250000 0.200000 -1.000000
v -0.250001 0.200000 1.000000
v -1.000000 0.200000 -0.250000
v 1.000000 0.200000 -0.749999
v 0.750000 0.200000 -1.000000
v 0.749999 0.200000 1.000000
v -1.000000 0.200000 0.750000
v -0.000000 0.214946 0.250000
v 0.000000 0.205057 -0.750000
v 0.250000 0.217207 0.000000
v -0.750000 0.208669 -0.000000
v -0.500000 0.231268 -0.250000
v -0.500000 0.205390 -0.750000
v -0.250000 0.227730 -0.500000
v -0.750000 0.211401 -0.500000
v 0.500000 0.198340 -0.250000
v 0.500000 0.195352 -0.750000
v 0.750000 0.197059 -0.500000
v 0.250000 0.210924 -0.500000
v 0.500000 0.224573 0.750000
v 0.500000 0.211020 0.250000
v 0.750000 0.213582 0.500000
v 0.250000 0.214139 0.500000
v -0.500000 0.176282 0.750000
v -0.500000 0.202358 0.250000
v -0.250000 0.185494 0.500000
v -0.750000 0.178062 0.500000
v -0.750000 0.189803 0.250000
v -0.250000 0.209473 0.250000
v -0.250000 0.184553 0.750000
v 0.250000 0.211538 0.250000
v 0.750000 0.204846 0.250000
v 0.750000 0.221027 0.750000
v 0.250000 0.195695 -0.750000
v 0.750000 0.197194 -0.750000
v 0.750000 0.195783 -0.250000
v -0.750000 0.197314 -0.750000
v -0.250000 0.208540 -0.750000
v -0.250000 0.236803 -0.250000
v -0.750000 0.216222 -0.250000
v 0.250000 0.218325 -0.250000
v 0.250000 0.217267 0.750000
v -0.750000 0.179036 0.750000
vn 0.0000 -1.0000 0.0000
vn 0.0419 0.9982 -0.0419
vn 1.0000 0.0000 0.0000
vn -0.0000 -0.0000 1.0000
vn -1.0000 -0.0000 -0.0000
vn 0.0000 0.0000 -1.0000
vn -0.0314 0.9988 0.0375
vn 0.0514 0.9986 0.0109
vn -0.0497 0.9986 0.0151
vn -0.0257 0.9992 0.0300
vn -0.0129 0.9970 -0.0762
vn -0.0174 0.9995 -0.0282
vn 0.0140 0.9998 -0.0104
vn -0.0007 1.0000 -0.0061
vn 0.0428 0.9969 -0.0662
vn 0.0071 0.9958 0.0908
vn 0.0271 0.9989 -0.0373
vn -0.0230 0.9994 0.0262
vn -0.0165 0.9968 -0.0781
vn -0.0239 0.9956 0.0910
vn 0.0641 0.9977 0.0234
vn -0.0302 0.9973 0.0668
vn -0.0533 0.9955 0.0784
vn 0.0031 0.9993 0.0377
vn -0.0383 0.9961 0.0790
vn -0.0075 0.9976 0.0683
vn -0.0288 0.9962 0.0821
vn -0.0339 0.9990 -0.0278
vn -0.0613 0.9981 -0.0027
vn -0.0263 0.9996 0.0106
vn -0.0126 0.9996 -0.0250
vn 0.0317 0.9995 -0.0070
vn 0.0293 0.9988 0.0383
vn 0.0368 0.9992 -0.0175
vn 0.0046 0.9999 -0.0148
vn 0.0212 0.9992 -0.0331
vn 0.0420 0.9982 0.0420
vn 0.0690 0.9975 -0.0149
vn 0.0218 0.9995 -0.0221
vn 0.0254 0.9990 -0.0368
vn 0.0007 0.9998 0.0179
vn 0.0187 0.9998 -0.0015
vn -0.0115 0.9999 0.0003
vn -0.0056 1.0000 0.0056
vn -0.0037 0.9999 0.0149
vn -0.0135 0.9999 -0.0033
vn -0.0143 0.9999 0.0026
vn 0.0081 1.0000 0.0030
vn -0.0420 0.9969 -0.0660
vn -0.0162 0.9999 -0.0054
vn 0.0054 1.0000 0.0054
vn 0.0163 0.9971 -0.0741
vn 0.0070 0.9996 -0.0272
vn -0.0063 0.9996 -0.0278
vn 0.0114 0.9997 0.0219
vn 0.0174 0.9991 -0.0377
vn -0.0177 0.9993 -0.0319
vn -0.0584 0.9978 0.0318
vn -0.0560 0.9982 -0.0233
vn -0.0552 0.9984 -0.0096
vn 0.0705 0.9975 -0.0048
vn 0.0646 0.9978 -0.0144
vn 0.0530 0.9980 -0.0343
vn -0.0146 0.9964 0.0834
vn -0.0282 0.9995 -0.0135
vn -0.0611 0.9981 -0.0108
vn 0.0055 0.9960 -0.0890
vn 0.0004 1.0000 0.0067
vn 0.0855 0.9963 -0.0019
usemtl Material
s off
f 1//1 2//1 3//1 4//1
f 85//2 49//2 7//2 32//2
f 1//3 5//3 46//3 18//3 34//3 9//3 42//3 14//3 30//3 6//3 2//3
f 2//4 6//4 48//4 20//4 36//4 11//4 44//4 16//4 32//4 7//4 3//4
f 3//5 7//5 49//5 21//5 37//5 12//5 45//5 17//5 33//5 8//5 4//5
f 5//6 1//6 4//6 8//6 31//6 15//6 43//6 10//6 35//6 19//6 47//6
f 84//7 38//7 11//7 36//7
f 83//8 39//8 13//8 52//8
f 82//9 45//9 12//9 53//9
f 81//10 54//10 25//10 41//10
f 80//11 55//11 26//11 56//11
f 79//12 33//12 17//12 57//12
f 78//13 58//13 24//13 40//13
f 77//14 59//14 27//14 60//14
f 76//15 51//15 23//15 61//15
f 75//16 62//16 20//16 48//16
f 74//17 63//17 28//17 64//17
f 73//18 50//18 22//18 65//18
f 72//19 66//19 16//19 44//19
f 71//20 67//20 29//20 68//20
f 70//21 37//21 21//21 69//21
f 67//22 70//22 69//22 29//22
f 25//23 53//23 70//23 67//23
f 53//24 12//24 37//24 70//24
f 50//25 71//25 68//25 22//25
f 13//26 41//26 71//26 50//26
f 41//27 25//27 67//27 71//27
f 38//28 72//28 44//28 11//28
f 22//29 68//29 72//29 38//29
f 68//30 29//30 66//30 72//30
f 63//31 73//31 65//31 28//31
f 24//32 52//32 73//32 63//32
f 52//33 13//33 50//33 73//33
f 42//34 74//34 64//34 14//34
f 9//35 40//35 74//35 42//35
f 40//36 24//36 63//36 74//36
f 30//37 75//37 48//37 6//37
f 14//38 64//38 75//38 30//38
f 64//39 28//39 62//39 75//39
f 59//40 76//40 61//40 27//40
f 19//41 35//41 76//41 59//41
f 35//42 10//42 51//42 76//42
f 46//43 77//43 60//43 18//43
f 5//44 47//44 77//44 46//44
f 47//45 19//45 59//45 77//45
f 34//46 78//46 40//46 9//46
f 18//47 60//47 78//47 34//47
f 60//48 27//48 58//48 78//48
f 55//49 79//49 57//49 26//49
f 15//50 31//50 79//50 55//50
f 31//51 8//51 33//51 79//51
f 51//52 80//52 56//52 23//52
f 10//53 43//53 80//53 51//53
f 43//54 15//54 55//54 80//54
f 39//55 81//55 41//55 13//55
f 23//56 56//56 81//56 39//56
f 56//57 26//57 54//57 81//57
f 54//58 82//58 53//58 25//58
f 26//59 57//59 82//59 54//59
f 57//60 17//60 45//60 82//60
f 58//61 83//61 52//61 24//61
f 27//62 61//62 83//62 58//62
f 61//63 23//63 39//63 83//63
f 62//64 84//64 36//64 20//64
f 28//65 65//65 84//65 62//65
f 65//66 22//66 38//66 84//66
f 66//67 85//67 32//67 16//67
f 29//68 69//68 85//68 66//68
f 69//69 21//69 49//69 85//69
