# Blender v2.79 (sub 0) OBJ File: 'woodtile.blend'
# www.blender.org
mtllib woodentile.mtl
o Cube
v 1.000000 -0.200000 -1.000000
v 1.000000 -0.200000 1.000000
v -1.000000 -0.200000 1.000000
v -1.000000 -0.200000 -1.000000
v 1.000000 0.200000 -0.999999
v 0.999999 0.200000 1.000001
v -1.000000 0.200000 1.000000
v -1.000000 0.200000 -1.000000
v 1.000000 0.200000 0.000001
v 0.000000 0.200000 -1.000000
v -0.000001 0.200000 1.000000
v -1.000000 0.200000 -0.000000
v 0.010775 0.217864 0.000000
v 1.000000 0.200000 0.500001
v -0.489225 0.217864 -1.000000
v -0.500000 0.200000 1.000000
v -1.000000 0.200000 -0.500000
v 1.000000 0.200000 -0.499999
v 0.500000 0.200000 -1.000000
v 0.499999 0.200000 1.000000
v -1.000000 0.200000 0.500000
v 0.010774 0.217864 0.500000
v 0.010775 0.217864 -0.500000
v 0.510775 0.217864 0.000000
v -0.489225 0.217864 0.000000
v -0.489225 0.217864 -0.500000
v 0.500000 0.200000 -0.500000
v 0.500000 0.200000 0.500000
v -0.489226 0.217864 0.500000
v 1.000000 0.200000 0.750001
v -0.917319 0.210295 -1.000000
v -0.898623 0.200000 1.000000
v -1.000000 0.200000 -0.750000
v 1.000000 0.200000 -0.249999
v 0.101378 0.200000 -1.000000
v 0.101377 0.200000 1.000000
v -1.000000 0.200000 0.250000
v 0.010774 0.217864 0.750000
v 0.010775 0.217864 -0.250000
v 0.585117 0.210295 0.000000
v -0.414883 0.210295 0.000000
v 1.000000 0.200000 0.250001
v -0.398622 0.200000 -1.000000
v -0.417319 0.210295 1.000000
v -1.000000 0.200000 -0.250000
v 1.000000 0.200000 -0.749999
v 0.582682 0.210295 -1.000000
v 0.601377 0.200000 1.000000
v -1.000000 0.200000 0.750000
v -0.000000 0.200000 0.250000
v 0.000000 0.200000 -0.750000
v 0.085117 0.210295 0.000000
v -0.917319 0.210295 -0.000000
v -0.489225 0.217864 -0.250000
v -0.489225 0.217864 -0.750000
v -0.414882 0.210295 -0.500000
v -0.898622 0.200000 -0.500000
v 0.500000 0.200000 -0.250000
v 0.500000 0.200000 -0.750000
v 0.601378 0.200000 -0.500000
v 0.085118 0.210295 -0.500000
v 0.500000 0.200000 0.750000
v 0.510774 0.217864 0.250000
v 0.582681 0.210295 0.500000
v 0.085117 0.210295 0.500000
v -0.489226 0.217864 0.750000
v -0.489226 0.217864 0.250000
v -0.414883 0.210295 0.500000
v -0.917319 0.210295 0.500000
v -0.917319 0.210295 0.250000
v -0.414883 0.210295 0.250000
v -0.414883 0.210295 0.750000
v 0.101378 0.200000 0.250000
v 0.601378 0.200000 0.250000
v 0.582681 0.210295 0.750000
v 0.082681 0.210295 -0.750000
v 0.582681 0.210295 -0.750000
v 0.582681 0.210295 -0.250000
v -0.917319 0.210295 -0.750000
v -0.398622 0.200000 -0.750000
v -0.414882 0.210295 -0.250000
v -0.917319 0.210295 -0.250000
v 0.085118 0.210295 -0.250000
v 0.085117 0.210295 0.750000
v -0.898623 0.200000 0.750000
v 0.952850 0.302027 0.750001
v 0.952850 0.287624 1.000001
v 0.946189 0.287836 -0.231754
v 0.929650 0.287836 -0.018245
v -0.026629 0.296401 0.731755
v -0.000001 0.296864 1.000000
v -0.026404 0.296401 -0.231754
v -0.026404 0.296401 -0.018245
v 0.657876 0.290316 -0.018245
v -0.335386 0.290990 -0.018245
v 0.950865 0.296864 0.268246
v 0.973532 0.310749 0.481755
v 0.978380 0.311267 -0.749999
v 0.952851 0.287624 -0.499999
v -0.029174 0.302027 0.250000
v -0.052496 0.303819 0.518246
v -0.029173 0.302027 -0.750000
v -0.028146 0.303731 -0.500000
v 0.164614 0.290990 0.018246
v 0.473682 0.296346 0.018246
v -0.864279 0.287180 -0.016900
v -0.499546 0.293536 -0.016647
v -0.500000 0.311267 -0.250000
v -0.524417 0.286447 -0.766738
v -0.524417 0.300850 -0.483261
v -0.364866 0.304931 -0.500000
v -0.864965 0.300601 -0.481791
v 0.470827 0.302027 -0.250000
v 0.500000 0.293074 -0.768947
v 0.472008 0.298479 -0.482219
v 0.634429 0.289775 -0.500000
v 0.130521 0.301810 -0.482317
v 0.470826 0.302027 0.750000
v 0.499999 0.296864 1.000000
v 0.473596 0.296401 0.231755
v 0.470826 0.302027 0.500000
v 0.628892 0.311267 0.481755
v 0.135133 0.304931 0.500000
v -0.500000 0.311267 0.750000
v -0.500000 0.296864 1.000000
v -0.526443 0.286202 0.265725
v -0.528146 0.303731 0.500000
v -0.338238 0.305393 0.518246
v -0.898622 0.311267 0.500000
v -0.500000 0.296864 -1.000000
v -0.898622 0.296864 -1.000000
v -0.860601 0.289775 1.000000
v 0.500000 0.296864 -1.000000
v 0.101378 0.296864 -1.000000
v 0.101377 0.296864 1.000000
v 0.000000 0.296864 -1.000000
v -0.398622 0.296864 -1.000000
v -0.361969 0.290528 1.000000
v 1.000000 0.311267 -0.999999
v 0.601378 0.311267 -1.000000
v 0.601377 0.296864 1.000000
v -0.869744 0.287410 0.267684
v -0.364867 0.304931 0.250000
v -0.337441 0.290441 0.731754
v 0.165717 0.290292 0.231755
v 0.663805 0.290292 0.268246
v 0.601377 0.311267 0.750000
v 0.132987 0.287414 -0.767648
v 0.635970 0.304931 -0.750000
v 0.658156 0.290316 -0.231754
v -0.899383 0.293341 -0.767630
v -0.398622 0.311267 -0.750000
v -0.335386 0.290990 -0.231754
v -0.861969 0.304931 -0.250000
v 0.101378 0.311267 -0.250000
v 0.135133 0.304931 0.750000
v -0.860601 0.304178 0.750000
vn 0.0000 -1.0000 0.0000
vn 0.0000 1.0000 0.0000
vn 1.0000 0.0000 0.0000
vn -0.0000 -0.0000 1.0000
vn -1.0000 -0.0000 -0.0000
vn 0.0000 0.0000 -1.0000
vn 0.0430 0.9975 0.0557
vn 0.1013 0.9949 0.0000
vn -0.1236 0.9923 -0.0000
vn 0.1524 0.9882 -0.0154
vn -0.0558 0.9982 0.0226
vn -0.0173 0.9992 -0.0352
vn 0.0436 0.9989 0.0177
vn 0.0430 0.9975 -0.0557
vn -0.0173 0.9992 0.0352
vn 0.1524 0.9882 0.0154
vn -0.0558 0.9982 -0.0226
vn 0.1934 0.9811 0.0000
vn 0.9882 0.1447 0.0501
vn -0.8371 0.5470 -0.0088
vn -0.9487 0.3097 -0.0634
vn 0.9372 0.3474 -0.0328
vn -0.9323 0.3542 -0.0733
vn -0.8828 0.4527 0.1254
vn -0.9597 0.2800 0.0252
vn 0.8953 0.4452 0.0128
vn 0.8389 0.5427 -0.0423
vn -0.8696 0.4936 -0.0133
vn 0.9069 0.4211 -0.0114
vn 0.9482 0.3133 0.0522
vn -0.9076 0.4177 -0.0423
vn 0.9923 0.1242 0.0036
vn 0.9620 0.2667 -0.0582
vn -0.8446 0.5352 0.0156
vn 0.9076 0.4198 0.0029
vn -0.9521 0.3015 -0.0506
vn 0.8523 0.5216 -0.0392
vn -0.9947 0.0940 0.0418
vn 0.9396 0.3405 -0.0355
vn 0.9040 0.4276 0.0001
vn -0.8059 0.5889 0.0617
vn 0.8975 0.4409 0.0050
vn 0.9615 0.2749 0.0000
vn -0.7124 0.7018 -0.0000
vn -0.7825 0.6211 0.0443
vn 0.8672 0.4978 0.0109
vn 0.0120 0.9961 -0.0876
vn -0.0072 0.9999 0.0121
vn 0.0072 1.0000 -0.0042
vn -0.0039 0.9993 -0.0367
vn -0.0183 0.9998 -0.0010
vn -0.0073 0.9986 0.0528
vn -0.0050 0.9993 -0.0381
vn -0.0186 0.9998 0.0016
vn -0.0096 0.9966 -0.0816
vn -0.0073 0.9999 -0.0154
vn 0.0262 0.9980 0.0575
vn 0.0140 0.9997 0.0175
vn -0.0033 0.9994 -0.0348
vn -0.0073 0.9996 0.0291
vn -0.0063 0.9970 0.0770
vn -0.0085 0.9999 0.0129
vn 0.0089 1.0000 0.0003
vn 0.0076 1.0000 -0.0016
vn 0.0093 0.9992 -0.0386
vn 0.0089 0.9995 0.0304
vn 0.0148 0.9999 0.0082
vn 0.0120 0.9992 -0.0384
vn -0.0175 0.9998 0.0000
vn -0.0065 0.9992 0.0400
vn -0.0174 0.9970 0.0758
vn -0.0094 0.9995 -0.0311
vn 0.0057 0.9988 0.0476
vn 0.0177 0.9995 -0.0268
vn 0.0040 0.9996 0.0265
vn 0.0086 1.0000 0.0000
vn -0.0196 0.9982 0.0575
vn 0.0006 1.0000 -0.0010
vn -0.9044 0.4234 0.0526
vn 0.9944 0.0966 0.0430
vn 0.8163 0.5769 0.0291
vn -0.9362 0.3445 0.0691
vn -0.9673 0.2526 -0.0246
vn -0.8328 0.5519 0.0423
vn 0.9879 0.1449 -0.0561
vn -0.8841 0.4673 -0.0000
vn -0.8059 0.5889 -0.0617
vn 0.9371 0.3476 0.0327
vn -0.7337 0.6795 0.0034
vn 0.9782 0.2062 -0.0230
vn -0.8424 0.5388 -0.0031
vn 0.9879 0.1449 0.0561
vn -0.9309 0.3650 0.0105
vn 0.9038 0.4279 0.0000
vn -0.7719 0.6345 -0.0403
vn 0.9981 0.0565 0.0252
vn -0.9571 0.2646 0.1178
vn -0.7508 0.6602 0.0226
vn 0.8961 0.4437 -0.0129
vn -0.9583 0.2689 0.0965
vn 0.9650 0.2566 -0.0543
vn 0.9382 0.3416 -0.0561
vn -0.9775 0.2111 -0.0000
vn 0.9516 0.3026 0.0546
vn -0.8506 0.5159 -0.1017
vn 0.9430 0.3300 0.0432
vn -0.7645 0.6431 0.0439
vn -0.9712 0.2359 0.0321
vn 0.9617 0.2742 0.0003
vn 0.9432 0.3261 0.0636
vn -0.8618 0.4895 -0.1327
usemtl Material
s off
f 1//1 2//1 3//1 4//1
f 85//2 49//2 7//2 32//2
f 1//3 5//3 46//3 18//3 34//3 9//3 42//3 14//3 30//3 6//3 2//3
f 2//4 6//4 48//4 20//4 36//4 11//4 44//4 16//4 32//4 7//4 3//4
f 3//5 7//5 49//5 21//5 37//5 12//5 45//5 17//5 33//5 8//5 4//5
f 5//6 1//6 4//6 8//6 31//6 15//6 43//6 10//6 35//6 19//6 47//6
f 84//7 38//7 11//7 36//7
f 83//8 39//8 13//8 52//8
f 82//9 45//9 12//9 53//9
f 81//8 54//8 25//8 41//8
f 80//10 55//10 26//10 56//10
f 79//11 33//11 17//11 57//11
f 78//12 58//12 24//12 40//12
f 77//11 59//11 27//11 60//11
f 76//12 51//12 23//12 61//12
f 75//11 62//11 20//11 48//11
f 74//13 63//13 28//13 64//13
f 73//14 50//14 22//14 65//14
f 72//15 66//15 16//15 44//15
f 71//8 67//8 29//8 68//8
f 70//9 37//9 21//9 69//9
f 53//9 12//9 37//9 70//9
f 41//8 25//8 67//8 71//8
f 68//8 29//8 66//8 72//8
f 52//7 13//7 50//7 73//7
f 40//16 24//16 63//16 74//16
f 64//9 28//9 62//9 75//9
f 35//17 10//17 51//17 76//17
f 47//9 19//9 59//9 77//9
f 60//17 27//17 58//17 78//17
f 31//9 8//9 33//9 79//9
f 43//18 15//18 55//18 80//18
f 56//8 26//8 54//8 81//8
f 57//17 17//17 45//17 82//17
f 61//8 23//8 39//8 83//8
f 65//8 22//8 38//8 84//8
f 69//11 21//11 49//11 85//11
usemtl Material.001
f 27//19 59//19 114//19 115//19
f 53//20 70//20 142//20 106//20
f 61//21 83//21 155//21 117//21
f 24//22 58//22 113//22 105//22
f 44//4 11//4 91//4 138//4
f 70//23 69//23 129//23 142//23
f 83//24 52//24 104//24 155//24
f 10//6 43//6 137//6 136//6
f 35//25 76//25 148//25 134//25
f 6//26 30//26 86//26 87//26
f 42//27 9//27 89//27 96//27
f 76//28 61//28 117//28 148//28
f 26//29 55//29 109//29 110//29
f 67//30 25//30 107//30 126//30
f 57//31 82//31 154//31 112//31
f 25//32 54//32 108//32 107//32
f 66//33 29//33 127//33 124//33
f 82//34 53//34 106//34 154//34
f 39//35 23//35 103//35 92//35
f 64//36 75//36 147//36 122//36
f 38//37 22//37 101//37 90//37
f 75//38 48//38 141//38 147//38
f 23//39 51//39 102//39 103//39
f 63//40 24//40 105//40 120//40
f 56//41 81//41 153//41 111//41
f 22//42 50//42 100//42 101//42
f 36//4 20//4 119//4 135//4
f 62//43 28//43 121//43 118//43
f 81//44 41//44 95//44 153//44
f 19//6 35//6 134//6 133//6
f 40//45 74//45 146//45 94//45
f 34//46 18//46 99//46 88//46
f 126//47 142//47 129//47 127//47
f 107//48 106//48 142//48 126//48
f 100//49 143//49 128//49 101//49
f 93//50 95//50 143//50 100//50
f 90//51 144//51 138//51 91//51
f 101//52 128//52 144//52 90//52
f 120//53 145//53 123//53 121//53
f 105//54 104//54 145//54 120//54
f 96//55 146//55 122//55 97//55
f 89//56 94//56 146//56 96//56
f 86//57 147//57 141//57 87//57
f 97//58 122//58 147//58 86//58
f 114//59 148//59 117//59 115//59
f 133//60 134//60 148//60 114//60
f 98//61 149//61 116//61 99//61
f 139//62 140//62 149//62 98//62
f 88//63 150//63 94//63 89//63
f 99//64 116//64 150//64 88//64
f 109//65 151//65 112//65 110//65
f 130//66 131//66 151//66 109//66
f 102//67 152//67 111//67 103//67
f 136//68 137//68 152//68 102//68
f 92//69 153//69 95//69 93//69
f 103//70 111//70 153//70 92//70
f 108//71 154//71 106//71 107//71
f 110//72 112//72 154//72 108//72
f 113//73 155//73 104//73 105//73
f 115//74 117//74 155//74 113//74
f 118//75 156//75 135//75 119//75
f 121//76 123//76 156//76 118//76
f 124//77 157//77 132//77 125//77
f 127//78 129//78 157//78 124//78
f 77//79 60//79 116//79 149//79
f 46//80 5//80 139//80 98//80
f 9//81 34//81 88//81 89//81
f 47//82 77//82 149//82 140//82
f 5//6 47//6 140//6 139//6
f 84//83 36//83 135//83 156//83
f 71//84 68//84 128//84 143//84
f 48//4 6//4 87//4 141//4
f 20//85 62//85 118//85 119//85
f 65//86 84//86 156//86 123//86
f 41//87 71//87 143//87 95//87
f 28//88 63//88 120//88 121//88
f 78//89 40//89 94//89 150//89
f 50//88 13//88 93//88 100//88
f 11//90 38//90 90//90 91//90
f 60//91 78//91 150//91 116//91
f 51//92 10//92 136//92 102//92
f 85//93 32//93 132//93 157//93
f 13//94 39//94 92//94 93//94
f 72//95 44//95 138//95 144//95
f 16//96 66//96 124//96 125//96
f 69//97 85//97 157//97 129//97
f 68//98 72//98 144//98 128//98
f 29//99 67//99 126//99 127//99
f 79//100 57//100 112//100 151//100
f 54//101 26//101 110//101 108//101
f 14//102 42//102 96//102 97//102
f 31//103 79//103 151//103 131//103
f 55//104 15//104 130//104 109//104
f 73//105 65//105 123//105 145//105
f 30//106 14//106 97//106 86//106
f 52//107 73//107 145//107 104//107
f 15//6 31//6 131//6 130//6
f 80//108 56//108 111//108 152//108
f 58//109 27//109 115//109 113//109
f 32//4 16//4 125//4 132//4
f 18//110 46//110 98//110 99//110
f 43//5 80//5 152//5 137//5
f 59//3 19//3 133//3 114//3
f 74//111 64//111 122//111 146//111
