# Blender v3.0.0 OBJ File: 'Grass Sprites.blend'
# www.blender.org
mtllib Grass Sprites 5.mtl
o Cone.029
v 0.025184 -0.000000 0.038400
v 0.103678 0.196776 -0.019975
v 0.000660 0.000000 -0.067666
v 0.104777 0.000000 -0.035871
vt 0.449390 0.030836
vt 0.449390 0.938487
vt 0.572788 0.030836
vt 0.325991 0.030836
vn -0.8867 0.4145 0.2050
vn 0.0000 -1.0000 -0.0000
vn 0.2912 0.0787 -0.9534
vn 0.6812 -0.0552 0.7300
usemtl Material.040
s 1
f 1/1/1 2/2/1 3/3/1
f 1/1/2 3/3/2 4/4/2
f 3/3/3 2/2/3 4/4/3
f 4/4/4 2/2/4 1/1/4
o Cone.005_Cone.003
v -0.022815 -0.000000 0.096835
v -0.096677 0.214300 -0.003487
v -0.106356 -0.000000 0.035407
v -0.011388 0.000000 -0.006228
vt 0.449390 0.030836
vt 0.449390 0.938487
vt 0.572788 0.030836
vt 0.325991 0.030836
vn -0.5837 0.1704 0.7939
vn 0.0000 -1.0000 -0.0000
vn -0.3972 -0.1465 -0.9060
vn 0.9247 0.3667 0.1025
usemtl Material.041
s 1
f 5/5/5 6/6/5 7/7/5
f 5/5/6 7/7/6 8/8/6
f 7/7/7 6/6/7 8/8/7
f 8/8/8 6/6/8 5/5/8
