# Blender v3.0.0 OBJ File: 'Grass Sprites.blend'
# www.blender.org
mtllib Grass Sprites 1.mtl
o Cone.022
v 0.011725 0.000000 -0.222712
v -0.077707 0.259788 -0.122673
v 0.043169 0.000000 -0.085119
v -0.091712 0.000000 -0.126685
vt 0.449390 0.030836
vt 0.449390 0.938487
vt 0.572788 0.030836
vt 0.325991 0.030836
vn 0.8984 0.3883 -0.2053
vn 0.0000 -1.0000 -0.0000
vn -0.2945 0.0011 0.9557
vn -0.6796 0.0479 -0.7320
usemtl Material.022
s 1
f 1/1/1 2/2/1 3/3/1
f 1/1/2 3/3/2 4/4/2
f 3/3/3 2/2/3 4/4/3
f 4/4/4 2/2/4 1/1/4
o Cone.023
v -0.169685 -0.000000 0.016049
v -0.139105 0.219426 0.051020
v -0.099115 -0.000000 0.138280
v -0.240255 -0.000000 0.138280
vt 0.449390 0.030836
vt 0.449390 0.938487
vt 0.572788 0.030836
vt 0.325991 0.030836
vn 0.8653 -0.0410 -0.4996
vn 0.0000 -1.0000 -0.0000
vn 0.0000 0.3695 0.9292
vn -0.8491 0.1965 -0.4903
usemtl Material.023
s 1
f 5/5/5 6/6/5 7/7/5
f 5/5/6 7/7/6 8/8/6
f 7/7/7 6/6/7 8/8/7
f 8/8/8 6/6/8 5/5/8
o Cone.024
v 0.259930 0.000000 -0.038039
v 0.157533 0.235319 0.007840
v 0.254671 -0.000000 0.103003
v 0.135154 -0.000000 0.027928
vt 0.449390 0.030836
vt 0.449390 0.938487
vt 0.572788 0.030836
vt 0.325991 0.030836
vn 0.9188 0.3931 0.0343
vn 0.0000 -1.0000 -0.0000
vn -0.5279 0.1220 0.8405
vn -0.4672 -0.0310 -0.8836
usemtl Material.024
s 1
f 9/9/9 10/10/9 11/11/9
f 9/9/10 11/11/10 12/12/10
f 11/11/11 10/10/11 12/12/11
f 12/12/12 10/10/12 9/9/12
o Cone.025
v 0.007039 -0.000000 0.130499
v 0.061083 0.220151 0.176256
v 0.077609 -0.000000 0.252730
v -0.063531 -0.000000 0.252730
vt 0.449390 0.030836
vt 0.449390 0.938487
vt 0.572788 0.030836
vt 0.325991 0.030836
vn 0.8610 -0.1080 -0.4971
vn 0.0000 -1.0000 -0.0000
vn 0.0000 0.3281 0.9446
vn -0.8257 0.3018 -0.4767
usemtl Material.025
s 1
f 13/13/13 14/14/13 15/15/13
f 13/13/14 15/15/14 16/16/14
f 15/15/15 14/14/15 16/16/15
f 16/16/16 14/14/16 13/13/16
