# Blender v3.0.0 OBJ File: ''
# www.blender.org
mtllib Arrow.mtl
o Cube.001_Cube.002
v -0.273817 -0.113019 0.114809
v -0.273817 -0.113019 -0.114809
v 0.273817 -0.113019 0.114809
v 0.273817 -0.113019 -0.114809
v 0.000000 -0.563243 -0.114809
v 0.000000 -0.113019 -0.114809
v 0.000000 -0.563243 0.114809
v 0.000000 -0.113019 0.114809
v -0.136909 -0.338131 -0.114809
v -0.136909 -0.113019 0.114809
v -0.136909 -0.113019 -0.114809
v -0.136909 -0.338131 0.114809
v 0.136909 -0.113019 -0.114809
v 0.136909 -0.338131 0.114809
v 0.136909 -0.338131 -0.114809
v 0.136909 -0.113019 0.114809
v 0.000000 0.688879 -0.114809
v 0.000000 0.688879 0.114809
v -0.136909 0.688879 0.114809
v -0.136909 0.688879 -0.114809
v 0.136909 0.688879 -0.114809
v 0.136909 0.688879 0.114809
vt 0.375000 0.437500
vt 0.625000 0.437500
vt 0.375000 0.500000
vt 0.375000 0.937500
vt 0.625000 0.937500
vt 0.375000 1.000000
vt 0.312500 0.500000
vt 0.375000 0.750000
vt 0.312500 0.750000
vt 0.812500 0.500000
vt 0.875000 0.500000
vt 0.875000 0.750000
vt 0.812500 0.750000
vt 0.625000 0.875000
vt 0.625000 0.875000
vt 0.625000 0.937500
vt 0.187500 0.500000
vt 0.250000 0.500000
vt 0.250000 0.750000
vt 0.187500 0.750000
vt 0.375000 0.812500
vt 0.625000 0.812500
vt 0.375000 0.875000
vt 0.375000 0.312500
vt 0.625000 0.312500
vt 0.625000 0.375000
vt 0.375000 0.375000
vt 0.625000 0.250000
vt 0.125000 0.500000
vt 0.125000 0.750000
vt 0.687500 0.750000
vt 0.687500 0.500000
vt 0.687500 0.500000
vt 0.687500 0.750000
vt 0.625000 0.750000
vt 0.625000 0.500000
vt 0.750000 0.500000
vt 0.750000 0.750000
vt 0.812500 0.500000
vt 0.812500 0.750000
vt 0.625000 0.375000
vt 0.625000 0.437500
vt 0.625000 0.812500
vt 0.625000 0.312500
vn -0.0000 0.0000 -1.0000
vn 0.0000 0.0000 1.0000
vn 0.8544 -0.5196 0.0000
vn -0.0000 1.0000 -0.0000
vn -0.8544 -0.5196 0.0000
vn 1.0000 0.0000 0.0000
vn -1.0000 0.0000 0.0000
usemtl None
s off
f 15/1/1 13/2/1 4/3/1
f 12/4/2 10/5/2 1/6/2
f 15/7/3 4/3/3 3/8/3 14/9/3
f 11/10/4 2/11/4 1/12/4 10/13/4
f 10/5/2 8/14/2 18/15/2 19/16/2
f 9/17/5 5/18/5 7/19/5 12/20/5
f 14/21/2 16/22/2 8/14/2 7/23/2
f 9/24/1 11/25/1 6/26/1 5/27/1
f 2/28/1 11/25/1 9/24/1
f 2/29/5 9/17/5 12/20/5 1/30/5
f 16/31/6 13/32/6 21/33/6 22/34/6
f 7/23/2 8/14/2 10/5/2 12/4/2
f 3/35/2 16/22/2 14/21/2
f 4/36/4 13/32/4 16/31/4 3/35/4
f 5/18/3 15/7/3 14/9/3 7/19/3
f 5/27/1 6/26/1 13/2/1 15/1/1
f 21/33/4 17/37/4 18/38/4 22/34/4
f 17/37/4 20/39/4 19/40/4 18/38/4
f 13/2/1 6/26/1 17/41/1 21/42/1
f 8/14/2 16/22/2 22/43/2 18/15/2
f 11/10/7 10/13/7 19/40/7 20/39/7
f 6/26/1 11/25/1 20/44/1 17/41/1
