# Blender v2.79 (sub 0) OBJ File: 'cloud.blend'
# www.blender.org
mtllib cloud1.mtl
o Cube
v -0.106462 0.379757 -2.025974
v 0.234456 1.042322 0.055062
v 0.942458 0.818734 -0.351562
v 1.108765 0.626516 -0.659913
v 1.373484 0.514784 -1.365525
v 1.479432 0.180594 -1.515914
v 0.930737 0.129897 -1.129916
v 0.607218 0.278889 -0.774490
v 0.279012 -0.532613 -0.485219
v 1.018847 0.785948 -0.084370
v 1.318052 0.718261 -0.088064
v 1.846040 0.064495 -0.410923
v 1.821224 0.007275 -0.379240
v 1.430293 -0.117465 -0.199505
v 0.879883 -0.317059 -0.049524
v 0.413452 -0.330908 0.008349
v -0.033588 -0.409386 0.082718
v 0.646095 0.863708 0.401397
v 1.162677 0.816974 0.610592
v 1.636332 0.215400 0.138495
v 1.704214 0.068167 -0.042735
v 1.049776 -0.040395 0.716165
v 0.637614 -0.178486 0.645323
v 0.279825 -0.535676 0.494949
v 0.161842 1.056788 0.687824
v 0.019223 0.811542 1.204667
v -0.105808 0.627046 1.262427
v -0.121236 0.079475 1.253536
v 0.005934 -0.085919 1.225737
v -0.007777 -0.385112 0.704219
v -0.026012 -0.428991 0.702370
v -0.242466 1.087658 0.521034
v -0.497897 0.729260 0.868954
v -0.693561 0.365113 1.006927
v -0.843258 0.276917 0.963477
v -0.764817 -0.214050 0.797427
v -0.600998 -0.451327 0.464862
v -0.346809 -0.341004 0.414432
v -0.419319 0.998970 -0.164179
v -0.889840 0.837375 -0.048360
v -1.731333 0.320562 -0.366196
v -1.892267 0.013023 -0.270414
v -1.813481 -0.370205 -0.177753
v -1.458236 -0.606314 -0.233430
v -0.516028 -0.786847 -0.304709
v -0.123562 1.040510 -0.598534
v -0.570152 0.769153 -1.542924
v -0.874703 0.550511 -1.608880
v -1.160488 0.061651 -2.167908
v -1.225908 -0.272675 -1.634697
v -0.727828 -0.509559 -1.338977
v -0.342507 -0.407688 -0.398775
v 0.201522 0.752719 -0.988508
v 0.046166 0.944905 -1.467168
v -0.037912 0.640445 -1.892438
v -0.059950 -0.079228 -2.091214
v -0.011077 -0.180720 -1.568918
v -0.021410 -0.236288 -0.798373
v -0.438438 -0.488718 -0.251770
v -1.289912 -0.497561 -0.734479
v -1.534101 -0.234391 -0.611352
v -1.610207 0.004121 -0.833612
v -1.729312 0.410885 -1.560497
v -0.856785 0.764006 -0.795350
v -0.347621 0.986092 -0.382076
v 0.292866 -0.339268 0.801629
v 0.433047 -0.313765 1.656037
v 0.756832 -0.128507 1.283327
v 0.946473 0.502726 1.237277
v 0.520851 0.716107 1.089055
v 0.371509 1.056344 0.565160
v 0.126907 -0.426220 0.611931
v -1.194980 -0.316723 0.331603
v -1.383853 0.003684 0.729253
v -1.595073 0.347397 0.978568
v -0.697038 0.864349 0.402901
v -0.330893 0.822319 0.137171
v -0.438894 -0.361774 0.041576
v -1.046311 -0.315951 -0.009980
v -0.507289 0.362838 -1.956437
v -0.272949 0.936178 -1.571351
v -0.047003 0.737294 -0.847378
v -0.181958 -0.466860 -0.695066
v -0.377099 -0.256824 -1.437375
v -0.613749 -0.145607 -1.961190
v -0.777708 0.225368 -2.365463
vn 0.3369 0.4227 -0.8413
vn 0.1371 0.9906 0.0019
vn 0.5930 -0.7056 -0.3879
vn 0.3463 -0.7198 -0.6016
vn 0.3152 0.9058 -0.2830
vn 0.1463 0.9520 -0.2688
vn -0.6023 -0.7817 -0.1619
vn 0.2547 -0.9580 0.1315
vn 0.5599 -0.7151 -0.4184
vn 0.0502 -0.9745 -0.2188
vn 0.6238 0.7756 -0.0965
vn 0.3148 0.9488 0.0264
vn 0.2151 -0.9231 0.3187
vn -0.1692 -0.9079 -0.3836
vn 0.9209 0.2748 -0.2766
vn 0.3771 0.9060 -0.1921
vn 0.3250 0.9405 0.0988
vn 0.1025 -0.9266 -0.3618
vn 0.3387 -0.9064 0.2524
vn 0.9309 -0.0667 0.3592
vn 0.1574 0.9846 -0.0765
vn 0.4021 -0.9124 0.0768
vn 0.4316 -0.8618 0.2664
vn 0.8124 0.5699 0.1237
vn -0.4032 -0.8796 0.2527
vn 0.0029 0.0310 0.9995
vn 0.2709 0.8397 0.4706
vn 0.0843 -0.8587 0.5055
vn -0.0144 0.7053 0.7088
vn 0.1516 0.5423 0.8264
vn 0.3115 0.9439 -0.1096
vn -0.2932 -0.9543 0.0586
vn 0.1808 -0.9186 -0.3514
vn -0.4161 -0.3750 0.8284
vn -0.5216 0.5404 0.6602
vn 0.0816 0.9966 -0.0134
vn -0.2412 -0.9701 -0.0277
vn -0.1291 -0.8498 0.5111
vn -0.3854 0.0242 0.9224
vn -0.2938 0.8420 0.4525
vn -0.6904 -0.4924 0.5300
vn -0.5025 0.8620 0.0662
vn -0.3658 0.9303 -0.0260
vn -0.1522 -0.8236 0.5464
vn -0.0406 -0.8814 0.4706
vn -0.9550 -0.1359 0.2636
vn -0.0436 0.9766 0.2105
vn -0.0758 -0.5889 0.8046
vn 0.6207 -0.4443 -0.6459
vn -0.5025 -0.8297 -0.2430
vn -0.7279 0.0070 -0.6857
vn -0.3238 0.9393 -0.1135
vn 0.0968 -0.9953 -0.0067
vn -0.8751 -0.3915 -0.2845
vn -0.2835 0.9291 -0.2376
vn -0.1107 0.9937 0.0196
vn -0.1279 0.8360 -0.5336
vn -0.0199 0.9489 0.3149
vn 0.4220 -0.8828 -0.2065
vn 0.2156 -0.3219 -0.9219
vn -0.1001 0.6943 -0.7127
vn 0.3037 0.8698 -0.3887
vn 0.4512 -0.8922 -0.0201
vn 0.0875 -0.9713 -0.2214
vn -0.4524 0.8918 -0.0004
vn -0.7601 -0.4342 -0.4834
vn 0.0758 -0.7586 -0.6472
vn -0.3304 0.9362 -0.1196
vn -0.9776 -0.1318 -0.1641
vn -0.6440 -0.6059 -0.4670
vn 0.6726 0.5420 0.5038
vn 0.2871 -0.9579 -0.0005
vn 0.3532 -0.7946 0.4939
vn 0.2674 0.9310 0.2485
vn 0.8043 -0.2215 0.5514
vn 0.3618 -0.9309 -0.0514
vn 0.0737 -0.9810 -0.1793
vn -0.4435 0.8962 0.0127
vn -0.0363 -0.5643 0.8248
vn -0.2606 -0.9424 0.2098
vn -0.2002 0.7546 0.6249
vn -0.2952 -0.6088 0.7363
vn 0.1285 -0.8661 -0.4831
vn -0.3650 0.6357 -0.6802
vn -0.0789 -0.8006 -0.5940
vn 0.2487 -0.9573 -0.1473
vn 0.2453 0.9592 -0.1405
vn -0.2695 0.8717 -0.4092
usemtl Material.001
s off
f 1//1 55//1 5//1 6//1
f 54//2 53//2 3//2 4//2
f 58//3 57//3 8//3 9//3
f 56//4 1//4 6//4 7//4
f 55//5 54//5 4//5 5//5
f 53//6 2//6 3//6
f 17//7 58//7 9//7
f 57//8 56//8 7//8 8//8
f 9//9 8//9 15//9 16//9
f 7//10 6//10 13//10 14//10
f 5//11 4//11 11//11 12//11
f 3//12 2//12 10//12
f 17//13 9//13 16//13
f 8//14 7//14 14//14 15//14
f 6//15 5//15 12//15 13//15
f 4//16 3//16 10//16 11//16
f 10//17 2//17 18//17
f 17//18 16//18 24//18
f 15//19 14//19 22//19 23//19
f 13//20 12//20 20//20 21//20
f 11//21 10//21 18//21 19//21
f 16//22 15//22 23//22 24//22
f 14//23 13//23 21//23 22//23
f 12//24 11//24 19//24 20//24
f 66//25 67//25 29//25 30//25
f 68//26 69//26 27//26 28//26
f 70//27 71//27 25//27 26//27
f 72//28 66//28 30//28 31//28
f 67//29 68//29 28//29 29//29
f 69//30 70//30 26//30 27//30
f 18//31 2//31 25//31 71//31
f 17//32 24//32 72//32 31//32
f 31//33 30//33 37//33 38//33
f 29//34 28//34 35//34 36//34
f 27//35 26//35 33//35 34//35
f 25//36 2//36 32//36
f 17//37 31//37 38//37
f 30//38 29//38 36//38 37//38
f 28//39 27//39 34//39 35//39
f 26//40 25//40 32//40 33//40
f 73//41 74//41 42//41 43//41
f 75//42 76//42 40//42 41//42
f 32//43 2//43 39//43 77//43
f 17//44 38//44 78//44 45//44
f 79//45 73//45 43//45 44//45
f 74//46 75//46 41//46 42//46
f 76//47 77//47 39//47 40//47
f 78//48 79//48 44//48 45//48
f 17//49 45//49 59//49 52//49
f 60//50 61//50 50//50 51//50
f 62//51 63//51 48//51 49//51
f 64//52 65//52 46//52 47//52
f 59//53 60//53 51//53 52//53
f 61//54 62//54 49//54 50//54
f 63//55 64//55 47//55 48//55
f 39//56 2//56 46//56 65//56
f 86//57 80//57 55//57 1//57
f 81//58 82//58 53//58 54//58
f 83//59 84//59 57//59 58//59
f 85//60 86//60 1//60 56//60
f 80//61 81//61 54//61 55//61
f 46//62 2//62 53//62 82//62
f 17//63 52//63 83//63 58//63
f 84//64 85//64 56//64 57//64
f 41//65 40//65 64//65 63//65
f 43//66 42//66 62//66 61//66
f 45//67 44//67 60//67 59//67
f 40//68 39//68 65//68 64//68
f 42//69 41//69 63//69 62//69
f 44//70 43//70 61//70 60//70
f 20//71 19//71 70//71 69//71
f 22//72 21//72 68//72 67//72
f 24//73 23//73 66//73 72//73
f 19//74 18//74 71//74 70//74
f 21//75 20//75 69//75 68//75
f 23//76 22//76 67//76 66//76
f 38//77 37//77 79//77 78//77
f 33//78 32//78 77//78 76//78
f 35//79 34//79 75//79 74//79
f 37//80 36//80 73//80 79//80
f 34//81 33//81 76//81 75//81
f 36//82 35//82 74//82 73//82
f 51//83 50//83 85//83 84//83
f 48//84 47//84 81//84 80//84
f 50//85 49//85 86//85 85//85
f 52//86 51//86 84//86 83//86
f 47//87 46//87 82//87 81//87
f 49//88 48//88 80//88 86//88
