# Blender v2.79 (sub 0) OBJ File: 'cloud2.blend'
# www.blender.org
mtllib cloud3.mtl
o Cube
v 0.359661 0.286697 -1.599737
v 0.735053 0.694712 0.394596
v 0.734016 0.712006 -0.478229
v 1.044885 0.327373 -0.727032
v 1.378244 0.353732 -1.535804
v 1.612521 0.130534 -1.800126
v 1.074607 -0.163425 -1.411797
v 0.764302 0.093441 -0.713753
v 0.234022 -0.613399 -0.464401
v 1.187056 0.626441 0.344198
v 1.283411 0.539159 0.043977
v 1.887867 0.019500 -0.325642
v 1.528173 0.133078 -0.147177
v 1.414088 -0.113733 -0.003941
v 0.870334 -0.131376 0.081418
v 0.394852 -0.368420 0.060915
v -0.033588 -0.409386 0.082718
v 1.019899 0.545720 0.706920
v 1.258931 0.450745 0.590666
v 1.027143 0.332387 0.398858
v 1.573840 -0.080760 0.243115
v 0.933915 0.167578 0.745675
v 0.671965 -0.079949 0.634771
v 0.279825 -0.535676 0.494949
v 0.027763 1.052771 1.039515
v 0.006456 0.792429 1.130258
v -0.019472 0.392407 1.584298
v -0.325125 0.056396 1.662662
v -0.008822 -0.106923 1.466315
v -0.007331 -0.384667 0.723324
v -0.026012 -0.428991 0.734590
v -0.268560 1.054143 0.617252
v -0.504699 0.878748 0.997111
v -0.568154 0.506832 1.390648
v -0.763576 0.451008 1.455720
v -0.764817 -0.214050 0.848295
v -0.600998 -0.451327 0.571423
v -0.346809 -0.341003 0.462553
v -0.685344 1.017448 -0.113213
v -1.288272 0.775610 0.286436
v -1.507897 0.392726 0.041821
v -1.657371 0.096060 -0.373386
v -1.601228 -0.191390 -0.190536
v -1.519395 -0.515514 -0.317229
v -0.516028 -0.786847 -0.304709
v 0.122516 1.045211 -0.146067
v -0.484152 0.882738 -1.046812
v -1.199791 0.529907 -1.679694
v -1.266274 0.038515 -2.200576
v -1.236859 -0.290225 -1.639567
v -0.727828 -0.509559 -1.338977
v -0.338666 -0.396972 -0.405996
v 0.636749 0.664034 -0.565094
v 0.788352 0.467274 -0.827558
v 0.566509 0.276719 -1.278167
v 0.211804 -0.146237 -1.970926
v 0.232181 -0.171116 -1.431224
v -0.053463 -0.195288 -0.786806
v -0.438439 -0.488718 -0.251770
v -1.250075 -0.498666 -0.783676
v -1.451789 -0.167121 -0.825735
v -1.471940 0.031250 -0.989619
v -1.644027 0.291012 -0.897724
v -1.500328 0.960259 -0.474210
v -0.441878 1.122019 -0.118661
v 0.305650 -0.320674 0.805929
v 0.480582 -0.233649 1.566903
v 0.584026 -0.117277 1.388783
v 0.768062 0.422481 1.227025
v 0.890473 0.483872 1.208795
v 0.709762 0.789768 1.051961
v 0.126907 -0.426220 0.616642
v -1.198669 -0.318357 0.489571
v -1.090951 0.159765 1.204200
v -1.017971 0.442479 1.296083
v -1.060332 0.743376 0.641997
v -0.502436 0.820169 0.424017
v -0.438894 -0.361774 0.077899
v -1.011181 -0.332544 0.221892
v -0.464964 0.394070 -1.676228
v 0.166729 0.664168 -0.749185
v 0.487639 0.538773 -0.348121
v -0.156813 -0.417888 -0.704221
v -0.281687 -0.267849 -1.405812
v -0.706422 -0.140373 -1.950158
v -0.697488 0.142824 -2.414835
v -1.851319 0.073115 -0.246245
v -1.974702 -0.095052 -0.186641
v -1.802271 -0.032042 -0.554940
v -1.814420 0.034100 -0.522271
v -1.758274 0.000178 -1.102974
v -1.435917 -0.110548 -0.977857
v -1.845075 -0.238675 -0.719274
v -1.703562 -0.316640 -0.632113
v -0.275052 0.224981 1.720861
v -0.304646 0.198364 1.727083
v -0.312212 0.213991 1.720073
v -0.297329 0.225006 1.717003
vn -0.0402 0.9383 -0.3434
vn 0.4455 0.7643 -0.4662
vn 0.3372 -0.8559 -0.3922
vn 0.1516 -0.1660 -0.9744
vn 0.0399 0.9913 -0.1257
vn -0.4553 0.8902 0.0182
vn -0.7633 -0.6312 -0.1380
vn 0.0047 -0.9827 0.1853
vn 0.6641 -0.7375 -0.1230
vn 0.6193 -0.7842 -0.0382
vn 0.3775 0.9221 -0.0856
vn 0.1514 0.9883 0.0194
vn 0.1073 -0.9132 0.3930
vn -0.2853 -0.9582 -0.0185
vn 0.7153 -0.6740 -0.1843
vn 0.5288 0.7967 -0.2926
vn 0.1745 0.9410 0.2898
vn 0.0722 -0.9370 -0.3419
vn 0.2796 -0.8853 0.3717
vn 0.7243 0.4890 0.4861
vn 0.6968 0.6644 0.2704
vn 0.6093 -0.7865 0.1011
vn 0.0718 -0.9937 0.0862
vn 0.8180 -0.0278 0.5745
vn -0.1317 -0.9598 0.2480
vn 0.3524 0.0590 0.9340
vn 0.1019 0.4225 0.9006
vn 0.1596 -0.8353 0.5262
vn 0.1302 0.0345 0.9909
vn 0.2292 0.6593 0.7161
vn 0.4216 0.8996 -0.1139
vn -0.2889 -0.9557 0.0567
vn 0.1284 -0.9373 -0.3241
vn -0.5167 -0.6893 0.5079
vn -0.0656 0.7412 0.6681
vn 0.2905 0.9356 -0.2008
vn -0.2436 -0.9695 -0.0263
vn -0.1303 -0.8934 0.4300
vn -0.1070 0.7073 0.6987
vn -0.2979 0.7762 0.5557
vn -0.9017 -0.2041 0.3813
vn -0.8256 0.4317 0.3634
vn 0.0978 0.9896 -0.1055
vn -0.1059 -0.8494 0.5170
vn -0.4570 -0.8049 0.3784
vn -0.9362 0.0558 0.3470
vn -0.1051 0.9504 0.2927
vn -0.1030 -0.7990 0.5925
vn 0.6197 -0.4491 -0.6436
vn -0.5347 -0.8191 -0.2077
vn -0.9490 0.1081 -0.2961
vn -0.0002 0.9683 -0.2496
vn 0.1157 -0.9932 -0.0118
vn -0.9288 -0.3270 -0.1742
vn -0.4570 0.7955 -0.3979
vn -0.0004 0.7681 0.6403
vn 0.1493 0.9489 -0.2778
vn 0.0467 0.9918 -0.1186
vn 0.4501 -0.8908 -0.0615
vn 0.3775 -0.2007 -0.9040
vn 0.2493 0.8614 -0.4425
vn 0.3888 0.8670 -0.3116
vn 0.5112 -0.8565 -0.0708
vn 0.0573 -0.9851 -0.1620
vn -0.9579 0.2000 0.2059
vn -0.9200 -0.3129 -0.2360
vn 0.0551 -0.8160 -0.5754
vn -0.2138 0.9168 0.3373
vn -0.7476 0.6639 -0.0158
vn -0.8767 -0.3345 -0.3457
vn 0.3490 -0.9087 0.2289
vn -0.6206 -0.5341 -0.5742
vn 0.4593 -0.7480 0.4790
vn 0.6545 0.7113 0.2564
vn 0.8071 0.3103 0.5023
vn 0.6134 -0.7898 -0.0043
vn 0.0467 -0.9854 -0.1635
vn -0.3663 0.9255 -0.0961
vn -0.5080 0.3401 0.7914
vn -0.2443 -0.9307 0.2722
vn -0.3769 0.7828 0.4951
vn -0.1382 -0.7435 0.6543
vn 0.1442 -0.8492 -0.5079
vn 0.3178 0.7536 -0.5754
vn -0.0456 -0.8583 -0.5111
vn 0.2734 -0.9558 -0.1079
vn 0.5540 0.7216 -0.4153
vn -0.0593 0.8660 -0.4965
vn -0.8811 0.3870 -0.2718
vn 0.3141 0.3397 -0.8865
vn 0.4503 -0.6940 0.5617
vn 0.5091 -0.8403 0.1866
vn -0.0868 -0.8312 -0.5492
vn -0.6192 -0.4062 0.6720
vn 0.7610 0.1434 0.6326
vn -0.9410 0.3202 -0.1097
vn -0.1602 0.3383 0.9273
vn 0.0289 0.7683 0.6395
vn 0.6169 -0.4143 0.6692
vn -0.5681 -0.1661 0.8060
usemtl Material.001
s off
f 1//1 55//1 5//1 6//1
f 54//2 53//2 3//2 4//2
f 58//3 57//3 8//3 9//3
f 56//4 1//4 6//4 7//4
f 55//5 54//5 4//5 5//5
f 53//6 2//6 3//6
f 17//7 58//7 9//7
f 57//8 56//8 7//8 8//8
f 9//9 8//9 15//9 16//9
f 7//10 6//10 13//10 14//10
f 5//11 4//11 11//11 12//11
f 3//12 2//12 10//12
f 17//13 9//13 16//13
f 8//14 7//14 14//14 15//14
f 6//15 5//15 12//15 13//15
f 4//16 3//16 10//16 11//16
f 10//17 2//17 18//17
f 17//18 16//18 24//18
f 15//19 14//19 22//19 23//19
f 13//20 12//20 20//20 21//20
f 11//21 10//21 18//21 19//21
f 16//22 15//22 23//22 24//22
f 14//23 13//23 21//23 22//23
f 12//24 11//24 19//24 20//24
f 66//25 67//25 29//25 30//25
f 68//26 69//26 27//26 28//26
f 70//27 71//27 25//27 26//27
f 72//28 66//28 30//28 31//28
f 67//29 68//29 28//29 29//29
f 69//30 70//30 26//30 27//30
f 18//31 2//31 25//31 71//31
f 17//32 24//32 72//32 31//32
f 31//33 30//33 37//33 38//33
f 29//34 28//34 35//34 36//34
f 27//35 26//35 33//35 34//35
f 25//36 2//36 32//36
f 17//37 31//37 38//37
f 30//38 29//38 36//38 37//38
f 27//39 34//39 97//39 95//39
f 26//40 25//40 32//40 33//40
f 73//41 74//41 42//41 43//41
f 75//42 76//42 40//42 41//42
f 32//43 2//43 39//43 77//43
f 17//44 38//44 78//44 45//44
f 79//45 73//45 43//45 44//45
f 74//46 75//46 41//46 42//46
f 76//47 77//47 39//47 40//47
f 78//48 79//48 44//48 45//48
f 17//49 45//49 59//49 52//49
f 60//50 61//50 50//50 51//50
f 62//51 63//51 48//51 49//51
f 64//52 65//52 46//52 47//52
f 59//53 60//53 51//53 52//53
f 61//54 62//54 49//54 50//54
f 63//55 64//55 47//55 48//55
f 39//56 2//56 46//56 65//56
f 86//57 80//57 55//57 1//57
f 81//58 82//58 53//58 54//58
f 83//59 84//59 57//59 58//59
f 85//60 86//60 1//60 56//60
f 80//61 81//61 54//61 55//61
f 46//62 2//62 53//62 82//62
f 17//63 52//63 83//63 58//63
f 84//64 85//64 56//64 57//64
f 41//65 40//65 64//65 63//65
f 43//66 42//66 62//66 61//66
f 45//67 44//67 60//67 59//67
f 40//68 39//68 65//68 64//68
f 41//69 63//69 90//69 87//69
f 44//70 43//70 61//70 60//70
f 20//71 19//71 70//71 69//71
f 22//72 21//72 68//72 67//72
f 24//73 23//73 66//73 72//73
f 19//74 18//74 71//74 70//74
f 21//75 20//75 69//75 68//75
f 23//76 22//76 67//76 66//76
f 38//77 37//77 79//77 78//77
f 33//78 32//78 77//78 76//78
f 35//79 34//79 75//79 74//79
f 37//80 36//80 73//80 79//80
f 34//81 33//81 76//81 75//81
f 36//82 35//82 74//82 73//82
f 51//83 50//83 85//83 84//83
f 48//84 47//84 81//84 80//84
f 50//85 49//85 86//85 85//85
f 52//86 51//86 84//86 83//86
f 47//87 46//87 82//87 81//87
f 49//88 48//88 80//88 86//88
f 88//89 87//89 90//89 89//89
f 63//90 62//90 92//90 91//90
f 42//91 41//91 87//91 88//91
f 62//92 42//92 88//92 89//92
f 91//93 92//93 94//93 93//93
f 89//94 90//94 93//94 94//94
f 62//95 89//95 94//95 92//95
f 90//96 63//96 91//96 93//96
f 96//97 95//97 97//97 98//97
f 34//98 35//98 98//98 97//98
f 28//99 27//99 95//99 96//99
f 35//100 28//100 96//100 98//100
