# Blender v3.0.0 OBJ File: ''
# www.blender.org
mtllib Coin.mtl
o Cylinder
v 0.238228 -0.012200 -0.098677
v 0.238228 0.057878 -0.098677
v 0.238228 -0.012200 0.098677
v 0.238228 0.057878 0.098677
v 0.098677 -0.012200 0.238228
v 0.098677 0.057878 0.238228
v -0.098677 -0.012200 0.238228
v -0.098677 0.057878 0.238228
v -0.238228 -0.012200 0.098677
v -0.238228 0.057878 0.098677
v -0.238228 -0.012200 -0.098677
v -0.238228 0.057878 -0.098677
v -0.098677 -0.012200 -0.238228
v -0.098677 0.057878 -0.238228
v 0.098677 -0.012200 -0.238228
v 0.098677 0.057878 -0.238228
v 0.298719 -0.031790 -0.123734
v 0.298719 -0.031790 0.123734
v 0.298719 0.077467 0.123734
v 0.298719 0.077467 -0.123734
v 0.123734 -0.031790 0.298719
v 0.123734 0.077467 0.298719
v -0.123734 -0.031790 0.298719
v -0.123734 0.077467 0.298719
v -0.298719 -0.031790 0.123734
v -0.298719 0.077467 0.123734
v -0.298719 -0.031790 -0.123734
v -0.298719 0.077467 -0.123734
v -0.123734 -0.031790 -0.298719
v -0.123734 0.077467 -0.298719
v 0.123734 -0.031790 -0.298719
v 0.123734 0.077467 -0.298719
v 0.238228 -0.031790 -0.098677
v 0.238228 -0.031790 0.098677
v 0.238228 0.077467 0.098677
v 0.238228 0.077467 -0.098677
v 0.098677 -0.031790 0.238228
v 0.098677 0.077467 0.238228
v -0.098677 -0.031790 0.238228
v -0.098677 0.077467 0.238228
v -0.238228 -0.031790 0.098677
v -0.238228 0.077467 0.098677
v -0.238228 -0.031790 -0.098677
v -0.238228 0.077467 -0.098677
v -0.098677 -0.031790 -0.238228
v -0.098677 0.077467 -0.238228
v 0.098677 -0.031790 -0.238228
v 0.098677 0.077467 -0.238228
vt 0.370804 0.060522
vt 0.370804 0.948877
vt 0.370804 0.948877
vt 0.370804 0.060522
vt 0.302758 0.948877
vt 0.302758 0.060523
vt 0.206526 0.948877
vt 0.206526 0.060523
vt 0.138479 0.948877
vt 0.138479 0.060522
vt 0.138479 0.948877
vt 0.138479 0.060522
vt 0.206526 0.948875
vt 0.206526 0.060522
vt 0.347281 0.789598
vt 0.347281 0.789598
vt 0.293014 0.789598
vt 0.216269 0.789598
vt 0.162003 0.789598
vt 0.162003 0.789598
vt 0.216269 0.789598
vt 0.293014 0.789598
vt 0.302758 0.948875
vt 0.302758 0.060522
vt 0.347281 0.219800
vt 0.347281 0.219802
vt 0.293014 0.219802
vt 0.216269 0.219802
vt 0.162003 0.219802
vt 0.162003 0.219800
vt 0.216269 0.219800
vt 0.293014 0.219800
vt 0.347281 0.060522
vt 0.347281 0.060522
vt 0.347281 0.948877
vt 0.347281 0.948877
vt 0.293014 0.060522
vt 0.293014 0.948877
vt 0.216269 0.060522
vt 0.216269 0.948877
vt 0.162003 0.060522
vt 0.162003 0.948877
vt 0.162003 0.060522
vt 0.162003 0.948877
vt 0.216269 0.060522
vt 0.216269 0.948877
vt 0.293014 0.060522
vt 0.293014 0.948877
vn 1.0000 0.0000 0.0000
vn 0.7071 0.0000 0.7071
vn 0.0000 0.0000 1.0000
vn -0.7071 0.0000 0.7071
vn -1.0000 0.0000 0.0000
vn -0.7071 0.0000 -0.7071
vn 0.0000 1.0000 -0.0000
vn -0.0000 0.0000 -1.0000
vn 0.7071 0.0000 -0.7071
vn 0.0000 -1.0000 0.0000
usemtl Material
s off
f 17/1/1 20/2/1 19/3/1 18/4/1
f 18/4/2 19/3/2 22/5/2 21/6/2
f 21/6/3 22/5/3 24/7/3 23/8/3
f 23/8/4 24/7/4 26/9/4 25/10/4
f 25/10/5 26/9/5 28/11/5 27/12/5
f 27/12/6 28/11/6 30/13/6 29/14/6
f 4/15/7 2/16/7 16/17/7 14/18/7 12/19/7 10/20/7 8/21/7 6/22/7
f 29/14/8 30/13/8 32/23/8 31/24/8
f 31/24/9 32/23/9 20/2/9 17/1/9
f 1/25/10 3/26/10 5/27/10 7/28/10 9/29/10 11/30/10 13/31/10 15/32/10
f 34/33/10 33/34/10 17/1/10 18/4/10
f 36/35/7 35/36/7 19/3/7 20/2/7
f 37/37/10 34/33/10 18/4/10 21/6/10
f 35/36/7 38/38/7 22/5/7 19/3/7
f 39/39/10 37/37/10 21/6/10 23/8/10
f 38/38/7 40/40/7 24/7/7 22/5/7
f 41/41/10 39/39/10 23/8/10 25/10/10
f 40/40/7 42/42/7 26/9/7 24/7/7
f 43/43/10 41/41/10 25/10/10 27/12/10
f 42/42/7 44/44/7 28/11/7 26/9/7
f 45/45/10 43/43/10 27/12/10 29/14/10
f 44/44/7 46/46/7 30/13/7 28/11/7
f 47/47/10 45/45/10 29/14/10 31/24/10
f 46/46/7 48/48/7 32/23/7 30/13/7
f 33/34/10 47/47/10 31/24/10 17/1/10
f 48/48/7 36/35/7 20/2/7 32/23/7
f 3/26/5 1/25/5 33/34/5 34/33/5
f 2/16/5 4/15/5 35/36/5 36/35/5
f 5/27/6 3/26/6 34/33/6 37/37/6
f 4/15/6 6/22/6 38/38/6 35/36/6
f 7/28/8 5/27/8 37/37/8 39/39/8
f 6/22/8 8/21/8 40/40/8 38/38/8
f 9/29/9 7/28/9 39/39/9 41/41/9
f 8/21/9 10/20/9 42/42/9 40/40/9
f 11/30/1 9/29/1 41/41/1 43/43/1
f 10/20/1 12/19/1 44/44/1 42/42/1
f 13/31/2 11/30/2 43/43/2 45/45/2
f 12/19/2 14/18/2 46/46/2 44/44/2
f 15/32/3 13/31/3 45/45/3 47/47/3
f 14/18/3 16/17/3 48/48/3 46/46/3
f 1/25/4 15/32/4 47/47/4 33/34/4
f 16/17/4 2/16/4 36/35/4 48/48/4
o Cube_Cube.002
v 0.120489 0.057878 -0.072272
v 0.120489 0.077467 -0.072272
v 0.120489 0.057878 -0.146446
v 0.120489 0.077467 -0.146446
v -0.097332 0.057878 -0.146446
v -0.097332 0.077467 -0.146446
v -0.023158 0.057878 -0.146446
v -0.023158 0.077467 -0.146446
v -0.097332 0.057878 0.146446
v -0.097332 0.077467 0.146446
v -0.023158 0.057878 0.146446
v -0.023158 0.077467 0.146446
v -0.023158 0.057878 0.072272
v -0.023158 0.077467 0.072272
v -0.097332 0.057878 0.072272
v -0.097332 0.077467 0.072272
v -0.023158 0.057878 -0.072272
v -0.097332 0.077467 -0.072272
v -0.023158 0.077467 -0.072272
v -0.097332 0.057878 -0.072272
v 0.120489 0.057878 0.146446
v 0.120489 0.077467 0.146446
v 0.120489 0.057878 0.072272
v 0.120489 0.077467 0.072272
vt 0.701739 0.982355
vt 0.701739 0.982355
vt 0.917197 0.982355
vt 0.917197 0.982355
vt 0.917196 0.742019
vt 0.917196 0.742019
vt 0.701739 0.742019
vt 0.701739 0.742019
vt 0.590486 0.982355
vt 0.590486 0.982355
vt 0.701739 0.033333
vt 0.701739 0.033333
vt 0.590486 0.033333
vt 0.590486 0.033333
vt 0.590486 0.742019
vt 0.590486 0.742019
vt 0.701739 0.273670
vt 0.590486 0.273670
vt 0.701739 0.273670
vt 0.590486 0.273670
vt 0.917196 0.273670
vt 0.917196 0.273670
vt 0.917196 0.033334
vt 0.917196 0.033334
vn 0.0000 0.0000 -1.0000
vn 1.0000 0.0000 0.0000
vn 0.0000 0.0000 1.0000
vn 0.0000 -1.0000 0.0000
vn 0.0000 1.0000 0.0000
vn -1.0000 0.0000 -0.0000
usemtl Material
s off
f 55/49/11 56/50/11 52/51/11 51/52/11
f 51/52/12 52/51/12 50/53/12 49/54/12
f 49/54/13 50/53/13 67/55/13 65/56/13
f 55/49/14 51/52/14 49/54/14 65/56/14
f 52/51/15 56/50/15 67/55/15 50/53/15
f 53/57/11 54/58/11 56/50/11 55/49/11
f 59/59/13 60/60/13 58/61/13 57/62/13
f 68/63/16 66/64/16 54/58/16 53/57/16
f 61/65/14 59/59/14 57/62/14 63/66/14
f 67/55/15 56/50/15 54/58/15 66/64/15
f 60/60/15 62/67/15 64/68/15 58/61/15
f 65/56/14 61/65/14 63/66/14 68/63/14
f 57/62/16 58/61/16 64/68/16 63/66/16
f 65/56/12 67/55/12 62/67/12 61/65/12
f 55/49/14 65/56/14 68/63/14 53/57/14
f 62/67/15 67/55/15 66/64/15 64/68/15
f 63/66/16 64/68/16 66/64/16 68/63/16
f 61/65/11 62/67/11 72/69/11 71/70/11
f 71/70/12 72/69/12 70/71/12 69/72/12
f 69/72/13 70/71/13 60/60/13 59/59/13
f 61/65/14 71/70/14 69/72/14 59/59/14
f 72/69/15 62/67/15 60/60/15 70/71/15
