# Blender v3.0.0 OBJ File: 'Magnet simple lowpoly.blend'
# www.blender.org
mtllib Magnet.mtl
o Cylinder_Cylinder.002
v 0.091988 0.000000 -0.060523
v 0.091988 -0.000000 0.060523
v 0.079664 -0.045994 -0.060523
v 0.079664 -0.045994 0.060523
v 0.045994 -0.079664 -0.060523
v 0.045994 -0.079664 0.060523
v -0.000000 -0.091988 -0.060523
v -0.000000 -0.091988 0.060523
v -0.045994 -0.079664 -0.060523
v -0.045994 -0.079664 0.060523
v -0.079664 -0.045994 -0.060523
v -0.079664 -0.045994 0.060523
v -0.091988 0.000000 -0.060523
v -0.091988 -0.000000 0.060523
v -0.180370 0.307937 0.060523
v -0.180370 0.307937 -0.060523
v 0.180370 0.307937 0.060523
v 0.180370 0.307937 -0.060523
v 0.218493 -0.000000 -0.060523
v 0.218493 -0.000000 0.060523
v 0.189220 -0.109246 -0.060523
v 0.189220 -0.109246 0.060523
v 0.109246 -0.189220 -0.060523
v 0.109246 -0.189220 0.060523
v -0.000000 -0.218493 -0.060523
v -0.000000 -0.218493 0.060523
v -0.109246 -0.189220 -0.060523
v -0.109246 -0.189220 0.060523
v -0.189220 -0.109246 -0.060523
v -0.189220 -0.109246 0.060523
v -0.218493 0.000000 -0.060523
v -0.218493 -0.000000 0.060523
v -0.075938 0.307937 0.060523
v -0.075938 0.307937 -0.060523
v 0.075938 0.307937 0.060523
v 0.075938 0.307937 -0.060523
v -0.083492 0.163010 -0.060523
v -0.198312 0.163010 -0.060523
v -0.198312 0.163010 0.060523
v -0.083492 0.163010 0.060523
v 0.198312 0.163010 0.060523
v 0.083492 0.163010 0.060523
v 0.083492 0.163010 -0.060523
v 0.198312 0.163010 -0.060523
vt 0.658459 0.020978
vt 0.536478 0.020978
vt 0.555539 0.973916
vt 0.666484 0.973916
vt 0.536478 0.020978
vt 0.555539 0.973916
vt 0.957839 0.020978
vt 0.957839 0.020978
vt 0.938778 0.973916
vt 0.938778 0.973916
vt 0.477278 0.563074
vt 0.477278 0.563074
vt 0.446180 0.293112
vt 0.446180 0.293112
vt 0.361218 0.095486
vt 0.361218 0.095486
vt 0.245158 0.023150
vt 0.245158 0.023150
vt 0.129099 0.095486
vt 0.129099 0.095486
vt 0.044137 0.293112
vt 0.044137 0.293112
vt 0.013039 0.563074
vt 0.013039 0.563074
vt 0.658459 0.020978
vt 0.666484 0.973916
vt 0.835858 0.020978
vt 0.827833 0.973916
vt 0.835858 0.020978
vt 0.827833 0.973916
vt 0.329791 0.449417
vt 0.342884 0.563074
vt 0.342884 0.563074
vt 0.329791 0.449417
vt 0.294021 0.366214
vt 0.294021 0.366214
vt 0.245158 0.335759
vt 0.245158 0.335759
vt 0.196296 0.366214
vt 0.196296 0.366214
vt 0.160526 0.449417
vt 0.160526 0.449417
vt 0.147433 0.563074
vt 0.147433 0.563074
vt 0.333858 0.965893
vt 0.333858 0.965893
vt 0.156459 0.965893
vt 0.156459 0.965893
vt 0.034478 0.965893
vt 0.034478 0.965893
vt 0.455839 0.965893
vt 0.455839 0.965893
vn 0.0000 0.0000 -1.0000
vn -0.9924 0.1229 0.0000
vn 0.9924 0.1229 0.0000
vn 0.9659 -0.2588 -0.0000
vn 0.7071 -0.7071 0.0000
vn 0.2588 -0.9659 0.0000
vn -0.2588 -0.9659 0.0000
vn -0.7071 -0.7071 0.0000
vn -0.9659 -0.2588 -0.0000
vn 0.0000 -0.0000 1.0000
vn -0.7071 0.7071 0.0000
vn -0.9659 0.2588 0.0000
vn -0.9986 -0.0521 0.0000
vn 0.0000 1.0000 0.0000
vn 0.9659 0.2588 0.0000
vn 0.9986 -0.0521 0.0000
vn 0.7071 0.7071 0.0000
vn 0.2588 0.9659 0.0000
vn -0.2588 0.9659 0.0000
usemtl Material
s off
f 37/1/1 38/2/1 16/3/1 34/4/1
f 38/2/2 39/5/2 15/6/2 16/3/2
f 41/7/3 44/8/3 18/9/3 17/10/3
f 19/11/4 20/12/4 22/13/4 21/14/4
f 21/14/5 22/13/5 24/15/5 23/16/5
f 23/16/6 24/15/6 26/17/6 25/18/6
f 25/18/7 26/17/7 28/19/7 27/20/7
f 27/20/8 28/19/8 30/21/8 29/22/8
f 29/22/9 30/21/9 32/23/9 31/24/9
f 39/5/10 40/25/10 33/26/10 15/6/10
f 44/8/1 43/27/1 36/28/1 18/9/1
f 42/29/10 41/7/10 17/10/10 35/30/10
f 3/31/1 1/32/1 19/11/1 21/14/1
f 2/33/10 4/34/10 22/13/10 20/12/10
f 5/35/1 3/31/1 21/14/1 23/16/1
f 4/34/10 6/36/10 24/15/10 22/13/10
f 7/37/1 5/35/1 23/16/1 25/18/1
f 6/36/10 8/38/10 26/17/10 24/15/10
f 9/39/1 7/37/1 25/18/1 27/20/1
f 8/38/10 10/40/10 28/19/10 26/17/10
f 11/41/1 9/39/1 27/20/1 29/22/1
f 10/40/10 12/42/10 30/21/10 28/19/10
f 13/43/1 11/41/1 29/22/1 31/24/1
f 12/42/10 14/44/10 32/23/10 30/21/10
f 3/31/11 5/35/11 6/36/11 4/34/11
f 1/32/12 3/31/12 4/34/12 2/33/12
f 42/45/13 43/46/13 1/32/13 2/33/13
f 35/30/14 17/10/14 18/9/14 36/28/14
f 15/6/14 33/26/14 34/4/14 16/3/14
f 11/41/15 13/43/15 14/44/15 12/42/15
f 37/47/16 40/48/16 14/44/16 13/43/16
f 9/39/17 11/41/17 12/42/17 10/40/17
f 7/37/18 9/39/18 10/40/18 8/38/18
f 5/35/19 7/37/19 8/38/19 6/36/19
f 34/4/16 33/26/16 40/25/16 37/1/16
f 32/23/10 14/44/10 40/48/10 39/49/10
f 31/24/2 32/23/2 39/49/2 38/50/2
f 13/43/1 31/24/1 38/50/1 37/47/1
f 35/30/13 36/28/13 43/27/13 42/29/13
f 2/33/10 20/12/10 41/51/10 42/45/10
f 19/11/1 1/32/1 43/46/1 44/52/1
f 20/12/3 19/11/3 44/52/3 41/51/3
