# Blender v3.0.0 OBJ File: 'Soda Can.blend'
# www.blender.org
mtllib Beer Bottle.mtl
o Cylinder.001_Cylinder
v 0.000000 0.000000 -0.126380
v 0.000000 0.432524 -0.126380
v 0.109448 0.000000 -0.063190
v 0.109448 0.432524 -0.063190
v 0.109448 0.000000 0.063190
v 0.109448 0.432524 0.063190
v -0.000000 0.000000 0.126380
v -0.000000 0.432524 0.126380
v -0.109448 0.000000 0.063190
v -0.109448 0.432524 0.063190
v -0.109448 0.000000 -0.063190
v -0.109448 0.432524 -0.063190
v 0.063939 0.539697 -0.036915
v 0.000000 0.539697 -0.073831
v 0.063939 0.539697 0.036915
v 0.000000 0.539697 0.073831
v -0.063939 0.539697 0.036915
v -0.063939 0.539697 -0.036915
v 0.038872 0.788239 -0.022443
v 0.000000 0.788239 -0.044886
v 0.038872 0.788239 0.022443
v 0.000000 0.788239 0.044886
v -0.038872 0.788239 0.022443
v -0.038872 0.788239 -0.022443
v 0.054711 0.788239 -0.031588
v 0.000000 0.788239 -0.063175
v 0.054711 0.788239 0.031588
v 0.000000 0.788239 0.063175
v -0.054711 0.788239 0.031588
v -0.054711 0.788239 -0.031588
v 0.054712 0.835192 -0.031588
v 0.000000 0.835192 -0.063175
v 0.054712 0.835192 0.031588
v 0.000000 0.835192 0.063175
v -0.054711 0.835192 0.031588
v -0.054711 0.835192 -0.031588
v 0.109448 0.114947 0.063693
v 0.109448 0.317577 0.063693
v -0.000000 0.114947 0.126883
v -0.000000 0.317577 0.126883
v -0.109448 0.114947 0.063693
v -0.109448 0.317577 0.063693
vt 0.287663 0.063604
vt 0.287663 0.256415
vt 0.336453 0.256415
vt 0.336453 0.063604
vt 0.336453 0.256415
vt 0.336453 0.063604
vt 0.287663 0.256415
vt 0.287663 0.063604
vt 0.238874 0.256415
vt 0.238874 0.063604
vt 0.316166 0.304190
vt 0.287663 0.304190
vt 0.238874 0.256415
vt 0.238874 0.063604
vt 0.259160 0.304190
vt 0.287663 0.409572
vt 0.270335 0.409572
vt 0.259160 0.304190
vt 0.287663 0.304190
vt 0.316166 0.304190
vt 0.727117 0.012769
vt 0.660750 0.012769
vt 0.633708 0.012769
vt 0.727117 0.012769
vt 0.304992 0.409572
vt 0.304992 0.409572
vt 0.270335 0.409572
vt 0.287663 0.409572
vt 0.633708 0.012769
vt 0.633708 0.092931
vt 0.633708 0.092931
vt 0.660750 0.012769
vt 0.727117 0.012769
vt 0.727117 0.012769
vt 0.793483 0.012769
vt 0.793483 0.012769
vt 0.820525 0.012769
vt 0.820525 0.012769
vt 0.820525 0.092931
vt 0.727117 0.092931
vt 0.727117 0.092931
vt 0.820525 0.092931
vt 0.471219 0.612432
vt 0.471219 0.805243
vt 0.422429 0.805243
vt 0.422429 0.612432
vt 0.373639 0.805243
vt 0.373639 0.612432
vn 0.5000 0.0000 -0.8660
vn 1.0000 0.0000 0.0000
vn 0.5000 0.0000 0.8660
vn -0.5000 0.0000 0.8660
vn 0.4602 0.3908 0.7971
vn -1.0000 0.0000 0.0000
vn -0.5000 0.0000 -0.8660
vn 0.0000 -1.0000 0.0000
vn -0.4975 0.1003 0.8617
vn -0.4602 0.3908 -0.7971
vn -0.4602 0.3908 0.7971
vn 0.9205 0.3908 0.0000
vn -0.9205 0.3908 0.0000
vn 0.4602 0.3908 -0.7971
vn 0.9950 0.1003 0.0000
vn -0.9950 0.1003 0.0000
vn 0.4975 0.1003 0.8617
vn 0.4975 0.1003 -0.8617
vn -0.4975 0.1003 -0.8617
vn 0.0000 1.0000 0.0000
usemtl Material
s off
f 1/1/1 2/2/1 4/3/1 3/4/1
f 3/4/2 4/3/2 6/5/2 5/6/2
f 5/6/3 6/5/3 8/7/3 7/8/3
f 7/8/4 8/7/4 10/9/4 9/10/4
f 8/7/5 6/5/5 15/11/5 16/12/5
f 9/10/6 10/9/6 12/13/6 11/14/6
f 11/14/7 12/13/7 2/2/7 1/1/7
f 1/1/8 3/4/8 5/6/8 7/8/8 9/10/8 11/14/8
f 17/15/9 16/12/9 22/16/9 23/17/9
f 2/2/10 12/13/10 18/18/10 14/19/10
f 10/9/11 8/7/11 16/12/11 17/15/11
f 6/5/12 4/3/12 13/20/12 15/11/12
f 12/13/13 10/9/13 17/15/13 18/18/13
f 4/3/14 2/2/14 14/19/14 13/20/14
f 20/21/8 24/22/8 30/23/8 26/24/8
f 15/11/15 13/20/15 19/25/15 21/26/15
f 18/18/16 17/15/16 23/17/16 24/27/16
f 16/12/17 15/11/17 21/26/17 22/16/17
f 13/20/18 14/19/18 20/28/18 19/25/18
f 14/19/19 18/18/19 24/27/19 20/28/19
f 30/23/6 29/29/6 35/30/6 36/31/6
f 23/32/8 22/33/8 28/34/8 29/29/8
f 21/35/8 19/36/8 25/37/8 27/38/8
f 24/22/8 23/32/8 29/29/8 30/23/8
f 22/33/8 21/35/8 27/38/8 28/34/8
f 19/36/8 20/21/8 26/24/8 25/37/8
f 31/39/20 32/40/20 36/31/20 35/30/20 34/41/20 33/42/20
f 28/34/3 27/38/3 33/42/3 34/41/3
f 25/37/1 26/24/1 32/40/1 31/39/1
f 26/24/7 30/23/7 36/31/7 32/40/7
f 29/29/4 28/34/4 34/41/4 35/30/4
f 27/38/2 25/37/2 31/39/2 33/42/2
f 37/43/3 38/44/3 40/45/3 39/46/3
f 39/46/4 40/45/4 42/47/4 41/48/4
