# Blender v3.0.0 OBJ File: 'Bench.blend'
# www.blender.org
mtllib Bench.mtl
o Cube_Cube.001
v 0.931919 0.000000 0.254505
v 0.931919 0.269574 0.254505
v 0.931919 0.000000 0.384219
v 0.931919 0.269574 0.384219
v 0.805455 0.000000 0.254505
v 0.805455 0.269574 0.254505
v 0.805455 0.000000 0.384219
v 0.805455 0.269574 0.384219
v 0.931919 0.000000 -0.384219
v 0.931919 0.410265 -0.384219
v 0.931919 0.000000 -0.254505
v 0.931919 0.269574 -0.254505
v 0.805455 0.000000 -0.384219
v 0.805455 0.410265 -0.384219
v 0.805455 0.000000 -0.254505
v 0.805455 0.269574 -0.254505
v 0.931919 0.535086 0.254505
v 0.931919 0.535086 0.384219
v 0.805455 0.535086 0.384219
v 0.805455 0.535086 0.254505
v 0.931919 0.535086 -0.384219
v 0.931919 0.535086 -0.254505
v 0.805455 0.535086 -0.254505
v 0.805455 0.535086 -0.384219
v 0.805455 0.374373 0.127252
v 0.805455 0.397925 -0.000000
v 0.805455 0.374373 -0.127253
v 0.931919 0.374373 0.127252
v 0.931919 0.397925 -0.000000
v 0.931919 0.374373 -0.127253
v 0.805455 0.535086 -0.127253
v 0.805455 0.535086 -0.000000
v 0.805455 0.535086 0.127252
v 0.931919 0.535086 0.127252
v 0.931919 0.535086 -0.000000
v 0.931919 0.535086 -0.127253
v 0.805455 0.504974 -0.511974
v 0.931919 0.504974 -0.511974
v 0.805455 1.213658 -0.576761
v 0.805454 1.183545 -0.704516
v -0.931919 0.000000 0.254505
v -0.931919 0.269574 0.254505
v -0.931919 0.000000 0.384219
v -0.931919 0.269574 0.384219
v -0.805455 0.000000 0.254505
v -0.805455 0.269574 0.254505
v -0.805455 0.000000 0.384219
v -0.805455 0.269574 0.384219
v -0.931920 0.000000 -0.384219
v -0.931920 0.410265 -0.384219
v -0.931920 0.000000 -0.254505
v -0.931920 0.269574 -0.254505
v -0.805455 0.000000 -0.384219
v -0.805455 0.410265 -0.384219
v -0.805455 0.000000 -0.254505
v -0.805455 0.269574 -0.254505
v -0.931919 0.535086 0.254505
v -0.931919 0.535086 0.384219
v -0.805455 0.535086 0.384219
v -0.805455 0.535086 0.254505
v -0.931920 0.535086 -0.384219
v -0.931920 0.535086 -0.254505
v -0.805455 0.535086 -0.254505
v -0.805455 0.535086 -0.384219
v -0.805455 0.374373 0.127253
v -0.805455 0.397925 0.000000
v -0.805455 0.374373 -0.127252
v -0.931919 0.374373 0.127253
v -0.931920 0.397925 0.000000
v -0.931920 0.374373 -0.127252
v -0.805455 0.535086 -0.127252
v -0.805455 0.535086 0.000000
v -0.805455 0.535086 0.127253
v -0.931919 0.535086 0.127253
v -0.931920 0.535086 0.000000
v -0.931920 0.535086 -0.127252
v -0.805455 0.504974 -0.511974
v -0.931920 0.504974 -0.511974
v -0.805455 1.213658 -0.576760
v -0.805455 1.183545 -0.704515
v 0.931919 1.085255 -0.540327
v 0.805455 1.085255 -0.540327
v 0.931919 1.055143 -0.668082
v 0.805454 1.055143 -0.668082
v -0.931920 1.085255 -0.540327
v -0.805455 1.085255 -0.540327
v -0.931920 1.055143 -0.668082
v -0.805455 1.055143 -0.668082
vt 0.930778 0.191581
vt 0.930778 0.332744
vt 0.930778 0.332744
vt 0.930778 0.191581
vt 0.902462 0.332744
vt 0.902462 0.191581
vt 0.902462 0.332744
vt 0.902462 0.191581
vt 0.930778 0.471781
vt 0.902462 0.471781
vt 0.930778 0.191581
vt 0.930778 0.406417
vt 0.930778 0.332744
vt 0.930778 0.191581
vt 0.902462 0.332744
vt 0.902462 0.191581
vt 0.902462 0.406417
vt 0.902462 0.191581
vt 0.902462 0.471781
vt 0.902462 0.471781
vt 0.930778 0.471781
vt 0.902462 0.471781
vt 0.930778 0.471781
vt 0.930778 0.471781
vt 0.902462 0.456012
vt 0.930778 0.456012
vt 0.902462 0.387623
vt 0.930778 0.387623
vt 0.902462 0.387623
vt 0.902462 0.471781
vt 0.902462 0.471781
vt 0.930778 0.471781
vt 0.930778 0.471781
vt 0.930778 0.387623
vt 0.930778 0.471781
vt 0.930778 0.399956
vt 0.902462 0.471781
vt 0.902462 0.399956
vt 0.902462 0.811348
vt 0.930778 0.744110
vt 0.902462 0.744110
vt 0.648127 0.811348
vt 0.648127 0.744110
vt 0.619811 0.744110
vt 0.902462 0.759878
vt 0.930778 0.759878
vt 0.902462 0.827116
vt 0.648127 0.827116
vt 0.619811 0.191581
vt 0.619811 0.191581
vt 0.619811 0.332744
vt 0.619811 0.332744
vt 0.648127 0.191581
vt 0.648127 0.332744
vt 0.648127 0.191581
vt 0.648127 0.332744
vt 0.648127 0.471781
vt 0.619811 0.471781
vt 0.619811 0.191581
vt 0.619811 0.191581
vt 0.619811 0.332744
vt 0.619811 0.406417
vt 0.648127 0.191581
vt 0.648127 0.332744
vt 0.648127 0.191581
vt 0.648127 0.406417
vt 0.648127 0.471781
vt 0.648127 0.471781
vt 0.648127 0.471781
vt 0.619811 0.471781
vt 0.619811 0.471781
vt 0.619811 0.471781
vt 0.619811 0.456012
vt 0.648127 0.456012
vt 0.648127 0.387623
vt 0.619811 0.387623
vt 0.648127 0.387623
vt 0.648127 0.471781
vt 0.648127 0.471781
vt 0.619811 0.471781
vt 0.619811 0.471781
vt 0.619811 0.387623
vt 0.619811 0.399956
vt 0.619811 0.471781
vt 0.648127 0.471781
vt 0.648127 0.399956
vt 0.619811 0.759878
vt 0.648127 0.759878
vn 1.0000 0.0000 -0.0000
vn 0.0000 0.0000 1.0000
vn -1.0000 0.0000 0.0000
vn -0.0000 0.0000 -1.0000
vn 0.0000 -1.0000 0.0000
vn 0.0000 1.0000 0.0000
vn -0.0000 -0.8033 -0.5955
vn 0.0000 -0.7719 0.6357
vn -0.0000 -0.7719 -0.6357
vn -0.0000 -0.9833 -0.1820
vn 0.0000 -0.9833 0.1820
vn 0.0000 -0.2730 -0.9620
vn 0.0000 0.2730 0.9620
vn 0.7256 0.6698 -0.1579
vn -0.0000 0.9733 -0.2294
vn -0.7256 0.6698 -0.1579
vn 0.0000 -0.9733 0.2294
usemtl Material
s off
f 1/1/1 2/2/1 4/3/1 3/4/1
f 3/4/2 4/3/2 8/5/2 7/6/2
f 7/6/3 8/5/3 6/7/3 5/8/3
f 5/8/4 6/7/4 2/2/4 1/1/4
f 3/4/5 7/6/5 5/8/5 1/1/5
f 8/5/2 4/3/2 18/9/2 19/10/2
f 9/11/1 10/12/1 12/13/1 11/14/1
f 11/14/2 12/13/2 16/15/2 15/16/2
f 15/16/3 16/15/3 14/17/3 13/18/3
f 13/18/4 14/17/4 10/12/4 9/11/4
f 11/14/5 15/16/5 13/18/5 9/11/5
f 14/17/3 16/15/3 23/19/3 24/20/3
f 19/10/6 18/9/6 17/21/6 20/22/6
f 23/19/6 22/23/6 21/24/6 24/20/6
f 12/13/1 10/12/1 21/24/1 22/23/1
f 10/12/7 14/17/7 37/25/7 38/26/7
f 6/7/3 8/5/3 19/10/3 20/22/3
f 27/27/8 16/15/8 12/13/8 30/28/8
f 4/3/1 2/2/1 17/21/1 18/9/1
f 25/29/3 6/7/3 20/22/3 33/30/3
f 31/31/6 36/32/6 22/23/6 23/19/6
f 34/33/1 17/21/1 2/2/1 28/34/1
f 22/23/1 36/32/1 30/28/1 12/13/1
f 36/32/1 35/35/1 29/36/1 30/28/1
f 35/35/1 34/33/1 28/34/1 29/36/1
f 20/22/6 17/21/6 34/33/6 33/30/6
f 33/30/6 34/33/6 35/35/6 32/37/6
f 32/37/6 35/35/6 36/32/6 31/31/6
f 16/15/3 27/27/3 31/31/3 23/19/3
f 27/27/3 26/38/3 32/37/3 31/31/3
f 26/38/3 25/29/3 33/30/3 32/37/3
f 6/7/9 25/29/9 28/34/9 2/2/9
f 25/29/10 26/38/10 29/36/10 28/34/10
f 26/38/11 27/27/11 30/28/11 29/36/11
f 14/17/3 24/20/3 37/25/3
f 21/24/1 10/12/1 38/26/1
f 40/39/12 83/40/12 84/41/12
f 80/42/12 88/43/12 87/44/12
f 82/45/13 81/46/13 39/47/13
f 83/40/14 40/39/14 39/47/14 81/46/14
f 40/39/15 80/42/15 79/48/15 39/47/15
f 41/49/3 43/50/3 44/51/3 42/52/3
f 43/50/2 47/53/2 48/54/2 44/51/2
f 47/53/1 45/55/1 46/56/1 48/54/1
f 45/55/4 41/49/4 42/52/4 46/56/4
f 43/50/5 41/49/5 45/55/5 47/53/5
f 48/54/2 59/57/2 58/58/2 44/51/2
f 49/59/3 51/60/3 52/61/3 50/62/3
f 51/60/2 55/63/2 56/64/2 52/61/2
f 55/63/1 53/65/1 54/66/1 56/64/1
f 53/65/4 49/59/4 50/62/4 54/66/4
f 51/60/5 49/59/5 53/65/5 55/63/5
f 54/66/1 64/67/1 63/68/1 56/64/1
f 59/57/6 60/69/6 57/70/6 58/58/6
f 63/68/6 64/67/6 61/71/6 62/72/6
f 52/61/3 62/72/3 61/71/3 50/62/3
f 50/62/7 78/73/7 77/74/7 54/66/7
f 46/56/1 60/69/1 59/57/1 48/54/1
f 67/75/8 70/76/8 52/61/8 56/64/8
f 44/51/3 58/58/3 57/70/3 42/52/3
f 65/77/1 73/78/1 60/69/1 46/56/1
f 71/79/6 63/68/6 62/72/6 76/80/6
f 74/81/3 68/82/3 42/52/3 57/70/3
f 62/72/3 52/61/3 70/76/3 76/80/3
f 76/80/3 70/76/3 69/83/3 75/84/3
f 75/84/3 69/83/3 68/82/3 74/81/3
f 60/69/6 73/78/6 74/81/6 57/70/6
f 73/78/6 72/85/6 75/84/6 74/81/6
f 72/85/6 71/79/6 76/80/6 75/84/6
f 56/64/1 63/68/1 71/79/1 67/75/1
f 67/75/1 71/79/1 72/85/1 66/86/1
f 66/86/1 72/85/1 73/78/1 65/77/1
f 46/56/9 42/52/9 68/82/9 65/77/9
f 65/77/10 68/82/10 69/83/10 66/86/10
f 66/86/11 69/83/11 70/76/11 67/75/11
f 54/66/1 77/74/1 64/67/1
f 61/71/3 78/73/3 50/62/3
f 79/48/13 85/87/13 86/88/13
f 85/87/16 79/48/16 80/42/16 87/44/16
f 39/47/13 79/48/13 86/88/13 82/45/13
f 37/25/3 24/20/3 82/45/3 84/41/3
f 38/26/12 37/25/12 84/41/12 83/40/12
f 21/24/13 81/46/13 82/45/13 24/20/13
f 38/26/1 83/40/1 81/46/1 21/24/1
f 77/74/1 88/43/1 86/88/1 64/67/1
f 78/73/12 87/44/12 88/43/12 77/74/12
f 61/71/13 64/67/13 86/88/13 85/87/13
f 78/73/3 61/71/3 85/87/3 87/44/3
f 82/45/17 86/88/17 88/43/17 84/41/17
f 40/39/12 84/41/12 88/43/12 80/42/12
o Cube.001_Cube.002
v 1.038322 0.535086 -0.342992
v 1.038322 0.592540 -0.342992
v 1.038322 0.535086 -0.140046
v 1.038322 0.592540 -0.140046
v -1.038322 0.535086 -0.342991
v -1.038322 0.592540 -0.342991
v -1.038322 0.535086 -0.140046
v -1.038322 0.592540 -0.140046
v 1.038322 0.535086 -0.058868
v 1.038322 0.592540 -0.058868
v 1.038322 0.535086 0.144077
v 1.038322 0.592540 0.144077
v -1.038322 0.535086 -0.058867
v -1.038322 0.592540 -0.058867
v -1.038322 0.535086 0.144078
v -1.038322 0.592540 0.144078
v 1.038322 0.535086 0.225256
v 1.038322 0.592540 0.225256
v 1.038322 0.535086 0.428201
v 1.038322 0.592540 0.428201
v -1.038322 0.535086 0.225256
v -1.038322 0.592540 0.225256
v -1.038322 0.535086 0.428202
v -1.038322 0.592540 0.428202
vt 0.437831 0.687321
vt 0.437831 0.687321
vt 0.437831 0.231401
vt 0.437831 0.231401
vt 0.089125 0.231400
vt 0.089125 0.231400
vt 0.089125 0.687320
vt 0.089125 0.687320
vt 0.437831 0.687321
vt 0.437831 0.687321
vt 0.437831 0.231401
vt 0.437831 0.231401
vt 0.089125 0.231400
vt 0.089125 0.231400
vt 0.089125 0.687320
vt 0.089125 0.687320
vt 0.437831 0.687321
vt 0.437831 0.687321
vt 0.437831 0.231401
vt 0.437831 0.231401
vt 0.089125 0.231400
vt 0.089125 0.231400
vt 0.089125 0.687320
vt 0.089125 0.687320
vn 1.0000 0.0000 -0.0000
vn 0.0000 0.0000 1.0000
vn -1.0000 0.0000 0.0000
vn -0.0000 0.0000 -1.0000
vn 0.0000 -1.0000 0.0000
vn 0.0000 1.0000 0.0000
usemtl Material
s off
f 89/89/18 90/90/18 92/91/18 91/92/18
f 91/92/19 92/91/19 96/93/19 95/94/19
f 95/94/20 96/93/20 94/95/20 93/96/20
f 93/96/21 94/95/21 90/90/21 89/89/21
f 91/92/22 95/94/22 93/96/22 89/89/22
f 96/93/23 92/91/23 90/90/23 94/95/23
f 97/97/18 98/98/18 100/99/18 99/100/18
f 99/100/19 100/99/19 104/101/19 103/102/19
f 103/102/20 104/101/20 102/103/20 101/104/20
f 101/104/21 102/103/21 98/98/21 97/97/21
f 99/100/22 103/102/22 101/104/22 97/97/22
f 104/101/23 100/99/23 98/98/23 102/103/23
f 105/105/18 106/106/18 108/107/18 107/108/18
f 107/108/19 108/107/19 112/109/19 111/110/19
f 111/110/20 112/109/20 110/111/20 109/112/20
f 109/112/21 110/111/21 106/106/21 105/105/21
f 107/108/22 111/110/22 109/112/22 105/105/22
f 112/109/23 108/107/23 106/106/23 110/111/23
o Cube.002_Cube.003
v 1.038322 0.619544 -0.327924
v 1.038322 0.603941 -0.388659
v 1.038322 0.799822 -0.374237
v 1.038322 0.784219 -0.434972
v -1.038322 0.619544 -0.327924
v -1.038322 0.603941 -0.388658
v -1.038322 0.799822 -0.374237
v -1.038322 0.784219 -0.434971
v 1.038322 0.835877 -0.383500
v 1.038322 0.820275 -0.444234
v 1.038322 1.016156 -0.429813
v 1.038322 1.000553 -0.490547
v -1.038322 0.835877 -0.383499
v -1.038322 0.820275 -0.444234
v -1.038322 1.016156 -0.429812
v -1.038322 1.000553 -0.490546
v 1.038322 1.052211 -0.439075
v 1.038322 1.036609 -0.499810
v 1.038322 1.232490 -0.485388
v 1.038322 1.216887 -0.546122
v -1.038322 1.052211 -0.439074
v -1.038322 1.036609 -0.499809
v -1.038322 1.232490 -0.485387
v -1.038322 1.216887 -0.546122
vt 0.386019 0.216591
vt 0.386019 0.170485
vt 0.386019 0.748295
vt 0.386019 0.794404
vt 0.133902 0.748295
vt 0.133902 0.794404
vt 0.133902 0.170485
vt 0.133902 0.216591
vt 0.386019 0.216591
vt 0.386019 0.170485
vt 0.386019 0.748295
vt 0.386019 0.794404
vt 0.133902 0.748295
vt 0.133902 0.794404
vt 0.133902 0.170485
vt 0.133902 0.216591
vt 0.386019 0.216591
vt 0.386019 0.170485
vt 0.386019 0.748295
vt 0.386019 0.794404
vt 0.133902 0.748295
vt 0.133902 0.794404
vt 0.133902 0.170485
vt 0.133902 0.216591
vn 1.0000 0.0000 -0.0000
vn -0.0000 0.9686 -0.2488
vn -1.0000 -0.0000 0.0000
vn 0.0000 -0.9686 0.2488
vn 0.0000 0.2488 0.9686
vn -0.0000 -0.2488 -0.9686
usemtl Material
s off
f 113/113/24 114/114/24 116/115/24 115/116/24
f 115/116/25 116/115/25 120/117/25 119/118/25
f 119/118/26 120/117/26 118/119/26 117/120/26
f 117/120/27 118/119/27 114/114/27 113/113/27
f 115/116/28 119/118/28 117/120/28 113/113/28
f 120/117/29 116/115/29 114/114/29 118/119/29
f 121/121/24 122/122/24 124/123/24 123/124/24
f 123/124/25 124/123/25 128/125/25 127/126/25
f 127/126/26 128/125/26 126/127/26 125/128/26
f 125/128/27 126/127/27 122/122/27 121/121/27
f 123/124/28 127/126/28 125/128/28 121/121/28
f 128/125/29 124/123/29 122/122/29 126/127/29
f 129/129/24 130/130/24 132/131/24 131/132/24
f 131/132/25 132/131/25 136/133/25 135/134/25
f 135/134/26 136/133/26 134/135/26 133/136/26
f 133/136/27 134/135/27 130/130/27 129/129/27
f 131/132/28 135/134/28 133/136/28 129/129/28
f 136/133/29 132/131/29 130/130/29 134/135/29
