# Blender v3.0.0 OBJ File: 'Boulder.blend'
# www.blender.org
mtllib Boulder.mtl
o Rock_05_Cube.001
v 1.066057 0.047425 0.600999
v -0.985143 0.688043 0.204246
v -1.031914 0.347508 -0.250598
v 0.416667 0.228941 0.859594
v -0.598007 0.390308 -0.478401
v -0.478473 0.993088 -0.256191
v 1.054071 0.315129 -0.448830
v 1.048934 0.318913 -0.459324
v 0.217246 0.862227 0.218102
v 0.525066 0.675831 -0.537781
v 0.241415 0.863043 -0.372504
v -0.703053 0.190764 0.767009
v -1.036661 0.196828 0.475765
v -0.123384 0.480664 0.761832
v -0.292988 0.612438 0.654478
v -0.341846 0.457876 0.746784
v 1.009992 0.329810 0.072377
v 0.704384 0.528826 0.342888
v -0.259197 0.951801 0.215515
v -0.509689 0.998936 -0.096909
v -0.820690 0.815899 0.208046
v -0.436385 0.817982 0.426852
v 0.629735 0.046027 -0.735262
v -0.236076 0.379832 -0.612288
v 0.525034 0.675797 -0.537809
v 1.070256 -0.000000 0.536074
v 1.094911 -0.000000 0.457201
v 1.046320 -0.000000 0.596788
v 1.145613 0.000000 -0.168325
v 0.559064 -0.000000 0.759767
v 0.225582 -0.000000 0.880803
v -1.011884 -0.000000 -0.056324
v -0.902180 0.000000 -0.385933
v -0.747447 0.000000 -0.470016
v 0.328398 0.000000 -0.750986
v 0.685842 0.000000 -0.727640
v -0.378292 0.000000 -0.636126
v -0.066054 0.000000 -0.749831
v 1.074392 0.000000 -0.320396
v 0.874267 0.000000 -0.647161
v 1.144267 0.000000 -0.170701
v -1.002748 -0.000000 0.086570
v -1.006809 -0.000000 0.222011
v -0.927263 -0.000000 0.293517
v -0.487058 -0.000000 0.825684
v -0.266205 -0.000000 0.845496
vt 0.920314 0.066079
vt 0.929917 0.066079
vt 0.918678 0.109366
vt 0.910991 0.066079
vt 0.914010 0.353711
vt 0.896841 0.367111
vt 0.949665 0.066079
vt 0.665746 0.275044
vt 0.591320 0.066079
vt 0.721208 0.066079
vt 0.333489 0.812685
vt 0.183805 0.810784
vt 0.119752 0.694085
vt 0.099686 0.245733
vt 0.229624 0.240198
vt 0.370311 0.484001
vt 0.389341 0.625077
vt 0.304937 0.977849
vt 0.317096 0.972512
vt 0.270538 0.422330
vt 0.101535 0.383264
vt 0.597487 0.853815
vt 0.707966 0.682938
vt 0.707954 0.682907
vt 0.411507 0.412768
vt 0.109337 0.066079
vt 0.212332 0.066079
vt 0.152065 0.066079
vt 0.770588 0.066079
vt 0.631366 0.066079
vt 0.748734 0.108090
vt 0.356116 0.066079
vt 0.477730 0.066079
vt 0.921924 0.066079
vt 0.843978 0.066079
vt 0.912009 0.357164
vt 0.949140 0.066079
vt 0.112895 0.066079
vt 0.111313 0.066079
vt 0.588073 0.853070
vt 0.777809 0.548761
vt 0.313752 0.066079
vt 0.142296 0.066079
vt 0.455400 0.504801
vt 0.399773 0.066079
vt 0.402502 0.934828
vn 0.8868 -0.3441 0.3087
vn 0.9400 0.3331 0.0742
vn 0.3186 -0.2054 0.9254
vn -0.4514 0.5324 0.7161
vn -0.6291 0.5819 -0.5153
vn -0.1402 0.4778 -0.8672
vn -0.6732 0.0363 -0.7385
vn 0.0649 -0.0855 -0.9942
vn -0.3622 0.1667 -0.9171
vn 0.8609 -0.1446 -0.4878
vn -0.9999 0.0156 0.0030
vn 0.5604 0.8279 0.0241
vn -0.5530 -0.6485 0.5231
vn -0.1135 0.5356 0.8368
vn -0.0849 0.1891 0.9783
vn 0.6871 0.6686 0.2843
vn 0.1813 0.9834 0.0053
vn -0.2250 0.9108 0.3462
vn 0.2761 0.7270 0.6287
vn -0.0147 0.3119 -0.9500
vn 0.3614 0.3275 -0.8730
vn 0.0000 -1.0000 -0.0000
usemtl Material
s off
f 26/1/1 27/2/1 1/3/1 28/4/1
f 7/5/2 17/6/2 1/3/2 27/2/2 29/7/2
f 28/4/3 1/3/3 4/8/3 31/9/3 30/10/3
f 22/11/4 21/12/4 2/13/4 13/14/4 12/15/4 16/16/4 15/17/4
f 21/12/5 20/18/5 6/19/5 5/20/5 3/21/5 2/13/5
f 6/19/6 11/22/6 10/23/6 25/24/6 24/25/6 5/20/6
f 32/26/7 3/21/7 5/20/7 34/27/7 33/28/7
f 36/29/8 35/30/8 23/31/8
f 37/32/9 34/27/9 5/20/9 24/25/9 38/33/9
f 39/34/10 40/35/10 8/36/10 7/5/10 29/7/10 41/37/10
f 13/14/11 2/13/11 3/21/11 32/26/11 42/38/11 43/39/11
f 17/6/12 7/5/12 8/36/12 10/23/12 11/22/12 9/40/12 18/41/12
f 45/42/13 12/15/13 13/14/13 43/39/13 44/43/13
f 14/44/14 15/17/14 16/16/14
f 31/9/15 4/8/15 14/44/15 16/16/15 12/15/15 45/42/15 46/45/15
f 17/6/16 18/41/16 1/3/16
f 19/46/17 9/40/17 11/22/17 6/19/17 20/18/17
f 19/46/18 20/18/18 21/12/18 22/11/18
f 22/11/19 15/17/19 14/44/19 4/8/19 1/3/19 18/41/19 9/40/19 19/46/19
f 24/25/20 25/24/20 23/31/20 35/30/20 38/33/20
f 23/31/21 25/24/21 10/23/21 8/36/21 40/35/21 36/29/21
f 42/38/22 32/26/22 33/28/22 34/27/22 37/32/22 38/33/22 35/30/22 36/29/22 40/35/22 39/34/22 41/37/22 29/7/22 27/2/22 26/1/22 28/4/22 30/10/22 31/9/22 46/45/22 45/42/22 44/43/22 43/39/22
