# Blender v3.0.0 OBJ File: 'Crate v2.blend'
# www.blender.org
mtllib Crate.mtl
o Cube.002_Cube.007
v -0.396415 0.000000 0.314594
v -0.396415 0.095565 0.314594
v -0.396415 0.000000 -0.314594
v -0.396415 0.095565 -0.314594
v 0.396415 0.000000 0.314594
v 0.396415 0.095565 0.314594
v 0.396415 0.000000 -0.314594
v 0.396415 0.095565 -0.314594
v 0.287620 0.000000 -0.314594
v -0.287620 0.000000 -0.314594
v -0.287620 0.095565 -0.314594
v 0.287620 0.095565 -0.314594
v -0.287620 0.000000 0.314594
v 0.287620 0.000000 0.314594
v 0.287620 0.095565 0.314594
v -0.287620 0.095565 0.314594
v -0.396415 0.000000 -0.204608
v -0.396415 0.000000 0.204608
v -0.396415 0.095565 0.204608
v -0.396415 0.095565 -0.204608
v 0.396415 0.000000 0.204608
v 0.396415 0.000000 -0.204608
v 0.396415 0.095565 -0.204608
v 0.396415 0.095565 0.204608
v 0.287620 0.095565 -0.204608
v 0.287620 0.095565 0.204608
v -0.287620 0.095565 -0.204608
v -0.287620 0.095565 0.204608
v -0.287620 0.000000 -0.204608
v -0.287620 0.000000 0.204608
v 0.287620 0.000000 -0.204608
v 0.287620 0.000000 0.204608
v -0.396415 0.522162 -0.204608
v -0.396415 0.522162 -0.314594
v 0.287620 0.522162 -0.314594
v 0.396415 0.522162 -0.314594
v 0.396415 0.522162 0.204608
v 0.396415 0.522162 0.314594
v -0.287620 0.522162 0.314594
v -0.396415 0.522162 0.314594
v -0.287620 0.522162 -0.314594
v 0.287620 0.522162 0.314594
v 0.287620 0.522162 0.204608
v -0.287620 0.522162 0.204608
v -0.396415 0.522162 0.204608
v 0.396415 0.522162 -0.204608
v 0.287620 0.522162 -0.204608
v -0.287620 0.522162 -0.204608
vt 0.202136 0.203600
vt 0.202136 0.256873
vt 0.202136 0.256873
vt 0.202136 0.203600
vt 0.743588 0.203600
vt 0.743588 0.256873
vt 0.829706 0.256873
vt 0.829706 0.203600
vt 0.829706 0.203600
vt 0.829706 0.256873
vt 0.829706 0.256873
vt 0.829706 0.203600
vt 0.288254 0.203600
vt 0.288254 0.256873
vt 0.202136 0.256873
vt 0.202136 0.203600
vt 0.743588 0.203600
vt 0.743588 0.203600
vt 0.743588 0.256873
vt 0.829706 0.256873
vt 0.829706 0.484131
vt 0.743588 0.484131
vt 0.743588 0.256873
vt 0.743588 0.256873
vt 0.743588 0.484131
vt 0.743588 0.484131
vt 0.288254 0.256873
vt 0.202136 0.203600
vt 0.288254 0.203600
vt 0.288254 0.256873
vt 0.288254 0.203600
vt 0.743588 0.203600
vt 0.288254 0.203600
vt 0.288254 0.256873
vt 0.743588 0.484131
vt 0.829706 0.484131
vt 0.202136 0.256873
vt 0.829706 0.203600
vt 0.288254 0.484131
vt 0.202136 0.484131
vt 0.202136 0.484131
vt 0.288254 0.484131
vt 0.829706 0.484131
vt 0.829706 0.484131
vt 0.288254 0.484131
vt 0.202136 0.484131
vt 0.202136 0.484131
vt 0.288254 0.484131
vn -1.0000 0.0000 0.0000
vn 0.0000 0.0000 -1.0000
vn 1.0000 0.0000 -0.0000
vn 0.0000 0.0000 1.0000
vn -0.0000 -1.0000 -0.0000
vn 0.0000 1.0000 0.0000
usemtl Material
s off
f 17/1/1 20/2/1 4/3/1 3/4/1
f 9/5/2 12/6/2 8/7/2 7/8/2
f 21/9/3 24/10/3 6/11/3 5/12/3
f 13/13/4 16/14/4 2/15/4 1/16/4
f 32/17/5 21/9/5 5/12/5 14/18/5
f 25/19/4 23/20/4 46/21/4 47/22/4
f 26/23/1 15/24/1 42/25/1 43/26/1
f 26/23/6 28/27/6 16/14/6 15/24/6
f 18/28/5 30/29/5 13/13/5 1/16/5
f 30/29/5 32/17/5 14/18/5 13/13/5
f 5/12/4 6/11/4 15/24/4 14/18/4
f 14/18/4 15/24/4 16/14/4 13/13/4
f 3/4/2 4/3/2 11/30/2 10/31/2
f 10/31/2 11/30/2 12/6/2 9/5/2
f 10/31/5 9/5/5 31/32/5 29/33/5
f 29/33/5 31/32/5 32/17/5 30/29/5
f 3/4/5 10/31/5 29/33/5 17/1/5
f 17/1/5 29/33/5 30/29/5 18/28/5
f 12/6/6 11/30/6 27/34/6 25/19/6
f 25/19/6 27/34/6 28/27/6 26/23/6
f 8/7/2 12/6/2 35/35/2 36/36/2
f 23/20/6 25/19/6 26/23/6 24/10/6
f 23/20/3 8/7/3 36/36/3 46/21/3
f 27/34/6 20/2/6 19/37/6 28/27/6
f 9/5/5 7/8/5 22/38/5 31/32/5
f 31/32/5 22/38/5 21/9/5 32/17/5
f 7/8/3 8/7/3 23/20/3 22/38/3
f 22/38/3 23/20/3 24/10/3 21/9/3
f 1/16/1 2/15/1 19/37/1 18/28/1
f 18/28/1 19/37/1 20/2/1 17/1/1
f 44/39/6 45/40/6 40/41/6 39/42/6
f 37/43/6 43/26/6 42/25/6 38/44/6
f 36/36/6 35/35/6 47/22/6 46/21/6
f 41/45/6 34/46/6 33/47/6 48/48/6
f 16/14/3 28/27/3 44/39/3 39/42/3
f 12/6/1 25/19/1 47/22/1 35/35/1
f 24/10/2 26/23/2 43/26/2 37/43/2
f 11/30/2 4/3/2 34/46/2 41/45/2
f 20/2/4 27/34/4 48/48/4 33/47/4
f 19/37/1 2/15/1 40/41/1 45/40/1
f 6/11/3 24/10/3 37/43/3 38/44/3
f 27/34/3 11/30/3 41/45/3 48/48/3
f 28/27/2 19/37/2 45/40/2 44/39/2
f 4/3/1 20/2/1 33/47/1 34/46/1
f 15/24/4 6/11/4 38/44/4 42/25/4
f 2/15/4 16/14/4 39/42/4 40/41/4
o Cube_Cube.001
v -0.475814 0.000000 0.399925
v -0.475814 0.145045 0.399925
v -0.475814 0.000000 -0.399925
v -0.475814 0.145045 -0.399925
v 0.475814 0.000000 0.399925
v 0.475814 0.145045 0.399925
v 0.475814 0.000000 -0.399925
v 0.475814 0.145045 -0.399925
v 0.396415 0.000000 -0.399925
v 0.396415 0.145045 -0.399925
v 0.396415 0.000000 0.399925
v 0.396415 0.145045 0.399925
v -0.396415 0.000000 -0.399925
v -0.396415 0.145045 0.399925
v -0.396415 0.145045 -0.399925
v -0.396415 0.000000 0.399925
v -0.475814 0.000000 -0.314594
v -0.475814 0.145045 -0.314594
v 0.475814 0.000000 -0.314594
v 0.475814 0.145045 -0.314594
v 0.396415 0.145045 -0.314594
v 0.396415 0.000000 -0.314594
v -0.396415 0.000000 -0.314594
v -0.396415 0.145045 -0.314594
v -0.475814 0.000000 0.314594
v 0.475814 0.145045 0.314594
v 0.396415 0.145045 0.314594
v 0.396415 0.000000 0.314594
v -0.396415 0.000000 0.314594
v -0.396415 0.145045 0.314594
v -0.475814 0.145045 0.314594
v 0.475814 0.000000 0.314594
v -0.475814 0.188558 0.399925
v -0.475814 0.333603 0.399925
v -0.475814 0.188558 -0.399925
v -0.475814 0.333603 -0.399925
v 0.475814 0.188558 0.399925
v 0.475814 0.333603 0.399925
v 0.475814 0.188558 -0.399925
v 0.475814 0.333603 -0.399925
v 0.396415 0.188558 -0.399925
v 0.396415 0.333603 -0.399925
v 0.396415 0.188558 0.399925
v 0.396415 0.333603 0.399925
v -0.396415 0.188558 -0.399925
v -0.396415 0.333603 0.399925
v -0.396415 0.333603 -0.399925
v -0.396415 0.188558 0.399925
v -0.475814 0.188558 -0.314594
v -0.475814 0.333603 -0.314594
v 0.475814 0.188558 -0.314594
v 0.475814 0.333603 -0.314594
v 0.396415 0.333603 -0.314594
v 0.396415 0.188558 -0.314594
v -0.396415 0.188558 -0.314594
v -0.396415 0.333603 -0.314594
v -0.475814 0.188558 0.314594
v 0.475814 0.333603 0.314594
v 0.396415 0.333603 0.314594
v 0.396415 0.188558 0.314594
v -0.396415 0.188558 0.314594
v -0.396415 0.333603 0.314594
v -0.475814 0.333603 0.314594
v 0.475814 0.188558 0.314594
v -0.475814 0.377117 0.399925
v -0.475814 0.522162 0.399925
v -0.475814 0.377117 -0.399925
v -0.475814 0.522162 -0.399925
v 0.475814 0.377117 0.399925
v 0.475814 0.522162 0.399925
v 0.475814 0.377117 -0.399925
v 0.475814 0.522162 -0.399925
v 0.396415 0.377117 -0.399925
v 0.396415 0.522162 -0.399925
v 0.396415 0.377117 0.399925
v 0.396415 0.522162 0.399925
v -0.396415 0.377117 -0.399925
v -0.396415 0.522162 0.399925
v -0.396415 0.522162 -0.399925
v -0.396415 0.377117 0.399925
v -0.475814 0.377117 -0.314594
v -0.475814 0.522162 -0.314594
v 0.475814 0.377117 -0.314594
v 0.475814 0.522162 -0.314594
v 0.396415 0.522162 -0.314594
v 0.396415 0.377117 -0.314594
v -0.396415 0.377117 -0.314594
v -0.396415 0.522162 -0.314594
v -0.475814 0.377117 0.314594
v 0.475814 0.522162 0.314594
v 0.396415 0.522162 0.314594
v 0.396415 0.377117 0.314594
v -0.396415 0.377117 0.314594
v -0.396415 0.522162 0.314594
v -0.475814 0.522162 0.314594
v 0.475814 0.377117 0.314594
vt 0.276463 0.145502
vt 0.276463 0.810387
vt 0.276463 0.810387
vt 0.276463 0.145502
vt 0.693714 0.145502
vt 0.693714 0.810387
vt 0.731697 0.810387
vt 0.731697 0.145502
vt 0.731697 0.145502
vt 0.731697 0.810388
vt 0.731697 0.810388
vt 0.731697 0.145502
vt 0.314446 0.145502
vt 0.314446 0.810388
vt 0.276463 0.810388
vt 0.276463 0.145502
vt 0.693714 0.145502
vt 0.693714 0.145502
vt 0.314446 0.810388
vt 0.276463 0.810388
vt 0.693714 0.810388
vt 0.693714 0.810388
vt 0.314446 0.145502
vt 0.314446 0.145502
vt 0.314446 0.810387
vt 0.276463 0.145502
vt 0.314446 0.810387
vt 0.693714 0.810387
vt 0.314446 0.145502
vt 0.693714 0.145502
vt 0.731697 0.810387
vt 0.731697 0.145502
vt 0.276463 0.145502
vt 0.276463 0.810387
vt 0.276463 0.810387
vt 0.276463 0.145502
vt 0.693714 0.145502
vt 0.693714 0.810387
vt 0.731697 0.810387
vt 0.731697 0.145502
vt 0.731697 0.145502
vt 0.731697 0.810388
vt 0.731697 0.810388
vt 0.731697 0.145502
vt 0.314446 0.145502
vt 0.314446 0.810388
vt 0.276463 0.810388
vt 0.276463 0.145502
vt 0.693714 0.145502
vt 0.693714 0.145502
vt 0.314446 0.810388
vt 0.276463 0.810388
vt 0.693714 0.810388
vt 0.693714 0.810388
vt 0.314446 0.145502
vt 0.314446 0.145502
vt 0.314446 0.810387
vt 0.276463 0.145502
vt 0.314446 0.810387
vt 0.693714 0.810387
vt 0.314446 0.145502
vt 0.693714 0.145502
vt 0.731697 0.810387
vt 0.731697 0.145502
vt 0.276463 0.145502
vt 0.276463 0.810387
vt 0.276463 0.810387
vt 0.276463 0.145502
vt 0.693714 0.145502
vt 0.693714 0.810387
vt 0.731697 0.810387
vt 0.731697 0.145502
vt 0.731697 0.145502
vt 0.731697 0.810388
vt 0.731697 0.810388
vt 0.731697 0.145502
vt 0.314446 0.145502
vt 0.314446 0.810388
vt 0.276463 0.810388
vt 0.276463 0.145502
vt 0.693714 0.145502
vt 0.693714 0.145502
vt 0.314446 0.810388
vt 0.276463 0.810388
vt 0.693714 0.810388
vt 0.693714 0.810388
vt 0.314446 0.145502
vt 0.314446 0.145502
vt 0.314446 0.810387
vt 0.276463 0.145502
vt 0.314446 0.810387
vt 0.693714 0.810387
vt 0.314446 0.145502
vt 0.693714 0.145502
vt 0.731697 0.810387
vt 0.731697 0.145502
vn -1.0000 0.0000 -0.0000
vn 0.0000 0.0000 -1.0000
vn 1.0000 0.0000 0.0000
vn 0.0000 0.0000 1.0000
vn 0.0000 -1.0000 0.0000
vn 0.0000 1.0000 0.0000
usemtl Material
s off
f 65/49/7 66/50/7 52/51/7 51/52/7
f 57/53/8 58/54/8 56/55/8 55/56/8
f 80/57/9 74/58/9 54/59/9 53/60/9
f 64/61/10 62/62/10 50/63/10 49/64/10
f 76/65/11 80/57/11 53/60/11 59/66/11
f 78/67/12 79/68/12 50/63/12 62/62/12
f 74/58/12 75/69/12 60/70/12 54/59/12
f 77/71/11 76/65/11 59/66/11 64/61/11
f 53/60/10 54/59/10 60/70/10 59/66/10
f 61/72/8 63/73/8 58/54/8 57/53/8
f 51/52/8 52/51/8 63/73/8 61/72/8
f 73/74/11 77/71/11 64/61/11 49/64/11
f 75/69/12 78/67/12 62/62/12 60/70/12
f 59/66/10 60/70/10 62/62/10 64/61/10
f 58/54/12 63/73/12 72/75/12 69/76/12
f 51/52/11 61/72/11 71/77/11 65/49/11
f 61/72/11 57/53/11 70/78/11 71/77/11
f 56/55/12 58/54/12 69/76/12 68/79/12
f 63/73/12 52/51/12 66/50/12 72/75/12
f 57/53/11 55/56/11 67/80/11 70/78/11
f 55/56/9 56/55/9 68/79/9 67/80/9
f 73/74/7 79/68/7 66/50/7 65/49/7
f 49/64/7 50/63/7 79/68/7 73/74/7
f 77/71/9 71/77/9 72/75/9 78/67/9
f 65/49/11 71/77/11 77/71/11 73/74/11
f 78/67/8 75/69/8 76/65/8 77/71/8
f 68/79/12 69/76/12 75/69/12 74/58/12
f 72/75/12 66/50/12 79/68/12 78/67/12
f 70/78/11 67/80/11 80/57/11 76/65/11
f 67/80/9 68/79/9 74/58/9 80/57/9
f 75/69/7 69/76/7 70/78/7 76/65/7
f 72/75/10 71/77/10 70/78/10 69/76/10
f 97/81/7 98/82/7 84/83/7 83/84/7
f 89/85/8 90/86/8 88/87/8 87/88/8
f 112/89/9 106/90/9 86/91/9 85/92/9
f 96/93/10 94/94/10 82/95/10 81/96/10
f 108/97/11 112/89/11 85/92/11 91/98/11
f 110/99/12 111/100/12 82/95/12 94/94/12
f 106/90/12 107/101/12 92/102/12 86/91/12
f 109/103/11 108/97/11 91/98/11 96/93/11
f 85/92/10 86/91/10 92/102/10 91/98/10
f 93/104/8 95/105/8 90/86/8 89/85/8
f 83/84/8 84/83/8 95/105/8 93/104/8
f 105/106/11 109/103/11 96/93/11 81/96/11
f 107/101/12 110/99/12 94/94/12 92/102/12
f 91/98/10 92/102/10 94/94/10 96/93/10
f 90/86/12 95/105/12 104/107/12 101/108/12
f 83/84/11 93/104/11 103/109/11 97/81/11
f 93/104/11 89/85/11 102/110/11 103/109/11
f 88/87/12 90/86/12 101/108/12 100/111/12
f 95/105/12 84/83/12 98/82/12 104/107/12
f 89/85/11 87/88/11 99/112/11 102/110/11
f 87/88/9 88/87/9 100/111/9 99/112/9
f 105/106/7 111/100/7 98/82/7 97/81/7
f 81/96/7 82/95/7 111/100/7 105/106/7
f 109/103/9 103/109/9 104/107/9 110/99/9
f 97/81/11 103/109/11 109/103/11 105/106/11
f 110/99/8 107/101/8 108/97/8 109/103/8
f 100/111/12 101/108/12 107/101/12 106/90/12
f 104/107/12 98/82/12 111/100/12 110/99/12
f 102/110/11 99/112/11 112/89/11 108/97/11
f 99/112/9 100/111/9 106/90/9 112/89/9
f 107/101/7 101/108/7 102/110/7 108/97/7
f 104/107/10 103/109/10 102/110/10 101/108/10
f 129/113/7 130/114/7 116/115/7 115/116/7
f 121/117/8 122/118/8 120/119/8 119/120/8
f 144/121/9 138/122/9 118/123/9 117/124/9
f 128/125/10 126/126/10 114/127/10 113/128/10
f 140/129/11 144/121/11 117/124/11 123/130/11
f 142/131/12 143/132/12 114/127/12 126/126/12
f 138/122/12 139/133/12 124/134/12 118/123/12
f 141/135/11 140/129/11 123/130/11 128/125/11
f 117/124/10 118/123/10 124/134/10 123/130/10
f 125/136/8 127/137/8 122/118/8 121/117/8
f 115/116/8 116/115/8 127/137/8 125/136/8
f 137/138/11 141/135/11 128/125/11 113/128/11
f 139/133/12 142/131/12 126/126/12 124/134/12
f 123/130/10 124/134/10 126/126/10 128/125/10
f 122/118/12 127/137/12 136/139/12 133/140/12
f 115/116/11 125/136/11 135/141/11 129/113/11
f 125/136/11 121/117/11 134/142/11 135/141/11
f 120/119/12 122/118/12 133/140/12 132/143/12
f 127/137/12 116/115/12 130/114/12 136/139/12
f 121/117/11 119/120/11 131/144/11 134/142/11
f 119/120/9 120/119/9 132/143/9 131/144/9
f 137/138/7 143/132/7 130/114/7 129/113/7
f 113/128/7 114/127/7 143/132/7 137/138/7
f 141/135/9 135/141/9 136/139/9 142/131/9
f 129/113/11 135/141/11 141/135/11 137/138/11
f 142/131/8 139/133/8 140/129/8 141/135/8
f 132/143/12 133/140/12 139/133/12 138/122/12
f 136/139/12 130/114/12 143/132/12 142/131/12
f 134/142/11 131/144/11 144/121/11 140/129/11
f 131/144/9 132/143/9 138/122/9 144/121/9
f 139/133/7 133/140/7 134/142/7 140/129/7
f 136/139/10 135/141/10 134/142/10 133/140/10
