# Blender v3.0.0 OBJ File: 'Football.blend'
# www.blender.org
mtllib Fence 2.mtl
o LowPolyFence_02_Mesh.001
v -1.097346 1.090465 0.179963
v -1.096688 0.805366 0.187923
v -1.091863 1.100128 0.121679
v -1.092460 0.816479 0.091843
v 1.001313 0.973267 0.111435
v 0.999030 0.716827 0.087892
v 1.007046 1.000496 0.053589
v 1.004528 0.725716 0.029579
v -0.391624 0.802519 0.140921
v 0.314735 0.795929 0.131636
v 0.316558 1.005343 0.156828
v -0.389362 0.996669 0.131380
v -0.386187 0.811918 0.082692
v 0.320214 0.805077 0.073351
v -0.384905 1.033096 0.035869
v 0.322104 1.014502 0.098460
v 1.097346 0.683400 0.190805
v 1.095628 0.399478 0.162681
v 1.086946 0.689414 0.248915
v 1.083245 0.404511 0.258519
v -1.012843 0.525593 0.025048
v -1.014164 0.340754 0.035813
v -1.023159 0.549223 0.083808
v -1.024435 0.346057 0.093754
v 0.390913 0.405726 0.146757
v -0.311610 0.345700 0.092818
v -0.309686 0.556236 0.082362
v 0.395453 0.603499 0.097014
v 0.380617 0.411498 0.204734
v -0.321907 0.351237 0.150794
v 0.383123 0.633850 0.194036
v -0.320061 0.561778 0.140436
v 1.018481 0.000000 -0.080618
v 0.894307 0.000000 -0.215999
v 0.726026 0.000000 -0.138981
v 0.746239 0.000000 0.043941
v 0.926972 0.000000 0.080031
v 0.994283 1.244223 -0.001796
v 0.901032 1.247495 -0.102455
v 0.777895 1.219895 -0.044978
v 0.795082 1.199433 0.091151
v 0.931428 1.215080 0.096876
v 0.892695 0.281411 -0.170321
v 0.990839 0.261315 -0.063412
v 0.759078 0.275375 -0.109096
v 0.774688 0.251393 0.035595
v 0.920440 0.243323 0.042984
v -0.744895 -0.000000 -0.062901
v -0.848077 -0.000000 -0.175232
v -0.987694 -0.000000 -0.111454
v -0.970763 -0.000000 0.040243
v -0.820719 -0.000000 0.070270
v -0.778759 1.187262 0.025911
v -0.897950 1.190886 -0.073479
v -1.027012 1.161720 -0.016136
v -0.950695 1.139914 0.116927
v -0.817161 1.155813 0.143880
v -0.846823 0.296899 -0.152407
v -0.748516 0.276517 -0.045706
v -0.980282 0.289211 -0.091400
v -0.964412 0.263924 0.052945
v -0.821182 0.256173 0.081199
vt 0.526635 0.428919
vt 0.525821 0.426779
vt 0.525694 0.481700
vt 0.526750 0.483562
vt 0.930600 0.411435
vt 0.931085 0.464369
vt 0.929981 0.459123
vt 0.929541 0.409722
vt 0.662080 0.463631
vt 0.661645 0.426230
vt 0.797718 0.424961
vt 0.798069 0.465302
vt 0.662692 0.428041
vt 0.798774 0.426723
vt 0.662939 0.470649
vt 0.799138 0.467067
vt 0.945764 0.349558
vt 0.948150 0.348588
vt 0.948481 0.403283
vt 0.946477 0.404442
vt 0.539739 0.338297
vt 0.539985 0.377435
vt 0.541973 0.372883
vt 0.541718 0.337275
vt 0.813268 0.387891
vt 0.812393 0.349792
vt 0.677059 0.338228
vt 0.677429 0.378786
vt 0.810410 0.350904
vt 0.675075 0.339295
vt 0.810892 0.393738
vt 0.675430 0.379854
vt 0.450571 0.297525
vt 0.455896 0.113601
vt 0.431975 0.113601
vt 0.431665 0.309323
vt 0.399557 0.113601
vt 0.405925 0.305779
vt 0.403451 0.113601
vt 0.408932 0.291699
vt 0.438268 0.113601
vt 0.437010 0.286961
vt 0.409549 0.860319
vt 0.412860 0.848305
vt 0.439126 0.857492
vt 0.451235 0.874602
vt 0.433271 0.876523
vt 0.115501 0.306449
vt 0.116198 0.113600
vt 0.096321 0.113600
vt 0.096563 0.318416
vt 0.069425 0.113600
vt 0.070853 0.313903
vt 0.072687 0.113600
vt 0.073910 0.299056
vt 0.101592 0.113600
vt 0.101502 0.294506
vt 0.061851 0.826164
vt 0.076553 0.813361
vt 0.102277 0.822695
vt 0.109675 0.841160
vt 0.086714 0.843287
vn -0.9990 -0.0035 -0.0444
vn -0.9957 0.0117 -0.0917
vn 0.9957 -0.0170 0.0907
vn 0.9957 -0.0172 0.0912
vn 0.0136 0.0489 0.9987
vn -0.0343 -0.1191 0.9923
vn -0.0113 -0.9870 -0.1604
vn -0.0116 -0.9877 -0.1561
vn 0.0809 -0.2069 -0.9750
vn -0.0120 0.1191 -0.9928
vn -0.0069 0.9344 0.3561
vn 0.0495 -0.1197 0.9916
vn 0.0616 -0.0918 0.9939
vn 0.0747 0.0481 0.9960
vn 0.0666 0.0280 0.9974
vn -0.1237 -0.9785 -0.1652
vn -0.1238 -0.9792 -0.1609
vn -0.0084 -0.9871 -0.1601
vn -0.0117 -0.9932 -0.1154
vn -0.0625 0.1194 -0.9909
vn -0.0535 0.0874 -0.9947
vn -0.0140 -0.2070 -0.9782
vn -0.1101 0.1042 -0.9884
vn 0.0568 0.9855 0.1600
vn 0.1467 0.9219 0.3585
vn -0.0177 0.9880 0.1533
vn 0.1138 0.9783 0.1729
vn 0.0466 0.9020 0.4292
vn 0.9915 -0.0188 0.1291
vn 0.9842 -0.0068 0.1768
vn -0.9851 -0.0022 -0.1720
vn -0.9847 -0.0031 -0.1743
vn 0.0950 -0.2449 -0.9649
vn 0.0241 -0.0498 -0.9985
vn 0.0760 -0.9908 0.1121
vn 0.0767 -0.9912 0.1083
vn -0.0809 0.0488 0.9955
vn -0.0807 0.0497 0.9955
vn -0.0739 0.9491 -0.3063
vn 0.0811 -0.0502 -0.9954
vn 0.0836 -0.0585 -0.9948
vn 0.1557 -0.2443 -0.9571
vn 0.0234 0.0984 -0.9949
vn -0.0007 -0.9955 0.0949
vn -0.0001 -0.9958 0.0911
vn -0.0172 -0.9952 0.0960
vn -0.0100 -0.9986 0.0512
vn -0.0811 0.0497 0.9955
vn -0.0812 0.0492 0.9955
vn -0.0758 0.0488 0.9959
vn -0.0804 0.0346 0.9962
vn -0.0351 0.9943 -0.1012
vn -0.0673 0.9498 -0.3057
vn -0.0643 0.9923 -0.1062
vn -0.0693 0.9910 -0.1150
vn 0.0133 0.9285 -0.3711
vn 0.7315 0.1216 -0.6709
vn 0.7424 0.1115 -0.6606
vn -0.4118 0.1437 -0.8999
vn -0.4175 0.1474 -0.8966
vn -0.9883 0.1068 0.1092
vn -0.9853 0.1157 0.1255
vn -0.1955 0.0546 0.9792
vn -0.0418 0.1493 0.9879
vn 0.8647 0.0982 0.4926
vn 0.8289 0.0510 0.5571
vn -0.1192 0.9795 0.1623
vn -0.1630 0.9696 0.1825
vn -0.1349 0.9746 0.1790
vn 0.7399 0.0408 -0.6715
vn 0.7336 0.0400 -0.6784
vn -0.4182 0.0698 -0.9057
vn -0.4343 0.0669 -0.8983
vn -0.9939 0.0150 0.1097
vn -0.9919 0.0111 0.1269
vn -0.0536 -0.0547 0.9971
vn -0.0353 -0.0577 0.9977
vn 0.8363 -0.0372 0.5470
vn 0.8479 -0.0389 0.5287
vn 0.7355 0.0516 -0.6756
vn 0.7392 0.0485 -0.6718
vn -0.4144 0.0715 -0.9073
vn -0.4181 0.0735 -0.9054
vn -0.9937 0.0178 0.1109
vn -0.9935 0.0185 0.1125
vn -0.1961 -0.0424 0.9797
vn -0.1956 -0.0422 0.9798
vn 0.8688 -0.0195 0.4947
vn 0.8690 -0.0194 0.4945
vn -0.1642 0.9541 0.2505
vn -0.1459 0.9667 0.2102
vn -0.1285 0.9704 0.2043
vn 0.7412 0.1010 -0.6636
vn 0.6398 0.0813 -0.7643
vn -0.4178 0.0559 -0.9068
vn -0.4160 0.0563 -0.9076
vn -0.9932 -0.0617 0.0984
vn -0.1966 -0.0673 0.9782
vn -0.1895 -0.0686 0.9795
vn 0.8685 -0.0101 0.4957
vn 0.9526 -0.0254 0.3033
vn -0.8688 -0.0225 0.4946
usemtl Material
s off
f 4/1/1 2/2/1 1/3/1
f 1/3/2 3/4/2 4/1/2
f 8/5/3 7/6/3 5/7/3
f 5/7/4 6/8/4 8/5/4
f 12/9/5 9/10/5 10/11/5
f 10/11/6 11/12/6 12/9/6
f 10/11/7 9/10/7 13/13/7
f 13/13/8 14/14/8 10/11/8
f 13/13/9 15/15/9 16/16/9
f 16/16/10 14/14/10 13/13/10
f 12/9/11 16/16/11 15/15/11
f 11/12/12 10/11/12 6/8/12
f 6/8/13 5/7/13 11/12/13
f 9/10/14 12/9/14 1/3/14
f 1/3/15 2/2/15 9/10/15
f 6/8/16 10/11/16 14/14/16
f 14/14/17 8/5/17 6/8/17
f 4/1/18 13/13/18 9/10/18
f 9/10/19 2/2/19 4/1/19
f 14/14/20 16/16/20 7/6/20
f 7/6/21 8/5/21 14/14/21
f 15/15/22 13/13/22 4/1/22
f 4/1/23 3/4/23 15/15/23
f 11/12/24 5/7/24 16/16/24
f 15/15/25 1/3/25 12/9/25
f 12/9/26 11/12/26 16/16/26
f 15/15/27 3/4/27 1/3/27
f 5/7/28 7/6/28 16/16/28
f 20/17/29 18/18/29 17/19/29
f 17/19/30 19/20/30 20/17/30
f 24/21/31 23/22/31 21/23/31
f 21/23/32 22/24/32 24/21/32
f 28/25/33 25/26/33 26/27/33
f 26/27/34 27/28/34 28/25/34
f 26/27/35 25/26/35 29/29/35
f 29/29/36 30/30/36 26/27/36
f 29/29/37 31/31/37 32/32/37
f 32/32/38 30/30/38 29/29/38
f 28/25/39 32/32/39 31/31/39
f 27/28/40 26/27/40 22/24/40
f 22/24/41 21/23/41 27/28/41
f 25/26/42 28/25/42 17/19/42
f 17/19/43 18/18/43 25/26/43
f 22/24/44 26/27/44 30/30/44
f 30/30/45 24/21/45 22/24/45
f 20/17/46 29/29/46 25/26/46
f 25/26/47 18/18/47 20/17/47
f 30/30/48 32/32/48 23/22/48
f 23/22/49 24/21/49 30/30/49
f 31/31/50 29/29/50 20/17/50
f 20/17/51 19/20/51 31/31/51
f 27/28/52 21/23/52 32/32/52
f 31/31/53 17/19/53 28/25/53
f 28/25/54 27/28/54 32/32/54
f 31/31/55 19/20/55 17/19/55
f 21/23/56 23/22/56 32/32/56
f 44/33/57 33/34/57 34/35/57
f 34/35/58 43/36/58 44/33/58
f 43/36/59 34/35/59 35/37/59
f 35/37/60 45/38/60 43/36/60
f 45/38/61 35/37/61 36/39/61
f 36/39/62 46/40/62 45/38/62
f 46/40/63 36/39/63 37/41/63
f 37/41/64 47/42/64 46/40/64
f 47/42/65 37/41/65 33/34/65
f 33/34/66 44/33/66 47/42/66
f 40/43/67 41/44/67 42/45/67
f 42/45/68 38/46/68 39/47/68
f 40/43/69 42/45/69 39/47/69
f 44/33/70 43/36/70 39/47/70
f 39/47/71 38/46/71 44/33/71
f 43/36/72 45/38/72 40/43/72
f 40/43/73 39/47/73 43/36/73
f 45/38/74 46/40/74 41/44/74
f 41/44/75 40/43/75 45/38/75
f 46/40/76 47/42/76 42/45/76
f 42/45/77 41/44/77 46/40/77
f 47/42/78 44/33/78 38/46/78
f 38/46/79 42/45/79 47/42/79
f 59/48/80 48/49/80 49/50/80
f 49/50/81 58/51/81 59/48/81
f 58/51/82 49/50/82 50/52/82
f 50/52/83 60/53/83 58/51/83
f 60/53/84 50/52/84 51/54/84
f 51/54/85 61/55/85 60/53/85
f 61/55/86 51/54/86 52/56/86
f 52/56/87 62/57/87 61/55/87
f 62/57/88 52/56/88 48/49/88
f 48/49/89 59/48/89 62/57/89
f 55/58/90 56/59/90 57/60/90
f 57/60/91 53/61/91 54/62/91
f 55/58/92 57/60/92 54/62/92
f 59/48/93 58/51/93 54/62/93
f 54/62/94 53/61/94 59/48/94
f 58/51/95 60/53/95 55/58/95
f 55/58/96 54/62/96 58/51/96
f 61/55/97 55/58/97 60/53/97
f 61/55/98 62/57/98 57/60/98
f 57/60/99 56/59/99 61/55/99
f 62/57/100 59/48/100 53/61/100
f 53/61/101 57/60/101 62/57/101
f 61/55/102 56/59/102 55/58/102
