# Blender v3.0.0 OBJ File: 'Floodlight v2 shine.blend'
# www.blender.org
mtllib Floodlight.mtl
o Cube.001_Cube.003
v -0.051926 1.141074 -0.042516
v -0.051926 1.141074 0.042516
v -0.051926 1.220481 -0.042516
v -0.051926 1.220481 0.042516
v -0.338834 1.141074 0.042516
v -0.338834 1.220481 -0.042516
v -0.222420 1.141074 -0.042516
v -0.160587 1.141074 -0.042516
v -0.160587 1.141074 0.042516
v -0.222420 1.141074 0.042516
v -0.160587 1.220481 0.042516
v -0.222420 1.220481 0.042516
v -0.160587 1.220481 -0.042516
v -0.222420 1.220481 -0.042516
v -0.171291 1.355478 0.025738
v -0.211716 1.355478 0.025738
v -0.171291 1.355478 -0.025227
v -0.211716 1.355478 -0.025227
v -0.400668 1.141074 -0.042516
v -0.338834 1.141074 -0.042516
v -0.400668 1.141074 0.042516
v -0.338834 1.220481 0.042516
v -0.400668 1.220481 0.042516
v -0.400668 1.220481 -0.042516
v -0.349539 1.355478 0.025738
v -0.389963 1.355478 0.025738
v -0.349539 1.355478 -0.025227
v -0.389963 1.355478 -0.025227
v -0.506341 1.355478 0.090201
v -0.506341 1.355478 -0.025227
v -0.054913 1.355478 0.090201
v -0.054913 1.355478 -0.025227
v -0.506341 1.646210 0.090201
v -0.506341 1.646210 -0.025227
v -0.054913 1.646210 0.090201
v -0.054913 1.646210 -0.025227
v -0.462848 1.399360 0.090201
v -0.098406 1.399360 0.090201
v -0.098407 1.602328 0.090201
v -0.462848 1.602328 0.090201
v -0.203034 1.457630 0.016506
v -0.358220 1.457630 0.016506
v -0.358220 1.544058 0.016506
v -0.203034 1.544058 0.016506
v -0.171291 1.220481 -0.025227
v -0.171291 1.220481 0.025738
v -0.211716 1.220481 0.025738
v -0.211716 1.220481 -0.025227
v -0.349539 1.220481 -0.025227
v -0.349539 1.220481 0.025738
v -0.389963 1.220481 0.025738
v -0.389963 1.220481 -0.025227
v -0.148780 1.415931 -0.191720
v -0.412475 1.415931 -0.191720
v -0.148780 1.585757 -0.191720
v -0.412475 1.585757 -0.191720
v 0.051926 1.141074 -0.042516
v 0.051926 1.141074 0.042516
v 0.051926 1.220481 -0.042516
v 0.051926 1.220481 0.042516
v 0.338834 1.141074 -0.042516
v 0.338834 1.220481 0.042516
v 0.338834 1.220481 -0.042516
v 0.222420 1.141074 -0.042516
v 0.160587 1.141074 -0.042516
v 0.160587 1.141074 0.042516
v 0.222420 1.141074 0.042516
v 0.160587 1.220481 0.042516
v 0.222420 1.220481 0.042516
v 0.160587 1.220481 -0.042516
v 0.222420 1.220481 -0.042516
v 0.171291 1.355478 0.025738
v 0.211716 1.355478 0.025738
v 0.171291 1.355478 -0.025227
v 0.211716 1.355478 -0.025227
v 0.400668 1.141074 -0.042516
v 0.338834 1.141074 0.042516
v 0.400668 1.141074 0.042516
v 0.400668 1.220481 0.042516
v 0.400668 1.220481 -0.042516
v 0.349539 1.355478 0.025738
v 0.389963 1.355478 0.025738
v 0.349539 1.355478 -0.025227
v 0.389963 1.355478 -0.025227
v 0.506341 1.355478 0.090201
v 0.506341 1.355478 -0.025227
v 0.054913 1.355478 0.090201
v 0.054913 1.355478 -0.025227
v 0.506341 1.646210 0.090201
v 0.506341 1.646210 -0.025227
v 0.054913 1.646210 0.090201
v 0.054913 1.646210 -0.025227
v 0.462848 1.399360 0.090201
v 0.098406 1.399360 0.090201
v 0.098406 1.602328 0.090201
v 0.462848 1.602328 0.090201
v 0.203034 1.457630 0.016506
v 0.358220 1.457630 0.016506
v 0.358220 1.544058 0.016506
v 0.203034 1.544058 0.016506
v 0.171291 1.220481 -0.025227
v 0.171291 1.220481 0.025738
v 0.211716 1.220481 0.025738
v 0.211716 1.220481 -0.025227
v 0.349539 1.220481 -0.025227
v 0.349539 1.220481 0.025738
v 0.389963 1.220481 0.025738
v 0.389963 1.220481 -0.025227
v 0.148780 1.415931 -0.191720
v 0.412475 1.415931 -0.191720
v 0.148780 1.585757 -0.191720
v 0.412475 1.585757 -0.191720
v 0.460529 0.000000 -0.321194
v 0.376988 0.000000 -0.253788
v 0.408281 0.000000 -0.199587
v 0.508426 0.000000 -0.238232
v 0.047898 0.000000 0.559426
v 0.031293 0.000000 0.453375
v -0.031293 0.000000 0.453375
v -0.047898 0.000000 0.559426
v -0.508426 0.000000 -0.238232
v -0.408281 0.000000 -0.199587
v -0.376987 0.000000 -0.253788
v -0.460528 0.000000 -0.321194
v 0.044591 0.549062 -0.077234
v 0.092358 0.594477 -0.108631
v 0.140256 0.594477 -0.025669
v 0.044591 0.549062 0.077234
v 0.047898 0.594477 0.134300
v -0.047898 0.594477 0.134300
v -0.140256 0.594477 -0.025669
v -0.092358 0.594477 -0.108631
v -0.044591 0.549062 -0.077234
v 0.089182 0.549062 0.000000
v -0.044591 0.549062 0.077234
v -0.089182 0.549062 0.000000
v -0.050431 0.662645 -0.087349
v 0.050431 0.662645 -0.087349
v 0.100862 0.662645 0.000000
v 0.050431 0.662645 0.087349
v -0.050431 0.662645 0.087349
v -0.100862 0.662645 0.000000
v -0.049093 0.662645 0.000000
v -0.024547 0.662645 0.042516
v 0.024547 0.662645 0.042516
v 0.049093 0.662645 0.000000
v 0.024547 0.662645 -0.042516
v -0.024547 0.662645 -0.042516
v -0.024547 1.141074 0.042516
v -0.049093 1.141074 0.000000
v -0.024547 1.141074 -0.042516
v 0.024547 1.141074 0.042516
v 0.049093 1.141074 0.000000
v 0.024547 1.141074 -0.042516
vt 0.082358 0.783921
vt 0.082358 0.783921
vt 0.082358 0.819511
vt 0.082358 0.819511
vt 0.238666 0.819511
vt 0.238666 0.819511
vt 0.285213 0.819511
vt 0.285213 0.819511
vt 0.162249 0.783921
vt 0.162249 0.783921
vt 0.110072 0.783921
vt 0.110072 0.783921
vt 0.162249 0.819511
vt 0.110072 0.819511
vt 0.162249 0.819511
vt 0.110072 0.819511
vt 0.238666 0.783921
vt 0.189963 0.783921
vt 0.189963 0.819511
vt 0.189963 0.819511
vt 0.185166 0.819511
vt 0.185166 0.819511
vt 0.185166 0.880018
vt 0.185166 0.880018
vt 0.238666 0.783921
vt 0.189963 0.783921
vt 0.701370 0.765269
vt 0.701370 0.765269
vt 0.692503 0.765269
vt 0.692503 0.765269
vt 0.167047 0.819511
vt 0.167047 0.819511
vt 0.167047 0.880018
vt 0.167047 0.880018
vt 0.105274 0.819511
vt 0.105274 0.819511
vt 0.105274 0.880018
vt 0.105274 0.880018
vt 0.662271 0.765269
vt 0.662271 0.765269
vt 0.653404 0.765269
vt 0.653404 0.765269
vt 0.087156 0.819511
vt 0.087156 0.819511
vt 0.087156 0.880018
vt 0.087156 0.880018
vt 0.726898 0.765269
vt 0.627876 0.765269
vt 0.627876 0.765269
vt 0.726898 0.765269
vt 0.726898 0.844722
vt 0.726898 0.844722
vt 0.627876 0.844722
vt 0.627876 0.844722
vt 0.648466 0.781790
vt 0.706308 0.781790
vt 0.717358 0.777262
vt 0.637416 0.777262
vt 0.717358 0.832730
vt 0.637416 0.832730
vt 0.648466 0.828201
vt 0.706308 0.828201
vt 0.441521 0.783921
vt 0.441521 0.819511
vt 0.441521 0.819511
vt 0.441521 0.783921
vt 0.285213 0.783921
vt 0.361629 0.783921
vt 0.413806 0.783921
vt 0.413806 0.783921
vt 0.361629 0.783921
vt 0.413806 0.819511
vt 0.361629 0.819511
vt 0.413806 0.819511
vt 0.361629 0.819511
vt 0.333915 0.819511
vt 0.333915 0.783921
vt 0.285213 0.783921
vt 0.333915 0.819511
vt 0.338713 0.819511
vt 0.338713 0.880018
vt 0.338713 0.880018
vt 0.338713 0.819511
vt 0.333915 0.783921
vt 0.776517 0.765269
vt 0.785384 0.765269
vt 0.785384 0.765269
vt 0.776517 0.765269
vt 0.356831 0.819511
vt 0.356831 0.880018
vt 0.356831 0.880018
vt 0.356831 0.819511
vt 0.418604 0.819511
vt 0.418604 0.880018
vt 0.418604 0.880018
vt 0.418604 0.819511
vt 0.815616 0.765269
vt 0.824483 0.765269
vt 0.824483 0.765269
vt 0.815616 0.765269
vt 0.436723 0.819511
vt 0.436723 0.880018
vt 0.436723 0.880018
vt 0.436723 0.819511
vt 0.750989 0.765269
vt 0.750989 0.765269
vt 0.850011 0.765269
vt 0.850011 0.765269
vt 0.750989 0.844722
vt 0.850011 0.844722
vt 0.850011 0.844722
vt 0.750989 0.844722
vt 0.771579 0.781790
vt 0.829421 0.781790
vt 0.840470 0.777262
vt 0.760529 0.777262
vt 0.760529 0.832730
vt 0.840470 0.832730
vt 0.771579 0.828201
vt 0.829421 0.828201
vt 0.335309 0.040613
vt 0.262397 0.405460
vt 0.272874 0.435638
vt 0.353634 0.040613
vt 0.364140 0.040613
vt 0.342173 0.040613
vt 0.259480 0.040613
vt 0.263122 0.040613
vt 0.242109 0.040613
vt 0.245751 0.040613
vt 0.163058 0.040613
vt 0.141091 0.040613
vt 0.151597 0.040613
vt 0.169922 0.040613
vt 0.232356 0.435638
vt 0.221850 0.435638
vt 0.283381 0.435638
vt 0.272178 0.405460
vt 0.242834 0.405460
vt 0.233053 0.405460
vt 0.242834 0.405460
vt 0.262397 0.405460
vt 0.242109 0.435638
vt 0.263122 0.435638
vt 0.272941 0.569486
vt 0.250937 0.569486
vt 0.250937 0.783921
vt 0.272941 0.783921
vt 0.241553 0.480935
vt 0.230491 0.480935
vt 0.263678 0.480935
vt 0.241553 0.480935
vt 0.274740 0.480935
vt 0.263678 0.480935
vt 0.247231 0.480935
vt 0.241847 0.480935
vt 0.258000 0.480935
vt 0.263384 0.480935
vt 0.258000 0.480935
vt 0.247231 0.480935
vt 0.239935 0.783921
vt 0.250937 0.783921
vt 0.272941 0.783921
vt 0.283943 0.783921
vt 0.272941 0.569486
vt 0.283943 0.569486
vt 0.239935 0.569486
vt 0.250937 0.569486
vt 0.734936 0.024119
vt 0.734936 0.460872
vt 0.711985 0.335484
vt 0.711985 0.149507
vt 0.677945 0.149507
vt 0.677945 0.335484
vt 0.654994 0.024119
vt 0.654994 0.460872
vt 0.778107 0.024119
vt 0.801058 0.149507
vt 0.801058 0.335484
vt 0.778107 0.460872
vt 0.835098 0.149507
vt 0.835098 0.335484
vt 0.858049 0.024119
vt 0.858049 0.460872
vn -1.0000 0.0000 0.0000
vn 0.0000 1.0000 0.0000
vn 0.0000 -1.0000 0.0000
vn 0.0000 0.0000 1.0000
vn 0.0000 0.0000 -1.0000
vn 1.0000 -0.0000 0.0000
vn 0.0000 -0.9400 -0.3413
vn 0.8711 0.0000 -0.4911
vn -0.8711 0.0000 -0.4911
vn 0.0000 0.9400 -0.3413
vn -0.5813 -0.0806 -0.8097
vn -0.7044 0.5817 -0.4067
vn 0.4105 -0.0806 0.9083
vn 0.7044 0.5817 -0.4067
vn -0.7145 -0.5652 0.4125
vn 0.7145 -0.5652 0.4125
vn 0.5813 -0.0806 -0.8097
vn -0.4105 -0.0806 0.9083
vn 0.0000 -0.5652 -0.8250
vn -0.9919 -0.0806 -0.0986
vn -0.0000 0.5817 0.8134
vn 0.9919 -0.0806 -0.0986
vn -0.8267 0.2980 0.4773
vn 0.7124 -0.5687 0.4113
vn -0.0000 0.5672 0.8236
vn -0.7132 0.5672 -0.4118
vn 0.8267 0.2980 0.4773
vn 0.7132 0.5672 -0.4118
vn -0.7124 -0.5687 0.4113
vn -0.0000 -0.5687 -0.8226
vn -0.0000 0.2980 -0.9546
vn 0.8660 0.0000 0.5000
vn -0.8660 0.0000 -0.5000
vn 0.8660 0.0000 -0.5000
vn -0.8660 0.0000 0.5000
vn -0.5758 -0.0000 0.8176
vn 0.0000 0.7844 0.6202
vn 0.0000 -0.7844 0.6202
vn 0.5758 0.0000 0.8176
usemtl Material_Bright
s off
f 19/1/1 21/2/1 23/3/1 24/4/1
f 3/5/2 4/6/2 60/7/2 59/8/2
f 7/9/3 10/10/3 5/11/3 20/12/3
f 10/10/4 12/13/4 22/14/4 5/11/4
f 12/13/2 14/15/2 6/16/2 22/14/2
f 14/15/5 7/9/5 20/12/5 6/16/5
f 3/5/5 1/17/5 8/18/5 13/19/5
f 13/19/5 8/18/5 7/9/5 14/15/5
f 4/6/2 3/5/2 13/19/2 11/20/2
f 46/21/6 45/22/6 17/23/6 15/24/6
f 2/25/4 4/6/4 11/20/4 9/26/4
f 9/26/4 11/20/4 12/13/4 10/10/4
f 1/17/3 2/25/3 9/26/3 8/18/3
f 8/18/3 9/26/3 10/10/3 7/9/3
f 15/27/2 17/28/2 18/29/2 16/30/2
f 48/31/1 47/32/1 16/33/1 18/34/1
f 45/22/5 48/31/5 18/34/5 17/23/5
f 47/32/4 46/21/4 15/24/4 16/33/4
f 6/16/5 20/12/5 19/1/5 24/4/5
f 50/35/6 49/36/6 27/37/6 25/38/6
f 5/11/4 22/14/4 23/3/4 21/2/4
f 20/12/3 5/11/3 21/2/3 19/1/3
f 25/39/2 27/40/2 28/41/2 26/42/2
f 52/43/1 51/44/1 26/45/1 28/46/1
f 49/36/5 52/43/5 28/46/5 27/37/5
f 51/44/4 50/35/4 25/38/4 26/45/4
f 31/47/3 29/48/3 30/49/3 32/50/3
f 35/51/2 36/52/2 34/53/2 33/54/2
f 32/50/7 30/49/7 54/55/7 53/56/7
f 30/49/1 29/48/1 33/54/1 34/53/1
f 31/47/6 32/50/6 36/52/6 35/51/6
f 29/48/4 31/47/4 38/57/4 37/58/4
f 31/47/4 35/51/4 39/59/4 38/57/4
f 35/51/4 33/54/4 40/60/4 39/59/4
f 33/54/4 29/48/4 37/58/4 40/60/4
f 12/13/2 11/20/2 46/21/2 47/32/2
f 13/19/2 14/15/2 48/31/2 45/22/2
f 14/15/2 12/13/2 47/32/2 48/31/2
f 11/20/2 13/19/2 45/22/2 46/21/2
f 23/3/2 22/14/2 50/35/2 51/44/2
f 6/16/2 24/4/2 52/43/2 49/36/2
f 24/4/2 23/3/2 51/44/2 52/43/2
f 22/14/2 6/16/2 49/36/2 50/35/2
f 53/56/5 54/55/5 56/61/5 55/62/5
f 36/52/8 32/50/8 53/56/8 55/62/8
f 30/49/9 34/53/9 56/61/9 54/55/9
f 34/53/10 36/52/10 55/62/10 56/61/10
f 76/63/6 80/64/6 79/65/6 78/66/6
f 60/7/4 4/6/4 2/25/4 58/67/4
f 64/68/3 61/69/3 77/70/3 67/71/3
f 67/71/4 77/70/4 62/72/4 69/73/4
f 69/73/2 62/72/2 63/74/2 71/75/2
f 71/75/5 63/74/5 61/69/5 64/68/5
f 59/8/5 70/76/5 65/77/5 57/78/5
f 70/76/5 71/75/5 64/68/5 65/77/5
f 60/7/2 68/79/2 70/76/2 59/8/2
f 102/80/1 72/81/1 74/82/1 101/83/1
f 58/67/4 66/84/4 68/79/4 60/7/4
f 66/84/4 67/71/4 69/73/4 68/79/4
f 57/78/3 65/77/3 66/84/3 58/67/3
f 65/77/3 64/68/3 67/71/3 66/84/3
f 72/85/2 73/86/2 75/87/2 74/88/2
f 104/89/6 75/90/6 73/91/6 103/92/6
f 101/83/5 74/82/5 75/90/5 104/89/5
f 103/92/4 73/91/4 72/81/4 102/80/4
f 1/17/5 3/5/5 59/8/5 57/78/5
f 63/74/5 80/64/5 76/63/5 61/69/5
f 106/93/1 81/94/1 83/95/1 105/96/1
f 77/70/4 78/66/4 79/65/4 62/72/4
f 61/69/3 76/63/3 78/66/3 77/70/3
f 81/97/2 82/98/2 84/99/2 83/100/2
f 108/101/6 84/102/6 82/103/6 107/104/6
f 105/96/5 83/95/5 84/102/5 108/101/5
f 107/104/4 82/103/4 81/94/4 106/93/4
f 87/105/3 88/106/3 86/107/3 85/108/3
f 91/109/2 89/110/2 90/111/2 92/112/2
f 88/106/7 109/113/7 110/114/7 86/107/7
f 86/107/6 90/111/6 89/110/6 85/108/6
f 87/105/1 91/109/1 92/112/1 88/106/1
f 85/108/4 93/115/4 94/116/4 87/105/4
f 87/105/4 94/116/4 95/117/4 91/109/4
f 91/109/4 95/117/4 96/118/4 89/110/4
f 89/110/4 96/118/4 93/115/4 85/108/4
f 69/73/2 103/92/2 102/80/2 68/79/2
f 70/76/2 101/83/2 104/89/2 71/75/2
f 71/75/2 104/89/2 103/92/2 69/73/2
f 68/79/2 102/80/2 101/83/2 70/76/2
f 79/65/2 107/104/2 106/93/2 62/72/2
f 63/74/2 105/96/2 108/101/2 80/64/2
f 80/64/2 108/101/2 107/104/2 79/65/2
f 62/72/2 106/93/2 105/96/2 63/74/2
f 109/113/5 111/119/5 112/120/5 110/114/5
f 92/112/9 111/119/9 109/113/9 88/106/9
f 86/107/8 110/114/8 112/120/8 90/111/8
f 90/111/10 112/120/10 111/119/10 92/112/10
f 1/17/3 57/78/3 58/67/3 2/25/3
f 114/121/11 125/122/11 126/123/11 113/124/11
f 114/121/3 113/124/3 116/125/3 115/126/3
f 118/127/3 117/128/3 120/129/3 119/130/3
f 122/131/3 121/132/3 124/133/3 123/134/3
f 132/135/12 124/133/12 121/132/12 131/136/12
f 115/126/13 116/125/13 127/137/13 134/138/13
f 113/124/14 126/123/14 127/137/14 116/125/14
f 114/121/15 115/126/15 134/138/15 125/122/15
f 122/131/16 123/134/16 133/139/16 136/140/16
f 132/135/17 133/139/17 123/134/17 124/133/17
f 122/131/18 136/140/18 131/136/18 121/132/18
f 118/127/19 119/130/19 135/141/19 128/142/19
f 119/130/20 120/129/20 130/143/20 135/141/20
f 117/128/21 129/144/21 130/143/21 120/129/21
f 118/127/22 128/142/22 129/144/22 117/128/22
f 147/145/5 148/146/5 151/147/5 154/148/5
f 133/139/3 125/122/3 134/138/3 128/142/3 135/141/3 136/140/3
f 131/136/23 130/143/23 141/149/23 142/150/23
f 128/142/24 134/138/24 127/137/24 129/144/24
f 130/143/25 129/144/25 140/151/25 141/149/25
f 132/135/26 131/136/26 142/150/26 137/152/26
f 139/153/27 140/151/27 129/144/27 127/137/27
f 127/137/28 126/123/28 138/154/28 139/153/28
f 131/136/29 136/140/29 135/141/29 130/143/29
f 125/122/30 133/139/30 132/135/30 126/123/30
f 126/123/31 132/135/31 137/152/31 138/154/31
f 142/150/2 141/149/2 144/155/2 143/156/2
f 141/149/2 140/151/2 145/157/2 144/155/2
f 140/151/2 139/153/2 146/158/2 145/157/2
f 139/153/2 138/154/2 147/159/2 146/158/2
f 138/154/2 137/152/2 148/160/2 147/159/2
f 137/152/2 142/150/2 143/156/2 148/160/2
f 150/161/2 149/162/2 152/163/2 153/164/2 154/148/2 151/147/2
f 145/165/32 146/166/32 153/164/32 152/163/32
f 148/146/33 143/167/33 150/161/33 151/147/33
f 146/166/34 147/145/34 154/148/34 153/164/34
f 144/168/4 145/165/4 152/163/4 149/162/4
f 143/167/35 144/168/35 149/162/35 150/161/35
usemtl Material.001
f 38/169/36 39/170/36 44/171/36 41/172/36
f 42/173/4 41/172/4 44/171/4 43/174/4
f 37/175/37 38/169/37 41/172/37 42/173/37
f 39/170/38 40/176/38 43/174/38 44/171/38
f 40/176/39 37/175/39 42/173/39 43/174/39
f 94/177/39 97/178/39 100/179/39 95/180/39
f 98/181/4 99/182/4 100/179/4 97/178/4
f 93/183/37 98/181/37 97/178/37 94/177/37
f 95/180/38 100/179/38 99/182/38 96/184/38
f 96/184/36 99/182/36 98/181/36 93/183/36
