# Blender v3.0.0 OBJ File: 'Football.blend'
# www.blender.org
mtllib Football.mtl
o Icosphere_Icosphere.001
v -0.101099 -0.251076 0.000000
v -0.031241 -0.251075 -0.096151
v 0.081791 -0.251076 -0.059424
v 0.081791 -0.251076 0.059424
v -0.031241 -0.251075 0.096151
v 0.226891 -0.140228 0.045995
v 0.246200 -0.039128 0.105421
v 0.176342 -0.039129 0.201570
v 0.113859 -0.140228 0.201571
v 0.145100 -0.202711 0.105420
v -0.055422 -0.202711 0.170575
v 0.026369 -0.140228 0.229999
v -0.024182 -0.039128 0.266726
v -0.137213 -0.039129 0.229999
v -0.156522 -0.140228 0.170575
v -0.179356 -0.202711 0.000000
v -0.210596 -0.140228 0.096150
v -0.261146 -0.039128 0.059424
v -0.261146 -0.039128 -0.059424
v -0.210596 -0.140228 -0.096150
v -0.055422 -0.202711 -0.170575
v -0.156522 -0.140228 -0.170575
v -0.137213 -0.039129 -0.229999
v -0.024182 -0.039128 -0.266726
v 0.026369 -0.140228 -0.229999
v 0.226891 -0.140228 -0.045995
v 0.145100 -0.202711 -0.105420
v 0.113859 -0.140228 -0.201571
v 0.176342 -0.039129 -0.201570
v 0.246200 -0.039128 -0.105421
v 0.024182 0.039128 0.266726
v 0.137213 0.039129 0.229999
v 0.156522 0.140228 0.170575
v 0.055422 0.202711 0.170575
v -0.026369 0.140228 0.229999
v -0.246200 0.039128 0.105421
v -0.176342 0.039129 0.201570
v -0.113859 0.140228 0.201571
v -0.145100 0.202711 0.105420
v -0.226891 0.140228 0.045995
v -0.176342 0.039129 -0.201570
v -0.246200 0.039128 -0.105421
v -0.226891 0.140228 -0.045995
v -0.145100 0.202711 -0.105420
v -0.113859 0.140228 -0.201571
v 0.137213 0.039129 -0.229999
v 0.024182 0.039128 -0.266726
v -0.026369 0.140228 -0.229999
v 0.055422 0.202711 -0.170575
v 0.156522 0.140228 -0.170575
v 0.261146 0.039128 0.059424
v 0.261146 0.039128 -0.059424
v 0.210596 0.140228 -0.096150
v 0.179356 0.202711 0.000000
v 0.210596 0.140228 0.096150
v 0.031241 0.251075 0.096151
v 0.101099 0.251076 0.000000
v 0.031241 0.251075 -0.096151
v -0.081791 0.251076 -0.059424
v -0.081791 0.251076 0.059424
vt 0.915988 0.388079
vt 0.854324 0.340972
vt 0.806595 0.304509
vt 0.806595 0.304509
vt 0.854324 0.340972
vt 0.915988 0.388079
vt 0.721378 0.304509
vt 0.668711 0.304509
vt 0.609712 0.340972
vt 0.586159 0.388079
vt 0.626927 0.388079
vt 0.703147 0.340971
vt 0.721378 0.304509
vt 0.830771 0.388079
vt 0.764811 0.388079
vt 0.703147 0.340972
vt 0.764811 0.388079
vt 0.830771 0.388079
vt 0.726700 0.464300
vt 0.877878 0.464299
vt 0.848378 0.523299
vt 0.763162 0.523299
vt 0.930545 0.464300
vt 0.941813 0.523299
vt 0.903703 0.599520
vt 0.862935 0.599520
vt 0.930545 0.464300
vt 0.941813 0.523299
vt 0.641484 0.464299
vt 0.725051 0.599520
vt 0.659091 0.599520
vt 0.611984 0.523299
vt 0.548049 0.464300
vt 0.548049 0.464300
vt 0.559317 0.523299
vt 0.573874 0.599520
vt 0.573874 0.599520
vt 0.559317 0.523299
vt 0.726700 0.464300
vt 0.641484 0.464299
vt 0.611984 0.523299
vt 0.659091 0.599520
vt 0.725051 0.599520
vt 0.763162 0.523299
vt 0.586159 0.388079
vt 0.626927 0.388079
vt 0.877878 0.464299
vt 0.848378 0.523299
vt 0.862935 0.599520
vt 0.903703 0.599520
vt 0.786715 0.646627
vt 0.880150 0.646626
vt 0.821151 0.683090
vt 0.768484 0.683089
vt 0.635538 0.646627
vt 0.683267 0.683089
vt 0.635538 0.646627
vt 0.683267 0.683089
vt 0.786715 0.646627
vt 0.768484 0.683089
vt 0.188150 0.304509
vt 0.240817 0.304509
vt 0.326034 0.304509
vt 0.326034 0.304509
vt 0.240817 0.304509
vt 0.435427 0.388079
vt 0.449984 0.464300
vt 0.397317 0.464299
vt 0.350210 0.388079
vt 0.373764 0.340972
vt 0.222586 0.340972
vt 0.284250 0.388079
vt 0.246139 0.464300
vt 0.160923 0.464299
vt 0.146366 0.388079
vt 0.129151 0.340972
vt 0.105598 0.388079
vt 0.067488 0.464300
vt 0.067488 0.464300
vt 0.105598 0.388079
vt 0.222586 0.340971
vt 0.146366 0.388079
vt 0.160923 0.464299
vt 0.246139 0.464300
vt 0.284250 0.388079
vt 0.435427 0.388079
vt 0.373764 0.340972
vt 0.350210 0.388079
vt 0.397317 0.464299
vt 0.449984 0.464300
vt 0.282601 0.523299
vt 0.367817 0.523299
vt 0.382375 0.599520
vt 0.306154 0.646627
vt 0.244490 0.599520
vt 0.078756 0.523299
vt 0.131423 0.523299
vt 0.178530 0.599520
vt 0.154977 0.646627
vt 0.093313 0.599520
vt 0.131423 0.523299
vt 0.078756 0.523299
vt 0.093313 0.599520
vt 0.154977 0.646627
vt 0.178530 0.599520
vt 0.367817 0.523299
vt 0.282601 0.523299
vt 0.244490 0.599520
vt 0.306154 0.646627
vt 0.382375 0.599520
vt 0.461253 0.523299
vt 0.461253 0.523299
vt 0.423142 0.599520
vt 0.399589 0.646626
vt 0.423142 0.599520
vt 0.287923 0.683089
vt 0.340591 0.683090
vt 0.287923 0.683089
vt 0.202707 0.683089
vt 0.202707 0.683089
vn 0.6071 -0.7947 -0.0000
vn -0.4911 -0.7947 -0.3568
vn 0.1876 -0.7947 0.5774
vn 0.1876 -0.7947 -0.5774
vn 0.3035 -0.1876 0.9342
vn 0.7946 0.1876 0.5774
vn 0.9822 -0.1876 0.0000
vn -0.3035 0.1876 0.9342
vn -0.9822 0.1876 0.0000
vn -0.3035 0.1876 -0.9342
vn -0.7946 -0.1876 0.5774
vn -0.7946 -0.1876 -0.5774
vn 0.3035 -0.1876 -0.9342
vn 0.7946 0.1876 -0.5774
vn 0.4911 0.7947 0.3568
vn -0.1876 0.7947 0.5774
vn -0.6071 0.7947 0.0000
vn -0.1876 0.7947 -0.5774
vn 0.4911 0.7947 -0.3568
vn 0.0000 -1.0000 0.0000
vn 0.7236 -0.4472 0.5257
vn -0.2764 -0.4472 0.8507
vn -0.8944 -0.4472 0.0000
vn -0.2764 -0.4472 -0.8507
vn 0.7236 -0.4472 -0.5257
vn 0.2764 0.4472 0.8507
vn -0.7236 0.4472 0.5257
vn -0.7236 0.4472 -0.5257
vn 0.2764 0.4472 -0.8507
vn 0.8944 0.4472 0.0000
vn -0.0000 1.0000 0.0000
vn -0.4911 -0.7947 0.3568
usemtl Material
s off
f 6/1/1 10/2/1 4/3/1 3/4/1 27/5/1 26/6/1
f 2/7/2 1/8/2 16/9/2 20/10/2 22/11/2 21/12/2
f 5/13/3 4/3/3 10/2/3 9/14/3 12/15/3 11/16/3
f 3/4/4 2/7/4 21/12/4 25/17/4 28/18/4 27/5/4
f 13/19/5 12/15/5 9/14/5 8/20/5 32/21/5 31/22/5
f 8/20/6 7/23/6 51/24/6 55/25/6 33/26/6 32/21/6
f 7/23/7 6/1/7 26/6/7 30/27/7 52/28/7 51/24/7
f 14/29/8 13/19/8 31/22/8 35/30/8 38/31/8 37/32/8
f 19/33/9 18/34/9 36/35/9 40/36/9 43/37/9 42/38/9
f 24/39/10 23/40/10 41/41/10 45/42/10 48/43/10 47/44/10
f 18/34/11 17/45/11 15/46/11 14/29/11 37/32/11 36/35/11
f 23/40/12 22/11/12 20/10/12 19/33/12 42/38/12 41/41/12
f 29/47/13 28/18/13 25/17/13 24/39/13 47/44/13 46/48/13
f 30/27/14 29/47/14 46/48/14 50/49/14 53/50/14 52/28/14
f 34/51/15 33/26/15 55/25/15 54/52/15 57/53/15 56/54/15
f 39/55/16 38/31/16 35/30/16 34/51/16 56/54/16 60/56/16
f 44/57/17 43/37/17 40/36/17 39/55/17 60/56/17 59/58/17
f 49/59/18 48/43/18 45/42/18 44/57/18 59/58/18 58/60/18
f 54/52/19 53/50/19 50/49/19 49/59/19 58/60/19 57/53/19
f 1/61/20 2/62/20 3/63/20 4/64/20 5/65/20
f 6/66/21 7/67/21 8/68/21 9/69/21 10/70/21
f 11/71/22 12/72/22 13/73/22 14/74/22 15/75/22
f 16/76/23 17/77/23 18/78/23 19/79/23 20/80/23
f 21/81/24 22/82/24 23/83/24 24/84/24 25/85/24
f 26/86/25 27/87/25 28/88/25 29/89/25 30/90/25
f 31/91/26 32/92/26 33/93/26 34/94/26 35/95/26
f 36/96/27 37/97/27 38/98/27 39/99/27 40/100/27
f 41/101/28 42/102/28 43/103/28 44/104/28 45/105/28
f 46/106/29 47/107/29 48/108/29 49/109/29 50/110/29
f 51/111/30 52/112/30 53/113/30 54/114/30 55/115/30
f 56/116/31 57/117/31 58/118/31 59/119/31 60/120/31
f 1/8/32 5/13/32 11/16/32 15/46/32 17/45/32 16/9/32
