# Blender v3.0.0 OBJ File: 'Ground.blend'
# www.blender.org
mtllib Ground.mtl
o Ground.002_Cube.004
v -25.000000 0.200000 25.000000
v -25.000000 -1.000000 25.000000
v -25.000000 0.200000 -25.000000
v -25.000000 -1.000000 -25.000000
v 25.000000 0.200000 25.000000
v 25.000000 -1.000000 25.000000
v 25.000000 0.200000 -25.000000
v 25.000000 -1.000000 -25.000000
v 5.000000 0.200000 -25.000000
v 5.000000 -1.000000 -25.000000
v 5.000000 0.200000 25.000000
v 5.000000 -1.000000 25.000000
v -5.000002 0.200000 -25.000000
v -5.000002 -1.000000 25.000000
v -5.000001 -1.000000 -25.000000
v -5.000001 0.200000 25.000000
v -25.000000 0.200000 5.000000
v -25.000000 -1.000000 5.000000
v 25.000000 0.200000 5.000000
v 25.000000 -1.000000 5.000000
v 5.000000 -1.000000 5.000000
v 5.000000 0.200000 5.000000
v -5.000001 0.200000 5.000000
v -5.000001 -1.000000 5.000000
v -25.000000 -1.000000 -5.000002
v 25.000000 0.200000 -5.000002
v -25.000000 0.200000 -5.000001
v 25.000000 -1.000000 -5.000001
v 5.000000 -1.000000 -5.000001
v 5.000000 0.200000 -5.000001
v -5.000001 0.200000 -5.000001
v -5.000001 -1.000000 -5.000001
v 5.000000 -0.200000 -5.000001
v 5.000000 -0.200000 5.000000
v -5.000001 -0.200000 -5.000001
v -5.000001 -0.200000 5.000000
vt 0.038678 0.494127
vt 0.038678 0.494127
vt 0.038678 0.256873
vt 0.038678 0.256873
vt 0.142651 0.494127
vt 0.211966 0.494127
vt 0.211966 0.256873
vt 0.142651 0.256873
vt 0.211966 0.494127
vt 0.211966 0.494127
vt 0.211966 0.256873
vt 0.211966 0.256873
vt 0.107993 0.494127
vt 0.038678 0.494127
vt 0.038678 0.256873
vt 0.107993 0.256873
vt 0.142651 0.494127
vt 0.142651 0.494127
vt 0.107993 0.256873
vt 0.038678 0.256873
vt 0.142651 0.256873
vt 0.142651 0.256873
vt 0.107993 0.494127
vt 0.107993 0.494127
vt 0.107993 0.256873
vt 0.038678 0.494127
vt 0.142651 0.256873
vt 0.107993 0.256873
vt 0.107993 0.494127
vt 0.954129 0.424272
vt 0.954129 0.299728
vt 0.954129 0.299729
vt 0.954129 0.424272
vt 0.211966 0.256873
vt 0.142651 0.494127
vt 0.211966 0.494127
vt 0.797871 0.299728
vt 0.797871 0.299729
vt 0.797871 0.424272
vt 0.797871 0.424272
vn -1.0000 -0.0000 0.0000
vn 0.0000 0.0000 -1.0000
vn 1.0000 0.0000 0.0000
vn 0.0000 0.0000 1.0000
vn 0.0000 1.0000 0.0000
vn 0.0000 -1.0000 0.0000
usemtl Material.001
s off
f 27/1/1 3/2/1 4/3/1 25/4/1
f 9/5/2 7/6/2 8/7/2 10/8/2
f 19/9/3 5/10/3 6/11/3 20/12/3
f 16/13/4 1/14/4 2/15/4 14/16/4
f 22/17/5 11/18/5 5/10/5 19/9/5
f 24/19/6 14/16/6 2/15/6 18/20/6
f 20/12/6 6/11/6 12/21/6 21/22/6
f 23/23/5 16/13/5 11/18/5 22/17/5
f 5/10/4 11/18/4 12/21/4 6/11/4
f 13/24/2 9/5/2 10/8/2 15/25/2
f 3/2/2 13/24/2 15/25/2 4/3/2
f 17/26/5 1/14/5 16/13/5 23/23/5
f 21/22/6 12/21/6 14/16/6 24/19/6
f 11/18/4 16/13/4 14/16/4 12/21/4
f 29/27/6 21/22/6 24/19/6 32/28/6
f 27/1/5 17/26/5 23/23/5 31/29/5
f 30/30/1 33/31/1 34/32/1 22/33/1
f 28/34/6 20/12/6 21/22/6 29/27/6
f 32/28/6 24/19/6 18/20/6 25/4/6
f 30/35/5 22/17/5 19/9/5 26/36/5
f 26/36/3 19/9/3 20/12/3 28/34/3
f 1/14/1 17/26/1 18/20/1 2/15/1
f 7/6/3 26/36/3 28/34/3 8/7/3
f 9/5/5 30/35/5 26/36/5 7/6/5
f 15/25/6 32/28/6 25/4/6 4/3/6
f 8/7/6 28/34/6 29/27/6 10/8/6
f 13/24/5 31/29/5 30/35/5 9/5/5
f 3/2/5 27/1/5 31/29/5 13/24/5
f 10/8/6 29/27/6 32/28/6 15/25/6
f 17/26/1 27/1/1 25/4/1 18/20/1
f 35/37/5 36/38/5 34/32/5 33/31/5
f 22/33/2 34/32/2 36/38/2 23/39/2
f 23/39/3 36/38/3 35/37/3 31/40/3
f 31/40/4 35/37/4 33/31/4 30/30/4
