# Blender v3.0.0 OBJ File: 'house reinforcement v2.blend'
# www.blender.org
mtllib House Reinforcement.mtl
o Cube.001
v -5.361877 0.463776 3.586648
v -5.361877 0.695665 3.586648
v -5.361877 0.463776 -3.586648
v -5.361877 0.695665 -3.586648
v 5.361878 0.463776 3.586648
v 5.361878 0.695665 3.586648
v 5.361878 0.463776 -3.586648
v 5.361878 0.695665 -3.586648
v -5.521654 0.463776 -3.733194
v -5.521654 0.463776 3.733194
v -5.521654 0.695665 3.733194
v -5.521654 0.695665 -3.733194
v 5.521654 0.463776 -3.733194
v 5.521654 0.695665 -3.733194
v 5.521654 0.463776 3.733194
v 5.521654 0.695665 3.733194
v 0.000000 0.463776 3.733194
v 0.000000 0.695665 3.733194
v 0.000000 0.463776 3.586648
v 0.000000 0.695665 3.586648
v -2.680939 0.695665 3.733194
v -2.680939 0.695665 3.586648
v -2.680939 0.463776 3.733194
v -2.680939 0.463776 3.586648
v -5.361877 0.927553 3.586648
v -5.361877 1.159441 3.586648
v -5.361877 0.927553 -3.586648
v -5.361877 1.159441 -3.586648
v 5.361878 0.927553 3.586648
v 5.361878 1.159441 3.586648
v 5.361878 0.927553 -3.586648
v 5.361878 1.159441 -3.586648
v -5.521654 0.927553 -3.733194
v -5.521654 0.927553 3.733194
v -5.521654 1.159441 3.733194
v -5.521654 1.159441 -3.733194
v 5.521654 0.927553 -3.733194
v 5.521654 1.159441 -3.733194
v 5.521654 0.927553 3.733194
v 5.521654 1.159441 3.733194
v 0.000000 0.927553 3.733194
v 0.000000 1.159441 3.733194
v 0.000000 0.927553 3.586648
v 0.000000 1.159441 3.586648
v -2.680939 1.159441 3.733194
v -2.680939 1.159441 3.586648
v -2.680939 0.927553 3.733194
v -2.680939 0.927553 3.586648
v -5.361877 1.391329 3.586648
v -5.361877 1.623217 3.586648
v -5.361877 1.391329 -3.586648
v -5.361877 1.623217 -3.586648
v 5.361878 1.391329 3.586648
v 5.361878 1.623217 3.586648
v 5.361878 1.391329 -3.586648
v 5.361878 1.623217 -3.586648
v -5.521654 1.391329 -3.733194
v -5.521654 1.391329 3.733194
v -5.521654 1.623217 3.733194
v -5.521654 1.623217 -3.733194
v 5.521654 1.391329 -3.733194
v 5.521654 1.623217 -3.733194
v 5.521654 1.391329 3.733194
v 5.521654 1.623217 3.733194
v 0.000000 1.391329 3.733194
v 0.000000 1.623217 3.733194
v 0.000000 1.391329 3.586648
v 0.000000 1.623217 3.586648
v -2.680939 1.623217 3.733194
v -2.680939 1.623217 3.586648
v -2.680939 1.391329 3.733194
v -2.680939 1.391329 3.586648
v -5.361877 1.855105 3.586648
v -5.361877 2.086993 3.586648
v -5.361877 1.855105 -3.586648
v -5.361877 2.086993 -3.586648
v 5.361878 1.855105 3.586648
v 5.361878 2.086993 3.586648
v 5.361878 1.855105 -3.586648
v 5.361878 2.086993 -3.586648
v -5.521654 1.855105 -3.733194
v -5.521654 1.855105 3.733194
v -5.521654 2.086993 3.733194
v -5.521654 2.086993 -3.733194
v 5.521654 1.855105 -3.733194
v 5.521654 2.086993 -3.733194
v 5.521654 1.855105 3.733194
v 5.521654 2.086993 3.733194
v 0.000000 1.855105 3.733194
v 0.000000 2.086993 3.733194
v 0.000000 1.855105 3.586648
v 0.000000 2.086993 3.586648
v -2.680939 2.086993 3.733194
v -2.680939 2.086993 3.586648
v -2.680939 1.855105 3.733194
v -2.680939 1.855105 3.586648
v -5.361877 2.318882 3.586648
v -5.361877 2.550770 3.586648
v -5.361877 2.318882 -3.586648
v -5.361877 2.550770 -3.586648
v 5.361878 2.318882 3.586648
v 5.361878 2.550770 3.586648
v 5.361878 2.318882 -3.586648
v 5.361878 2.550770 -3.586648
v -5.521654 2.318882 -3.733194
v -5.521654 2.318882 3.733194
v -5.521654 2.550770 3.733194
v -5.521654 2.550770 -3.733194
v 5.521654 2.318882 -3.733194
v 5.521654 2.550770 -3.733194
v 5.521654 2.318882 3.733194
v 5.521654 2.550770 3.733194
v 0.000000 2.318882 3.733194
v 0.000000 2.550770 3.733194
v 0.000000 2.318882 3.586648
v 0.000000 2.550770 3.586648
v -2.680939 2.550770 3.733194
v -2.680939 2.550770 3.586648
v -2.680939 2.318882 3.733194
v -2.680939 2.318882 3.586648
v -4.735066 1.159441 3.733194
v -3.352194 1.159441 3.733194
v -3.352194 0.927553 3.733194
v -4.735066 0.927553 3.733194
v -3.352194 1.159441 3.586648
v -4.735066 1.159441 3.586648
v -4.735066 0.927553 3.586648
v -3.352194 0.927553 3.586648
v -4.735066 1.623217 3.733194
v -3.352194 1.623217 3.733194
v -4.735066 1.391329 3.733194
v -3.352194 1.391329 3.733194
v -3.352194 1.623217 3.586648
v -4.735066 1.623217 3.586648
v -4.735066 1.391329 3.586648
v -3.352194 1.391329 3.586648
v -4.735066 2.086993 3.733194
v -3.352194 2.086993 3.733194
v -3.352194 1.855105 3.733194
v -4.735066 1.855105 3.733194
v -3.352194 2.086993 3.586648
v -4.735066 2.086993 3.586648
v -4.735066 1.855105 3.586648
v -3.352194 1.855105 3.586648
v 0.752409 0.927553 3.586648
v 2.135280 0.927553 3.586648
v 2.135280 0.927553 3.733194
v 0.752409 0.927553 3.733194
v 2.135280 1.159441 3.586648
v 0.752409 1.159441 3.586648
v 0.752409 1.159441 3.733194
v 2.135280 1.159441 3.733194
v 0.752409 1.391329 3.586648
v 2.135280 1.391329 3.586648
v 0.752409 1.391329 3.733194
v 2.135280 1.391329 3.733194
v 2.135280 1.623217 3.586648
v 0.752409 1.623217 3.586648
v 0.752409 1.623217 3.733194
v 2.135280 1.623217 3.733194
v 0.752409 1.855105 3.586648
v 2.135280 1.855105 3.586648
v 2.135280 1.855105 3.733194
v 0.752409 1.855105 3.733194
v 2.135280 2.086993 3.586648
v 0.752409 2.086993 3.586648
v 0.752409 2.086993 3.733194
v 2.135280 2.086993 3.733194
v 3.176139 0.927553 3.586648
v 4.559011 0.927553 3.586648
v 4.559011 0.927553 3.733194
v 3.176139 0.927553 3.733194
v 4.559011 1.159441 3.586648
v 3.176139 1.159441 3.586648
v 4.559011 1.159441 3.733194
v 3.176139 1.159441 3.733194
v 3.176139 1.391329 3.586648
v 4.559011 1.391329 3.586648
v 4.559011 1.391329 3.733194
v 3.176139 1.391329 3.733194
v 4.559011 1.623217 3.586648
v 3.176139 1.623217 3.586648
v 4.559011 1.623217 3.733194
v 3.176139 1.623217 3.733194
v 3.176139 1.855105 3.586648
v 4.559011 1.855105 3.586648
v 4.559011 1.855105 3.733194
v 3.176139 1.855105 3.733194
v 4.559011 2.086993 3.586648
v 3.176139 2.086993 3.586648
v 4.559011 2.086993 3.733194
v 3.176139 2.086993 3.733194
v 5.521654 1.159441 2.912871
v 5.521654 1.159441 1.529999
v 5.521654 0.927553 1.529999
v 5.521654 0.927553 2.912871
v 5.361878 0.927553 2.912871
v 5.361878 0.927553 1.529999
v 5.361878 1.159441 2.912871
v 5.361878 1.159441 1.529999
v 5.521654 1.623217 2.912871
v 5.521654 1.623217 1.529999
v 5.521654 1.391329 1.529999
v 5.521654 1.391329 2.912871
v 5.361878 1.391329 2.912871
v 5.361878 1.391329 1.529999
v 5.361878 1.623217 2.912871
v 5.361878 1.623217 1.529999
v 5.521654 2.086993 2.912871
v 5.521654 2.086993 1.529999
v 5.521654 1.855105 1.529999
v 5.521654 1.855105 2.912871
v 5.361878 1.855105 2.912871
v 5.361878 1.855105 1.529999
v 5.361878 2.086993 2.912871
v 5.361878 2.086993 1.529999
v 5.521654 1.159441 -1.566568
v 5.521654 1.159441 -2.949440
v 5.521654 0.927553 -2.949440
v 5.521654 0.927553 -1.566568
v 5.361878 0.927553 -1.566568
v 5.361878 0.927553 -2.949440
v 5.361878 1.159441 -1.566568
v 5.361878 1.159441 -2.949440
v 5.521654 1.623217 -1.566568
v 5.521654 1.623217 -2.949440
v 5.521654 1.391329 -2.949440
v 5.521654 1.391329 -1.566568
v 5.361878 1.391329 -1.566568
v 5.361878 1.391329 -2.949440
v 5.361878 1.623217 -1.566568
v 5.361878 1.623217 -2.949440
v 5.521654 2.086993 -1.566568
v 5.521654 2.086993 -2.949440
v 5.521654 1.855105 -2.949440
v 5.521654 1.855105 -1.566568
v 5.361878 1.855105 -1.566568
v 5.361878 1.855105 -2.949440
v 5.361878 2.086993 -1.566568
v 5.361878 2.086993 -2.949440
v -5.521654 1.159441 -2.949440
v -5.521654 1.159441 -1.566568
v -5.521654 0.927553 -1.566568
v -5.521654 0.927553 -2.949440
v -5.361877 0.927553 -1.566568
v -5.361877 0.927553 -2.949440
v -5.361877 1.159441 -1.566568
v -5.361877 1.159441 -2.949440
v -5.521654 1.623217 -2.949440
v -5.521654 1.623217 -1.566568
v -5.521654 1.391329 -1.566568
v -5.521654 1.391329 -2.949440
v -5.361877 1.391329 -1.566568
v -5.361877 1.391329 -2.949440
v -5.361877 1.623217 -1.566568
v -5.361877 1.623217 -2.949440
v -5.521654 2.086993 -2.949440
v -5.521654 2.086993 -1.566568
v -5.521654 1.855105 -1.566568
v -5.521654 1.855105 -2.949440
v -5.361877 1.855105 -1.566568
v -5.361877 1.855105 -2.949440
v -5.361877 2.086993 -1.566568
v -5.361877 2.086993 -2.949440
v -5.521654 1.159441 1.529999
v -5.521654 1.159441 2.912871
v -5.521654 0.927553 2.912871
v -5.521654 0.927553 1.529999
v -5.361877 0.927553 2.912871
v -5.361877 0.927553 1.529999
v -5.361877 1.159441 2.912871
v -5.361877 1.159441 1.529999
v -5.521654 1.623217 1.529999
v -5.521654 1.623217 2.912871
v -5.521654 1.391329 2.912871
v -5.521654 1.391329 1.529999
v -5.361877 1.391329 2.912871
v -5.361877 1.391329 1.529999
v -5.361877 1.623217 2.912871
v -5.361877 1.623217 1.529999
v -5.521654 2.086993 1.529999
v -5.521654 2.086993 2.912871
v -5.521654 1.855105 2.912871
v -5.521654 1.855105 1.529999
v -5.361877 1.855105 2.912871
v -5.361877 1.855105 1.529999
v -5.361877 2.086993 2.912871
v -5.361877 2.086993 1.529999
vt 0.037422 0.086663
vt 0.037422 0.090735
vt 0.037422 0.090735
vt 0.037422 0.086663
vt 0.231340 0.090735
vt 0.231340 0.086663
vt 0.231340 0.090735
vt 0.231340 0.086663
vt 0.087305 0.086663
vt 0.087305 0.090735
vt 0.040228 0.086663
vt 0.040228 0.086663
vt 0.040228 0.090735
vt 0.040228 0.090735
vt 0.228534 0.086663
vt 0.228534 0.090735
vt 0.228534 0.086663
vt 0.228534 0.090735
vt 0.134381 0.086663
vt 0.134381 0.086663
vt 0.087305 0.090735
vt 0.134381 0.090735
vt 0.134381 0.090735
vt 0.087305 0.086663
vt 0.037422 0.098879
vt 0.037422 0.094807
vt 0.037422 0.094807
vt 0.037422 0.098879
vt 0.037422 0.098879
vt 0.037422 0.094807
vt 0.037422 0.094807
vt 0.037422 0.098879
vt 0.037422 0.094807
vt 0.037422 0.098879
vt 0.037422 0.098879
vt 0.037422 0.094807
vt 0.231340 0.098879
vt 0.231340 0.094807
vt 0.231340 0.098879
vt 0.231340 0.094807
vt 0.231340 0.094807
vt 0.231340 0.098879
vt 0.231340 0.098879
vt 0.231340 0.094807
vt 0.231340 0.094807
vt 0.231340 0.098879
vt 0.231340 0.098879
vt 0.231340 0.094807
vt 0.051235 0.094807
vt 0.051235 0.098879
vt 0.087305 0.094807
vt 0.087305 0.098879
vt 0.075518 0.098879
vt 0.075518 0.094807
vt 0.040228 0.094807
vt 0.040228 0.094807
vt 0.040228 0.094807
vt 0.040228 0.094807
vt 0.040228 0.094807
vt 0.040228 0.094807
vt 0.040228 0.098879
vt 0.040228 0.098879
vt 0.040228 0.098879
vt 0.040228 0.098879
vt 0.040228 0.098879
vt 0.040228 0.098879
vt 0.228534 0.094807
vt 0.228534 0.098879
vt 0.228534 0.094807
vt 0.228534 0.094807
vt 0.228534 0.094807
vt 0.228534 0.094807
vt 0.228534 0.094807
vt 0.228534 0.098879
vt 0.228534 0.098879
vt 0.228534 0.098879
vt 0.228534 0.098879
vt 0.228534 0.098879
vt 0.214436 0.094807
vt 0.214436 0.094807
vt 0.171876 0.094807
vt 0.171876 0.094807
vt 0.190153 0.094807
vt 0.190153 0.094807
vt 0.134381 0.094807
vt 0.134381 0.094807
vt 0.147593 0.094807
vt 0.147593 0.094807
vt 0.051235 0.098879
vt 0.087305 0.098879
vt 0.075518 0.098879
vt 0.171876 0.098879
vt 0.190153 0.098879
vt 0.214436 0.098879
vt 0.134381 0.098879
vt 0.147593 0.098879
vt 0.134381 0.098879
vt 0.147593 0.098879
vt 0.171876 0.098879
vt 0.190153 0.098879
vt 0.214436 0.098879
vt 0.075518 0.094807
vt 0.087305 0.094807
vt 0.051235 0.094807
vt 0.037422 0.107022
vt 0.037422 0.102951
vt 0.037422 0.102951
vt 0.037422 0.107022
vt 0.037422 0.107022
vt 0.037422 0.107022
vt 0.037422 0.102951
vt 0.037422 0.102951
vt 0.037422 0.102951
vt 0.037422 0.107022
vt 0.037422 0.107022
vt 0.037422 0.102951
vt 0.231340 0.107022
vt 0.231340 0.102951
vt 0.231340 0.107022
vt 0.231340 0.107022
vt 0.231340 0.102951
vt 0.231340 0.102951
vt 0.231340 0.107022
vt 0.231340 0.102951
vt 0.231340 0.102951
vt 0.231340 0.107022
vt 0.231340 0.107022
vt 0.231340 0.102951
vt 0.051235 0.102951
vt 0.051235 0.107022
vt 0.087305 0.102951
vt 0.087305 0.107022
vt 0.075518 0.107022
vt 0.075518 0.102951
vt 0.040228 0.102951
vt 0.040228 0.102951
vt 0.040228 0.102951
vt 0.040228 0.102951
vt 0.040228 0.102951
vt 0.040228 0.102951
vt 0.040228 0.107022
vt 0.040228 0.107022
vt 0.040228 0.107022
vt 0.040228 0.107022
vt 0.040228 0.107022
vt 0.040228 0.107022
vt 0.228534 0.102951
vt 0.228534 0.107022
vt 0.228534 0.102951
vt 0.228534 0.102951
vt 0.228534 0.102951
vt 0.228534 0.102951
vt 0.228534 0.102951
vt 0.228534 0.107022
vt 0.228534 0.107022
vt 0.228534 0.107022
vt 0.228534 0.107022
vt 0.228534 0.107022
vt 0.214436 0.102951
vt 0.214436 0.102951
vt 0.171876 0.102951
vt 0.171876 0.102951
vt 0.190153 0.102951
vt 0.190153 0.102951
vt 0.147593 0.102951
vt 0.134381 0.102951
vt 0.134381 0.102951
vt 0.147593 0.102951
vt 0.051235 0.107022
vt 0.087305 0.107022
vt 0.075518 0.107022
vt 0.171876 0.107022
vt 0.190153 0.107022
vt 0.214436 0.107022
vt 0.134381 0.107022
vt 0.147593 0.107022
vt 0.134381 0.107022
vt 0.147593 0.107022
vt 0.171876 0.107022
vt 0.190153 0.107022
vt 0.214436 0.107022
vt 0.075518 0.102951
vt 0.087305 0.102951
vt 0.051235 0.102951
vt 0.037422 0.115166
vt 0.037422 0.111094
vt 0.037422 0.111094
vt 0.037422 0.115166
vt 0.037422 0.115166
vt 0.037422 0.111094
vt 0.037422 0.111094
vt 0.037422 0.115166
vt 0.037422 0.111094
vt 0.037422 0.115166
vt 0.037422 0.115166
vt 0.037422 0.111094
vt 0.231340 0.115166
vt 0.231340 0.111094
vt 0.231340 0.115166
vt 0.231340 0.111094
vt 0.231340 0.111094
vt 0.231340 0.115166
vt 0.231340 0.115166
vt 0.231340 0.111094
vt 0.231340 0.111094
vt 0.231340 0.115166
vt 0.231340 0.115166
vt 0.231340 0.111094
vt 0.051235 0.111094
vt 0.051235 0.115166
vt 0.087305 0.111094
vt 0.087305 0.115166
vt 0.075518 0.115166
vt 0.075518 0.111094
vt 0.040228 0.111094
vt 0.040228 0.111094
vt 0.040228 0.111094
vt 0.040228 0.111094
vt 0.040228 0.111094
vt 0.040228 0.111094
vt 0.040228 0.115166
vt 0.040228 0.115166
vt 0.040228 0.115166
vt 0.040228 0.115166
vt 0.040228 0.115166
vt 0.040228 0.115166
vt 0.228534 0.111094
vt 0.228534 0.115166
vt 0.228534 0.111094
vt 0.228534 0.111094
vt 0.228534 0.111094
vt 0.228534 0.111094
vt 0.228534 0.111094
vt 0.228534 0.115166
vt 0.228534 0.115166
vt 0.228534 0.115166
vt 0.228534 0.115166
vt 0.228534 0.115166
vt 0.214436 0.111094
vt 0.214436 0.111094
vt 0.171876 0.111094
vt 0.171876 0.111094
vt 0.190153 0.111094
vt 0.190153 0.111094
vt 0.134381 0.111094
vt 0.134381 0.111094
vt 0.147593 0.111094
vt 0.147593 0.111094
vt 0.051235 0.115166
vt 0.087305 0.115166
vt 0.075518 0.115166
vt 0.171876 0.115166
vt 0.190153 0.115166
vt 0.214436 0.115166
vt 0.134381 0.115166
vt 0.147593 0.115166
vt 0.134381 0.115166
vt 0.147593 0.115166
vt 0.171876 0.115166
vt 0.190153 0.115166
vt 0.214436 0.115166
vt 0.075518 0.111094
vt 0.087305 0.111094
vt 0.051235 0.111094
vt 0.037422 0.119238
vt 0.037422 0.123310
vt 0.037422 0.123310
vt 0.037422 0.119238
vt 0.231340 0.123310
vt 0.231340 0.119238
vt 0.231340 0.123310
vt 0.231340 0.119238
vt 0.087305 0.119238
vt 0.087305 0.123310
vt 0.040228 0.119238
vt 0.040228 0.119238
vt 0.040228 0.123310
vt 0.040228 0.123310
vt 0.228534 0.119238
vt 0.228534 0.123310
vt 0.228534 0.119238
vt 0.228534 0.123310
vt 0.134381 0.119238
vt 0.134381 0.119238
vt 0.087305 0.123310
vt 0.134381 0.123310
vt 0.134381 0.123310
vt 0.087305 0.119238
vn -1.0000 0.0000 0.0000
vn 0.0000 0.0000 -1.0000
vn 1.0000 0.0000 0.0000
vn 0.0000 0.0000 1.0000
vn 0.0000 -1.0000 0.0000
vn 0.0000 1.0000 0.0000
usemtl House
s off
f 10/1/1 11/2/1 12/3/1 9/4/1
f 9/4/2 12/3/2 14/5/2 13/6/2
f 13/6/3 14/5/3 16/7/3 15/8/3
f 23/9/4 21/10/4 11/2/4 10/1/4
f 3/11/5 1/12/5 10/1/5 9/4/5
f 2/13/6 4/14/6 12/3/6 11/2/6
f 7/15/5 3/11/5 9/4/5 13/6/5
f 4/14/6 8/16/6 14/5/6 12/3/6
f 5/17/5 7/15/5 13/6/5 15/8/5
f 8/16/6 6/18/6 16/7/6 14/5/6
f 19/19/5 5/17/5 15/8/5 17/20/5
f 22/21/6 2/13/6 11/2/6 21/10/6
f 7/15/4 8/16/4 4/14/4 3/11/4
f 5/17/1 6/18/1 8/16/1 7/15/1
f 19/19/2 20/22/2 6/18/2 5/17/2
f 3/11/3 4/14/3 2/13/3 1/12/3
f 6/18/6 20/22/6 18/23/6 16/7/6
f 15/8/4 16/7/4 18/23/4 17/20/4
f 1/12/5 24/24/5 23/9/5 10/1/5
f 1/12/2 2/13/2 22/21/2 24/24/2
f 23/9/3 24/24/3 22/21/3 21/10/3
f 19/19/1 17/20/1 18/23/1 20/22/1
f 36/25/1 33/26/1 244/27/1 241/28/1
f 242/29/1 243/30/1 268/31/1 265/32/1
f 34/33/1 35/34/1 266/35/1 267/36/1
f 33/26/2 36/25/2 38/37/2 37/38/2
f 40/39/3 39/40/3 196/41/3 193/42/3
f 194/43/3 195/44/3 220/45/3 217/46/3
f 37/38/3 38/37/3 218/47/3 219/48/3
f 35/34/4 34/33/4 124/49/4 121/50/4
f 47/51/4 45/52/4 122/53/4 123/54/4
f 268/31/5 243/30/5 245/55/5 270/56/5
f 25/57/5 34/33/5 267/36/5 269/58/5
f 27/59/5 246/60/5 244/27/5 33/26/5
f 248/61/6 28/62/6 36/25/6 241/28/6
f 266/35/6 35/34/6 26/63/6 271/64/6
f 272/65/6 247/66/6 242/29/6 265/32/6
f 31/67/5 27/59/5 33/26/5 37/38/5
f 28/62/6 32/68/6 38/37/6 36/25/6
f 222/69/5 31/67/5 37/38/5 219/48/5
f 195/44/5 198/70/5 221/71/5 220/45/5
f 39/40/5 29/72/5 197/73/5 196/41/5
f 199/74/6 30/75/6 40/39/6 193/42/6
f 218/47/6 38/37/6 32/68/6 224/76/6
f 223/77/6 200/78/6 194/43/6 217/46/6
f 170/79/5 29/72/5 39/40/5 171/80/5
f 147/81/5 146/82/5 169/83/5 172/84/5
f 41/85/5 43/86/5 145/87/5 148/88/5
f 26/63/6 35/34/6 121/50/6 126/89/6
f 122/53/6 45/52/6 46/90/6 125/91/6
f 31/67/4 32/68/4 28/62/4 27/59/4
f 198/70/1 200/78/1 223/77/1 221/71/1
f 32/68/1 31/67/1 222/69/1 224/76/1
f 29/72/1 30/75/1 199/74/1 197/73/1
f 146/82/2 149/92/2 174/93/2 169/83/2
f 30/75/2 29/72/2 170/79/2 173/94/2
f 43/86/2 44/95/2 150/96/2 145/87/2
f 245/55/3 247/66/3 272/65/3 270/56/3
f 26/63/3 25/57/3 269/58/3 271/64/3
f 27/59/3 28/62/3 248/61/3 246/60/3
f 44/95/6 42/97/6 151/98/6 150/96/6
f 149/92/6 152/99/6 176/100/6 174/93/6
f 40/39/6 30/75/6 173/94/6 175/101/6
f 42/97/4 41/85/4 148/88/4 151/98/4
f 152/99/4 147/81/4 172/84/4 176/100/4
f 39/40/4 40/39/4 175/101/4 171/80/4
f 128/102/5 48/103/5 47/51/5 123/54/5
f 25/57/5 127/104/5 124/49/5 34/33/5
f 46/90/2 48/103/2 128/102/2 125/91/2
f 25/57/2 26/63/2 126/89/2 127/104/2
f 47/51/3 48/103/3 46/90/3 45/52/3
f 43/86/1 41/85/1 42/97/1 44/95/1
f 60/105/1 57/106/1 252/107/1 249/108/1
f 273/109/1 250/110/1 251/111/1 276/112/1
f 58/113/1 59/114/1 274/115/1 275/116/1
f 57/106/2 60/105/2 62/117/2 61/118/2
f 201/119/3 64/120/3 63/121/3 204/122/3
f 202/123/3 203/124/3 228/125/3 225/126/3
f 61/118/3 62/117/3 226/127/3 227/128/3
f 59/114/4 58/113/4 131/129/4 129/130/4
f 71/131/4 69/132/4 130/133/4 132/134/4
f 251/111/5 253/135/5 278/136/5 276/112/5
f 49/137/5 58/113/5 275/116/5 277/138/5
f 57/106/5 51/139/5 254/140/5 252/107/5
f 256/141/6 52/142/6 60/105/6 249/108/6
f 274/115/6 59/114/6 50/143/6 279/144/6
f 280/145/6 255/146/6 250/110/6 273/109/6
f 55/147/5 51/139/5 57/106/5 61/118/5
f 52/142/6 56/148/6 62/117/6 60/105/6
f 230/149/5 55/147/5 61/118/5 227/128/5
f 203/124/5 206/150/5 229/151/5 228/125/5
f 63/121/5 53/152/5 205/153/5 204/122/5
f 207/154/6 54/155/6 64/120/6 201/119/6
f 226/127/6 62/117/6 56/148/6 232/156/6
f 231/157/6 208/158/6 202/123/6 225/126/6
f 178/159/5 53/152/5 63/121/5 179/160/5
f 156/161/5 154/162/5 177/163/5 180/164/5
f 155/165/5 65/166/5 67/167/5 153/168/5
f 50/143/6 59/114/6 129/130/6 134/169/6
f 130/133/6 69/132/6 70/170/6 133/171/6
f 55/147/4 56/148/4 52/142/4 51/139/4
f 206/150/1 208/158/1 231/157/1 229/151/1
f 56/148/1 55/147/1 230/149/1 232/156/1
f 53/152/1 54/155/1 207/154/1 205/153/1
f 154/162/2 157/172/2 182/173/2 177/163/2
f 54/155/2 53/152/2 178/159/2 181/174/2
f 67/167/2 68/175/2 158/176/2 153/168/2
f 253/135/3 255/146/3 280/145/3 278/136/3
f 50/143/3 49/137/3 277/138/3 279/144/3
f 51/139/3 52/142/3 256/141/3 254/140/3
f 68/175/6 66/177/6 159/178/6 158/176/6
f 182/173/6 157/172/6 160/179/6 184/180/6
f 64/120/6 54/155/6 181/174/6 183/181/6
f 66/177/4 65/166/4 155/165/4 159/178/4
f 160/179/4 156/161/4 180/164/4 184/180/4
f 63/121/4 64/120/4 183/181/4 179/160/4
f 136/182/5 72/183/5 71/131/5 132/134/5
f 49/137/5 135/184/5 131/129/5 58/113/5
f 70/170/2 72/183/2 136/182/2 133/171/2
f 49/137/2 50/143/2 134/169/2 135/184/2
f 71/131/3 72/183/3 70/170/3 69/132/3
f 67/167/1 65/166/1 66/177/1 68/175/1
f 84/185/1 81/186/1 260/187/1 257/188/1
f 258/189/1 259/190/1 284/191/1 281/192/1
f 82/193/1 83/194/1 282/195/1 283/196/1
f 81/186/2 84/185/2 86/197/2 85/198/2
f 88/199/3 87/200/3 212/201/3 209/202/3
f 210/203/3 211/204/3 236/205/3 233/206/3
f 85/198/3 86/197/3 234/207/3 235/208/3
f 83/194/4 82/193/4 140/209/4 137/210/4
f 95/211/4 93/212/4 138/213/4 139/214/4
f 284/191/5 259/190/5 261/215/5 286/216/5
f 73/217/5 82/193/5 283/196/5 285/218/5
f 75/219/5 262/220/5 260/187/5 81/186/5
f 264/221/6 76/222/6 84/185/6 257/188/6
f 282/195/6 83/194/6 74/223/6 287/224/6
f 288/225/6 263/226/6 258/189/6 281/192/6
f 79/227/5 75/219/5 81/186/5 85/198/5
f 76/222/6 80/228/6 86/197/6 84/185/6
f 238/229/5 79/227/5 85/198/5 235/208/5
f 211/204/5 214/230/5 237/231/5 236/205/5
f 87/200/5 77/232/5 213/233/5 212/201/5
f 215/234/6 78/235/6 88/199/6 209/202/6
f 234/207/6 86/197/6 80/228/6 240/236/6
f 239/237/6 216/238/6 210/203/6 233/206/6
f 186/239/5 77/232/5 87/200/5 187/240/5
f 163/241/5 162/242/5 185/243/5 188/244/5
f 89/245/5 91/246/5 161/247/5 164/248/5
f 74/223/6 83/194/6 137/210/6 142/249/6
f 138/213/6 93/212/6 94/250/6 141/251/6
f 79/227/4 80/228/4 76/222/4 75/219/4
f 214/230/1 216/238/1 239/237/1 237/231/1
f 80/228/1 79/227/1 238/229/1 240/236/1
f 77/232/1 78/235/1 215/234/1 213/233/1
f 162/242/2 165/252/2 190/253/2 185/243/2
f 78/235/2 77/232/2 186/239/2 189/254/2
f 91/246/2 92/255/2 166/256/2 161/247/2
f 261/215/3 263/226/3 288/225/3 286/216/3
f 74/223/3 73/217/3 285/218/3 287/224/3
f 75/219/3 76/222/3 264/221/3 262/220/3
f 92/255/6 90/257/6 167/258/6 166/256/6
f 165/252/6 168/259/6 192/260/6 190/253/6
f 88/199/6 78/235/6 189/254/6 191/261/6
f 90/257/4 89/245/4 164/248/4 167/258/4
f 168/259/4 163/241/4 188/244/4 192/260/4
f 87/200/4 88/199/4 191/261/4 187/240/4
f 144/262/5 96/263/5 95/211/5 139/214/5
f 73/217/5 143/264/5 140/209/5 82/193/5
f 94/250/2 96/263/2 144/262/2 141/251/2
f 73/217/2 74/223/2 142/249/2 143/264/2
f 95/211/3 96/263/3 94/250/3 93/212/3
f 91/246/1 89/245/1 90/257/1 92/255/1
f 106/265/1 107/266/1 108/267/1 105/268/1
f 105/268/2 108/267/2 110/269/2 109/270/2
f 109/270/3 110/269/3 112/271/3 111/272/3
f 119/273/4 117/274/4 107/266/4 106/265/4
f 99/275/5 97/276/5 106/265/5 105/268/5
f 98/277/6 100/278/6 108/267/6 107/266/6
f 103/279/5 99/275/5 105/268/5 109/270/5
f 100/278/6 104/280/6 110/269/6 108/267/6
f 101/281/5 103/279/5 109/270/5 111/272/5
f 104/280/6 102/282/6 112/271/6 110/269/6
f 115/283/5 101/281/5 111/272/5 113/284/5
f 118/285/6 98/277/6 107/266/6 117/274/6
f 103/279/4 104/280/4 100/278/4 99/275/4
f 101/281/1 102/282/1 104/280/1 103/279/1
f 115/283/2 116/286/2 102/282/2 101/281/2
f 99/275/3 100/278/3 98/277/3 97/276/3
f 102/282/6 116/286/6 114/287/6 112/271/6
f 111/272/4 112/271/4 114/287/4 113/284/4
f 97/276/5 120/288/5 119/273/5 106/265/5
f 97/276/2 98/277/2 118/285/2 120/288/2
f 119/273/3 120/288/3 118/285/3 117/274/3
f 115/283/1 113/284/1 114/287/1 116/286/1
f 129/130/3 131/129/3 135/184/3 134/169/3
f 137/210/3 140/209/3 143/264/3 142/249/3
f 121/50/3 124/49/3 127/104/3 126/89/3
f 139/214/1 138/213/1 141/251/1 144/262/1
f 122/53/1 125/91/1 128/102/1 123/54/1
f 130/133/1 133/171/1 136/182/1 132/134/1
f 164/248/3 161/247/3 166/256/3 167/258/3
f 148/88/3 145/87/3 150/96/3 151/98/3
f 155/165/3 153/168/3 158/176/3 159/178/3
f 168/259/1 165/252/1 162/242/1 163/241/1
f 160/179/1 157/172/1 154/162/1 156/161/1
f 152/99/1 149/92/1 146/82/1 147/81/1
f 188/244/3 185/243/3 190/253/3 192/260/3
f 180/164/3 177/163/3 182/173/3 184/180/3
f 172/84/3 169/83/3 174/93/3 176/100/3
f 178/159/1 179/160/1 183/181/1 181/174/1
f 186/239/1 187/240/1 191/261/1 189/254/1
f 170/79/1 171/80/1 175/101/1 173/94/1
f 204/122/2 205/153/2 207/154/2 201/119/2
f 212/201/2 213/233/2 215/234/2 209/202/2
f 193/42/2 196/41/2 197/73/2 199/74/2
f 206/150/4 203/124/4 202/123/4 208/158/4
f 214/230/4 211/204/4 210/203/4 216/238/4
f 195/44/4 194/43/4 200/78/4 198/70/4
f 233/206/2 236/205/2 237/231/2 239/237/2
f 231/157/2 225/126/2 228/125/2 229/151/2
f 223/77/2 217/46/2 220/45/2 221/71/2
f 235/208/4 234/207/4 240/236/4 238/229/4
f 219/48/4 218/47/4 224/76/4 222/69/4
f 227/128/4 226/127/4 232/156/4 230/149/4
f 253/135/2 251/111/2 250/110/2 255/146/2
f 261/215/2 259/190/2 258/189/2 263/226/2
f 245/55/2 243/30/2 242/29/2 247/66/2
f 249/108/4 252/107/4 254/140/4 256/141/4
f 257/188/4 260/187/4 262/220/4 264/221/4
f 241/28/4 244/27/4 246/60/4 248/61/4
f 282/195/2 287/224/2 285/218/2 283/196/2
f 266/35/2 271/64/2 269/58/2 267/36/2
f 274/115/2 279/144/2 277/138/2 275/116/2
f 288/225/4 281/192/4 284/191/4 286/216/4
f 280/145/4 273/109/4 276/112/4 278/136/4
f 272/65/4 265/32/4 268/31/4 270/56/4
