# Blender v3.0.0 OBJ File: 'High Voltage Transformer.blend'
# www.blender.org
mtllib HV Transformer Box.mtl
o Cube_Cube.002
v -0.582061 -0.000000 0.261434
v -0.582061 1.540247 0.261434
v -0.582061 -0.000000 -0.399348
v -0.582061 1.540247 -0.399348
v 0.532817 -0.000000 0.261434
v 0.532817 1.540247 0.261434
v 0.532817 -0.000000 -0.399348
v 0.532817 1.540247 -0.399348
v 0.438927 0.196599 0.261434
v 0.438927 1.343648 0.261434
v -0.488171 1.343648 0.261434
v -0.488171 0.196599 0.261434
v 0.438927 1.343648 0.047300
v 0.438927 0.196599 0.047300
v -0.488171 0.196599 0.047300
v -0.488171 1.343648 0.047300
v 0.532817 0.199918 -0.283445
v 0.532817 1.340330 -0.283445
v 0.532817 1.340330 0.145531
v 0.532817 0.199918 0.145531
v 0.622418 1.340330 -0.283445
v 0.622418 0.199918 -0.283445
v 0.622418 0.199918 0.145531
v 0.622418 1.340330 0.145531
v -0.582061 0.770124 -0.399348
v -0.024622 -0.000000 -0.399348
v -0.024622 1.540247 -0.399348
v 0.532817 0.770124 -0.399348
v -0.024622 0.770124 -0.399348
v 0.071423 0.918026 -0.399348
v 0.071423 1.340330 -0.399348
v 0.436772 1.340330 -0.399348
v 0.436772 0.918026 -0.399348
v 0.071423 0.199918 -0.399348
v 0.071423 0.622221 -0.399348
v 0.436772 0.622221 -0.399348
v 0.436772 0.199918 -0.399348
v -0.486016 0.199918 -0.399348
v -0.486016 0.622221 -0.399348
v -0.120667 0.622221 -0.399348
v -0.120667 0.199918 -0.399348
v -0.486016 0.918026 -0.399348
v -0.486016 1.340330 -0.399348
v -0.120667 1.340330 -0.399348
v -0.120667 0.918026 -0.399348
v 0.071423 1.340330 -0.460058
v 0.071423 0.918026 -0.460058
v 0.436772 0.918026 -0.460058
v 0.436772 1.340330 -0.460058
v 0.071423 0.622221 -0.460058
v 0.071423 0.199918 -0.460058
v 0.436772 0.199918 -0.460058
v 0.436772 0.622221 -0.460058
v -0.486016 0.622221 -0.460058
v -0.486016 0.199918 -0.460058
v -0.120667 0.199918 -0.460058
v -0.120667 0.622221 -0.460058
v -0.486016 1.340330 -0.460058
v -0.486016 0.918026 -0.460058
v -0.120667 0.918026 -0.460058
v -0.120667 1.340330 -0.460058
v -0.582061 1.104674 0.261434
v -0.582061 1.104674 -0.399348
v -1.086822 0.000000 0.261434
v -0.987199 0.815230 0.076856
v -1.086822 0.000000 -0.399348
v -0.987199 0.815230 -0.214770
v -0.681685 1.033499 -0.214770
v -0.681685 1.033499 0.076856
v -1.086822 0.744055 0.261434
v -1.086822 0.744055 -0.399348
v -0.761462 1.139397 0.076856
v -1.066976 0.921127 0.076856
v -1.066976 0.921127 -0.214770
v -0.582061 1.206707 0.076856
v -0.582061 1.466576 0.076856
v -0.582061 1.206707 -0.214770
v -0.582061 1.466576 -0.214770
v -0.761462 1.206707 -0.214770
v -0.761462 1.206707 0.076856
v -0.761462 1.466576 0.076856
v -0.761462 1.466576 -0.214770
v -1.066976 1.206707 -0.214770
v -1.066976 1.206707 0.076856
v -1.066976 1.466576 0.076856
v -1.066976 1.466576 -0.214770
v -0.761462 1.139397 -0.214770
vt 0.434516 0.172030
vt 0.384315 0.172030
vt 0.384315 0.172030
vt 0.434516 0.172030
vt 0.443807 0.735873
vt 0.443807 0.251209
vt 0.443807 0.251209
vt 0.443807 0.735873
vt 0.561330 0.816767
vt 0.561330 0.170316
vt 0.561330 0.170316
vt 0.561330 0.816767
vt 0.548429 0.095607
vt 0.625024 0.095607
vt 0.701620 0.095607
vt 0.701620 0.095607
vt 0.548429 0.095607
vt 0.701620 0.891475
vt 0.625024 0.891475
vt 0.548429 0.891475
vt 0.548429 0.891475
vt 0.701620 0.891475
vt 0.688719 0.816767
vt 0.688719 0.170316
vt 0.184258 0.158012
vt 0.184258 0.804463
vt 0.056869 0.804463
vt 0.056869 0.158012
vt 0.688719 0.170316
vt 0.688719 0.816767
vt 0.701620 0.493541
vt 0.701620 0.735873
vt 0.701620 0.251209
vt 0.701620 0.735873
vt 0.701620 0.251209
vt 0.443807 0.251209
vt 0.443807 0.735873
vt 0.443807 0.251209
vt 0.443807 0.735873
vt 0.307720 0.172030
vt 0.307720 0.417118
vt 0.307720 0.417118
vt 0.307720 0.172030
vt 0.434516 0.569964
vt 0.384315 0.569964
vt 0.384315 0.569964
vt 0.434516 0.569964
vt 0.384315 0.417118
vt 0.384315 0.417118
vt 0.625024 0.493541
vt 0.638222 0.815052
vt 0.638221 0.569964
vt 0.688423 0.815052
vt 0.688423 0.569964
vt 0.638222 0.417118
vt 0.638221 0.172030
vt 0.688423 0.417118
vt 0.688423 0.172030
vt 0.548429 0.493541
vt 0.561626 0.417118
vt 0.561626 0.172030
vt 0.611827 0.417118
vt 0.611827 0.172030
vt 0.561626 0.815052
vt 0.561626 0.569964
vt 0.611827 0.815052
vt 0.611827 0.569964
vt 0.384315 0.815052
vt 0.434516 0.815052
vt 0.434516 0.417118
vt 0.357921 0.417118
vt 0.357921 0.172030
vt 0.307720 0.569964
vt 0.307720 0.815052
vt 0.357921 0.815052
vt 0.357921 0.569964
vt 0.307720 0.569964
vt 0.307720 0.815052
vt 0.384315 0.815052
vt 0.434516 0.815052
vt 0.357921 0.172030
vt 0.434516 0.417118
vt 0.357921 0.569964
vt 0.357921 0.417118
vt 0.357921 0.815052
vt 0.548429 0.095607
vt 0.548429 0.095607
vt 0.548429 0.891475
vt 0.548429 0.891475
vt 0.548429 0.891475
vt 0.356886 0.367431
vt 0.446312 0.433037
vt 0.422961 0.464867
vt 0.333535 0.399261
vt 0.548429 0.891475
vt 0.548429 0.891475
vt 0.548429 0.891475
vt 0.548429 0.891475
vt 0.548429 0.891475
vt 0.446312 0.433037
vt 0.356886 0.367431
vt 0.333535 0.399261
vt 0.422961 0.464867
vt 0.475473 0.485098
vt 0.475473 0.563208
vt 0.475473 0.563208
vt 0.475473 0.485098
vt 0.422961 0.563208
vt 0.422961 0.563208
vt 0.333535 0.563208
vt 0.333535 0.563208
vt 0.422961 0.485098
vt 0.422961 0.485098
vt 0.333535 0.485098
vt 0.333535 0.485098
vn 0.0000 -1.0000 0.0000
vn 0.0000 0.0000 1.0000
vn 1.0000 0.0000 0.0000
vn 0.0000 1.0000 0.0000
vn -1.0000 0.0000 0.0000
vn 0.0000 0.0000 -1.0000
vn -0.5813 0.8137 0.0000
vn 0.7987 0.6017 0.0000
vn -0.7987 -0.6017 0.0000
usemtl Material
s off
f 37/1/1 34/2/1 51/3/1 52/4/1
f 19/5/2 20/6/2 23/7/2 24/8/2
f 11/9/3 12/10/3 15/11/3 16/12/3
f 3/13/1 26/14/1 7/15/1 5/16/1 1/17/1
f 8/18/4 27/19/4 4/20/4 2/21/4 6/22/4
f 5/16/2 6/22/2 10/23/2 9/24/2
f 6/22/2 2/21/2 11/9/2 10/23/2
f 2/21/2 1/17/2 12/10/2 11/9/2
f 1/17/2 5/16/2 9/24/2 12/10/2
f 14/25/2 13/26/2 16/27/2 15/28/2
f 12/10/4 9/24/4 14/29/4 15/11/4
f 10/23/1 11/9/1 16/12/1 13/30/1
f 9/24/5 10/23/5 13/30/5 14/29/5
f 3/13/5 1/17/5 2/21/5 4/20/5
f 7/15/3 28/31/3 8/18/3 18/32/3 17/33/3
f 8/18/3 6/22/3 19/34/3 18/32/3
f 6/22/3 5/16/3 20/35/3 19/34/3
f 5/16/3 7/15/3 17/33/3 20/35/3
f 22/36/3 21/37/3 24/8/3 23/7/3
f 20/6/1 17/38/1 22/36/1 23/7/1
f 18/39/4 19/5/4 24/8/4 21/37/4
f 17/38/6 18/39/6 21/37/6 22/36/6
f 38/40/5 39/41/5 54/42/5 55/43/5
f 33/44/1 30/45/1 47/46/1 48/47/1
f 34/2/5 35/48/5 50/49/5 51/3/5
f 29/50/6 27/19/6 31/51/6 30/52/6
f 27/19/6 8/18/6 32/53/6 31/51/6
f 8/18/6 28/31/6 33/54/6 32/53/6
f 28/31/6 29/50/6 30/52/6 33/54/6
f 26/14/6 29/50/6 35/55/6 34/56/6
f 29/50/6 28/31/6 36/57/6 35/55/6
f 28/31/6 7/15/6 37/58/6 36/57/6
f 7/15/6 26/14/6 34/56/6 37/58/6
f 3/13/6 25/59/6 39/60/6 38/61/6
f 25/59/6 29/50/6 40/62/6 39/60/6
f 29/50/6 26/14/6 41/63/6 40/62/6
f 26/14/6 3/13/6 38/61/6 41/63/6
f 25/59/6 4/20/6 43/64/6 42/65/6
f 4/20/6 27/19/6 44/66/6 43/64/6
f 27/19/6 29/50/6 45/67/6 44/66/6
f 29/50/6 25/59/6 42/65/6 45/67/6
f 47/46/6 46/68/6 49/69/6 48/47/6
f 51/3/6 50/49/6 53/70/6 52/4/6
f 55/43/6 54/42/6 57/71/6 56/72/6
f 59/73/6 58/74/6 61/75/6 60/76/6
f 42/77/5 43/78/5 58/74/5 59/73/5
f 31/79/4 32/80/4 49/69/4 46/68/4
f 41/81/1 38/40/1 55/43/1 56/72/1
f 35/48/4 36/82/4 53/70/4 50/49/4
f 45/83/1 42/77/1 59/73/1 60/76/1
f 32/80/3 33/44/3 48/47/3 49/69/3
f 39/41/4 40/84/4 57/71/4 54/42/4
f 36/82/3 37/1/3 52/4/3 53/70/3
f 43/78/4 44/85/4 61/75/4 58/74/4
f 40/84/3 41/81/3 56/72/3 57/71/3
f 44/85/3 45/83/3 60/76/3 61/75/3
f 30/45/5 31/79/5 46/68/5 47/46/5
f 66/86/5 64/87/5 70/88/5 71/89/5
f 1/17/2 62/90/2 70/88/2 64/87/2
f 65/91/2 69/92/2 72/93/2 73/94/2
f 3/13/1 1/17/1 64/87/1 66/86/1
f 63/95/6 3/13/6 66/86/6 71/89/6
f 68/96/7 69/97/7 62/90/7 63/95/7
f 65/98/7 67/99/7 71/89/7 70/88/7
f 69/97/7 65/98/7 70/88/7 62/90/7
f 67/99/7 68/96/7 63/95/7 71/89/7
f 68/100/6 67/101/6 74/102/6 87/103/6
f 69/92/8 68/100/8 87/103/8 72/93/8
f 67/101/9 65/91/9 73/94/9 74/102/9
f 77/104/3 78/105/3 76/106/3 75/107/3
f 81/108/4 82/109/4 86/110/4 85/111/4
f 78/105/6 77/104/6 79/112/6 82/109/6
f 75/107/2 76/106/2 81/108/2 80/113/2
f 76/106/4 78/105/4 82/109/4 81/108/4
f 77/104/1 75/107/1 80/113/1 79/112/1
f 83/114/5 84/115/5 85/111/5 86/110/5
f 84/115/5 83/114/5 74/102/5 73/94/5
f 82/109/6 79/112/6 83/114/6 86/110/6
f 80/113/2 81/108/2 85/111/2 84/115/2
f 83/114/6 79/112/6 87/103/6 74/102/6
f 79/112/3 80/113/3 72/93/3 87/103/3
f 80/113/2 84/115/2 73/94/2 72/93/2
o Cube.002_Cube.003
v -0.521525 -0.000000 0.652749
v -0.521525 1.540247 0.652749
v -0.543237 -0.000000 0.578633
v -0.543237 1.540247 0.578633
v 0.548390 -0.000000 0.339327
v 0.548390 1.540247 0.339327
v 0.526679 -0.000000 0.265212
v 0.526679 1.540247 0.265212
v -0.378994 0.793800 0.610995
v -0.378994 0.845983 0.610995
v -0.187252 0.793800 0.554827
v -0.187252 0.845983 0.554827
v -0.358429 0.793800 0.681198
v -0.358429 0.845983 0.681198
v -0.166687 0.845983 0.625029
v -0.166687 0.793800 0.625029
v -0.521525 0.359212 0.652749
v -0.543237 0.359212 0.578633
v 0.526679 0.359212 0.265212
v 0.548390 0.359212 0.339327
vt 0.549591 0.234418
vt 0.549591 0.635451
vt 0.530917 0.635451
vt 0.530917 0.234418
vt 0.681622 0.635451
vt 0.681622 0.234417
vt 0.700296 0.635451
vt 0.700296 0.234417
vt 0.802339 0.196292
vt 0.953044 0.196292
vt 0.971718 0.196292
vt 0.821013 0.196292
vt 0.163130 0.386943
vt 0.163130 0.401787
vt 0.136122 0.401787
vt 0.136122 0.386943
vt 0.145442 0.401787
vt 0.118434 0.401787
vt 0.145442 0.386943
vt 0.118434 0.386943
vt 0.956093 0.177239
vt 0.956093 0.564954
vt 0.805388 0.564955
vt 0.805388 0.177240
vt 0.937419 0.177239
vt 0.937419 0.564954
vt 0.786714 0.177240
vt 0.786714 0.564955
vn -0.9597 0.0000 0.2811
vn -0.2811 0.0000 -0.9597
vn 0.9597 0.0000 -0.2811
vn 0.2811 0.0000 0.9597
vn 0.0000 -1.0000 0.0000
vn 0.0000 1.0000 0.0000
usemtl Material
s off
f 104/116/10 89/117/10 91/118/10 105/119/10
f 105/119/11 91/118/11 95/120/11 106/121/11
f 106/121/12 95/120/12 93/122/12 107/123/12
f 107/123/13 93/122/13 89/117/13 104/116/13
f 90/124/14 94/125/14 92/126/14 88/127/14
f 95/120/15 91/118/15 89/117/15 93/122/15
f 103/128/13 102/129/13 101/130/13 100/131/13
f 99/132/15 97/133/15 101/130/15 102/129/15
f 98/134/12 99/132/12 102/129/12 103/128/12
f 96/135/14 98/134/14 103/128/14 100/131/14
f 97/133/10 96/135/10 100/131/10 101/130/10
f 92/136/13 107/137/13 104/138/13 88/139/13
f 94/140/12 106/141/12 107/137/12 92/136/12
f 90/142/11 105/143/11 106/141/11 94/140/11
f 88/139/10 104/138/10 105/143/10 90/142/10
o Cylinder
v 0.042066 1.540247 -0.276791
v 0.042066 1.980897 -0.197836
v 0.172802 1.540247 -0.222638
v 0.116973 1.980897 -0.166809
v 0.226955 1.540247 -0.091902
v 0.148000 1.980897 -0.091902
v 0.172802 1.540247 0.038835
v 0.116973 1.980897 -0.016994
v 0.042066 1.540247 0.092987
v 0.042066 1.980897 0.014033
v -0.088671 1.540247 0.038835
v -0.032841 1.980897 -0.016994
v -0.142823 1.540247 -0.091902
v -0.063869 1.980897 -0.091902
v -0.088671 1.540247 -0.222638
v -0.032841 1.980897 -0.166809
v 0.042066 1.626158 -0.197836
v 0.116973 1.626158 -0.166809
v 0.148000 1.626158 -0.091902
v 0.116973 1.626158 -0.016994
v 0.042066 1.626158 0.014033
v -0.032841 1.626158 -0.016994
v -0.063869 1.626158 -0.091902
v -0.032841 1.626158 -0.166809
v 0.042066 1.540247 -0.345829
v 0.221620 1.540247 -0.271456
v 0.221620 1.626158 -0.271456
v 0.295994 1.540247 -0.091902
v 0.295994 1.626158 -0.091902
v 0.221620 1.540247 0.087653
v 0.221620 1.626158 0.087653
v 0.042066 1.540247 0.162026
v 0.042066 1.626158 0.162026
v -0.137488 1.540247 0.087653
v -0.137488 1.626158 0.087653
v -0.211862 1.540247 -0.091902
v -0.211862 1.626158 -0.091902
v -0.137488 1.540247 -0.271456
v -0.137488 1.626158 -0.271456
v 0.042066 1.626158 -0.345829
v 0.042066 1.697106 -0.197836
v 0.042066 1.768054 -0.197836
v 0.042066 1.839001 -0.197836
v 0.042066 1.909949 -0.197836
v 0.116973 1.909949 -0.166809
v 0.116973 1.839001 -0.166809
v 0.116973 1.768054 -0.166809
v 0.116973 1.697106 -0.166809
v 0.148000 1.909949 -0.091902
v 0.148000 1.839001 -0.091902
v 0.148000 1.768054 -0.091902
v 0.148000 1.697106 -0.091902
v 0.116973 1.909949 -0.016994
v 0.116973 1.839001 -0.016994
v 0.116973 1.768054 -0.016994
v 0.116973 1.697106 -0.016994
v 0.042066 1.909949 0.014033
v 0.042066 1.839001 0.014033
v 0.042066 1.768054 0.014033
v 0.042066 1.697106 0.014033
v -0.032841 1.909949 -0.016994
v -0.032841 1.839001 -0.016994
v -0.032841 1.768054 -0.016994
v -0.032841 1.697106 -0.016994
v -0.063869 1.909949 -0.091902
v -0.063869 1.839001 -0.091902
v -0.063869 1.768054 -0.091902
v -0.063869 1.697106 -0.091902
v -0.032841 1.909949 -0.166809
v -0.032841 1.839001 -0.166809
v -0.032841 1.768054 -0.166809
v -0.032841 1.697106 -0.166809
v 0.042066 1.697106 -0.250832
v 0.042066 1.768054 -0.250832
v 0.042066 1.839001 -0.250832
v 0.042066 1.909949 -0.250832
v 0.154447 1.909949 -0.204283
v 0.154447 1.839001 -0.204283
v 0.154447 1.768054 -0.204283
v 0.154447 1.697106 -0.204283
v 0.200996 1.909949 -0.091902
v 0.200996 1.839001 -0.091902
v 0.200996 1.768054 -0.091902
v 0.200996 1.697106 -0.091902
v 0.154447 1.909949 0.020479
v 0.154447 1.839001 0.020479
v 0.154447 1.768054 0.020479
v 0.154447 1.697106 0.020479
v 0.042066 1.909949 0.067029
v 0.042066 1.839001 0.067029
v 0.042066 1.768054 0.067029
v 0.042066 1.697106 0.067029
v -0.070315 1.909949 0.020479
v -0.070315 1.839001 0.020479
v -0.070315 1.768054 0.020479
v -0.070315 1.697106 0.020479
v -0.116865 1.909949 -0.091902
v -0.116865 1.839001 -0.091902
v -0.116865 1.768054 -0.091902
v -0.116865 1.697106 -0.091902
v -0.070315 1.909949 -0.204283
v -0.070315 1.839001 -0.204283
v -0.070315 1.768054 -0.204283
v -0.070315 1.697106 -0.204283
v 0.042066 2.122793 -0.197836
v 0.116973 2.122793 -0.166809
v 0.148000 2.122793 -0.091902
v 0.116973 2.122793 -0.016994
v 0.042066 2.122793 0.014033
v -0.032841 2.122793 -0.016994
v -0.063869 2.122793 -0.091902
v -0.032841 2.122793 -0.166809
v 0.042066 1.980897 -0.197836
v 0.042066 2.051845 -0.197836
v 0.116973 2.051845 -0.166809
v 0.116973 1.980897 -0.166809
v 0.148000 2.051845 -0.091902
v 0.148000 1.980897 -0.091902
v 0.116973 2.051845 -0.016994
v 0.116973 1.980897 -0.016994
v 0.042066 2.051845 0.014033
v 0.042066 1.980897 0.014033
v -0.032841 2.051845 -0.016994
v -0.032841 1.980897 -0.016994
v -0.063869 2.051845 -0.091902
v -0.063869 1.980897 -0.091902
v -0.032841 2.051845 -0.166809
v -0.032841 1.980897 -0.166809
v 0.042066 1.980897 -0.250832
v 0.042066 2.051845 -0.250832
v 0.154447 2.051845 -0.204283
v 0.154447 1.980897 -0.204283
v 0.200996 2.051845 -0.091902
v 0.200996 1.980897 -0.091902
v 0.154447 2.051845 0.020479
v 0.154447 1.980897 0.020479
v 0.042066 2.051845 0.067029
v 0.042066 1.980897 0.067029
v -0.070315 2.051845 0.020479
v -0.070315 1.980897 0.020479
v -0.116865 2.051845 -0.091902
v -0.116865 1.980897 -0.091902
v -0.070315 2.051845 -0.204283
v -0.070315 1.980897 -0.204283
vt 0.362872 0.266808
vt 0.362872 0.286659
vt 0.378662 0.286659
vt 0.378662 0.266808
vt 0.385202 0.286659
vt 0.385202 0.266808
vt 0.378662 0.286659
vt 0.378662 0.266808
vt 0.362872 0.286659
vt 0.362872 0.266808
vt 0.347082 0.286659
vt 0.347082 0.266808
vt 0.340542 0.286659
vt 0.340542 0.266808
vt 0.347082 0.286659
vt 0.347082 0.266808
vt 0.126637 0.184263
vt 0.154195 0.184263
vt 0.165610 0.184263
vt 0.154195 0.184263
vt 0.126637 0.184263
vt 0.099079 0.184263
vt 0.087664 0.184263
vt 0.099079 0.184263
vt 0.110847 0.387977
vt 0.126637 0.387977
vt 0.126637 0.387977
vt 0.088509 0.387977
vt 0.142427 0.387977
vt 0.164766 0.387977
vt 0.088509 0.184263
vt 0.072715 0.184263
vt 0.148967 0.387977
vt 0.180559 0.387977
vt 0.126637 0.184263
vt 0.164766 0.184263
vt 0.142427 0.387977
vt 0.164766 0.387977
vt 0.088509 0.184263
vt 0.180559 0.184263
vt 0.164766 0.184263
vt 0.072715 0.387977
vt 0.088509 0.387977
vt 0.126637 0.184263
vt 0.126637 0.387977
vt 0.104307 0.387977
vt 0.110847 0.387977
vt 0.126637 0.387977
vt 0.347082 0.187404
vt 0.347082 0.207255
vt 0.362872 0.207255
vt 0.362872 0.187404
vt 0.874591 0.106448
vt 0.858801 0.106448
vt 0.850902 0.106448
vt 0.874591 0.106448
vt 0.347082 0.227106
vt 0.347082 0.246957
vt 0.362872 0.246957
vt 0.362872 0.227106
vt 0.874591 0.364076
vt 0.858801 0.364076
vt 0.850902 0.364076
vt 0.874591 0.364076
vt 0.340542 0.187404
vt 0.340542 0.207255
vt 0.896921 0.621705
vt 0.890381 0.621705
vt 0.898280 0.621705
vt 0.908092 0.621705
vt 0.340542 0.227106
vt 0.340542 0.246957
vt 0.858801 0.106448
vt 0.874591 0.106448
vt 0.874591 0.106448
vt 0.850902 0.106448
vt 0.347082 0.187404
vt 0.347082 0.207255
vt 0.890381 0.364076
vt 0.896921 0.364076
vt 0.908092 0.364076
vt 0.898280 0.364076
vt 0.347082 0.227106
vt 0.347082 0.246957
vt 0.858801 0.879334
vt 0.852261 0.879334
vt 0.841090 0.879334
vt 0.850902 0.879334
vt 0.362872 0.187404
vt 0.362872 0.207255
vt 0.896921 0.106448
vt 0.890381 0.106448
vt 0.898280 0.106448
vt 0.908092 0.106448
vt 0.362872 0.227106
vt 0.362872 0.246957
vt 0.852261 0.621705
vt 0.858801 0.621705
vt 0.850902 0.621705
vt 0.841090 0.621705
vt 0.378662 0.187404
vt 0.378662 0.207255
vt 0.896921 0.879334
vt 0.890381 0.879334
vt 0.898280 0.879334
vt 0.908092 0.879334
vt 0.378662 0.227106
vt 0.378662 0.246957
vt 0.852261 0.364076
vt 0.841090 0.364076
vt 0.385202 0.187404
vt 0.385202 0.207255
vt 0.890381 0.621705
vt 0.898280 0.621705
vt 0.385202 0.227106
vt 0.385202 0.246957
vt 0.852261 0.106448
vt 0.841090 0.106448
vt 0.378662 0.187404
vt 0.378662 0.207255
vt 0.890381 0.364076
vt 0.898280 0.364076
vt 0.378662 0.227106
vt 0.378662 0.246957
vt 0.858801 0.879334
vt 0.850902 0.879334
vt 0.890381 0.106448
vt 0.898280 0.106448
vt 0.858801 0.621705
vt 0.850902 0.621705
vt 0.850902 0.364076
vt 0.874591 0.364076
vt 0.874591 0.879334
vt 0.874591 0.621705
vt 0.874591 0.621705
vt 0.874591 0.879334
vt 0.898280 0.879334
vt 0.890381 0.879334
vt 0.874591 0.621705
vt 0.858801 0.364076
vt 0.874591 0.364076
vt 0.874591 0.879334
vt 0.874591 0.621705
vt 0.874591 0.879334
vt 0.362872 0.266808
vt 0.362872 0.286659
vt 0.378662 0.286659
vt 0.378662 0.266808
vt 0.385202 0.286659
vt 0.385202 0.266808
vt 0.378662 0.286659
vt 0.378662 0.266808
vt 0.362872 0.286659
vt 0.362872 0.266808
vt 0.347082 0.286659
vt 0.347082 0.266808
vt 0.340542 0.286659
vt 0.340542 0.266808
vt 0.347082 0.286659
vt 0.347082 0.266808
vt 0.896921 0.621705
vt 0.890381 0.621705
vt 0.898280 0.621705
vt 0.908092 0.621705
vt 0.858801 0.879334
vt 0.852261 0.879334
vt 0.841090 0.879334
vt 0.850902 0.879334
vt 0.852261 0.621705
vt 0.858801 0.621705
vt 0.850902 0.621705
vt 0.841090 0.621705
vt 0.896921 0.879334
vt 0.890381 0.879334
vt 0.898280 0.879334
vt 0.908092 0.879334
vt 0.890381 0.621705
vt 0.898280 0.621705
vt 0.858801 0.879334
vt 0.850902 0.879334
vt 0.858801 0.621705
vt 0.850902 0.621705
vt 0.874591 0.879334
vt 0.874591 0.621705
vt 0.874591 0.621705
vt 0.874591 0.879334
vt 0.898280 0.879334
vt 0.890381 0.879334
vt 0.874591 0.621705
vt 0.874591 0.879334
vt 0.874591 0.621705
vt 0.874591 0.879334
vn 0.3827 0.0000 -0.9239
vn 0.9239 0.0000 -0.3827
vn 0.9239 0.0000 0.3827
vn 0.3827 0.0000 0.9239
vn -0.3827 0.0000 0.9239
vn -0.9239 0.0000 0.3827
vn -0.9239 0.0000 -0.3827
vn -0.3827 0.0000 -0.9239
vn 0.0000 -1.0000 -0.0000
vn 0.0000 1.0000 0.0000
usemtl Material
s off
f 151/144/16 109/145/16 111/146/16 152/147/16
f 152/147/17 111/146/17 113/148/17 156/149/17
f 156/149/18 113/148/18 115/150/18 160/151/18
f 160/151/19 115/150/19 117/152/19 164/153/19
f 164/153/20 117/152/20 119/154/20 168/155/20
f 168/155/21 119/154/21 121/156/21 172/157/21
f 172/157/22 121/156/22 123/158/22 176/159/22
f 176/159/23 123/158/23 109/145/23 151/144/23
f 108/160/24 110/161/24 112/162/24 114/163/24 116/164/24 118/165/24 120/166/24 122/167/24
f 131/168/25 124/169/25 147/170/25 146/171/25
f 124/169/25 125/172/25 134/173/25 147/170/25
f 120/166/24 118/165/24 141/174/24 143/175/24
f 125/172/25 126/176/25 136/177/25 134/173/25
f 110/161/24 108/160/24 132/178/24 133/179/24
f 126/176/25 127/180/25 138/181/25 136/177/25
f 108/160/24 122/167/24 145/182/24 132/178/24
f 114/163/24 112/162/24 135/183/24 137/184/24
f 145/182/23 146/171/23 147/170/23 132/178/23
f 143/175/22 144/185/22 146/171/22 145/182/22
f 141/174/21 142/186/21 144/185/21 143/175/21
f 139/187/20 140/188/20 142/186/20 141/174/20
f 137/184/19 138/181/19 140/188/19 139/187/19
f 135/183/18 136/177/18 138/181/18 137/184/18
f 133/179/17 134/173/17 136/177/17 135/183/17
f 132/178/16 147/170/16 134/173/16 133/179/16
f 116/164/24 114/163/24 137/184/24 139/187/24
f 130/189/25 131/168/25 146/171/25 144/185/25
f 112/162/24 110/161/24 133/179/24 135/183/24
f 122/167/24 120/166/24 143/175/24 145/182/24
f 129/190/25 130/189/25 144/185/25 142/186/25
f 128/191/25 129/190/25 142/186/25 140/188/25
f 118/165/24 116/164/24 139/187/24 141/174/24
f 127/180/25 128/191/25 140/188/25 138/181/25
f 131/192/23 179/193/23 148/194/23 124/195/23
f 148/196/24 179/197/24 211/198/24 180/199/24
f 178/200/23 177/201/23 150/202/23 149/203/23
f 166/204/25 170/205/25 202/206/25 198/207/25
f 130/208/22 175/209/22 179/193/22 131/192/22
f 157/210/24 153/211/24 185/212/24 189/213/24
f 174/214/22 173/215/22 177/201/22 178/200/22
f 171/216/24 167/217/24 199/218/24 203/219/24
f 129/220/21 171/221/21 175/209/21 130/208/21
f 154/222/25 158/223/25 190/224/25 186/225/25
f 170/226/21 169/227/21 173/215/21 174/214/21
f 168/228/25 172/229/25 204/230/25 200/231/25
f 128/232/20 167/233/20 171/221/20 129/220/20
f 159/234/24 155/235/24 187/236/24 191/237/24
f 166/238/20 165/239/20 169/227/20 170/226/20
f 173/240/24 169/241/24 201/242/24 205/243/24
f 127/244/19 163/245/19 167/233/19 128/232/19
f 156/246/25 160/247/25 192/248/25 188/249/25
f 162/250/19 161/251/19 165/239/19 166/238/19
f 170/205/25 174/252/25 206/253/25 202/206/25
f 126/254/18 159/255/18 163/245/18 127/244/18
f 161/256/24 157/210/24 189/213/24 193/257/24
f 158/258/18 157/259/18 161/251/18 162/250/18
f 175/260/24 171/216/24 203/219/24 207/261/24
f 125/262/17 155/263/17 159/255/17 126/254/17
f 158/223/25 162/264/25 194/265/25 190/224/25
f 154/266/17 153/267/17 157/259/17 158/258/17
f 172/229/25 176/268/25 208/269/25 204/230/25
f 124/195/16 148/194/16 155/263/16 125/262/16
f 163/270/24 159/234/24 191/237/24 195/271/24
f 149/203/16 150/202/16 153/267/16 154/266/16
f 177/272/24 173/240/24 205/243/24 209/273/24
f 211/198/23 210/274/23 181/275/23 180/199/23
f 209/273/23 208/269/23 183/276/23 182/277/23
f 207/261/22 206/253/22 210/274/22 211/198/22
f 205/243/22 204/230/22 208/269/22 209/273/22
f 203/219/21 202/206/21 206/253/21 207/261/21
f 201/242/21 200/231/21 204/230/21 205/243/21
f 199/218/20 198/207/20 202/206/20 203/219/20
f 197/278/20 196/279/20 200/231/20 201/242/20
f 195/271/19 194/265/19 198/207/19 199/218/19
f 193/257/19 192/248/19 196/279/19 197/278/19
f 191/237/18 190/224/18 194/265/18 195/271/18
f 189/213/18 188/249/18 192/248/18 193/257/18
f 187/236/17 186/225/17 190/224/17 191/237/17
f 185/212/17 184/280/17 188/249/17 189/213/17
f 180/199/16 181/275/16 186/225/16 187/236/16
f 182/277/16 183/276/16 184/280/16 185/212/16
f 152/281/25 156/246/25 188/249/25 184/280/25
f 169/241/24 165/282/24 197/278/24 201/242/24
f 178/283/25 149/284/25 181/275/25 210/274/25
f 155/235/24 148/196/24 180/199/24 187/236/24
f 164/285/25 168/228/25 200/231/25 196/279/25
f 150/286/24 177/272/24 209/273/24 182/277/24
f 149/284/25 154/222/25 186/225/25 181/275/25
f 167/217/24 163/270/24 195/271/24 199/218/24
f 176/268/25 151/287/25 183/276/25 208/269/25
f 153/211/24 150/286/24 182/277/24 185/212/24
f 162/264/25 166/204/25 198/207/25 194/265/25
f 179/197/24 175/260/24 207/261/24 211/198/24
f 151/287/25 152/281/25 184/280/25 183/276/25
f 165/282/24 161/256/24 193/257/24 197/278/24
f 174/252/25 178/283/25 210/274/25 206/253/25
f 160/247/25 164/285/25 196/279/25 192/248/25
f 221/288/16 212/289/16 213/290/16 222/291/16
f 222/291/17 213/290/17 214/292/17 224/293/17
f 224/293/18 214/292/18 215/294/18 226/295/18
f 226/295/19 215/294/19 216/296/19 228/297/19
f 228/297/20 216/296/20 217/298/20 230/299/20
f 230/299/21 217/298/21 218/300/21 232/301/21
f 213/290/25 212/289/25 219/302/25 218/300/25 217/298/25 216/296/25 215/294/25 214/292/25
f 232/301/22 218/300/22 219/302/22 234/303/22
f 234/303/23 219/302/23 212/289/23 221/288/23
f 225/304/24 223/305/24 239/306/24 241/307/24
f 230/308/25 232/309/25 248/310/25 246/311/25
f 233/312/24 231/313/24 247/314/24 249/315/24
f 224/316/25 226/317/25 242/318/25 240/319/25
f 227/320/24 225/304/24 241/307/24 243/321/24
f 232/309/25 234/322/25 250/323/25 248/310/25
f 235/324/24 233/312/24 249/315/24 251/325/24
f 251/325/23 250/323/23 237/326/23 236/327/23
f 249/315/22 248/310/22 250/323/22 251/325/22
f 247/314/21 246/311/21 248/310/21 249/315/21
f 245/328/20 244/329/20 246/311/20 247/314/20
f 243/321/19 242/318/19 244/329/19 245/328/19
f 241/307/18 240/319/18 242/318/18 243/321/18
f 239/306/17 238/330/17 240/319/17 241/307/17
f 236/327/16 237/326/16 238/330/16 239/306/16
f 222/331/25 224/316/25 240/319/25 238/330/25
f 231/313/24 229/332/24 245/328/24 247/314/24
f 228/333/25 230/308/25 246/311/25 244/329/25
f 220/334/24 235/324/24 251/325/24 236/327/24
f 234/322/25 221/335/25 237/326/25 250/323/25
f 223/305/24 220/334/24 236/327/24 239/306/24
f 221/335/25 222/331/25 238/330/25 237/326/25
f 229/332/24 227/320/24 243/321/24 245/328/24
f 226/317/25 228/333/25 244/329/25 242/318/25
