# Blender v3.0.0 OBJ File: 'Pot.blend'
# www.blender.org
mtllib Pot.mtl
o Cylinder
v -0.087522 0.000000 -0.211296
v -0.125024 0.469455 -0.301834
v 0.087522 0.000000 -0.211296
v 0.125024 0.469455 -0.301834
v 0.211296 0.000000 -0.087522
v 0.301834 0.469455 -0.125024
v 0.211296 0.000000 0.087522
v 0.301834 0.469455 0.125024
v 0.087522 0.000000 0.211296
v 0.125024 0.469455 0.301834
v -0.087522 0.000000 0.211296
v -0.125024 0.469455 0.301834
v -0.211296 0.000000 0.087522
v -0.301834 0.469455 0.125024
v -0.211296 0.000000 -0.087521
v -0.301834 0.469455 -0.125024
v -0.108605 0.617979 -0.262195
v 0.108605 0.617979 -0.262195
v 0.262195 0.617979 -0.108605
v 0.262195 0.617979 0.108605
v 0.108605 0.617979 0.262195
v -0.108605 0.617979 0.262195
v -0.262195 0.617979 0.108605
v -0.262195 0.617979 -0.108605
v 0.145591 0.469455 -0.351487
v -0.145591 0.469455 -0.351487
v 0.351487 0.469455 -0.145591
v 0.351487 0.469455 0.145591
v 0.145591 0.469455 0.351487
v -0.145591 0.469455 0.351487
v -0.351487 0.469455 0.145591
v -0.351487 0.469455 -0.145591
v 0.145591 0.617979 -0.351487
v -0.145591 0.617979 -0.351487
v 0.351487 0.617979 -0.145591
v 0.351487 0.617979 0.145591
v 0.145591 0.617979 0.351487
v -0.145591 0.617979 0.351487
v -0.351487 0.617979 0.145591
v -0.351487 0.617979 -0.145591
v 0.102518 0.500899 -0.247501
v -0.102519 0.500899 -0.247501
v 0.247501 0.500899 -0.102518
v 0.247501 0.500899 0.102518
v 0.102518 0.500899 0.247501
v -0.102518 0.500899 0.247501
v -0.247501 0.500899 0.102518
v -0.247501 0.500899 -0.102518
vt 0.139422 0.096037
vt 0.127190 0.688173
vt 0.208748 0.688173
vt 0.196516 0.096037
vt 0.266418 0.688173
vt 0.236887 0.096037
vt 0.266418 0.688173
vt 0.236887 0.096037
vt 0.208748 0.688173
vt 0.196516 0.096037
vt 0.127190 0.688173
vt 0.139422 0.096037
vt 0.069520 0.688173
vt 0.099050 0.096037
vt 0.082449 0.875510
vt 0.132545 0.875510
vt 0.120481 0.875510
vt 0.053324 0.875510
vt 0.069520 0.688173
vt 0.099050 0.096037
vt 0.132545 0.875510
vt 0.203392 0.875510
vt 0.201407 0.727834
vt 0.134530 0.727834
vt 0.120481 0.688173
vt 0.215456 0.688173
vt 0.053324 0.688173
vt 0.282613 0.688173
vt 0.282613 0.688173
vt 0.082449 0.875510
vt 0.053324 0.875510
vt 0.120481 0.875510
vt 0.215456 0.688173
vt 0.120481 0.688173
vt 0.215456 0.875510
vt 0.215456 0.875510
vt 0.282613 0.875510
vt 0.282613 0.875510
vt 0.053324 0.688173
vt 0.203392 0.875510
vt 0.253489 0.875510
vt 0.253489 0.875510
vt 0.873282 0.261038
vt 0.806405 0.261038
vt 0.759116 0.261038
vt 0.759116 0.261038
vt 0.806405 0.261036
vt 0.873282 0.261036
vt 0.920571 0.261038
vt 0.920571 0.261038
vt 0.248696 0.727834
vt 0.248696 0.727834
vt 0.134530 0.727834
vt 0.201407 0.727834
vt 0.087241 0.727834
vt 0.087241 0.727834
vn 0.0000 -0.1894 -0.9819
vn 0.6943 -0.1894 -0.6943
vn 0.9819 -0.1894 -0.0000
vn 0.6943 -0.1894 0.6943
vn 0.0000 -0.1894 0.9819
vn -0.6943 -0.1894 0.6943
vn 0.0000 1.0000 0.0000
vn -0.9819 -0.1894 0.0000
vn -0.6943 -0.1894 -0.6943
vn 0.0000 -1.0000 0.0000
vn -0.0000 0.1245 -0.9922
vn 0.0000 0.0000 1.0000
vn -0.7071 0.0000 -0.7071
vn 0.0000 0.0000 -1.0000
vn 1.0000 0.0000 -0.0000
vn -0.7071 0.0000 0.7071
vn 0.7071 0.0000 0.7071
vn -1.0000 0.0000 0.0000
vn 0.7071 0.0000 -0.7071
vn -0.9922 0.1245 0.0000
vn 0.0000 0.1245 0.9922
vn 0.7016 0.1245 0.7016
vn 0.7016 0.1245 -0.7016
vn -0.7016 0.1245 -0.7016
vn -0.7016 0.1245 0.7016
vn 0.9922 0.1245 -0.0000
usemtl Material
s off
f 1/1/1 2/2/1 4/3/1 3/4/1
f 3/4/2 4/3/2 6/5/2 5/6/2
f 5/6/3 6/5/3 8/7/3 7/8/3
f 7/8/4 8/7/4 10/9/4 9/10/4
f 9/10/5 10/9/5 12/11/5 11/12/5
f 11/12/6 12/11/6 14/13/6 13/14/6
f 24/15/7 17/16/7 34/17/7 40/18/7
f 13/14/8 14/13/8 16/19/8 15/20/8
f 15/20/9 16/19/9 2/2/9 1/1/9
f 1/1/10 3/4/10 5/6/10 7/8/10 9/10/10 11/12/10 13/14/10 15/20/10
f 22/21/11 21/22/11 45/23/11 46/24/11
f 4/3/10 2/2/10 26/25/10 25/26/10
f 2/2/10 16/19/10 32/27/10 26/25/10
f 8/7/10 6/5/10 27/28/10 28/29/10
f 23/30/7 24/15/7 40/18/7 39/31/7
f 22/21/7 23/30/7 39/31/7 38/32/7
f 12/11/10 10/9/10 29/33/10 30/34/10
f 21/22/7 22/21/7 38/32/7 37/35/7
f 30/34/12 29/33/12 37/35/12 38/32/12
f 26/25/13 32/27/13 40/18/13 34/17/13
f 25/26/14 26/25/14 34/17/14 33/36/14
f 28/29/15 27/28/15 35/37/15 36/38/15
f 31/39/16 30/34/16 38/32/16 39/31/16
f 29/33/17 28/29/17 36/38/17 37/35/17
f 32/27/18 31/39/18 39/31/18 40/18/18
f 27/28/19 25/26/19 33/36/19 35/37/19
f 17/16/7 18/40/7 33/36/7 34/17/7
f 14/13/10 12/11/10 30/34/10 31/39/10
f 18/40/7 19/41/7 35/37/7 33/36/7
f 10/9/10 8/7/10 28/29/10 29/33/10
f 19/41/7 20/42/7 36/38/7 35/37/7
f 20/42/7 21/22/7 37/35/7 36/38/7
f 6/5/10 4/3/10 25/26/10 27/28/10
f 16/19/10 14/13/10 31/39/10 32/27/10
f 41/43/7 42/44/7 48/45/7 47/46/7 46/47/7 45/48/7 44/49/7 43/50/7
f 20/42/20 19/41/20 43/51/20 44/52/20
f 18/40/21 17/16/21 42/53/21 41/54/21
f 17/16/22 24/15/22 48/55/22 42/53/22
f 23/30/23 22/21/23 46/24/23 47/56/23
f 21/22/24 20/42/24 44/52/24 45/23/24
f 19/41/25 18/40/25 41/54/25 43/51/25
f 24/15/26 23/30/26 47/56/26 48/55/26
