# Blender v3.0.0 OBJ File: 'Hammer 2.blend'
# www.blender.org
mtllib Rake.mtl
o Cylinder
v -0.057584 -0.067572 0.000000
v -0.057584 1.438031 0.000000
v -0.028792 -0.067572 -0.049869
v -0.028792 1.438031 -0.049869
v 0.028792 -0.067572 -0.049869
v 0.028792 1.438031 -0.049869
v 0.057584 -0.067572 0.000000
v 0.057584 1.438031 0.000000
v 0.028792 -0.067572 0.049869
v 0.028792 1.438031 0.049869
v -0.028792 -0.067572 0.049869
v -0.028792 1.438031 0.049869
v -0.044618 0.705486 0.010870
v -0.017236 0.705486 -0.036557
v 0.037528 0.705486 -0.036557
v 0.064909 0.705486 0.010870
v 0.037528 0.705486 0.058297
v -0.017236 0.705486 0.058297
v -0.069017 1.115733 -0.003302
v -0.040822 1.115733 -0.052137
v 0.015567 1.115733 -0.052137
v 0.043762 1.115733 -0.003302
v 0.015567 1.115733 0.045532
v -0.040822 1.115733 0.045532
v -0.035167 0.324002 -0.039988
v 0.021007 0.324002 -0.039988
v 0.049094 0.324002 0.008660
v 0.021007 0.324002 0.057307
v -0.035167 0.324002 0.057307
v -0.063254 0.324002 0.008660
vt 0.275174 0.748942
vt 0.282136 0.933351
vt 0.299666 0.933351
vt 0.292341 0.748942
vt 0.334726 0.933351
vt 0.326674 0.748942
vt 0.352256 0.933351
vt 0.343840 0.748942
vt 0.334726 0.933351
vt 0.326674 0.748942
vt 0.299666 0.933351
vt 0.292341 0.748942
vt 0.282136 0.028478
vt 0.299666 0.028478
vt 0.334726 0.028478
vt 0.352256 0.028478
vt 0.334726 0.028478
vt 0.299666 0.028478
vt 0.295784 0.266891
vt 0.306701 0.499160
vt 0.290030 0.499160
vt 0.278683 0.266891
vt 0.329986 0.266891
vt 0.340045 0.499160
vt 0.347087 0.266891
vt 0.356716 0.499160
vt 0.329986 0.266891
vt 0.340045 0.499160
vt 0.295784 0.266891
vt 0.306701 0.499160
vn -0.8655 0.0358 -0.4997
vn 0.0000 0.0070 -1.0000
vn 0.8656 -0.0320 -0.4997
vn 0.8653 -0.0422 0.4996
vn 0.0000 1.0000 -0.0000
vn 0.0000 -0.0135 0.9999
vn -0.8657 0.0256 0.4998
vn 0.0000 -1.0000 0.0000
vn -0.8654 0.0394 0.4996
vn 0.0000 -0.0026 1.0000
vn 0.8654 -0.0388 0.4996
vn 0.8656 -0.0330 -0.4997
vn 0.0000 0.0090 -1.0000
vn -0.8651 0.0452 -0.4995
vn -0.8655 -0.0342 0.4997
vn 0.0000 0.0311 0.9995
vn 0.8644 0.0618 0.4990
vn 0.8657 0.0274 -0.4998
vn 0.0000 -0.0380 -0.9993
vn -0.8640 -0.0686 -0.4988
vn -0.8660 -0.0015 -0.5000
vn 0.0000 0.0252 -0.9997
vn 0.8656 0.0298 -0.4998
vn 0.8660 0.0077 0.5000
vn 0.0000 -0.0190 0.9998
vn -0.8658 -0.0236 0.4999
usemtl Material
s off
f 19/1/1 2/2/1 4/3/1 20/4/1
f 20/4/2 4/3/2 6/5/2 21/6/2
f 21/6/3 6/5/3 8/7/3 22/8/3
f 22/8/4 8/7/4 10/9/4 23/10/4
f 4/3/5 2/2/5 12/11/5 10/9/5 8/7/5 6/5/5
f 23/10/6 10/9/6 12/11/6 24/12/6
f 24/12/7 12/11/7 2/2/7 19/1/7
f 1/13/8 3/14/8 5/15/8 7/16/8 9/17/8 11/18/8
f 29/19/9 18/20/9 13/21/9 30/22/9
f 28/23/10 17/24/10 18/20/10 29/19/10
f 27/25/11 16/26/11 17/24/11 28/23/11
f 26/27/12 15/28/12 16/26/12 27/25/12
f 25/29/13 14/30/13 15/28/13 26/27/13
f 30/22/14 13/21/14 14/30/14 25/29/14
f 18/20/15 24/12/15 19/1/15 13/21/15
f 17/24/16 23/10/16 24/12/16 18/20/16
f 16/26/17 22/8/17 23/10/17 17/24/17
f 15/28/18 21/6/18 22/8/18 16/26/18
f 14/30/19 20/4/19 21/6/19 15/28/19
f 13/21/20 19/1/20 20/4/20 14/30/20
f 1/13/21 30/22/21 25/29/21 3/14/21
f 3/14/22 25/29/22 26/27/22 5/15/22
f 5/15/23 26/27/23 27/25/23 7/16/23
f 7/16/24 27/25/24 28/23/24 9/17/24
f 9/17/25 28/23/25 29/19/25 11/18/25
f 11/18/26 29/19/26 30/22/26 1/13/26
o Cube.002_Cube.005
v -0.072979 1.438031 0.060765
v -0.418453 1.607141 0.060765
v -0.072979 1.438031 -0.060765
v -0.418453 1.607141 -0.060765
v 0.072979 1.438031 0.060765
v 0.418453 1.607141 0.060765
v 0.072979 1.438031 -0.060765
v 0.418453 1.607141 -0.060765
v -0.418453 1.549740 0.060765
v -0.418453 1.549740 -0.060765
v 0.418453 1.549740 -0.060765
v 0.418453 1.549740 0.060765
v 0.059462 1.438031 -0.060765
v 0.048651 1.438031 -0.060765
v 0.037839 1.438031 -0.060765
v 0.027028 1.438031 -0.060765
v 0.016217 1.438031 -0.060765
v 0.005406 1.438031 -0.060765
v -0.005406 1.438031 -0.060765
v -0.016217 1.438031 -0.060765
v -0.027028 1.438031 -0.060765
v -0.037839 1.438031 -0.060765
v -0.048651 1.438031 -0.060765
v -0.059462 1.438031 -0.060765
v -0.354075 1.607141 -0.060765
v -0.289698 1.607141 -0.060765
v -0.225321 1.607141 -0.060765
v -0.160943 1.607141 -0.060765
v -0.096566 1.607141 -0.060765
v -0.032189 1.607141 -0.060765
v 0.032189 1.607141 -0.060765
v 0.096566 1.607141 -0.060765
v 0.160943 1.607141 -0.060765
v 0.225321 1.607141 -0.060765
v 0.289698 1.607141 -0.060765
v 0.354075 1.607141 -0.060765
v -0.059462 1.438031 0.060765
v -0.048651 1.438031 0.060765
v -0.037839 1.438031 0.060765
v -0.027028 1.438031 0.060765
v -0.016217 1.438031 0.060765
v -0.005406 1.438031 0.060765
v 0.005406 1.438031 0.060765
v 0.016217 1.438031 0.060765
v 0.027028 1.438031 0.060765
v 0.037839 1.438031 0.060765
v 0.048651 1.438031 0.060765
v 0.059462 1.438031 0.060765
v 0.354075 1.607141 0.060765
v 0.289698 1.607141 0.060765
v 0.225321 1.607141 0.060765
v 0.160943 1.607141 0.060765
v 0.096566 1.607141 0.060765
v 0.032189 1.607141 0.060765
v -0.032189 1.607141 0.060765
v -0.096566 1.607141 0.060765
v -0.160943 1.607141 0.060765
v -0.225321 1.607141 0.060765
v -0.289698 1.607141 0.060765
v -0.354075 1.607141 0.060765
v 0.354075 1.549740 0.060765
v 0.289698 1.549740 0.060765
v 0.225321 1.549740 0.060765
v 0.160943 1.549740 0.060765
v 0.096566 1.549740 0.060765
v 0.032189 1.549740 0.060765
v -0.032189 1.549740 0.060765
v -0.096566 1.549740 0.060765
v -0.160943 1.549740 0.060765
v -0.225321 1.549740 0.060765
v -0.289698 1.549740 0.060765
v -0.354075 1.549740 0.060765
v -0.354075 1.549740 -0.060765
v -0.289698 1.549740 -0.060765
v -0.225321 1.549740 -0.060765
v -0.160943 1.549740 -0.060765
v -0.096566 1.549740 -0.060765
v -0.032189 1.549740 -0.060765
v 0.032189 1.549740 -0.060765
v 0.096566 1.549740 -0.060765
v 0.160943 1.549740 -0.060765
v 0.225321 1.549740 -0.060765
v 0.289698 1.549740 -0.060765
v 0.354075 1.549740 -0.060765
v -0.418453 1.418610 0.310211
v -0.418453 1.459978 0.350005
v -0.354075 1.459978 0.350005
v 0.418453 1.459978 0.350005
v 0.418453 1.418610 0.310211
v -0.354075 1.418610 0.310211
v 0.354075 1.459978 0.350005
v 0.289698 1.459978 0.350005
v 0.225321 1.459978 0.350005
v 0.160943 1.459978 0.350005
v 0.096566 1.459978 0.350005
v 0.032189 1.459978 0.350005
v -0.032189 1.459978 0.350005
v -0.096566 1.459978 0.350005
v -0.160943 1.459978 0.350005
v -0.225321 1.459978 0.350005
v -0.289698 1.459978 0.350005
v 0.354075 1.418610 0.310211
v 0.289698 1.418610 0.310211
v 0.225321 1.418610 0.310211
v 0.160943 1.418610 0.310211
v 0.096566 1.418610 0.310211
v 0.032189 1.418610 0.310211
v -0.032189 1.418610 0.310211
v -0.096566 1.418610 0.310211
v -0.160943 1.418610 0.310211
v -0.225321 1.418610 0.310211
v -0.289698 1.418610 0.310211
v -0.418453 1.568974 0.222312
v -0.354075 1.568974 0.222312
v -0.418453 1.517901 0.196111
v -0.354075 1.517901 0.196111
v -0.225321 1.517901 0.196111
v -0.289698 1.517901 0.196111
v -0.289698 1.568974 0.222312
v -0.225321 1.568974 0.222312
v -0.096566 1.517901 0.196111
v -0.160943 1.517901 0.196111
v -0.160943 1.568974 0.222312
v -0.096566 1.568974 0.222312
v -0.032189 1.568974 0.222312
v 0.032189 1.568974 0.222312
v 0.032189 1.517901 0.196111
v -0.032189 1.517901 0.196111
v 0.160943 1.568974 0.222312
v 0.160943 1.517901 0.196111
v 0.096566 1.517901 0.196111
v 0.096566 1.568974 0.222312
v 0.289698 1.517901 0.196111
v 0.225321 1.517901 0.196111
v 0.225321 1.568974 0.222312
v 0.289698 1.568974 0.222312
v 0.418453 1.517901 0.196111
v 0.354075 1.517901 0.196111
v 0.418453 1.568974 0.222312
v 0.354075 1.568974 0.222312
vt 0.531682 0.675236
vt 0.531682 0.939033
vt 0.531682 0.939033
vt 0.531682 0.675236
vt 0.883110 0.675236
vt 0.883110 0.939033
vt 0.912396 0.939033
vt 0.912396 0.675236
vt 0.912396 0.939033
vt 0.912396 0.675236
vt 0.590253 0.528919
vt 0.619539 0.528919
vt 0.619539 0.072612
vt 0.590253 0.072612
vt 0.749089 0.161864
vt 0.755238 0.161864
vt 0.755238 0.161864
vt 0.749089 0.161864
vt 0.560968 0.939033
vt 0.560968 0.939033
vt 0.694990 0.161864
vt 0.560968 0.675236
vt 0.688841 0.161864
vt 0.688841 0.161864
vt 0.560968 0.675236
vt 0.694990 0.161864
vt 0.590253 0.675236
vt 0.699908 0.161864
vt 0.619539 0.675236
vt 0.704826 0.161864
vt 0.648825 0.675236
vt 0.709744 0.161864
vt 0.678111 0.675236
vt 0.714662 0.161864
vt 0.707396 0.675236
vt 0.719580 0.161864
vt 0.736682 0.675236
vt 0.724498 0.161864
vt 0.765968 0.675236
vt 0.729416 0.161864
vt 0.795253 0.675236
vt 0.734334 0.161864
vt 0.824539 0.675236
vt 0.739253 0.161864
vt 0.853825 0.675236
vt 0.744171 0.161864
vt 0.883110 0.675236
vt 0.853825 0.675236
vt 0.744171 0.161864
vt 0.824539 0.675236
vt 0.739253 0.161864
vt 0.795253 0.675236
vt 0.734334 0.161864
vt 0.765968 0.675236
vt 0.729416 0.161864
vt 0.736682 0.675236
vt 0.724498 0.161864
vt 0.707396 0.675236
vt 0.719580 0.161864
vt 0.678111 0.675236
vt 0.714662 0.161864
vt 0.648825 0.675236
vt 0.709744 0.161864
vt 0.619539 0.675236
vt 0.704826 0.161864
vt 0.590253 0.675236
vt 0.699908 0.161864
vt 0.883110 0.939033
vt 0.853825 0.939033
vt 0.853825 0.939033
vt 0.824539 0.939033
vt 0.824539 0.939033
vt 0.795253 0.939033
vt 0.795253 0.939033
vt 0.765968 0.939033
vt 0.765968 0.939033
vt 0.736682 0.939033
vt 0.736682 0.939033
vt 0.707396 0.939033
vt 0.707396 0.939033
vt 0.678111 0.939033
vt 0.678111 0.939033
vt 0.648825 0.939033
vt 0.648825 0.939033
vt 0.619539 0.939033
vt 0.619539 0.939033
vt 0.590253 0.939033
vt 0.590253 0.939033
vt 0.736682 0.528919
vt 0.736682 0.763631
vt 0.736682 0.262724
vt 0.736682 0.072612
vt 0.678111 0.763631
vt 0.648825 0.763631
vt 0.648825 0.262724
vt 0.678111 0.262724
vt 0.765968 0.763631
vt 0.765968 0.528919
vt 0.765968 0.072612
vt 0.765968 0.262724
vt 0.648825 0.528919
vt 0.678111 0.528919
vt 0.678111 0.072612
vt 0.648825 0.072612
vt 0.795253 0.528919
vt 0.795253 0.763631
vt 0.795253 0.262724
vt 0.795253 0.072612
vt 0.707396 0.763631
vt 0.707396 0.262724
vt 0.560968 0.072612
vt 0.560968 0.262724
vt 0.531682 0.262724
vt 0.531682 0.072612
vt 0.912396 0.072612
vt 0.912396 0.262724
vt 0.883110 0.262724
vt 0.883110 0.072612
vt 0.853825 0.072612
vt 0.853825 0.262724
vt 0.824539 0.262724
vt 0.824539 0.072612
vt 0.707396 0.072612
vt 0.619539 0.262724
vt 0.590253 0.262724
vt 0.560968 0.763631
vt 0.531682 0.763631
vt 0.707396 0.528919
vt 0.619539 0.763631
vt 0.590253 0.763631
vt 0.883110 0.528919
vt 0.912396 0.528919
vt 0.531682 0.528919
vt 0.912396 0.763631
vt 0.883110 0.763631
vt 0.560968 0.528919
vt 0.824539 0.528919
vt 0.853825 0.528919
vt 0.853825 0.763631
vt 0.824539 0.763631
vn -1.0000 0.0000 0.0000
vn 0.0000 0.0000 -1.0000
vn 1.0000 0.0000 0.0000
vn 0.0000 -0.7544 -0.6565
vn 0.0000 -1.0000 0.0000
vn 0.0000 1.0000 0.0000
vn 0.0000 0.0000 1.0000
vn 0.3077 -0.9515 0.0000
vn -0.3077 -0.9515 0.0000
vn 0.0000 0.7606 0.6492
vn 0.0000 -0.6933 0.7207
vn 0.0000 -0.9734 -0.2290
vn 0.0000 0.9732 0.2299
usemtl Material
s off
f 39/31/27 32/32/27 34/33/27 40/34/27
f 114/35/28 66/36/28 38/37/28 41/38/28
f 41/38/29 38/37/29 36/39/29 42/40/29
f 148/41/30 147/42/30 141/43/30 142/44/30
f 43/45/31 37/46/31 35/47/31 78/48/31
f 55/49/32 34/33/32 32/32/32 90/50/32
f 67/51/33 102/52/33 39/31/33 31/53/33
f 37/46/34 41/38/34 42/40/34 35/47/34
f 43/45/28 114/35/28 41/38/28 37/46/28
f 31/53/35 39/31/35 40/34/35 33/54/35
f 33/54/28 40/34/28 103/55/28 54/56/28
f 54/56/28 103/55/28 104/57/28 53/58/28
f 53/58/28 104/57/28 105/59/28 52/60/28
f 52/60/28 105/59/28 106/61/28 51/62/28
f 51/62/28 106/61/28 107/63/28 50/64/28
f 50/64/28 107/63/28 108/65/28 49/66/28
f 49/66/28 108/65/28 109/67/28 48/68/28
f 48/68/28 109/67/28 110/69/28 47/70/28
f 47/70/28 110/69/28 111/71/28 46/72/28
f 46/72/28 111/71/28 112/73/28 45/74/28
f 45/74/28 112/73/28 113/75/28 44/76/28
f 44/76/28 113/75/28 114/35/28 43/45/28
f 35/47/33 42/40/33 91/77/33 78/48/33
f 78/48/33 91/77/33 92/78/33 77/79/33
f 77/79/33 92/78/33 93/80/33 76/81/33
f 76/81/33 93/80/33 94/82/33 75/83/33
f 75/83/33 94/82/33 95/84/33 74/85/33
f 74/85/33 95/84/33 96/86/33 73/87/33
f 73/87/33 96/86/33 97/88/33 72/89/33
f 72/89/33 97/88/33 98/90/33 71/91/33
f 71/91/33 98/90/33 99/92/33 70/93/33
f 70/93/33 99/92/33 100/94/33 69/95/33
f 69/95/33 100/94/33 101/96/33 68/97/33
f 68/97/33 101/96/33 102/52/33 67/51/33
f 38/37/32 66/36/32 79/98/32 36/39/32
f 66/36/32 65/99/32 80/100/32 79/98/32
f 65/99/32 64/101/32 81/102/32 80/100/32
f 64/101/32 63/103/32 82/104/32 81/102/32
f 63/103/32 62/105/32 83/106/32 82/104/32
f 62/105/32 61/107/32 84/108/32 83/106/32
f 61/107/32 60/109/32 85/110/32 84/108/32
f 60/109/32 59/111/32 86/112/32 85/110/32
f 59/111/32 58/113/32 87/114/32 86/112/32
f 58/113/32 57/115/32 88/116/32 87/114/32
f 57/115/32 56/117/32 89/118/32 88/116/32
f 56/117/32 55/49/32 90/50/32 89/118/32
f 33/54/31 54/56/31 67/51/31 31/53/31
f 54/56/31 53/58/31 68/97/31 67/51/31
f 53/58/31 52/60/31 69/95/31 68/97/31
f 52/60/31 51/62/31 70/93/31 69/95/31
f 51/62/31 50/64/31 71/91/31 70/93/31
f 50/64/31 49/66/31 72/89/31 71/91/31
f 49/66/31 48/68/31 73/87/31 72/89/31
f 48/68/31 47/70/31 74/85/31 73/87/31
f 47/70/31 46/72/31 75/83/31 74/85/31
f 46/72/31 45/74/31 76/81/31 75/83/31
f 45/74/31 44/76/31 77/79/31 76/81/31
f 44/76/31 43/45/31 78/48/31 77/79/31
f 157/119/29 156/120/29 126/121/29 137/122/29
f 91/77/33 79/98/33 80/100/33 92/78/33
f 154/123/36 153/124/36 129/125/36 128/126/36
f 93/80/33 81/102/33 82/104/33 94/82/33
f 162/127/27 161/128/27 136/129/27 125/130/27
f 95/84/33 83/106/33 84/108/33 96/86/33
f 152/131/30 151/132/30 139/133/30 140/134/30
f 97/88/33 85/110/33 86/112/33 98/90/33
f 160/135/29 159/136/29 124/137/29 135/138/29
f 99/92/33 87/114/33 88/116/33 100/94/33
f 156/120/36 155/139/36 127/140/36 126/121/36
f 101/96/33 89/118/33 90/50/33 102/52/33
f 40/34/28 34/33/28 55/49/28 103/55/28
f 103/55/28 55/49/28 56/117/28 104/57/28
f 104/57/28 56/117/28 57/115/28 105/59/28
f 105/59/28 57/115/28 58/113/28 106/61/28
f 106/61/28 58/113/28 59/111/28 107/63/28
f 107/63/28 59/111/28 60/109/28 108/65/28
f 108/65/28 60/109/28 61/107/28 109/67/28
f 109/67/28 61/107/28 62/105/28 110/69/28
f 110/69/28 62/105/28 63/103/28 111/71/28
f 111/71/28 63/103/28 64/101/28 112/73/28
f 112/73/28 64/101/28 65/99/28 113/75/28
f 113/75/28 65/99/28 66/36/28 114/35/28
f 120/141/37 117/142/37 116/143/37 115/144/37
f 119/145/37 118/146/37 121/147/37 132/148/37
f 133/149/37 122/150/37 123/151/37 134/152/37
f 135/138/37 124/137/37 125/130/37 136/129/37
f 137/122/37 126/121/37 127/140/37 138/153/37
f 139/133/37 128/126/37 129/125/37 140/134/37
f 141/43/37 130/154/37 131/155/37 142/44/37
f 144/156/36 143/157/36 116/143/36 117/142/36
f 155/139/27 158/158/27 138/153/27 127/140/27
f 150/159/36 149/160/36 131/155/36 130/154/36
f 151/132/29 154/123/29 128/126/29 139/133/29
f 153/124/27 152/131/27 140/134/27 129/125/27
f 168/161/30 167/162/30 119/145/30 132/148/30
f 143/157/27 145/163/27 115/144/27 116/143/27
f 147/42/29 150/159/29 130/154/29 141/43/29
f 167/162/29 169/164/29 118/146/29 119/145/29
f 169/164/36 170/165/36 121/147/36 118/146/36
f 149/160/27 148/41/27 142/44/27 131/155/27
f 145/163/30 146/166/30 120/141/30 115/144/30
f 164/167/30 163/168/30 133/149/30 134/152/30
f 146/166/29 144/156/29 117/142/29 120/141/29
f 166/169/36 165/170/36 123/151/36 122/150/36
f 161/128/30 160/135/30 135/138/30 136/129/30
f 170/165/27 168/161/27 132/148/27 121/147/27
f 159/136/36 162/127/36 125/130/36 124/137/36
f 163/168/29 166/169/29 122/150/29 133/149/29
f 158/158/30 157/119/30 137/122/30 138/153/30
f 165/170/27 164/167/27 134/152/27 123/151/27
f 102/52/29 90/50/29 144/156/29 146/166/29
f 39/31/38 102/52/38 146/166/38 145/163/38
f 32/32/27 39/31/27 145/163/27 143/157/27
f 90/50/39 32/32/39 143/157/39 144/156/39
f 89/118/27 101/96/27 148/41/27 149/160/27
f 100/94/29 88/116/29 150/159/29 147/42/29
f 88/116/39 89/118/39 149/160/39 150/159/39
f 101/96/38 100/94/38 147/42/38 148/41/38
f 87/114/27 99/92/27 152/131/27 153/124/27
f 98/90/29 86/112/29 154/123/29 151/132/29
f 99/92/38 98/90/38 151/132/38 152/131/38
f 86/112/39 87/114/39 153/124/39 154/123/39
f 97/88/38 96/86/38 157/119/38 158/158/38
f 85/110/27 97/88/27 158/158/27 155/139/27
f 84/108/39 85/110/39 155/139/39 156/120/39
f 96/86/29 84/108/29 156/120/29 157/119/29
f 82/104/39 83/106/39 162/127/39 159/136/39
f 95/84/38 94/82/38 160/135/38 161/128/38
f 94/82/29 82/104/29 159/136/29 160/135/29
f 83/106/27 95/84/27 161/128/27 162/127/27
f 81/102/27 93/80/27 164/167/27 165/170/27
f 92/78/29 80/100/29 166/169/29 163/168/29
f 80/100/39 81/102/39 165/170/39 166/169/39
f 93/80/38 92/78/38 163/168/38 164/167/38
f 79/98/27 91/77/27 168/161/27 170/165/27
f 36/39/39 79/98/39 170/165/39 169/164/39
f 42/40/29 36/39/29 169/164/29 167/162/29
f 91/77/38 42/40/38 167/162/38 168/161/38
