# Blender v3.0.0 OBJ File: 'boompies.blend'
# www.blender.org
mtllib Tree 3.mtl
o 3_Mesh
v 0.285655 2.316552 -0.784923
v 0.816396 2.297623 -0.065662
v 0.460358 2.281212 0.746622
v -0.426883 2.277074 0.851032
v -0.964688 2.286380 0.134463
v -0.608969 2.311486 -0.682838
v -0.007158 3.798659 -0.215307
v 0.160083 3.798725 0.008845
v 0.048900 3.793058 0.264771
v -0.227334 3.787288 0.296226
v -0.393217 3.787284 0.073874
v -0.284152 3.792986 -0.181866
v -0.080172 4.358109 -0.048293
v -0.020298 4.357906 0.032022
v -0.060209 4.355351 0.123581
v -0.158903 4.353027 0.134716
v -0.218209 4.353230 0.055292
v -0.179353 4.355762 -0.036218
v 0.534060 1.698190 -1.351464
v 1.346111 1.648717 -0.146400
v 0.829756 1.564914 1.240768
v -0.671952 1.459606 1.417489
v -1.582221 1.673924 0.204652
v -0.980145 1.583237 -1.178679
v 0.397493 1.616543 -1.039994
v 1.093723 1.493406 -0.096461
v 0.626670 1.570186 0.969099
v -0.537219 1.466453 1.106065
v -1.242717 1.576963 0.166064
v -0.776082 1.576980 -0.906078
v 0.188060 -0.000001 0.053907
v -0.112305 -0.000001 -0.359509
v -0.598304 -0.000001 -0.201598
v -0.598304 -0.000001 0.309413
v -0.112304 -0.000001 0.467324
v 0.011471 0.928324 0.053907
v -0.160796 0.928324 -0.183197
v -0.439528 0.928324 -0.092631
v -0.439528 0.928324 0.200446
v -0.160796 0.928324 0.291012
v -0.342793 0.429475 -0.118595
v -0.014673 0.429475 -0.225208
v 0.188116 0.429475 0.053907
v -0.014673 0.429475 0.333022
v -0.342793 0.429475 0.226410
v 0.078480 2.007564 0.053908
v -0.034512 2.007564 -0.101612
v -0.217336 2.007564 -0.042209
v -0.217335 2.007564 0.150023
v -0.034512 2.007564 0.209426
v 0.747204 2.153313 2.015808
v 0.443866 3.322294 0.955138
v -0.812617 2.497248 1.446670
v -0.737806 2.991125 0.897050
v -1.000587 2.596759 1.184458
v -1.144475 3.211478 -0.184396
v -1.817681 2.250050 -0.381837
v -0.459374 2.336578 -1.682000
v -0.248728 2.935851 -1.297057
v 0.693227 3.225177 -0.891106
v 1.236637 2.114750 -1.438620
v 1.842136 2.382994 0.329398
v 1.043028 3.289049 0.189395
v -0.327075 2.328835 -1.696479
v 0.686181 2.084158 1.810245
v -0.767366 2.410946 1.271744
v -0.700036 2.905522 0.886059
v -0.880697 2.534632 1.138467
v -1.679914 2.160446 -0.360914
v -0.394111 2.269247 -1.512994
v -0.270187 2.849305 -1.254876
v 1.165306 2.055613 -1.347541
v 1.736854 2.319367 0.312815
v -0.347823 2.267774 -1.578095
v -0.740640 4.064389 -0.186825
v -0.346418 4.072271 0.533701
v -0.114133 3.996745 -0.777347
v 0.488267 4.137946 -0.643052
v 0.782641 4.140465 0.085225
v 0.347990 4.158351 0.653237
v 0.372275 4.359239 -0.888583
v 0.970135 4.292792 -0.077549
v 0.566137 4.257814 0.839571
v -0.436647 4.281372 0.958129
v -1.043058 4.337111 0.149575
v -0.638901 4.382098 -0.772699
v 0.040997 5.416315 -0.312937
v 0.223064 5.416388 -0.068914
v 0.102024 5.410219 0.209700
v -0.198697 5.403937 0.243944
v -0.379286 5.403934 0.001880
v -0.260552 5.410141 -0.276531
v -0.042793 6.564352 -0.053885
v 0.022387 6.564132 0.033549
v -0.021061 6.561351 0.133226
v -0.128505 6.558820 0.145347
v -0.193068 6.559042 0.058882
v -0.150768 6.561797 -0.040741
v -0.087637 6.578921 0.047798
v 0.694069 3.870762 -1.238789
v 1.565604 3.620377 -0.181370
v 0.828389 3.668294 1.397676
v -0.671052 3.510924 1.702354
v -1.481927 3.851184 0.241478
v -1.029325 3.688396 -1.216170
v 0.529572 3.772418 -0.863620
v 1.332858 3.543971 -0.121218
v 0.713777 3.525070 1.042172
v -0.596298 3.400123 1.327240
v -1.258171 3.734394 0.223308
v -0.789982 3.533257 -1.146896
v 1.060452 5.005375 -0.343313
v 0.647940 5.552526 -0.258963
v 0.799066 5.165651 0.558640
v 0.581701 5.414142 0.510711
v 0.701570 5.212025 0.724875
v -0.220903 5.385404 0.792273
v -0.297748 4.991544 1.139708
v -0.952574 5.042825 0.417239
v -0.874448 5.308394 0.238255
v -0.717725 5.535248 -0.355464
v -0.969777 4.976745 -0.672906
v 0.167303 5.101749 -1.055247
v 0.099957 5.531523 -0.689119
v 0.046453 6.464682 -0.022639
v 0.019270 6.464721 0.127348
v -0.124077 6.461630 0.178160
v -0.239296 6.458487 0.079741
v -0.212324 6.458483 -0.069035
v -0.069840 6.461592 -0.120623
v -1.013757 4.998458 0.244010
v 0.863848 4.939402 -0.286812
v 0.669173 5.101418 0.523827
v 0.460715 5.306255 0.403041
v 0.654667 5.147189 0.599344
v -0.280334 4.921019 1.031422
v -0.869217 4.968734 0.322870
v -0.841277 5.191797 0.243502
v -0.875495 4.915105 -0.597730
v 0.149699 5.037752 -0.949497
v -0.883805 4.931325 0.267957
v -0.160925 6.036555 0.402693
v 0.230606 6.048853 0.264898
v -0.478470 6.007938 0.132876
v -0.402877 6.084428 -0.192800
v -0.006990 6.085793 -0.348815
v 0.298639 6.095482 -0.110687
v 0.070785 6.596982 0.503873
v -0.463361 6.552926 0.413313
v -0.649410 6.529737 -0.093129
v -0.305447 6.545065 -0.514196
v 0.231328 6.581578 -0.427803
v 0.419020 6.611802 0.080703
v -0.066701 7.801123 0.130479
v -0.234784 7.801176 0.103035
v -0.294343 7.796659 -0.056109
v -0.186644 7.792062 -0.186743
v -0.019916 7.792058 -0.159513
v 0.040492 7.796602 -0.001347
v -0.077835 8.363188 0.026430
v -0.138038 8.363027 0.016576
v -0.159286 8.360990 -0.040416
v -0.120763 8.359138 -0.087044
v -0.061185 8.359301 -0.077340
v -0.039495 8.361320 -0.020816
v -0.099302 8.373851 -0.031911
v 0.311545 5.996681 0.857135
v -0.553958 5.957256 0.672766
v -0.914576 5.890475 -0.153329
v 0.580320 5.977344 -0.719784
v 0.901763 5.905077 0.140893
v 0.239609 5.931617 0.662921
v -0.464522 5.833489 0.544122
v -0.710688 5.894675 -0.120233
v -0.391272 5.869089 -0.581067
v 0.697054 5.900089 0.107802
v -0.351963 7.106887 -0.354208
v 0.005008 7.110678 -0.296721
v 0.131649 7.123129 0.040615
v -0.099062 7.127402 0.321440
v -0.455695 7.119713 0.261717
v -0.580764 7.110820 -0.075042
v -0.362818 6.189956 -0.603366
v -0.479221 5.865588 -0.616740
v -0.331741 5.905550 -0.787727
v 0.447921 5.900076 -0.559260
v -0.301197 6.099036 -0.547112
v -0.259201 5.900074 -0.620587
vt 0.292697 0.964881
vt 0.276151 0.963802
vt 0.337381 0.892569
vt 0.390364 0.895693
vt 0.205349 0.891781
vt 0.235044 0.962704
vt 0.210359 0.962703
vt 0.125317 0.893553
vt 0.226589 0.963789
vt 0.178252 0.898332
vt 0.267809 0.964869
vt 0.311383 0.899296
vt 0.509933 0.188156
vt 0.510099 0.181779
vt 0.526451 0.184002
vt 0.526376 0.186285
vt 0.160189 0.264497
vt 0.165590 0.266252
vt 0.160254 0.282205
vt 0.158322 0.281583
vt 0.329005 0.754113
vt 0.322655 0.754279
vt 0.324730 0.737737
vt 0.327001 0.737663
vt 0.332373 0.753947
vt 0.328209 0.737594
vt 0.509764 0.191476
vt 0.526308 0.187469
vt 0.311579 0.375986
vt 0.305783 0.375785
vt 0.306475 0.358950
vt 0.308550 0.359028
vt 0.348349 0.139326
vt 0.123017 0.117444
vt 0.469192 0.129908
vt 0.392352 0.113956
vt 0.168880 0.093911
vt 0.033421 0.134706
vt 0.328026 0.123784
vt 0.153384 0.116253
vt 0.431634 0.100345
vt 0.362131 0.114960
vt 0.188930 0.095214
vt 0.083943 0.116250
vt 0.696976 0.023065
vt 0.732344 0.222077
vt 0.805807 0.222077
vt 0.805786 0.023065
vt 0.520917 0.023065
vt 0.613479 0.222077
vt 0.520917 0.023065
vt 0.613479 0.222077
vt 0.696976 0.023065
vt 0.732344 0.222077
vt 0.679409 0.453235
vt 0.741815 0.453235
vt 0.578435 0.453235
vt 0.578435 0.453235
vt 0.679409 0.453235
vt 0.725157 0.953336
vt 0.766089 0.953336
vt 0.658927 0.953336
vt 0.658927 0.953336
vt 0.725157 0.953336
vt 0.358004 0.067391
vt 0.490056 0.147595
vt 0.393681 0.793735
vt 0.321420 0.805344
vt 0.178906 0.689700
vt 0.169884 0.187493
vt 0.147214 0.222242
vt 0.129861 0.766647
vt 0.048670 0.101171
vt 0.237891 0.670398
vt 0.212486 0.131387
vt 0.254124 0.841539
vt 0.326775 0.890846
vt 0.351494 0.771431
vt 0.362277 0.891726
vt 0.417031 0.053924
vt 0.228442 0.128683
vt 0.350644 0.043242
vt 0.477359 0.125377
vt 0.183462 0.659807
vt 0.175341 0.157356
vt 0.161673 0.200547
vt 0.065285 0.069882
vt 0.235303 0.640176
vt 0.220357 0.107875
vt 0.408428 0.033274
vt 0.225940 0.107360
vt 0.226109 0.867913
vt 0.178565 0.865160
vt 0.309857 0.897972
vt 0.282600 0.856952
vt 0.265085 0.855810
vt 0.332244 0.728633
vt 0.390704 0.735107
vt 0.187138 0.732993
vt 0.221570 0.854648
vt 0.195438 0.854647
vt 0.099388 0.743310
vt 0.212619 0.855796
vt 0.157871 0.751637
vt 0.256255 0.856939
vt 0.304192 0.747406
vt 0.387531 0.123189
vt 0.387707 0.116411
vt 0.420477 0.120377
vt 0.420398 0.122803
vt 0.722807 0.203923
vt 0.720843 0.209967
vt 0.687108 0.199557
vt 0.687804 0.197395
vt 0.450080 0.073430
vt 0.457154 0.074235
vt 0.451686 0.108570
vt 0.449154 0.108298
vt 0.446316 0.073088
vt 0.447803 0.108186
vt 0.387352 0.126719
vt 0.420326 0.124062
vt 0.078503 0.499067
vt 0.072277 0.499069
vt 0.073056 0.464970
vt 0.075286 0.464977
vt 0.146544 0.971838
vt 0.145390 0.973882
vt 0.144206 0.971801
vt 0.143028 0.969839
vt 0.145357 0.969829
vt 0.141860 0.971862
vt 0.143036 0.973894
vt 0.350756 0.196825
vt 0.101376 0.163070
vt 0.476870 0.150480
vt 0.370193 0.159349
vt 0.153219 0.130220
vt 0.035883 0.193201
vt 0.326953 0.178622
vt 0.136009 0.134354
vt 0.443191 0.136337
vt 0.353608 0.132839
vt 0.164036 0.109712
vt 0.068261 0.171584
vt 0.456365 0.132596
vt 0.291756 0.251065
vt 0.279344 0.697961
vt 0.380339 0.719805
vt 0.368130 0.653862
vt 0.408191 0.329616
vt 0.679651 0.622381
vt 0.679554 0.624978
vt 0.666316 0.630311
vt 0.666699 0.623242
vt 0.390223 0.386620
vt 0.220209 0.623974
vt 0.206047 0.115595
vt 0.099760 0.543884
vt 0.085361 0.178631
vt 0.172739 0.881527
vt 0.186671 0.961075
vt 0.128644 0.701835
vt 0.259634 0.962496
vt 0.082190 0.097403
vt 0.193808 0.864971
vt 0.193820 0.876512
vt 0.185784 0.873568
vt 0.190692 0.863809
vt 0.666837 0.691170
vt 0.653544 0.695652
vt 0.654389 0.686384
vt 0.666930 0.687802
vt 0.668151 0.614254
vt 0.679649 0.618792
vt 0.074085 0.124094
vt 0.420130 0.051500
vt 0.288512 0.172397
vt 0.345833 0.541659
vt 0.384252 0.250658
vt 0.381578 0.306921
vt 0.209256 0.028902
vt 0.105873 0.361755
vt 0.100724 0.087556
vt 0.099567 0.021633
vt 0.098035 0.041572
vt 0.303423 0.924078
vt 0.231263 0.911288
vt 0.515456 0.637481
vt 0.517110 0.634371
vt 0.527646 0.639109
vt 0.526027 0.647174
vt 0.518235 0.632050
vt 0.531100 0.632523
vt 0.315962 0.972572
vt 0.200411 0.725375
vt 0.135746 0.548948
vt 0.163983 0.551235
vt 0.213858 0.726537
vt 0.187402 0.547936
vt 0.267995 0.548911
vt 0.319091 0.412804
vt 0.197904 0.403411
vt 0.296587 0.552114
vt 0.361466 0.420579
vt 0.251806 0.726523
vt 0.244500 0.553213
vt 0.276006 0.725360
vt 0.224726 0.724192
vt 0.235700 0.871069
vt 0.230903 0.870545
vt 0.262368 0.724191
vt 0.239600 0.870069
vt 0.253051 0.870111
vt 0.257948 0.870630
vt 0.249292 0.871111
vt 0.244445 0.873853
vt 0.282846 0.416766
vt 0.337202 0.262343
vt 0.470455 0.238778
vt 0.162252 0.405433
vt 0.141798 0.252201
vt 0.120248 0.399468
vt 0.060382 0.235022
vt 0.184952 0.312062
vt 0.158671 0.228620
vt 0.397883 0.257369
vt 0.320961 0.245606
vt 0.424238 0.237496
vt 0.161990 0.220363
vt 0.106413 0.236103
vt 0.178528 0.229521
vt 0.367991 0.237492
vt 0.191968 0.238900
vt 0.208345 0.237492
vt 0.198864 0.288673
vn 0.8541 0.3542 0.3809
vn -0.7590 0.3112 0.5719
vn -0.8736 0.3171 -0.3693
vn -0.1112 0.3387 -0.9343
vn 0.1068 0.3293 0.9382
vn 0.7538 0.3587 -0.5505
vn 0.8811 0.2684 0.3895
vn -0.7741 0.2585 0.5778
vn -0.8900 0.2626 -0.3729
vn -0.1213 0.2696 -0.9553
vn 0.1034 0.2613 0.9597
vn 0.7713 0.2725 -0.5752
vn -0.1193 0.6216 -0.7742
vn 0.6524 0.6219 -0.4332
vn 0.7432 0.5868 0.3215
vn 0.0701 0.5712 0.8178
vn -0.6057 0.5987 0.5240
vn -0.7081 0.6259 -0.3268
vn 0.0393 -0.9874 -0.1532
vn 0.2954 -0.9132 -0.2808
vn 0.2653 -0.9586 0.1036
vn 0.0747 -0.9968 -0.0295
vn -0.1904 -0.9817 -0.0052
vn -0.1706 -0.9846 -0.0379
vn 0.8090 -0.0001 -0.5878
vn -0.2900 0.3451 -0.8926
vn -0.8594 0.5113 0.0000
vn -0.2900 0.3451 0.8926
vn 0.8090 -0.0001 0.5878
vn 0.7777 0.2754 -0.5651
vn -0.3090 -0.0104 -0.9510
vn -0.9817 -0.1904 0.0000
vn -0.3090 -0.0104 0.9510
vn 0.7777 0.2754 0.5651
vn 0.8080 -0.0502 -0.5870
vn -0.3072 0.1074 -0.9456
vn -0.9795 0.2016 0.0000
vn -0.3072 0.1074 0.9456
vn 0.8080 -0.0502 0.5870
vn 0.6269 0.6120 0.4821
vn -0.1616 0.6750 0.7199
vn -0.7670 0.5513 0.3282
vn -0.5868 0.5530 -0.5915
vn 0.2168 0.3606 -0.9072
vn 0.9050 0.2658 -0.3321
vn 0.7574 0.5690 -0.3203
vn 0.2051 0.5146 -0.8325
vn 0.4558 -0.8717 0.1799
vn -0.9459 -0.1406 -0.2924
vn -0.3291 -0.8693 0.3688
vn 0.5335 0.2588 0.8052
vn -0.4312 -0.8008 0.4156
vn 0.9523 -0.1163 -0.2822
vn -0.3018 -0.8679 -0.3945
vn 0.5523 -0.8314 -0.0606
vn -0.0381 -0.8594 -0.5099
vn -0.9791 0.1828 -0.0893
vn -0.8136 0.4121 0.4102
vn 0.7597 0.2993 0.5773
vn -0.6570 0.3634 -0.6605
vn -0.1644 0.3459 0.9238
vn 0.7793 0.5130 0.3599
vn -0.6834 0.4933 0.5381
vn -0.8194 0.4637 -0.3371
vn -0.0968 0.4567 -0.8843
vn 0.1066 0.5136 0.8514
vn 0.7163 0.4879 -0.4988
vn 0.9090 0.1235 0.3982
vn -0.7975 0.0992 0.5951
vn -0.9088 0.1653 -0.3832
vn -0.1218 0.2101 -0.9701
vn 0.1109 0.0778 0.9908
vn 0.7870 0.1899 -0.5870
vn 0.1442 0.9854 0.0903
vn -0.1705 0.9768 0.1298
vn -0.1905 0.9802 -0.0538
vn -0.0428 0.9862 -0.1602
vn -0.0003 0.9794 0.2017
vn 0.1215 0.9887 -0.0881
vn -0.0744 0.5588 -0.8259
vn 0.6410 0.6598 -0.3922
vn 0.7226 0.6089 0.3272
vn 0.0847 0.6901 0.7188
vn -0.5956 0.6412 0.4839
vn -0.7378 0.6068 -0.2956
vn 0.1607 -0.8455 -0.5093
vn 0.0695 -0.9461 -0.3164
vn 0.3933 -0.8965 0.2040
vn 0.1604 -0.9350 0.3163
vn -0.5320 -0.8426 0.0839
vn -0.5014 -0.8637 -0.0521
vn 0.5339 0.5560 -0.6370
vn 0.7790 0.6101 0.1447
vn 0.2895 0.4286 0.8559
vn 0.1799 0.6815 0.7094
vn -0.5696 0.5904 0.5719
vn -0.8666 0.4959 -0.0554
vn -0.8680 0.4935 -0.0555
vn -0.3348 0.4423 -0.8320
vn -0.3325 0.4417 -0.8333
vn -0.3345 0.4372 -0.8349
vn -0.3118 0.5792 -0.7532
vn 0.5261 0.5110 -0.6798
vn 0.5245 0.5095 -0.6822
vn 0.5256 0.5159 -0.6765
vn -0.6089 0.4077 0.6804
vn 0.8388 0.5076 0.1970
vn 0.8374 0.5104 0.1959
vn -0.9015 0.4284 -0.0616
vn 0.2347 -0.8860 -0.3999
vn -0.4460 -0.0874 0.8908
vn 0.3723 -0.8891 0.2664
vn 0.8035 0.0221 -0.5949
vn 0.3770 -0.8214 0.4280
vn -0.7579 -0.1687 -0.6302
vn -0.4659 -0.8132 0.3487
vn -0.0885 -0.8353 -0.5426
vn -0.4993 -0.8664 0.0038
vn -0.0872 0.0804 0.9929
vn 0.2769 0.4753 0.8351
vn -0.8769 0.4668 -0.1143
vn -0.8773 0.4668 -0.1116
vn -0.3251 0.4466 -0.8336
vn -0.3306 0.4470 -0.8312
vn -0.3236 0.4488 -0.8330
vn 0.5181 0.5163 -0.6819
vn 0.5156 0.5182 -0.6824
vn 0.5204 0.5179 -0.6789
vn -0.6067 0.4459 0.6580
vn 0.8386 0.5137 0.1813
vn 0.8373 0.5148 0.1841
vn -0.8781 0.3582 0.3172
vn 0.1396 0.2877 -0.9475
vn 0.8339 0.4408 -0.3321
vn 0.7676 0.1391 0.6257
vn 0.7674 0.1416 0.6254
vn 0.7639 0.1415 0.6297
vn -0.7283 0.3222 -0.6048
vn -0.1615 0.2747 0.9479
vn -0.1639 0.2743 0.9476
vn -0.9178 0.2101 0.3368
vn 0.1562 0.1519 -0.9760
vn 0.1591 0.1529 -0.9753
vn 0.9242 0.1191 -0.3630
vn 0.9256 0.1220 -0.3584
vn 0.9262 0.1190 -0.3578
vn 0.7732 0.1310 0.6205
vn 0.7707 0.1361 0.6225
vn 0.7717 0.1306 0.6225
vn -0.7526 0.1977 -0.6280
vn -0.1588 0.1767 0.9714
vn -0.1592 0.1791 0.9708
vn -0.2156 0.9754 0.0455
vn 0.0418 0.9612 -0.2728
vn 0.2250 0.9668 -0.1209
vn 0.1841 0.9766 0.1108
vn -0.1805 0.9656 -0.1874
vn -0.0340 0.9808 0.1918
vn 0.6699 0.5340 0.5158
vn -0.1987 0.4270 0.8821
vn -0.8866 0.3107 0.3427
vn -0.6974 0.3249 -0.6388
vn 0.1404 0.2197 -0.9654
vn 0.7886 0.5492 -0.2764
vn 0.1013 -0.9787 0.1783
vn -0.0216 -0.8635 0.5039
vn -0.3344 -0.9320 0.1396
vn 0.0113 -0.9979 0.0637
vn 0.1930 -0.9741 -0.1182
vn -0.9346 0.1018 0.3410
vn 0.1551 0.1998 -0.9675
vn 0.1562 0.1969 -0.9679
vn 0.9302 0.1056 -0.3516
vn 0.9299 0.0990 -0.3543
vn 0.9292 0.1045 -0.3544
vn 0.6948 0.4283 0.5778
vn -0.7700 0.1128 -0.6280
vn -0.1753 0.2629 0.9488
vn 0.0617 -0.9703 -0.2338
vn -0.8651 -0.3316 0.3764
vn 0.4765 -0.1029 -0.8731
vn -0.7500 0.2725 -0.6027
vn -0.0025 0.4716 -0.8818
vn 0.0000 -1.0000 0.0000
usemtl Material
s off
f 8/1/1 9/2/1 3/3/1 2/4/1
f 4/5/2 10/6/2 11/7/2 5/8/2
f 5/8/3 11/7/3 12/9/3 6/10/3
f 12/9/4 7/11/4 1/12/4 6/10/4
f 9/2/5 10/6/5 4/5/5 3/3/5
f 7/11/6 8/1/6 2/4/6 1/12/6
f 9/13/7 8/14/7 14/15/7 15/16/7
f 11/17/8 10/18/8 16/19/8 17/20/8
f 12/21/9 11/22/9 17/23/9 18/24/9
f 7/25/10 12/21/10 18/24/10 13/26/10
f 10/27/11 9/13/11 15/16/11 16/28/11
f 8/29/12 7/30/12 13/31/12 14/32/12
f 6/10/13 1/12/13 19/33/13 24/34/13
f 1/12/14 2/4/14 20/35/14 19/33/14
f 2/4/15 3/3/15 21/36/15 20/35/15
f 3/3/16 4/5/16 22/37/16 21/36/16
f 4/5/17 5/8/17 23/38/17 22/37/17
f 5/8/18 6/10/18 24/34/18 23/38/18
f 24/34/19 19/33/19 25/39/19 30/40/19
f 19/33/20 20/35/20 26/41/20 25/39/20
f 20/35/21 21/36/21 27/42/21 26/41/21
f 21/36/22 22/37/22 28/43/22 27/42/22
f 22/37/23 23/38/23 29/44/23 28/43/23
f 23/38/24 24/34/24 30/40/24 29/44/24
f 32/45/25 42/46/25 43/47/25 31/48/25
f 33/49/26 41/50/26 42/46/26 32/45/26
f 34/51/27 45/52/27 41/50/27 33/49/27
f 35/53/28 44/54/28 45/52/28 34/51/28
f 31/48/29 43/47/29 44/54/29 35/53/29
f 37/55/30 36/56/30 43/47/30 42/46/30
f 38/57/31 37/55/31 42/46/31 41/50/31
f 39/58/32 38/57/32 41/50/32 45/52/32
f 40/59/33 39/58/33 45/52/33 44/54/33
f 36/56/34 40/59/34 44/54/34 43/47/34
f 36/56/35 37/55/35 47/60/35 46/61/35
f 37/55/36 38/57/36 48/62/36 47/60/36
f 38/57/37 39/58/37 49/63/37 48/62/37
f 39/58/38 40/59/38 50/64/38 49/63/38
f 40/59/39 36/56/39 46/61/39 50/64/39
f 51/65/40 62/66/40 63/67/40 52/68/40
f 52/68/41 54/69/41 53/70/41 51/65/41
f 55/71/42 54/69/42 56/72/42 57/73/42
f 56/72/43 59/74/43 58/75/43 57/73/43
f 77/76/44 78/77/44 60/78/44 59/74/44
f 60/78/45 78/77/45 79/79/45 63/67/45
f 61/80/46 60/78/46 63/67/46 62/66/46
f 59/74/47 60/78/47 61/80/47 64/81/47
f 62/66/48 51/65/48 65/82/48 73/83/48
f 53/70/49 54/69/49 67/84/49 66/85/49
f 51/65/50 53/70/50 66/85/50 65/82/50
f 54/69/51 55/71/51 68/86/51 67/84/51
f 55/71/52 57/73/52 69/87/52 68/86/52
f 58/75/53 59/74/53 71/88/53 70/89/53
f 57/73/54 58/75/54 70/89/54 69/87/54
f 61/80/55 62/66/55 73/83/55 72/90/55
f 64/81/56 61/80/56 72/90/56 74/91/56
f 59/74/57 64/81/57 74/91/57 71/88/57
f 56/72/58 54/69/58 76/92/58 75/93/58
f 80/94/59 52/68/59 63/67/59 79/79/59
f 77/76/60 59/74/60 56/72/60 75/93/60
f 76/92/61 54/69/61 52/68/61 80/94/61
f 88/95/62 89/96/62 83/97/62 82/98/62
f 84/99/63 90/100/63 91/101/63 85/102/63
f 85/102/64 91/101/64 92/103/64 86/104/64
f 92/103/65 87/105/65 81/106/65 86/104/65
f 89/96/66 90/100/66 84/99/66 83/97/66
f 87/105/67 88/95/67 82/98/67 81/106/67
f 89/107/68 88/108/68 94/109/68 95/110/68
f 91/111/69 90/112/69 96/113/69 97/114/69
f 92/115/70 91/116/70 97/117/70 98/118/70
f 87/119/71 92/115/71 98/118/71 93/120/71
f 90/121/72 89/107/72 95/110/72 96/122/72
f 88/123/73 87/124/73 93/125/73 94/126/73
f 95/127/74 94/128/74 99/129/74
f 97/130/75 96/131/75 99/129/75
f 98/132/76 97/130/76 99/129/76
f 93/133/77 98/132/77 99/129/77
f 96/131/78 95/127/78 99/129/78
f 94/128/79 93/133/79 99/129/79
f 86/104/80 81/106/80 100/134/80 105/135/80
f 81/106/81 82/98/81 101/136/81 100/134/81
f 82/98/82 83/97/82 102/137/82 101/136/82
f 83/97/83 84/99/83 103/138/83 102/137/83
f 84/99/84 85/102/84 104/139/84 103/138/84
f 85/102/85 86/104/85 105/135/85 104/139/85
f 105/135/86 100/134/86 106/140/86 111/141/86
f 100/134/87 101/136/87 107/142/87 106/140/87
f 101/136/88 102/137/88 108/143/88 107/142/88
f 102/137/89 103/138/89 109/144/89 108/143/89
f 103/138/90 104/139/90 110/145/90 109/144/90
f 104/139/91 105/135/91 111/141/91 110/145/91
f 112/146/92 123/147/92 124/148/92 113/149/92
f 113/149/93 115/150/93 114/151/93 112/146/93
f 126/152/94 127/153/94 142/154/94 143/155/94
f 116/156/95 115/150/95 117/157/95 118/158/95
f 117/157/96 120/159/96 119/160/96 118/158/96
f 144/161/97 145/162/98 121/163/97 120/159/97
f 121/163/99 145/162/100 146/164/101 124/148/99
f 122/165/102 121/163/102 124/148/102 123/147/102
f 125/166/103 147/167/104 146/168/105 130/169/103
f 128/170/106 144/171/106 142/172/106 127/173/106
f 126/152/107 143/155/107 147/174/108 125/175/107
f 120/159/109 121/163/109 122/165/109 131/176/109
f 123/147/110 112/146/110 132/177/110 140/178/110
f 114/151/111 115/150/111 134/179/111 133/180/111
f 112/146/112 114/151/112 133/180/112 132/177/112
f 115/150/113 116/156/113 135/181/113 134/179/113
f 116/156/114 118/158/114 136/182/114 135/181/114
f 119/160/115 120/159/115 138/183/115 137/184/115
f 118/158/116 119/160/116 137/184/116 136/182/116
f 122/165/117 123/147/117 140/178/117 139/185/117
f 131/176/118 122/165/118 139/185/118 141/186/118
f 120/159/119 131/176/119 141/186/119 138/183/119
f 117/157/120 115/150/120 143/187/120 142/188/120
f 128/189/121 129/190/121 145/191/122 144/192/121
f 129/190/123 130/193/123 146/194/124 145/191/125
f 147/195/126 113/149/127 124/148/127 146/164/128
f 144/161/129 120/159/129 117/157/129 142/188/129
f 143/187/130 115/150/130 113/149/130 147/195/131
f 156/196/132 182/197/132 181/198/132 155/199/132
f 177/200/133 178/201/133 152/202/133 151/203/133
f 178/201/134 179/204/134 153/205/134 152/202/134
f 154/206/135 180/207/136 179/204/136 159/208/137
f 156/196/138 157/209/138 177/200/138 182/197/138
f 155/199/139 181/198/139 180/207/139 154/206/140
f 156/196/141 155/199/141 161/210/141 162/211/141
f 158/212/142 157/209/143 163/213/143 164/214/143
f 159/208/144 158/212/145 164/214/146 165/215/146
f 154/206/147 159/208/148 165/215/149 160/216/149
f 157/209/150 156/196/150 162/211/150 163/213/150
f 155/199/151 154/206/152 160/216/151 161/210/151
f 162/211/153 161/210/153 166/217/153
f 164/214/154 163/213/154 166/217/154
f 165/215/155 164/214/155 166/217/155
f 160/216/156 165/215/156 166/217/156
f 163/213/157 162/211/157 166/217/157
f 161/210/158 160/216/158 166/217/158
f 153/205/159 148/218/159 167/219/159 171/220/159
f 148/218/160 149/221/160 168/222/160 167/219/160
f 149/221/161 150/223/161 169/224/161 168/222/161
f 183/225/162 184/226/162 169/224/162 150/223/162
f 151/203/163 152/202/163 183/225/163
f 152/202/164 153/205/164 171/220/164 170/227/164
f 171/220/165 167/219/165 172/228/165 176/229/165
f 167/219/166 168/222/166 173/230/166 172/228/166
f 168/222/167 169/224/167 174/231/167 173/230/167
f 169/224/168 184/226/168 175/232/168 174/231/168
f 170/227/169 171/220/169 176/229/169 186/233/169
f 182/197/170 150/223/170 149/221/170 181/198/170
f 157/209/171 158/212/172 178/201/171 177/200/171
f 158/212/173 159/208/174 179/204/175 178/201/175
f 180/207/176 148/218/176 153/205/176 179/204/176
f 151/203/177 150/223/177 182/197/177 177/200/177
f 181/198/178 149/221/178 148/218/178 180/207/178
f 185/234/179 170/227/179 186/233/179 188/235/179
f 183/225/180 185/234/180 188/235/180 187/236/180
f 187/236/181 175/232/181 184/226/181 183/225/181
f 150/223/182 151/203/182 183/225/182
f 152/202/183 170/227/183 185/234/183 183/225/183
f 31/48/184 35/53/184 34/51/184 33/49/184 32/45/184
