# Blender v2.79 (sub 0) OBJ File: 'Coin.blend'
# www.blender.org
mtllib Coin.mtl
o Cube
v 0.225089 0.043736 -0.225089
v 0.225089 0.041993 0.225089
v -0.225089 0.041492 0.225089
v -0.225089 0.041583 -0.225089
v 0.218335 -0.045351 -0.218335
v 0.218335 -0.046147 0.218335
v -0.218335 -0.044461 0.218335
v -0.218335 -0.044153 -0.218335
v 0.238414 0.013916 -0.238414
v 0.236493 -0.015429 -0.236493
v 0.238414 0.014971 0.238414
v 0.236493 -0.013757 0.236493
v -0.238414 0.013818 0.238414
v -0.236493 -0.016368 0.236493
v -0.238414 0.015879 -0.238414
v -0.236493 -0.016450 -0.236493
v 0.295896 0.040250 0.000000
v -0.295896 0.041212 -0.000000
v 0.280878 -0.068308 0.000000
v -0.280878 -0.068736 -0.000000
v -0.313953 0.006605 -0.000000
v -0.308380 -0.034953 -0.000000
v 0.313953 0.008507 0.000000
v 0.308380 -0.034431 0.000000
v 0.000000 0.040733 -0.295896
v -0.000000 0.041867 0.295896
v 0.000000 -0.071428 -0.280878
v -0.000000 -0.068257 0.280878
v 0.000000 -0.034915 -0.308380
v 0.000000 0.006684 -0.313953
v -0.000000 0.006330 0.313953
v -0.000000 -0.032077 0.308380
v -0.000000 -0.081285 0.002066
v 0.000000 0.046275 -0.000000
v -0.112544 0.042096 -0.260493
v -0.112544 0.043706 0.260493
v -0.109167 -0.057463 -0.249606
v -0.109168 -0.057777 0.249606
v -0.118246 -0.022569 -0.272436
v -0.119207 0.010324 -0.276183
v -0.119207 0.012988 0.276183
v -0.118246 -0.024895 0.272436
v -0.147948 0.040796 -0.000000
v -0.140439 -0.066352 0.000000
v 0.140439 -0.077233 0.000000
v 0.112544 0.040440 -0.260493
v 0.112544 0.042979 0.260493
v 0.109168 -0.059735 -0.249606
v 0.109167 -0.057721 0.249606
v 0.118246 -0.023618 -0.272436
v 0.119207 0.011958 -0.276183
v 0.119207 0.010256 0.276183
v 0.118246 -0.025816 0.272436
v 0.147948 0.042291 0.000000
v -0.260493 0.040767 -0.112544
v -0.249606 -0.055409 -0.109168
v -0.276183 0.012437 -0.119207
v -0.272436 -0.025397 -0.118246
v 0.260493 0.041021 -0.112544
v 0.249606 -0.057558 -0.109167
v 0.276183 0.012890 -0.119207
v 0.272436 -0.024234 -0.118246
v 0.000000 0.041126 -0.147948
v 0.000000 -0.080324 -0.140439
v -0.130246 0.041296 -0.130246
v -0.124803 -0.071534 -0.124803
v 0.124803 -0.075998 -0.124803
v 0.130246 0.042259 -0.130246
v 0.260493 0.044153 0.112544
v 0.249606 -0.055289 0.109168
v 0.276183 0.009955 0.119207
v 0.272436 -0.026410 0.118246
v -0.260493 0.041815 0.112544
v -0.249606 -0.056302 0.109167
v -0.276183 0.012084 0.119207
v -0.272436 -0.023856 0.118246
v -0.000000 -0.083965 0.142303
v 0.000000 0.041600 0.147948
v -0.124803 -0.070908 0.124803
v -0.130246 0.041799 0.130246
v 0.130246 0.042917 0.130246
v 0.124803 -0.075721 0.124803
v 0.278195 0.044645 -0.056272
v 0.265242 -0.061495 -0.054584
v 0.295068 0.010563 -0.059603
v 0.290408 -0.028495 -0.059123
v -0.000000 -0.083188 -0.070219
v -0.132621 -0.067186 -0.062402
v 0.132621 -0.078292 -0.062401
v -0.278194 0.040179 -0.056272
v -0.265242 -0.065278 -0.054584
v -0.295068 0.008688 -0.059604
v -0.290408 -0.030471 -0.059123
v 0.000000 0.045913 -0.073974
v -0.139097 0.042932 -0.065123
v 0.139097 0.040463 -0.065123
v -0.278195 0.043554 0.056272
v -0.265242 -0.061571 0.054584
v -0.295068 0.011340 0.059603
v -0.290408 -0.027627 0.059123
v 0.000000 0.042039 0.073974
v -0.139097 0.043499 0.065123
v 0.139097 0.040914 0.065123
v 0.278195 0.044206 0.056272
v 0.265242 -0.061467 0.054584
v 0.295068 0.007640 0.059604
v 0.290408 -0.029574 0.059123
v -0.000000 -0.083322 0.078322
v -0.132621 -0.068625 0.062402
v 0.132621 -0.076182 0.062402
v -0.070220 -0.077510 0.000867
v -0.056272 0.043022 -0.278195
v -0.056272 0.041682 0.278194
v -0.054584 -0.061624 -0.265242
v -0.054584 -0.065166 0.265242
v -0.059123 -0.031112 -0.290408
v -0.059603 0.008799 -0.295068
v -0.059604 0.009211 0.295068
v -0.059123 -0.028808 0.290408
v -0.073974 0.041919 -0.000000
v -0.062402 -0.079341 -0.132621
v -0.065123 0.040853 -0.139097
v -0.065123 0.042379 0.139097
v -0.062402 -0.079890 0.133656
v -0.066311 -0.074251 -0.066310
v -0.069549 0.046285 -0.069549
v -0.066311 -0.076567 0.067302
v -0.069549 0.042613 0.069549
v 0.056272 0.042693 -0.278195
v 0.056272 0.043101 0.278194
v 0.054584 -0.063119 -0.265242
v 0.054584 -0.065768 0.265242
v 0.059123 -0.029254 -0.290408
v 0.059604 0.010947 -0.295068
v 0.059603 0.010687 0.295068
v 0.059123 -0.026934 0.290408
v 0.073974 0.045049 -0.000000
v 0.070219 -0.079798 0.000197
v 0.062402 -0.079582 -0.132621
v 0.065123 0.045860 -0.139097
v 0.065123 0.042798 0.139097
v 0.062401 -0.080373 0.132676
v 0.066311 -0.077307 -0.066310
v 0.069549 0.043433 -0.069549
v 0.066310 -0.077847 0.066528
v 0.069549 0.046309 0.069549
v 0.000000 0.066694 0.073974
v 0.000000 0.070628 -0.000000
v 0.000000 0.066891 -0.073974
v 0.000000 0.062577 -0.147948
v 0.065123 0.066700 -0.139097
v 0.065123 0.063166 0.139097
v 0.000000 0.063736 0.147948
v 0.069549 0.062609 -0.069549
v 0.069549 0.068200 0.069549
v -0.073974 0.062999 -0.000000
v -0.065123 0.062796 -0.139097
v -0.065123 0.070646 0.139097
v -0.069549 0.072455 -0.069549
v -0.069549 0.067557 0.069549
vn -0.0080 1.0000 -0.0048
vn -0.1438 -0.9806 0.1335
vn 0.7372 -0.6163 0.2770
vn -0.2768 -0.6182 0.7357
vn -0.7205 -0.6389 -0.2697
vn -0.2500 0.5042 -0.8266
vn -0.2725 -0.6072 -0.7463
vn -0.2994 -0.0957 -0.9493
vn -0.8127 0.5278 -0.2469
vn -0.9499 -0.0890 -0.2995
vn -0.2634 0.5001 0.8249
vn -0.2985 -0.0918 0.9500
vn 0.8375 0.4814 0.2585
vn 0.9486 -0.0960 0.3016
vn 0.9458 -0.1198 -0.3017
vn 0.8517 0.4642 -0.2431
vn -0.9444 -0.1218 0.3055
vn -0.8549 0.4589 0.2419
vn -0.7442 -0.5986 0.2963
vn 0.7429 -0.6046 -0.2874
vn 0.0011 -0.9998 -0.0222
vn -0.0079 0.9999 0.0074
vn 0.0263 0.9995 -0.0146
vn 0.0540 -0.9985 -0.0058
vn 0.3034 -0.1290 0.9441
vn 0.2486 0.4524 0.8564
vn 0.3035 -0.1200 -0.9453
vn 0.2952 -0.5846 -0.7557
vn 0.2439 0.4644 -0.8514
vn 0.2686 -0.5643 0.7806
vn 0.0759 -0.9907 0.1129
vn -0.0206 0.9998 -0.0026
vn -0.0297 0.9985 0.0453
vn -0.1329 -0.9907 -0.0306
vn -0.3012 -0.1106 0.9471
vn -0.2434 0.4745 0.8460
vn -0.3034 -0.1152 -0.9459
vn -0.2871 -0.6048 -0.7428
vn -0.2654 0.4587 -0.8481
vn -0.2830 -0.5834 0.7613
vn -0.1624 -0.9792 0.1212
vn 0.0132 0.9999 -0.0058
vn 0.0009 1.0000 0.0088
vn 0.1627 -0.9758 0.1458
vn 0.2837 -0.5980 0.7496
vn 0.2506 0.4988 -0.8297
vn 0.2825 -0.5873 -0.7585
vn 0.2988 -0.0962 -0.9494
vn 0.2553 0.4902 0.8334
vn 0.3013 -0.0964 0.9486
vn 0.0955 -0.9931 -0.0680
vn -0.0082 0.9997 0.0229
vn -0.0097 0.9999 0.0058
vn 0.1671 -0.9741 -0.1520
vn -0.1272 -0.9829 -0.1330
vn -0.0016 0.9999 0.0109
vn 0.0957 -0.9909 -0.0948
vn -0.0527 0.9986 -0.0108
vn -0.0030 1.0000 0.0060
vn -0.1505 -0.9792 -0.1362
vn 0.7476 -0.6037 -0.2767
vn 0.8273 0.5015 -0.2531
vn 0.9497 -0.0939 -0.2987
vn -0.9470 -0.1091 -0.3021
vn -0.8338 0.4948 -0.2448
vn -0.7363 -0.6077 -0.2975
vn 0.1424 -0.9862 0.0845
vn -0.0188 0.9996 -0.0202
vn 0.0009 0.9999 0.0143
vn -0.1270 -0.9914 -0.0316
vn 0.0666 -0.9975 -0.0223
vn -0.7364 -0.6202 0.2704
vn -0.8235 0.5057 0.2569
vn -0.9497 -0.0944 0.2985
vn 0.9473 -0.1141 0.2993
vn 0.8616 0.4337 0.2636
vn 0.7264 -0.6334 0.2667
vn -0.0877 -0.9952 0.0430
vn -0.0026 0.9996 0.0289
vn -0.7562 -0.5982 -0.2653
vn -0.8474 0.4611 -0.2634
vn -0.9460 -0.1217 -0.3004
vn -0.0097 0.9999 -0.0130
vn 0.1424 -0.9865 -0.0811
vn -0.1089 -0.9921 0.0628
vn -0.0270 0.9981 -0.0550
vn 0.0519 -0.9986 -0.0058
vn -0.0133 0.9998 -0.0115
vn -0.0754 -0.9952 -0.0621
vn 0.7541 -0.6004 -0.2662
vn 0.8349 0.4802 -0.2690
vn 0.9475 -0.1102 -0.3002
vn 0.0029 0.9991 -0.0422
vn -0.0184 -0.9988 0.0454
vn 0.7394 -0.6116 0.2815
vn 0.8550 0.4498 0.2580
vn 0.9467 -0.1226 0.2980
vn 0.0510 -0.9987 0.0008
vn -0.0206 0.9996 0.0201
vn -0.1386 -0.9903 0.0024
vn -0.0009 0.9997 -0.0251
vn -0.0050 0.9997 -0.0223
vn 0.0883 -0.9925 0.0847
vn -0.7531 -0.5999 0.2703
vn -0.8344 0.4818 0.2676
vn -0.9478 -0.1121 0.2985
vn -0.0764 -0.9971 -0.0055
vn -0.0756 -0.9970 0.0141
vn -0.0796 -0.9964 -0.0279
vn 0.0181 0.9998 0.0067
vn -0.1111 -0.9888 -0.0996
vn 0.0046 1.0000 0.0014
vn -0.0843 -0.9899 0.1139
vn -0.2609 -0.5778 0.7733
vn -0.2532 0.4504 -0.8562
vn -0.2916 -0.6031 -0.7424
vn -0.2998 -0.1206 -0.9464
vn -0.2591 0.4513 0.8539
vn -0.3001 -0.1284 0.9452
vn -0.0929 -0.9956 -0.0123
vn 0.0569 0.9984 0.0065
vn 0.0318 -0.9992 0.0262
vn 0.0461 0.9986 0.0268
vn 0.0204 -0.9998 -0.0020
vn 0.0479 -0.9988 -0.0117
vn 0.0406 0.9991 0.0152
vn 0.0533 0.9983 -0.0237
vn 0.0855 -0.9874 -0.1333
vn -0.0003 1.0000 -0.0014
vn 0.1340 -0.9815 0.1366
vn 0.2741 -0.5755 0.7705
vn 0.2669 0.4923 -0.8285
vn 0.2729 -0.5797 -0.7678
vn 0.3003 -0.1108 -0.9474
vn 0.2688 0.4634 0.8444
vn 0.2951 -0.1140 0.9486
vn 0.0119 -0.9999 -0.0122
vn 0.0408 0.9987 -0.0296
vn -0.9980 0.0000 0.0635
vn 0.1347 0.0000 -0.9909
vn -0.0635 0.0000 0.9980
vn 1.0000 0.0000 0.0000
vn 0.1347 0.0000 0.9909
vn -0.0015 0.9985 0.0556
vn 0.0013 1.0000 -0.0016
vn -0.0470 0.9989 -0.0029
vn 0.0333 0.9948 -0.0958
vn 0.0579 0.9983 -0.0027
vn -0.0132 0.9991 0.0394
vn -0.1347 0.0000 -0.9909
vn 0.9980 0.0000 -0.0635
vn -0.1347 0.0000 0.9909
vn -0.9980 0.0000 -0.0635
vn -0.0635 0.0000 -0.9980
vn 0.9980 0.0000 0.0635
usemtl Material.001
s off
f 80//1 73//1 3//1 36//1
f 79//2 38//2 7//2 74//2
f 72//3 12//3 6//3 70//3
f 42//4 14//4 7//4 38//4
f 58//5 16//5 8//5 56//5
f 40//6 15//6 4//6 35//6
f 37//7 8//7 16//7 39//7
f 39//8 16//8 15//8 40//8
f 55//9 4//9 15//9 57//9
f 57//10 15//10 16//10 58//10
f 36//11 3//11 13//11 41//11
f 41//12 13//12 14//12 42//12
f 69//13 2//13 11//13 71//13
f 71//14 11//14 12//14 72//14
f 85//15 23//15 24//15 86//15
f 83//16 17//16 23//16 85//16
f 99//17 21//17 22//17 100//17
f 97//18 18//18 21//18 99//18
f 100//19 22//19 20//19 98//19
f 86//20 24//20 19//20 84//20
f 88//21 44//21 20//21 91//21
f 95//22 90//22 18//22 43//22
f 144//23 94//23 34//23 137//23
f 143//24 138//24 33//24 87//24
f 135//25 31//25 32//25 136//25
f 130//26 26//26 31//26 135//26
f 133//27 29//27 30//27 134//27
f 131//28 27//28 29//28 133//28
f 134//29 30//29 25//29 129//29
f 136//30 32//30 28//30 132//30
f 142//31 132//31 28//31 77//31
f 141//32 78//32 26//32 130//32
f 126//33 95//33 43//33 120//33
f 125//34 111//34 44//34 88//34
f 118//35 41//35 42//35 119//35
f 113//36 36//36 41//36 118//36
f 116//37 39//37 40//37 117//37
f 114//38 37//38 39//38 116//38
f 117//39 40//39 35//39 112//39
f 119//40 42//40 38//40 115//40
f 124//41 115//41 38//41 79//41
f 123//42 80//42 36//42 113//42
f 69//43 81//43 47//43 2//43
f 70//44 6//44 49//44 82//44
f 12//45 53//45 49//45 6//45
f 9//46 51//46 46//46 1//46
f 5//47 48//47 50//47 10//47
f 10//48 50//48 51//48 9//48
f 2//49 47//49 52//49 11//49
f 11//50 52//50 53//50 12//50
f 84//51 19//51 45//51 89//51
f 83//52 96//52 54//52 17//52
f 1//53 46//53 68//53 59//53
f 5//54 60//54 67//54 48//54
f 114//55 121//55 66//55 37//55
f 112//56 35//56 65//56 122//56
f 131//57 139//57 64//57 27//57
f 129//58 25//58 63//58 140//58
f 35//59 4//59 55//59 65//59
f 37//60 66//60 56//60 8//60
f 10//61 62//61 60//61 5//61
f 1//62 59//62 61//62 9//62
f 9//63 61//63 62//63 10//63
f 92//64 57//64 58//64 93//64
f 90//65 55//65 57//65 92//65
f 93//66 58//66 56//66 91//66
f 105//67 70//67 82//67 110//67
f 104//68 103//68 81//68 69//68
f 128//69 102//69 80//69 123//69
f 127//70 124//70 79//70 109//70
f 145//71 142//71 77//71 108//71
f 14//72 76//72 74//72 7//72
f 3//73 73//73 75//73 13//73
f 13//74 75//74 76//74 14//74
f 106//75 71//75 72//75 107//75
f 104//76 69//76 71//76 106//76
f 107//77 72//77 70//77 105//77
f 109//78 79//78 74//78 98//78
f 102//79 97//79 73//79 80//79
f 22//80 93//80 91//80 20//80
f 18//81 90//81 92//81 21//81
f 21//82 92//82 93//82 22//82
f 59//83 68//83 96//83 83//83
f 60//84 84//84 89//84 67//84
f 121//85 125//85 88//85 66//85
f 122//86 65//86 95//86 126//86
f 139//87 143//87 87//87 64//87
f 65//88 55//88 90//88 95//88
f 66//89 88//89 91//89 56//89
f 62//90 86//90 84//90 60//90
f 59//91 83//91 85//91 61//91
f 61//92 85//92 86//92 62//92
f 43//93 18//93 97//93 102//93
f 44//94 109//94 98//94 20//94
f 24//95 107//95 105//95 19//95
f 17//96 104//96 106//96 23//96
f 23//97 106//97 107//97 24//97
f 138//98 145//98 108//98 33//98
f 137//99 34//99 101//99 146//99
f 111//100 127//100 109//100 44//100
f 120//101 43//101 102//101 128//101
f 17//102 54//102 103//102 104//102
f 19//103 105//103 110//103 45//103
f 76//104 100//104 98//104 74//104
f 73//105 97//105 99//105 75//105
f 75//106 99//106 100//106 76//106
f 33//107 108//107 127//107 111//107
f 64//108 87//108 125//108 121//108
f 108//109 77//109 124//109 127//109
f 25//110 112//110 122//110 63//110
f 27//111 64//111 121//111 114//111
f 78//112 123//112 113//112 26//112
f 77//113 28//113 115//113 124//113
f 32//114 119//114 115//114 28//114
f 30//115 117//115 112//115 25//115
f 27//116 114//116 116//116 29//116
f 29//117 116//117 117//117 30//117
f 26//118 113//118 118//118 31//118
f 31//119 118//119 119//119 32//119
f 87//120 33//120 111//120 125//120
f 54//121 137//121 146//121 103//121
f 45//122 110//122 145//122 138//122
f 68//123 140//123 144//123 96//123
f 67//124 89//124 143//124 139//124
f 110//125 82//125 142//125 145//125
f 103//126 146//126 141//126 81//126
f 46//127 129//127 140//127 68//127
f 48//128 67//128 139//128 131//128
f 81//129 141//129 130//129 47//129
f 82//130 49//130 132//130 142//130
f 53//131 136//131 132//131 49//131
f 51//132 134//132 129//132 46//132
f 48//133 131//133 133//133 50//133
f 50//134 133//134 134//134 51//134
f 47//135 130//135 135//135 52//135
f 52//136 135//136 136//136 53//136
f 89//137 45//137 138//137 143//137
f 96//138 144//138 137//138 54//138
usemtl Material.002
f 128//139 160//139 156//139 120//139
f 63//140 150//140 151//140 140//140
f 144//141 154//141 149//141 94//141
f 34//142 148//142 147//142 101//142
f 123//139 158//139 160//139 128//139
f 141//143 152//143 153//143 78//143
f 155//144 147//144 153//144 152//144
f 151//145 150//145 149//145 154//145
f 148//146 156//146 160//146 147//146
f 150//147 157//147 159//147 149//147
f 147//148 160//148 158//148 153//148
f 149//149 159//149 156//149 148//149
f 122//150 157//150 150//150 63//150
f 140//151 151//151 154//151 144//151
f 78//152 153//152 158//152 123//152
f 126//153 159//153 157//153 122//153
f 120//153 156//153 159//153 126//153
f 94//142 149//142 148//142 34//142
f 101//154 147//154 155//154 146//154
f 146//155 155//155 152//155 141//155
