# MagicaVoxel @ Ephtracy

# group
o 

# material
mtllib Guy.mtl
usemtl palette

# normals
vn -1 0 0
vn 1 0 0
vn 0 0 1
vn 0 0 -1
vn 0 -1 0
vn 0 1 0

# texcoords
vt 0.00195313 0.5
vt 0.0332031 0.5
vt 0.0605469 0.5
vt 0.0644531 0.5
vt 0.0800781 0.5
vt 0.142578 0.5
vt 0.310547 0.5
vt 0.341797 0.5
vt 0.369141 0.5
vt 0.373047 0.5
vt 0.521484 0.5
vt 0.611328 0.5
vt 0.634766 0.5
vt 0.646484 0.5
vt 0.958984 0.5
vt 0.978516 0.5
vt 0.994141 0.5

# verts
v -0.4 0.4 0.2
v -0.4 0.4 0.1
v -0.4 0.5 0.2
v -0.4 0.5 0.1
v -0.4 0.5 -0.1
v -0.4 0.6 0.1
v -0.4 0.6 -0.1
v -0.4 1 0.2
v -0.4 1 -0.3
v -0.4 1.2 0.2
v -0.4 1.2 -0.3
v -0.3 0.3 0.2
v -0.3 0.3 -0.3
v -0.3 0.4 0.3
v -0.3 0.4 0.2
v -0.3 0.4 0.1
v -0.3 0.5 0.3
v -0.3 0.5 0.2
v -0.3 0.5 0.1
v -0.3 0.5 -0.1
v -0.3 0.5 -0.3
v -0.3 0.6 0.2
v -0.3 0.6 0.1
v -0.3 0.6 -0.1
v -0.3 0.6 -0.3
v -0.3 0.7 0.2
v -0.3 0.7 -0.1
v -0.3 0.7 -0.3
v -0.3 0.8 0
v -0.3 0.8 -0.1
v -0.3 0.9 0.1
v -0.3 0.9 0
v -0.3 1 0.3
v -0.3 1 0.2
v -0.3 1 0.1
v -0.3 1 -0.3
v -0.3 1 -0.4
v -0.3 1.2 0.3
v -0.3 1.2 0.2
v -0.3 1.2 -0.3
v -0.3 1.2 -0.4
v -0.3 1.3 0.2
v -0.3 1.3 -0.3
v -0.2 0 0.1
v -0.2 0 -0.1
v -0.2 0.1 0.1
v -0.2 0.1 0
v -0.2 0.1 -0.1
v -0.2 0.3 0
v -0.2 0.3 -0.1
v -0.2 1 0.4
v -0.2 1 0.3
v -0.2 1.1 0.4
v -0.2 1.1 0.3
v 0.1 0 0.1
v 0.1 0 -0.1
v 0.1 0.1 0.1
v 0.1 0.1 0
v 0.1 0.1 -0.1
v 0.1 0.3 0
v 0.1 0.3 -0.1
v 0.3 0.2 0
v 0.3 0.2 -0.1
v 0.3 0.3 0
v 0.3 0.3 -0.1
v -0.1 0 0.1
v -0.1 0 -0.1
v -0.1 0.1 0.1
v -0.1 0.1 0
v -0.1 0.1 -0.1
v -0.1 0.3 0
v -0.1 0.3 -0.1
v -0.1 0.4 0.3
v -0.1 0.4 0.2
v -0.1 0.5 0.3
v -0.1 0.5 0.2
v 0.2 0 0.1
v 0.2 0 -0.1
v 0.2 0.1 0.1
v 0.2 0.1 0
v 0.2 0.1 -0.1
v 0.2 0.3 0
v 0.2 0.3 -0.1
v 0.2 1 0.4
v 0.2 1 0.3
v 0.2 1.1 0.4
v 0.2 1.1 0.3
v 0.3 0.3 0.2
v 0.3 0.3 0
v 0.3 0.3 -0.1
v 0.3 0.3 -0.3
v 0.3 0.5 0.2
v 0.3 0.5 0
v 0.3 0.5 -0.2
v 0.3 0.5 -0.3
v 0.3 0.6 0.2
v 0.3 0.6 0
v 0.3 0.6 -0.1
v 0.3 0.6 -0.2
v 0.3 0.6 -0.3
v 0.3 0.7 0.2
v 0.3 0.7 -0.1
v 0.3 0.7 -0.3
v 0.3 0.8 0
v 0.3 0.8 -0.1
v 0.3 0.9 0.1
v 0.3 0.9 0
v 0.3 1 0.3
v 0.3 1 0.2
v 0.3 1 0.1
v 0.3 1 -0.3
v 0.3 1 -0.4
v 0.3 1.2 0.3
v 0.3 1.2 0.2
v 0.3 1.2 -0.3
v 0.3 1.2 -0.4
v 0.3 1.3 0.2
v 0.3 1.3 -0.3
v 0.4 0.2 0
v 0.4 0.2 -0.1
v 0.4 0.3 0
v 0.4 0.3 -0.1
v 0.4 0.6 0
v 0.4 0.6 -0.1
v 0.4 1 0.2
v 0.4 1 -0.3
v 0.4 1.2 0.2
v 0.4 1.2 -0.3
v -0.2 1 0.4
v -0.2 1.1 0.4
v 0.2 1 0.4
v 0.2 1.1 0.4
v -0.3 0.4 0.3
v -0.3 0.5 0.3
v -0.3 1 0.3
v -0.3 1.2 0.3
v -0.2 1 0.3
v -0.2 1.1 0.3
v -0.1 0.4 0.3
v -0.1 0.5 0.3
v 0.2 1 0.3
v 0.2 1.1 0.3
v 0.3 1 0.3
v 0.3 1.2 0.3
v -0.4 0.4 0.2
v -0.4 0.5 0.2
v -0.4 1 0.2
v -0.4 1.2 0.2
v -0.3 0.3 0.2
v -0.3 0.4 0.2
v -0.3 0.5 0.2
v -0.3 0.6 0.2
v -0.3 0.7 0.2
v -0.3 1 0.2
v -0.3 1.2 0.2
v -0.3 1.3 0.2
v -0.2 0.6 0.2
v -0.2 0.7 0.2
v -0.2 0.8 0.2
v -0.2 0.9 0.2
v -0.2 1 0.2
v -0.1 0.4 0.2
v -0.1 0.5 0.2
v -0.1 0.6 0.2
v -0.1 0.7 0.2
v -0.1 0.8 0.2
v -0.1 0.9 0.2
v -0.1 1 0.2
v 0.1 0.6 0.2
v 0.1 0.7 0.2
v 0.1 0.8 0.2
v 0.1 0.9 0.2
v 0.1 1 0.2
v 0.2 0.6 0.2
v 0.2 0.7 0.2
v 0.2 0.8 0.2
v 0.2 0.9 0.2
v 0.2 1 0.2
v 0.3 0.3 0.2
v 0.3 0.5 0.2
v 0.3 0.6 0.2
v 0.3 0.7 0.2
v 0.3 1 0.2
v 0.3 1.2 0.2
v 0.3 1.3 0.2
v 0.4 1 0.2
v 0.4 1.2 0.2
v -0.4 0.5 0.1
v -0.4 0.6 0.1
v -0.3 0.5 0.1
v -0.3 0.6 0.1
v -0.2 0 0.1
v -0.2 0.1 0.1
v -0.1 0 0.1
v -0.1 0.1 0.1
v 0.1 0 0.1
v 0.1 0.1 0.1
v 0.2 0 0.1
v 0.2 0.1 0.1
v -0.2 0.1 0
v -0.2 0.3 0
v -0.1 0.1 0
v -0.1 0.3 0
v 0.1 0.1 0
v 0.1 0.3 0
v 0.2 0.1 0
v 0.2 0.3 0
v 0.3 0.2 0
v 0.3 0.3 0
v 0.3 0.5 0
v 0.3 0.6 0
v 0.4 0.2 0
v 0.4 0.3 0
v 0.4 0.6 0
v -0.4 0.4 0.1
v -0.4 0.5 0.1
v -0.3 0.4 0.1
v -0.3 0.5 0.1
v -0.4 0.5 -0.1
v -0.4 0.6 -0.1
v -0.3 0.5 -0.1
v -0.3 0.6 -0.1
v -0.2 0 -0.1
v -0.2 0.1 -0.1
v -0.2 0.3 -0.1
v -0.1 0 -0.1
v -0.1 0.1 -0.1
v -0.1 0.3 -0.1
v 0.1 0 -0.1
v 0.1 0.1 -0.1
v 0.1 0.3 -0.1
v 0.2 0 -0.1
v 0.2 0.1 -0.1
v 0.2 0.3 -0.1
v 0.3 0.2 -0.1
v 0.3 0.3 -0.1
v 0.3 0.6 -0.1
v 0.4 0.2 -0.1
v 0.4 0.3 -0.1
v 0.4 0.6 -0.1
v -0.4 1 -0.3
v -0.4 1.2 -0.3
v -0.3 0.3 -0.3
v -0.3 0.5 -0.3
v -0.3 0.6 -0.3
v -0.3 0.7 -0.3
v -0.3 1 -0.3
v -0.3 1.2 -0.3
v -0.3 1.3 -0.3
v -0.2 0.4 -0.3
v -0.2 0.5 -0.3
v -0.1 0.3 -0.3
v -0.1 0.4 -0.3
v -0.1 0.5 -0.3
v 0.1 0.3 -0.3
v 0.1 0.4 -0.3
v 0.1 0.5 -0.3
v 0.2 0.4 -0.3
v 0.2 0.5 -0.3
v 0.3 0.3 -0.3
v 0.3 0.5 -0.3
v 0.3 0.6 -0.3
v 0.3 0.7 -0.3
v 0.3 1 -0.3
v 0.3 1.2 -0.3
v 0.3 1.3 -0.3
v 0.4 1 -0.3
v 0.4 1.2 -0.3
v -0.3 1 -0.4
v -0.3 1.2 -0.4
v 0.3 1 -0.4
v 0.3 1.2 -0.4
v -0.2 0 0.1
v -0.1 0 0.1
v 0.1 0 0.1
v 0.2 0 0.1
v -0.2 0 -0.1
v -0.1 0 -0.1
v 0.1 0 -0.1
v 0.2 0 -0.1
v 0.3 0.2 0
v 0.4 0.2 0
v 0.3 0.2 -0.1
v 0.4 0.2 -0.1
v -0.3 0.3 0.2
v 0.3 0.3 0.2
v -0.2 0.3 0
v -0.1 0.3 0
v 0.1 0.3 0
v 0.2 0.3 0
v 0.3 0.3 0
v -0.2 0.3 -0.1
v -0.1 0.3 -0.1
v 0.1 0.3 -0.1
v 0.2 0.3 -0.1
v 0.3 0.3 -0.1
v -0.1 0.3 -0.2
v 0.1 0.3 -0.2
v -0.3 0.3 -0.3
v -0.1 0.3 -0.3
v 0.1 0.3 -0.3
v 0.3 0.3 -0.3
v -0.3 0.4 0.3
v -0.1 0.4 0.3
v -0.4 0.4 0.2
v -0.3 0.4 0.2
v -0.1 0.4 0.2
v -0.4 0.4 0.1
v -0.3 0.4 0.1
v -0.4 0.5 0.1
v -0.3 0.5 0.1
v -0.4 0.5 -0.1
v -0.3 0.5 -0.1
v -0.2 1 0.4
v 0.2 1 0.4
v -0.3 1 0.3
v -0.2 1 0.3
v 0.2 1 0.3
v 0.3 1 0.3
v -0.4 1 0.2
v -0.3 1 0.2
v -0.2 1 0.2
v -0.1 1 0.2
v 0.1 1 0.2
v 0.2 1 0.2
v 0.3 1 0.2
v 0.4 1 0.2
v -0.3 1 0.1
v 0.3 1 0.1
v -0.4 1 -0.3
v -0.3 1 -0.3
v 0.3 1 -0.3
v 0.4 1 -0.3
v -0.3 1 -0.4
v 0.3 1 -0.4
v -0.2 0.1 0.1
v -0.1 0.1 0.1
v 0.1 0.1 0.1
v 0.2 0.1 0.1
v -0.2 0.1 0
v -0.1 0.1 0
v 0.1 0.1 0
v 0.2 0.1 0
v -0.3 0.5 0.3
v -0.1 0.5 0.3
v -0.4 0.5 0.2
v -0.3 0.5 0.2
v -0.1 0.5 0.2
v -0.4 0.5 0.1
v -0.3 0.5 0.1
v -0.4 0.6 0.1
v -0.3 0.6 0.1
v 0.3 0.6 0
v 0.4 0.6 0
v -0.4 0.6 -0.1
v -0.3 0.6 -0.1
v 0.3 0.6 -0.1
v 0.4 0.6 -0.1
v -0.2 1.1 0.4
v 0.2 1.1 0.4
v -0.2 1.1 0.3
v 0.2 1.1 0.3
v -0.3 1.2 0.3
v 0.3 1.2 0.3
v -0.4 1.2 0.2
v -0.3 1.2 0.2
v 0.3 1.2 0.2
v 0.4 1.2 0.2
v -0.4 1.2 -0.3
v -0.3 1.2 -0.3
v 0.3 1.2 -0.3
v 0.4 1.2 -0.3
v -0.3 1.2 -0.4
v 0.3 1.2 -0.4
v -0.3 1.3 0.2
v 0.3 1.3 0.2
v -0.3 1.3 -0.3
v 0.3 1.3 -0.3

# faces
f 3/8/1 2/8/1 1/8/1
f 4/8/1 2/8/1 3/8/1
f 6/8/1 5/8/1 4/8/1
f 7/8/1 5/8/1 6/8/1
f 10/9/1 9/9/1 8/9/1
f 11/9/1 9/9/1 10/9/1
f 15/7/1 13/7/1 12/7/1
f 16/7/1 13/7/1 15/7/1
f 17/3/1 15/3/1 14/3/1
f 18/3/1 15/3/1 17/3/1
f 19/7/1 13/7/1 16/7/1
f 20/7/1 13/7/1 19/7/1
f 21/7/1 13/7/1 20/7/1
f 22/16/1 19/16/1 18/16/1
f 23/16/1 19/16/1 22/16/1
f 24/16/1 21/16/1 20/16/1
f 25/16/1 21/16/1 24/16/1
f 26/8/1 23/8/1 22/8/1
f 26/8/1 24/8/1 23/8/1
f 26/8/1 25/8/1 24/8/1
f 27/8/1 25/8/1 26/8/1
f 28/8/1 25/8/1 27/8/1
f 29/4/1 27/4/1 26/4/1
f 30/2/1 28/2/1 27/2/1
f 30/4/1 27/4/1 29/4/1
f 31/4/1 29/4/1 26/4/1
f 32/2/1 30/2/1 29/2/1
f 32/4/1 29/4/1 31/4/1
f 34/4/1 31/4/1 26/4/1
f 35/2/1 32/2/1 31/2/1
f 35/4/1 31/4/1 34/4/1
f 36/2/1 28/2/1 30/2/1
f 36/2/1 32/2/1 35/2/1
f 36/2/1 30/2/1 32/2/1
f 38/9/1 34/9/1 33/9/1
f 39/9/1 34/9/1 38/9/1
f 40/9/1 37/9/1 36/9/1
f 41/9/1 37/9/1 40/9/1
f 42/9/1 40/9/1 39/9/1
f 43/9/1 40/9/1 42/9/1
f 46/10/1 45/10/1 44/10/1
f 47/10/1 45/10/1 46/10/1
f 48/10/1 45/10/1 47/10/1
f 49/7/1 48/7/1 47/7/1
f 50/7/1 48/7/1 49/7/1
f 53/9/1 52/9/1 51/9/1
f 54/9/1 52/9/1 53/9/1
f 57/10/1 56/10/1 55/10/1
f 58/10/1 56/10/1 57/10/1
f 59/10/1 56/10/1 58/10/1
f 60/7/1 59/7/1 58/7/1
f 61/7/1 59/7/1 60/7/1
f 64/3/1 63/3/1 62/3/1
f 65/3/1 63/3/1 64/3/1
f 66/10/2 67/10/2 68/10/2
f 68/10/2 67/10/2 69/10/2
f 69/10/2 67/10/2 70/10/2
f 69/7/2 70/7/2 71/7/2
f 71/7/2 70/7/2 72/7/2
f 73/3/2 74/3/2 75/3/2
f 75/3/2 74/3/2 76/3/2
f 77/10/2 78/10/2 79/10/2
f 79/10/2 78/10/2 80/10/2
f 80/10/2 78/10/2 81/10/2
f 80/7/2 81/7/2 82/7/2
f 82/7/2 81/7/2 83/7/2
f 84/9/2 85/9/2 86/9/2
f 86/9/2 85/9/2 87/9/2
f 88/7/2 89/7/2 92/7/2
f 92/7/2 89/7/2 93/7/2
f 90/7/2 91/7/2 94/7/2
f 94/7/2 91/7/2 95/7/2
f 92/16/2 93/16/2 96/16/2
f 96/16/2 93/16/2 97/16/2
f 90/7/2 94/7/2 98/7/2
f 94/16/2 95/16/2 99/16/2
f 98/7/2 94/7/2 99/7/2
f 99/16/2 95/16/2 100/16/2
f 96/8/2 97/8/2 101/8/2
f 97/8/2 98/8/2 101/8/2
f 99/8/2 100/8/2 101/8/2
f 98/8/2 99/8/2 101/8/2
f 101/8/2 100/8/2 102/8/2
f 102/8/2 100/8/2 103/8/2
f 101/4/2 102/4/2 104/4/2
f 102/2/2 103/2/2 105/2/2
f 104/4/2 102/4/2 105/4/2
f 101/4/2 104/4/2 106/4/2
f 104/2/2 105/2/2 107/2/2
f 106/4/2 104/4/2 107/4/2
f 101/4/2 106/4/2 109/4/2
f 106/2/2 107/2/2 110/2/2
f 109/4/2 106/4/2 110/4/2
f 105/2/2 103/2/2 111/2/2
f 110/2/2 107/2/2 111/2/2
f 107/2/2 105/2/2 111/2/2
f 108/9/2 109/9/2 113/9/2
f 113/9/2 109/9/2 114/9/2
f 111/9/2 112/9/2 115/9/2
f 115/9/2 112/9/2 116/9/2
f 114/9/2 115/9/2 117/9/2
f 117/9/2 115/9/2 118/9/2
f 119/3/2 120/3/2 121/3/2
f 121/3/2 120/3/2 122/3/2
f 121/8/2 122/8/2 123/8/2
f 123/8/2 122/8/2 124/8/2
f 125/9/2 126/9/2 127/9/2
f 127/9/2 126/9/2 128/9/2
f 131/9/3 130/9/3 129/9/3
f 132/9/3 130/9/3 131/9/3
f 137/9/3 136/9/3 135/9/3
f 138/9/3 136/9/3 137/9/3
f 139/3/3 134/3/3 133/3/3
f 140/3/3 134/3/3 139/3/3
f 142/9/3 136/9/3 138/9/3
f 143/9/3 142/9/3 141/9/3
f 144/9/3 136/9/3 142/9/3
f 144/9/3 142/9/3 143/9/3
f 150/8/3 146/8/3 145/8/3
f 151/8/3 146/8/3 150/8/3
f 154/9/3 148/9/3 147/9/3
f 155/9/3 148/9/3 154/9/3
f 157/8/3 153/8/3 152/8/3
f 157/16/3 152/16/3 151/16/3
f 158/4/3 154/4/3 153/4/3
f 158/8/3 153/8/3 157/8/3
f 159/4/3 154/4/3 158/4/3
f 160/4/3 154/4/3 159/4/3
f 161/4/3 154/4/3 160/4/3
f 162/7/3 150/7/3 149/7/3
f 163/16/3 157/16/3 151/16/3
f 163/16/3 158/16/3 157/16/3
f 164/16/3 158/16/3 163/16/3
f 165/4/3 159/4/3 158/4/3
f 165/16/3 158/16/3 164/16/3
f 166/17/3 160/17/3 159/17/3
f 166/4/3 159/4/3 165/4/3
f 167/5/3 161/5/3 160/5/3
f 167/17/3 160/17/3 166/17/3
f 168/5/3 161/5/3 167/5/3
f 169/16/3 164/16/3 163/16/3
f 169/7/3 165/7/3 164/7/3
f 170/4/3 166/4/3 165/4/3
f 170/7/3 165/7/3 169/7/3
f 171/2/3 168/2/3 167/2/3
f 171/4/3 166/4/3 170/4/3
f 171/2/3 167/2/3 166/2/3
f 172/2/3 168/2/3 171/2/3
f 173/2/3 168/2/3 172/2/3
f 174/16/3 169/16/3 163/16/3
f 174/16/3 170/16/3 169/16/3
f 175/4/3 171/4/3 170/4/3
f 175/16/3 170/16/3 174/16/3
f 176/17/3 172/17/3 171/17/3
f 176/4/3 171/4/3 175/4/3
f 177/5/3 173/5/3 172/5/3
f 177/17/3 172/17/3 176/17/3
f 178/5/3 173/5/3 177/5/3
f 179/7/3 162/7/3 149/7/3
f 179/7/3 163/7/3 162/7/3
f 180/16/3 174/16/3 163/16/3
f 180/7/3 163/7/3 179/7/3
f 181/8/3 175/8/3 174/8/3
f 181/16/3 174/16/3 180/16/3
f 182/4/3 176/4/3 175/4/3
f 182/8/3 175/8/3 181/8/3
f 182/4/3 178/4/3 177/4/3
f 182/4/3 177/4/3 176/4/3
f 183/4/3 178/4/3 182/4/3
f 184/9/3 156/9/3 155/9/3
f 185/9/3 156/9/3 184/9/3
f 186/9/3 184/9/3 183/9/3
f 187/9/3 184/9/3 186/9/3
f 190/8/3 189/8/3 188/8/3
f 191/8/3 189/8/3 190/8/3
f 194/10/3 193/10/3 192/10/3
f 195/10/3 193/10/3 194/10/3
f 198/10/3 197/10/3 196/10/3
f 199/10/3 197/10/3 198/10/3
f 202/7/3 201/7/3 200/7/3
f 203/7/3 201/7/3 202/7/3
f 206/7/3 205/7/3 204/7/3
f 207/7/3 205/7/3 206/7/3
f 212/3/3 209/3/3 208/3/3
f 213/8/3 211/8/3 210/8/3
f 213/3/3 209/3/3 212/3/3
f 213/8/3 210/8/3 209/8/3
f 214/8/3 211/8/3 213/8/3
f 215/8/4 216/8/4 217/8/4
f 217/8/4 216/8/4 218/8/4
f 219/8/4 220/8/4 221/8/4
f 221/8/4 220/8/4 222/8/4
f 223/10/4 224/10/4 226/10/4
f 224/7/4 225/7/4 227/7/4
f 226/10/4 224/10/4 227/10/4
f 227/7/4 225/7/4 228/7/4
f 229/10/4 230/10/4 232/10/4
f 230/7/4 231/7/4 233/7/4
f 232/10/4 230/10/4 233/10/4
f 233/7/4 231/7/4 234/7/4
f 235/3/4 236/3/4 238/3/4
f 236/8/4 237/8/4 239/8/4
f 238/3/4 236/3/4 239/3/4
f 239/8/4 237/8/4 240/8/4
f 241/9/4 242/9/4 247/9/4
f 247/9/4 242/9/4 248/9/4
f 243/7/4 244/7/4 250/7/4
f 244/16/4 245/16/4 251/16/4
f 250/7/4 244/7/4 251/7/4
f 243/7/4 250/7/4 252/7/4
f 250/8/4 251/8/4 253/8/4
f 252/7/4 250/7/4 253/7/4
f 251/16/4 245/16/4 254/16/4
f 253/8/4 251/8/4 254/8/4
f 252/8/4 253/8/4 255/8/4
f 253/7/4 254/7/4 256/7/4
f 255/8/4 253/8/4 256/8/4
f 254/16/4 245/16/4 257/16/4
f 256/7/4 254/7/4 257/7/4
f 255/7/4 256/7/4 258/7/4
f 256/8/4 257/8/4 258/8/4
f 257/16/4 245/16/4 259/16/4
f 258/8/4 257/8/4 259/8/4
f 255/7/4 258/7/4 260/7/4
f 258/7/4 259/7/4 260/7/4
f 259/16/4 245/16/4 261/16/4
f 260/7/4 259/7/4 261/7/4
f 245/8/4 246/8/4 262/8/4
f 261/16/4 245/16/4 262/16/4
f 246/2/4 247/2/4 263/2/4
f 262/8/4 246/8/4 263/8/4
f 263/2/4 247/2/4 264/2/4
f 248/9/4 249/9/4 265/9/4
f 265/9/4 249/9/4 266/9/4
f 264/9/4 265/9/4 267/9/4
f 267/9/4 265/9/4 268/9/4
f 269/9/4 270/9/4 271/9/4
f 271/9/4 270/9/4 272/9/4
f 277/10/5 274/10/5 273/10/5
f 278/10/5 274/10/5 277/10/5
f 279/10/5 276/10/5 275/10/5
f 280/10/5 276/10/5 279/10/5
f 283/3/5 282/3/5 281/3/5
f 284/3/5 282/3/5 283/3/5
f 287/7/5 286/7/5 285/7/5
f 288/7/5 286/7/5 287/7/5
f 289/7/5 286/7/5 288/7/5
f 290/7/5 286/7/5 289/7/5
f 291/7/5 286/7/5 290/7/5
f 292/7/5 287/7/5 285/7/5
f 293/7/5 289/7/5 288/7/5
f 294/7/5 289/7/5 293/7/5
f 295/7/5 291/7/5 290/7/5
f 296/7/5 291/7/5 295/7/5
f 297/7/5 294/7/5 293/7/5
f 297/7/5 293/7/5 292/7/5
f 297/7/5 296/7/5 295/7/5
f 297/7/5 295/7/5 294/7/5
f 298/7/5 296/7/5 297/7/5
f 299/7/5 292/7/5 285/7/5
f 299/7/5 297/7/5 292/7/5
f 300/8/5 298/8/5 297/8/5
f 300/7/5 297/7/5 299/7/5
f 301/7/5 296/7/5 298/7/5
f 301/8/5 298/8/5 300/8/5
f 302/7/5 296/7/5 301/7/5
f 306/3/5 304/3/5 303/3/5
f 307/3/5 304/3/5 306/3/5
f 308/8/5 306/8/5 305/8/5
f 309/8/5 306/8/5 308/8/5
f 312/8/5 311/8/5 310/8/5
f 313/8/5 311/8/5 312/8/5
f 317/9/5 315/9/5 314/9/5
f 318/9/5 315/9/5 317/9/5
f 321/9/5 317/9/5 316/9/5
f 321/9/5 319/9/5 318/9/5
f 321/9/5 318/9/5 317/9/5
f 322/9/5 319/9/5 321/9/5
f 323/9/5 319/9/5 322/9/5
f 324/9/5 319/9/5 323/9/5
f 325/9/5 319/9/5 324/9/5
f 326/9/5 319/9/5 325/9/5
f 328/9/5 321/9/5 320/9/5
f 329/9/5 327/9/5 326/9/5
f 330/9/5 328/9/5 320/9/5
f 331/9/5 328/9/5 330/9/5
f 332/9/5 327/9/5 329/9/5
f 333/9/5 327/9/5 332/9/5
f 334/9/5 332/9/5 331/9/5
f 335/9/5 332/9/5 334/9/5
f 336/10/6 337/10/6 340/10/6
f 340/10/6 337/10/6 341/10/6
f 338/10/6 339/10/6 342/10/6
f 342/10/6 339/10/6 343/10/6
f 344/3/6 345/3/6 347/3/6
f 347/3/6 345/3/6 348/3/6
f 346/8/6 347/8/6 349/8/6
f 349/8/6 347/8/6 350/8/6
f 351/8/6 352/8/6 355/8/6
f 355/8/6 352/8/6 356/8/6
f 353/8/6 354/8/6 357/8/6
f 357/8/6 354/8/6 358/8/6
f 359/9/6 360/9/6 361/9/6
f 361/9/6 360/9/6 362/9/6
f 363/9/6 364/9/6 366/9/6
f 366/9/6 364/9/6 367/9/6
f 365/9/6 366/9/6 369/9/6
f 369/9/6 366/9/6 370/9/6
f 367/9/6 368/9/6 371/9/6
f 371/9/6 368/9/6 372/9/6
f 370/9/6 371/9/6 373/9/6
f 373/9/6 371/9/6 374/9/6
f 375/9/6 376/9/6 377/9/6
f 377/9/6 376/9/6 378/9/6
