# Blender v2.79 (sub 0) OBJ File: ''
# www.blender.org
mtllib raindroplet.mtl
o Cube_Cube.001
v -0.052436 -0.499308 0.052436
v -0.052436 0.499308 0.052436
v -0.052436 -0.499308 -0.052436
v -0.052436 0.499308 -0.052436
v 0.052436 -0.499308 0.052436
v 0.052436 0.499308 0.052436
v 0.052436 -0.499308 -0.052436
v 0.052436 0.499308 -0.052436
v -0.102339 -0.148519 0.102339
v -0.102339 -0.148519 -0.102339
v 0.102339 -0.148519 -0.102339
v 0.102339 -0.148519 0.102339
vn -0.9970 0.0768 0.0000
vn 0.0000 0.0768 -0.9970
vn 0.9970 0.0768 0.0000
vn 0.0000 0.0768 0.9970
vn 0.0000 -1.0000 0.0000
vn 0.0000 1.0000 0.0000
vn 0.0000 -0.1408 0.9900
vn 0.9900 -0.1408 0.0000
vn 0.0000 -0.1408 -0.9900
vn -0.9900 -0.1408 0.0000
usemtl None
s off
f 9//1 2//1 4//1 10//1
f 10//2 4//2 8//2 11//2
f 11//3 8//3 6//3 12//3
f 12//4 6//4 2//4 9//4
f 3//5 7//5 5//5 1//5
f 8//6 4//6 2//6 6//6
f 5//7 12//7 9//7 1//7
f 7//8 11//8 12//8 5//8
f 3//9 10//9 11//9 7//9
f 1//10 9//10 10//10 3//10
