# Blender v2.79 (sub 0) OBJ File: 'corner ground.blend'
# www.blender.org
mtllib test.mtl
o Cube
v 4.000000 0.000000 -3.000000
v 4.000000 0.000000 3.000000
v -4.000000 0.000000 3.000000
v -3.999999 0.000000 -3.000001
v 4.000002 4.000000 -2.999998
v 3.999997 4.000000 3.000002
v -4.000001 4.000000 2.999999
v -4.000000 4.000000 -3.000000
v 4.000000 0.000000 0.000000
v 0.000001 0.000000 -3.000000
v 4.000001 2.000000 -2.999999
v 0.000000 0.000000 3.000000
v 3.999999 2.000000 3.000001
v -4.000000 0.000000 -0.000001
v -4.000001 2.000000 2.999999
v -3.999999 2.000000 -3.000001
v 4.000000 4.000000 0.000002
v 0.000001 4.000000 -2.999999
v -0.000002 4.000000 3.000000
v -4.000000 4.000000 -0.000001
v 0.000001 2.000000 -3.000000
v -4.000000 2.000000 -0.000001
v -0.000001 2.000000 3.000000
v 4.000000 2.000000 0.000001
v -0.000001 4.000000 0.000001
v 0.000000 0.000000 -0.000000
v 4.000000 0.000000 1.500000
v -1.999999 0.000000 -3.000001
v 4.000001 3.000000 -2.999999
v -2.000000 0.000000 3.000000
v 3.999998 3.000000 3.000001
v -3.999999 0.000000 -1.500001
v -4.000001 3.000000 2.999999
v -4.000000 3.000000 -3.000000
v 3.999999 4.000000 1.500002
v -2.000000 4.000000 -3.000000
v -2.000002 4.000000 3.000000
v -4.000000 4.000000 -1.500000
v 4.000000 0.000000 -1.500000
v 2.000000 0.000000 -3.000000
v 4.000000 1.000000 -3.000000
v 2.000000 0.000000 3.000000
v 3.999999 1.000000 3.000000
v -4.000000 0.000000 1.499999
v -4.000001 1.000000 2.999999
v -3.999999 1.000000 -3.000001
v 4.000001 4.000000 -1.499998
v 2.000001 4.000000 -2.999999
v 1.999998 4.000000 3.000001
v -4.000001 4.000000 1.499999
v -1.999999 2.000000 -3.000000
v 2.000001 2.000000 -3.000000
v 0.000001 3.000000 -3.000000
v 0.000001 1.000000 -3.000000
v -4.000000 2.000000 -1.500001
v -4.000000 2.000000 1.499999
v -4.000000 1.000000 -0.000001
v -4.000000 3.000000 -0.000001
v -4.000002 3.000000 6.999999
v 1.999999 2.000000 3.000000
v -0.000001 1.000000 3.000000
v -0.000002 3.000000 3.000000
v 3.999999 2.000000 1.500001
v 4.000000 2.000000 -1.499999
v 4.000000 1.000000 0.000001
v 4.000000 3.000000 0.000001
v -0.000001 4.000000 1.500000
v 0.000000 4.000000 -1.499999
v 1.999999 4.000000 0.000001
v -2.000000 4.000000 0.000000
v -2.000000 0.000000 -0.000001
v 2.000000 0.000000 -0.000000
v 0.000000 0.000000 -1.500000
v 0.000000 0.000000 1.500000
v 2.000000 0.000000 1.500000
v 2.000000 0.000000 -1.500000
v -1.999999 0.000000 -1.500001
v -2.000000 4.000000 -1.500000
v 2.000000 4.000000 -1.499999
v 1.999999 4.000000 1.500001
v 4.000000 3.000000 -1.499999
v 4.000000 1.000000 -1.500000
v 4.000000 1.000000 1.500000
v 1.999998 3.000000 3.000001
v 1.999999 1.000000 3.000000
v -4.000001 0.000000 7.000000
v -4.000000 3.000000 1.499999
v -4.000000 1.000000 1.499999
v -3.999999 1.000000 -1.500001
v 2.000001 1.000000 -3.000000
v 2.000001 3.000000 -2.999999
v -1.999999 3.000000 -3.000000
v -1.999999 1.000000 -3.000000
v -4.000000 3.000000 -1.500000
v -2.000001 0.000000 7.000000
v 3.999999 3.000000 1.500001
v -2.000001 4.000000 1.500000
v -2.000000 0.000000 1.500000
v -2.000001 0.000000 5.000000
v -4.000001 0.000000 5.000000
v -4.000001 3.000000 4.999999
v -4.000002 4.000000 4.999999
v -2.000002 4.000000 5.000000
v -4.000001 1.000000 5.000000
v -4.000001 2.000000 5.000000
v -0.000001 1.000000 5.000000
v -0.000000 0.000000 5.000000
v -0.000002 3.000000 5.000000
v -0.000002 2.000000 5.000000
v -0.000003 4.000000 5.000000
v -4.000002 4.000000 6.999999
v -2.000003 4.000000 7.000000
v -4.000002 1.000000 7.000000
v -4.000002 2.000000 7.000000
v -2.000002 2.000000 7.000000
v -0.000001 1.000000 7.000000
v -0.000001 0.000000 7.000000
v -0.000002 3.000000 7.000000
v -0.000002 2.000000 7.000000
v -0.000003 4.000000 7.000000
v -2.000002 1.000000 7.000000
v -2.000002 3.000000 7.000000
vn 0.0000 -1.0000 0.0000
vn 0.0000 1.0000 0.0000
vn 1.0000 0.0000 0.0000
vn -1.0000 0.0000 -0.0000
vn 0.0000 0.0000 -1.0000
vn -0.0000 -0.0000 1.0000
usemtl Material
s off
f 98//1 30//1 3//1 44//1
f 97//2 50//2 7//2 37//2
f 96//3 35//3 6//3 31//3
f 15//4 45//4 104//4 105//4
f 94//4 38//4 8//4 34//4
f 93//5 28//5 4//5 46//5
f 92//5 51//5 16//5 34//5
f 91//5 52//5 21//5 53//5
f 90//5 40//5 10//5 54//5
f 89//4 55//4 16//4 46//4
f 88//4 56//4 22//4 57//4
f 87//4 50//4 20//4 58//4
f 61//3 23//3 109//3 106//3
f 85//6 60//6 23//6 61//6
f 84//6 49//6 19//6 62//6
f 83//3 63//3 13//3 43//3
f 82//3 64//3 24//3 65//3
f 81//3 47//3 17//3 66//3
f 80//2 67//2 19//2 49//2
f 79//2 68//2 25//2 69//2
f 78//2 38//2 20//2 70//2
f 77//1 71//1 14//1 32//1
f 76//1 72//1 26//1 73//1
f 75//1 42//1 12//1 74//1
f 72//1 75//1 74//1 26//1
f 9//1 27//1 75//1 72//1
f 27//1 2//1 42//1 75//1
f 40//1 76//1 73//1 10//1
f 1//1 39//1 76//1 40//1
f 39//1 9//1 72//1 76//1
f 28//1 77//1 32//1 4//1
f 10//1 73//1 77//1 28//1
f 73//1 26//1 71//1 77//1
f 68//2 78//2 70//2 25//2
f 18//2 36//2 78//2 68//2
f 36//2 8//2 38//2 78//2
f 47//2 79//2 69//2 17//2
f 5//2 48//2 79//2 47//2
f 48//2 18//2 68//2 79//2
f 35//2 80//2 49//2 6//2
f 17//2 69//2 80//2 35//2
f 69//2 25//2 67//2 80//2
f 64//3 81//3 66//3 24//3
f 11//3 29//3 81//3 64//3
f 29//3 5//3 47//3 81//3
f 39//3 82//3 65//3 9//3
f 1//3 41//3 82//3 39//3
f 41//3 11//3 64//3 82//3
f 27//3 83//3 43//3 2//3
f 9//3 65//3 83//3 27//3
f 65//3 24//3 63//3 83//3
f 60//6 84//6 62//6 23//6
f 13//6 31//6 84//6 60//6
f 31//6 6//6 49//6 84//6
f 42//6 85//6 61//6 12//6
f 2//6 43//6 85//6 42//6
f 43//6 13//6 60//6 85//6
f 19//2 37//2 103//2 110//2
f 12//3 61//3 106//3 107//3
f 30//1 12//1 107//1 99//1
f 56//4 87//4 58//4 22//4
f 15//4 33//4 87//4 56//4
f 33//4 7//4 50//4 87//4
f 44//4 88//4 57//4 14//4
f 3//4 45//4 88//4 44//4
f 45//4 15//4 56//4 88//4
f 32//4 89//4 46//4 4//4
f 14//4 57//4 89//4 32//4
f 57//4 22//4 55//4 89//4
f 52//5 90//5 54//5 21//5
f 11//5 41//5 90//5 52//5
f 41//5 1//5 40//5 90//5
f 48//5 91//5 53//5 18//5
f 5//5 29//5 91//5 48//5
f 29//5 11//5 52//5 91//5
f 36//5 92//5 34//5 8//5
f 18//5 53//5 92//5 36//5
f 53//5 21//5 51//5 92//5
f 51//5 93//5 46//5 16//5
f 21//5 54//5 93//5 51//5
f 54//5 10//5 28//5 93//5
f 55//4 94//4 34//4 16//4
f 22//4 58//4 94//4 55//4
f 58//4 20//4 38//4 94//4
f 37//2 7//2 102//2 103//2
f 33//4 15//4 105//4 101//4
f 3//1 30//1 99//1 100//1
f 63//3 96//3 31//3 13//3
f 24//3 66//3 96//3 63//3
f 66//3 17//3 35//3 96//3
f 67//2 97//2 37//2 19//2
f 25//2 70//2 97//2 67//2
f 70//2 20//2 50//2 97//2
f 71//1 98//1 44//1 14//1
f 26//1 74//1 98//1 71//1
f 74//1 12//1 30//1 98//1
f 105//4 104//4 113//4 114//4
f 108//3 110//3 120//3 118//3
f 109//3 108//3 118//3 119//3
f 110//2 103//2 112//2 120//2
f 103//2 102//2 111//2 112//2
f 106//3 109//3 119//3 116//3
f 107//3 106//3 116//3 117//3
f 101//4 105//4 114//4 59//4
f 23//3 62//3 108//3 109//3
f 62//3 19//3 110//3 108//3
f 45//4 3//4 100//4 104//4
f 7//4 33//4 101//4 102//4
f 122//6 112//6 111//6 59//6
f 121//6 115//6 114//6 113//6
f 95//6 121//6 113//6 86//6
f 117//6 116//6 121//6 95//6
f 116//6 119//6 115//6 121//6
f 115//6 122//6 59//6 114//6
f 119//6 118//6 122//6 115//6
f 118//6 120//6 112//6 122//6
f 104//4 100//4 86//4 113//4
f 100//1 99//1 95//1 86//1
f 99//1 107//1 117//1 95//1
f 102//4 101//4 59//4 111//4
