# Blender v3.0.0 OBJ File: 'tile_lvl8.blend'
# www.blender.org
mtllib Tile Level 9 Blades.mtl
o Cylinder
v 0.000000 0.258078 -0.229574
v 0.000000 0.341923 -0.229574
v 0.198817 0.258078 -0.114787
v 0.198817 0.341923 -0.114787
v 0.198817 0.258078 0.114787
v 0.198817 0.341923 0.114787
v -0.000000 0.258078 0.229574
v -0.000000 0.341923 0.229574
v -0.198817 0.258078 0.114787
v -0.198817 0.341923 0.114787
v -0.198817 0.258078 -0.114787
v -0.198817 0.341923 -0.114787
v 0.172552 0.277983 -0.413905
v 0.172552 0.322017 -0.413905
v 0.272176 0.322017 -0.356387
v 0.272176 0.277983 -0.356387
v 0.444728 0.277983 -0.057517
v 0.444728 0.322017 -0.057517
v 0.444728 0.322017 0.057518
v 0.444728 0.277983 0.057518
v 0.272176 0.277983 0.356387
v 0.272176 0.322017 0.356387
v 0.172552 0.322017 0.413905
v 0.172552 0.277983 0.413905
v -0.172553 0.277983 0.413904
v -0.172553 0.322017 0.413904
v -0.272176 0.322017 0.356387
v -0.272176 0.277983 0.356387
v -0.444728 0.277983 0.057517
v -0.444728 0.322017 0.057517
v -0.444728 0.322017 -0.057517
v -0.444728 0.277983 -0.057517
v -0.272176 0.277983 -0.356387
v -0.272176 0.322017 -0.356387
v -0.172553 0.322017 -0.413905
v -0.172553 0.277983 -0.413905
v 0.325165 0.277983 -0.678237
v 0.325165 0.322017 -0.678237
v 0.424788 0.322017 -0.620719
v 0.424788 0.277983 -0.620719
v 0.749953 0.277983 -0.057517
v 0.749953 0.322017 -0.057517
v 0.749953 0.322017 0.057518
v 0.749953 0.277983 0.057518
v 0.424788 0.277983 0.620719
v 0.424788 0.322017 0.620719
v 0.325165 0.322017 0.678237
v 0.325165 0.277983 0.678237
v -0.325165 0.277983 0.678237
v -0.325165 0.322017 0.678237
v -0.424788 0.322017 0.620719
v -0.424788 0.277983 0.620719
v -0.749953 0.277983 0.057517
v -0.749953 0.322017 0.057517
v -0.749953 0.322017 -0.057517
v -0.749953 0.277983 -0.057517
v -0.424788 0.277983 -0.620719
v -0.424788 0.322017 -0.620719
v -0.325165 0.322017 -0.678237
v -0.325165 0.277983 -0.678237
v 0.000000 0.258078 -0.229574
v 0.000000 0.258078 -0.229574
v 0.000000 0.341923 -0.229574
v 0.000000 0.341923 -0.229574
v 0.198817 0.341923 -0.114787
v 0.198817 0.341923 -0.114787
v 0.198817 0.258078 -0.114787
v 0.198817 0.258078 -0.114787
v 0.198817 0.341923 0.114787
v 0.198817 0.341923 0.114787
v 0.198817 0.258078 0.114787
v 0.198817 0.258078 0.114787
v -0.000000 0.341923 0.229574
v -0.000000 0.341923 0.229574
v -0.000000 0.258078 0.229574
v -0.000000 0.258078 0.229574
v -0.198817 0.341923 0.114787
v -0.198817 0.341923 0.114787
v -0.198817 0.258078 0.114787
v -0.198817 0.258078 0.114787
v -0.198817 0.341923 -0.114787
v -0.198817 0.341923 -0.114787
v -0.198817 0.258078 -0.114787
v -0.198817 0.258078 -0.114787
v 0.172552 0.322017 -0.413905
v 0.172552 0.277983 -0.413905
v 0.272176 0.322017 -0.356387
v 0.272176 0.277983 -0.356387
v 0.444728 0.322017 -0.057517
v 0.444728 0.277983 -0.057517
v 0.444728 0.322017 0.057518
v 0.444728 0.277983 0.057518
v 0.272176 0.322017 0.356387
v 0.272176 0.277983 0.356387
v 0.172552 0.322017 0.413905
v 0.172552 0.277983 0.413905
v -0.172553 0.322017 0.413904
v -0.172553 0.277983 0.413904
v -0.272176 0.322017 0.356387
v -0.272176 0.277983 0.356387
v -0.444728 0.322017 0.057517
v -0.444728 0.277983 0.057517
v -0.444728 0.322017 -0.057517
v -0.444728 0.277983 -0.057517
v -0.272176 0.322017 -0.356387
v -0.272176 0.277983 -0.356387
v -0.172553 0.322017 -0.413905
v -0.172553 0.277983 -0.413905
v 0.325165 0.322017 -0.678237
v 0.325165 0.322017 -0.678237
v 0.325165 0.277983 -0.678237
v 0.325165 0.277983 -0.678237
v 0.424788 0.322017 -0.620719
v 0.424788 0.322017 -0.620719
v 0.424788 0.277983 -0.620719
v 0.424788 0.277983 -0.620719
v 0.749953 0.322017 -0.057517
v 0.749953 0.322017 -0.057517
v 0.749953 0.277983 -0.057517
v 0.749953 0.277983 -0.057517
v 0.749953 0.322017 0.057518
v 0.749953 0.322017 0.057518
v 0.749953 0.277983 0.057518
v 0.749953 0.277983 0.057518
v 0.424788 0.322017 0.620719
v 0.424788 0.322017 0.620719
v 0.424788 0.277983 0.620719
v 0.424788 0.277983 0.620719
v 0.325165 0.322017 0.678237
v 0.325165 0.322017 0.678237
v 0.325165 0.277983 0.678237
v 0.325165 0.277983 0.678237
v -0.325165 0.322017 0.678237
v -0.325165 0.322017 0.678237
v -0.325165 0.277983 0.678237
v -0.325165 0.277983 0.678237
v -0.424788 0.322017 0.620719
v -0.424788 0.322017 0.620719
v -0.424788 0.277983 0.620719
v -0.424788 0.277983 0.620719
v -0.749953 0.322017 0.057517
v -0.749953 0.322017 0.057517
v -0.749953 0.277983 0.057517
v -0.749953 0.277983 0.057517
v -0.749953 0.322017 -0.057517
v -0.749953 0.322017 -0.057517
v -0.749953 0.277983 -0.057517
v -0.749953 0.277983 -0.057517
v -0.424788 0.322017 -0.620719
v -0.424788 0.322017 -0.620719
v -0.424788 0.277983 -0.620719
v -0.424788 0.277983 -0.620719
v -0.325165 0.322017 -0.678237
v -0.325165 0.322017 -0.678237
v -0.325165 0.277983 -0.678237
v -0.325165 0.277983 -0.678237
vt 0.400945 0.239890
vt 0.373157 0.239890
vt 0.345369 0.239890
vt 0.345369 0.239890
vt 0.373157 0.239890
vt 0.400945 0.239890
vt 0.373157 0.035530
vt 0.400945 0.035530
vt 0.400945 0.035532
vt 0.373157 0.035532
vt 0.345369 0.035532
vt 0.345369 0.035530
vt 0.373157 0.239890
vt 0.397274 0.191373
vt 0.397274 0.084047
vt 0.373157 0.035530
vt 0.411198 0.191373
vt 0.397274 0.191373
vt 0.400945 0.035530
vt 0.411198 0.084047
vt 0.411198 0.191373
vt 0.400945 0.239890
vt 0.397274 0.084047
vt 0.411198 0.084047
vt 0.400945 0.239890
vt 0.435315 0.191373
vt 0.435315 0.084047
vt 0.400945 0.035530
vt 0.435315 0.191373
vt 0.435315 0.191373
vt 0.400945 0.035532
vt 0.435315 0.084047
vt 0.435315 0.191373
vt 0.400945 0.239890
vt 0.435315 0.084047
vt 0.435315 0.084047
vt 0.400945 0.239890
vt 0.411198 0.191373
vt 0.411198 0.084047
vt 0.400945 0.035532
vt 0.397274 0.191373
vt 0.411198 0.191373
vt 0.373157 0.035532
vt 0.397274 0.084047
vt 0.397274 0.191373
vt 0.373157 0.239890
vt 0.411198 0.084047
vt 0.397274 0.084047
vt 0.373157 0.239890
vt 0.349040 0.191373
vt 0.349040 0.084047
vt 0.373157 0.035532
vt 0.335116 0.191373
vt 0.349040 0.191373
vt 0.345369 0.035532
vt 0.335116 0.084047
vt 0.335116 0.191373
vt 0.345369 0.239890
vt 0.349040 0.084047
vt 0.335116 0.084047
vt 0.345369 0.239890
vt 0.310998 0.191373
vt 0.310998 0.084047
vt 0.345369 0.035532
vt 0.310998 0.191373
vt 0.310998 0.191373
vt 0.345369 0.035530
vt 0.310998 0.084047
vt 0.310998 0.191373
vt 0.345369 0.239890
vt 0.310998 0.084047
vt 0.310998 0.084047
vt 0.345369 0.239890
vt 0.335116 0.191373
vt 0.335116 0.084047
vt 0.345369 0.035530
vt 0.349040 0.191373
vt 0.335116 0.191373
vt 0.373157 0.035530
vt 0.349040 0.084047
vt 0.349040 0.191373
vt 0.373157 0.239890
vt 0.335116 0.084047
vt 0.349040 0.084047
vt 0.418604 0.084047
vt 0.418604 0.191373
vt 0.432528 0.191373
vt 0.432528 0.084047
vt 0.418604 0.191373
vt 0.418604 0.084047
vt 0.432528 0.191373
vt 0.418604 0.191373
vt 0.432528 0.084047
vt 0.432528 0.191373
vt 0.418604 0.084047
vt 0.432528 0.084047
vt 0.477975 0.084047
vt 0.477975 0.191373
vt 0.477975 0.191373
vt 0.477975 0.084047
vt 0.477975 0.191373
vt 0.477975 0.084047
vt 0.477975 0.191373
vt 0.477975 0.191373
vt 0.477975 0.084047
vt 0.477975 0.191373
vt 0.477975 0.084047
vt 0.477975 0.084047
vt 0.432528 0.084049
vt 0.432528 0.191373
vt 0.418604 0.191373
vt 0.418604 0.084049
vt 0.432528 0.191373
vt 0.432528 0.084049
vt 0.418604 0.191373
vt 0.432528 0.191373
vt 0.418604 0.084049
vt 0.418604 0.191373
vt 0.432528 0.084049
vt 0.418604 0.084049
vt 0.327709 0.084049
vt 0.327709 0.191373
vt 0.313785 0.191373
vt 0.313785 0.084049
vt 0.327709 0.191373
vt 0.327709 0.084049
vt 0.313785 0.191373
vt 0.327709 0.191373
vt 0.313785 0.084049
vt 0.313785 0.191373
vt 0.327709 0.084049
vt 0.313785 0.084049
vt 0.268338 0.084047
vt 0.268338 0.191373
vt 0.268338 0.191373
vt 0.268338 0.084047
vt 0.268338 0.191373
vt 0.268338 0.084047
vt 0.268338 0.191373
vt 0.268338 0.191373
vt 0.268338 0.084047
vt 0.268338 0.191373
vt 0.268338 0.084047
vt 0.268338 0.084047
vt 0.313785 0.084047
vt 0.313785 0.191373
vt 0.327709 0.191373
vt 0.327709 0.084047
vt 0.313785 0.191373
vt 0.313785 0.084047
vt 0.327709 0.191373
vt 0.313785 0.191373
vt 0.327709 0.084047
vt 0.327709 0.191373
vt 0.313785 0.084047
vt 0.327709 0.084047
vn 0.0340 0.9992 -0.0196
vn 0.0000 0.9992 -0.0393
vn -0.0340 0.9992 -0.0196
vn -0.0340 0.9992 0.0196
vn 0.0000 0.9992 0.0393
vn 0.0340 0.9992 0.0196
vn 0.0000 -0.9992 -0.0393
vn 0.0340 -0.9992 -0.0196
vn 0.0340 -0.9992 0.0196
vn 0.0000 -0.9992 0.0393
vn -0.0340 -0.9992 0.0196
vn -0.0340 -0.9992 -0.0196
vn -0.7300 0.0000 -0.6834
vn -0.8016 0.0000 -0.5978
vn 0.0215 0.9991 -0.0373
vn 0.9568 0.0000 0.2905
vn 0.9185 0.0000 0.3953
vn 0.0215 -0.9991 -0.0373
vn 0.2268 0.0000 -0.9739
vn 0.1169 0.0000 -0.9931
vn 0.0431 0.9991 0.0000
vn 0.2268 0.0000 0.9739
vn 0.1169 0.0000 0.9931
vn 0.0431 -0.9991 0.0000
vn 0.9568 0.0000 -0.2905
vn 0.9185 0.0000 -0.3953
vn 0.0215 0.9991 0.0373
vn -0.7300 0.0000 0.6834
vn -0.8016 0.0000 0.5978
vn 0.0215 -0.9991 0.0373
vn 0.7300 0.0000 0.6834
vn 0.8016 0.0000 0.5978
vn -0.0215 0.9991 0.0373
vn -0.9568 0.0000 -0.2905
vn -0.9185 0.0000 -0.3953
vn -0.0215 -0.9991 0.0373
vn -0.2268 0.0000 0.9739
vn -0.1169 0.0000 0.9931
vn -0.0431 0.9991 0.0000
vn -0.2268 0.0000 -0.9739
vn -0.1169 0.0000 -0.9931
vn -0.0431 -0.9991 0.0000
vn -0.9568 0.0000 0.2905
vn -0.9185 0.0000 0.3953
vn -0.0215 0.9991 -0.0373
vn 0.7300 0.0000 -0.6834
vn 0.8016 0.0000 -0.5978
vn -0.0215 -0.9991 -0.0373
vn 0.5000 0.0000 -0.8660
vn -0.8660 0.0000 -0.5000
vn 0.0000 1.0000 0.0000
vn 0.8660 0.0000 0.5000
vn 0.0000 -1.0000 0.0000
vn 1.0000 0.0000 0.0000
vn 0.0000 0.0000 -1.0000
vn 0.0000 0.0000 1.0000
vn 0.5000 0.0000 0.8660
vn 0.8660 0.0000 -0.5000
vn -0.8660 0.0000 0.5000
vn -0.5000 0.0000 0.8660
vn -1.0000 0.0000 0.0000
vn -0.5000 0.0000 -0.8660
usemtl Material
s 1
f 65/1/1 63/2/2 81/3/3 77/4/4 73/5/5 69/6/6
f 61/7/7 67/8/8 71/9/9 75/10/10 79/11/11 83/12/12
f 64/13/13 85/14/14 86/15/14 62/16/13
f 65/1/1 87/17/15 14/18/15 63/2/2
f 68/19/16 88/20/17 15/21/17 66/22/16
f 61/7/7 13/23/18 16/24/18 67/8/8
f 4/25/19 89/26/20 90/27/20 3/28/19
f 69/6/6 91/29/21 18/30/21 65/1/1
f 72/31/22 92/32/23 19/33/23 70/34/22
f 67/8/8 17/35/24 20/36/24 71/9/9
f 6/37/25 93/38/26 94/39/26 5/40/25
f 73/5/5 95/41/27 22/42/27 69/6/6
f 76/43/28 96/44/29 23/45/29 74/46/28
f 71/9/9 21/47/30 24/48/30 75/10/10
f 8/49/31 97/50/32 98/51/32 7/52/31
f 77/4/4 99/53/33 26/54/33 73/5/5
f 80/55/34 100/56/35 27/57/35 78/58/34
f 75/10/10 25/59/36 28/60/36 79/11/11
f 10/61/37 101/62/38 102/63/38 9/64/37
f 81/3/3 103/65/39 30/66/39 77/4/4
f 84/67/40 104/68/41 31/69/41 82/70/40
f 79/11/11 29/71/42 32/72/42 83/12/12
f 12/73/43 105/74/44 106/75/44 11/76/43
f 63/2/2 107/77/45 34/78/45 81/3/3
f 1/79/46 108/80/47 35/81/47 2/82/46
f 83/12/12 33/83/48 36/84/48 61/7/7
f 111/85/49 109/86/49 113/87/49 115/88/49
f 85/14/14 110/89/50 112/90/50 86/15/14
f 87/17/15 114/91/51 38/92/51 14/18/15
f 88/20/17 116/93/52 39/94/52 15/21/17
f 13/23/18 37/95/53 40/96/53 16/24/18
f 119/97/54 117/98/54 121/99/54 123/100/54
f 89/26/20 118/101/55 120/102/55 90/27/20
f 91/29/21 122/103/51 42/104/51 18/30/21
f 92/32/23 124/105/56 43/106/56 19/33/23
f 17/35/24 41/107/53 44/108/53 20/36/24
f 127/109/57 125/110/57 129/111/57 131/112/57
f 93/38/26 126/113/58 128/114/58 94/39/26
f 95/41/27 130/115/51 46/116/51 22/42/27
f 96/44/29 132/117/59 47/118/59 23/45/29
f 21/47/30 45/119/53 48/120/53 24/48/30
f 135/121/60 133/122/60 137/123/60 139/124/60
f 97/50/32 134/125/52 136/126/52 98/51/32
f 99/53/33 138/127/51 50/128/51 26/54/33
f 100/56/35 140/129/50 51/130/50 27/57/35
f 25/59/36 49/131/53 52/132/53 28/60/36
f 143/133/61 141/134/61 145/135/61 147/136/61
f 101/62/38 142/137/56 144/138/56 102/63/38
f 103/65/39 146/139/51 54/140/51 30/66/39
f 104/68/41 148/141/55 55/142/55 31/69/41
f 29/71/42 53/143/53 56/144/53 32/72/42
f 151/145/62 149/146/62 153/147/62 155/148/62
f 105/74/44 150/149/59 152/150/59 106/75/44
f 107/77/45 154/151/51 58/152/51 34/78/45
f 108/80/47 156/153/58 59/154/58 35/81/47
f 33/83/48 57/155/53 60/156/53 36/84/48
