# Blender v3.0.0 OBJ File: 'tile_lvl6.5.blend'
# www.blender.org
mtllib Tile Level 7.mtl
o Cube.008_Cube.015
v 0.400000 0.200000 -1.000000
v 0.498271 0.400000 -0.901729
v 1.000000 0.200000 -0.400000
v 0.901729 0.400000 -0.498271
v 1.000000 0.200000 -1.000000
v 0.901729 0.400000 -0.901729
v -1.000000 0.200000 -0.400000
v -0.901729 0.400000 -0.498271
v -1.000000 0.200000 -1.000000
v -0.901729 0.400000 -0.901729
v -0.400000 0.200000 -1.000000
v -0.498271 0.400000 -0.901729
v 1.000000 0.200000 0.300000
v 0.901729 0.400000 0.201729
v 1.000000 0.200000 -0.300000
v 0.901729 0.400000 -0.201729
v -1.000000 0.200000 1.000000
v -0.901729 0.400000 0.901729
v -1.000000 0.200000 0.400000
v -0.901729 0.400000 0.498271
v -0.400000 0.200000 1.000000
v -0.498271 0.400000 0.901729
v -1.000000 0.200000 0.300000
v -0.901729 0.400000 0.201729
v -1.000000 0.200000 -0.300000
v -0.901729 0.400000 -0.201729
v -0.300000 0.200000 1.000000
v -0.201729 0.400000 0.901729
v 0.300000 0.200000 1.000000
v 0.201729 0.400000 0.901729
v 0.400000 0.200000 1.000000
v 0.498271 0.400000 0.901729
v 1.000000 0.200000 1.000000
v 0.901729 0.400000 0.901729
v 1.000000 0.200000 0.400000
v 0.901729 0.400000 0.498271
v -0.300000 0.200000 -1.000000
v -0.201729 0.400000 -0.901729
v 0.300000 0.200000 -1.000000
v 0.201729 0.400000 -0.901729
v 0.400000 0.400000 -1.000000
v 1.000000 0.400000 -1.000000
v 1.000000 0.400000 -0.400000
v -1.000000 0.400000 -0.400000
v -1.000000 0.400000 -1.000000
v -0.400000 0.400000 -1.000000
v 1.000000 0.400000 -0.300000
v 1.000000 0.400000 0.300000
v -1.000000 0.400000 1.000000
v -1.000000 0.400000 0.400000
v -0.400000 0.400000 1.000000
v -1.000000 0.400000 0.300000
v -1.000000 0.400000 -0.300000
v -0.300000 0.400000 1.000000
v 0.300000 0.400000 1.000000
v 0.400000 0.400000 1.000000
v 1.000000 0.400000 0.400000
v 1.000000 0.400000 1.000000
v -0.300000 0.400000 -1.000000
v 0.300000 0.400000 -1.000000
v 0.400000 0.400000 -0.752259
v -0.300000 0.400000 -0.788203
v -0.201729 0.400000 0.788203
v -0.752258 0.200000 0.400000
v 0.400000 0.200000 -0.752259
v -0.400000 0.200000 0.752258
v -0.300000 0.200000 -0.788203
v 0.752259 0.400000 -0.400000
v -0.300000 0.400000 0.788203
v 0.752259 0.200000 -0.400000
v 0.300000 0.400000 -0.788203
v 0.201729 0.400000 0.788203
v -0.653987 0.400000 0.498271
v 0.300000 0.400000 0.788203
v 0.300000 0.200000 -0.788203
v -0.498271 0.400000 0.653987
v 0.498271 0.400000 -0.653988
v 0.498271 0.400000 0.653988
v -0.788203 0.400000 -0.300000
v 0.653988 0.400000 -0.498271
v 0.400000 0.400000 0.752259
v -0.788203 0.200000 -0.300000
v -0.400000 0.400000 -0.752259
v 0.653988 0.400000 0.498271
v -0.400000 0.200000 -0.752259
v -0.788203 0.400000 0.300000
v 0.752259 0.400000 0.400000
v -0.788203 0.200000 0.300000
v -0.201729 0.400000 -0.788203
v -0.752259 0.400000 -0.400000
v 0.201729 0.400000 -0.788203
v -0.752259 0.200000 -0.400000
v -0.788203 0.400000 -0.201729
v -0.788203 0.400000 0.201729
v -0.653988 0.400000 -0.498271
v -0.498271 0.400000 -0.653988
v 0.788203 0.400000 -0.300000
v -0.300000 0.200000 0.788203
v 0.788203 0.200000 -0.300000
v 0.788203 0.400000 0.300000
v 0.300000 0.200000 0.788203
v 0.788203 0.200000 0.300000
v 0.788203 0.400000 -0.201729
v 0.788203 0.400000 0.201729
v 0.752259 0.200000 0.400000
v -0.752258 0.400000 0.400000
v 0.400000 0.200000 0.752259
v -0.400000 0.400000 0.752258
vt 0.421325 0.973440
vt 0.421325 0.973438
vt 0.421325 0.767212
vt 0.421325 0.767212
vt 0.485900 0.973438
vt 0.485900 0.767212
vt 0.485900 0.973440
vt 0.485900 0.767212
vt 0.459237 0.767212
vt 0.459237 0.973440
vt 0.443476 0.624452
vt 0.468126 0.624452
vt 0.468126 0.624452
vt 0.427983 0.624452
vt 0.427983 0.624452
vt 0.270651 0.767212
vt 0.270651 0.973440
vt 0.270651 0.973438
vt 0.270651 0.767212
vt 0.335225 0.973438
vt 0.335225 0.767212
vt 0.335225 0.767212
vt 0.335225 0.973440
vt 0.297314 0.767212
vt 0.297314 0.973440
vt 0.328830 0.624452
vt 0.328830 0.624452
vt 0.288687 0.624452
vt 0.288687 0.624452
vt 0.313336 0.624452
vt 0.463105 0.973440
vt 0.485900 0.973440
vt 0.485900 0.767212
vt 0.463105 0.767212
vt 0.485900 0.973440
vt 0.485900 0.767212
vt 0.463105 0.767212
vt 0.463105 0.973440
vt 0.456830 0.624452
vt 0.468126 0.624452
vt 0.468126 0.624452
vt 0.456830 0.624452
vt 0.270651 0.767212
vt 0.270651 0.973440
vt 0.270651 0.973440
vt 0.270651 0.767212
vt 0.297314 0.973440
vt 0.297314 0.767212
vt 0.335225 0.973440
vt 0.335225 0.767212
vt 0.335225 0.767212
vt 0.335225 0.973440
vt 0.313336 0.624452
vt 0.288687 0.624452
vt 0.288687 0.624452
vt 0.328830 0.624452
vt 0.328830 0.624452
vt 0.270651 0.767212
vt 0.270651 0.973440
vt 0.270651 0.973440
vt 0.270651 0.767212
vt 0.293445 0.973440
vt 0.293445 0.767212
vt 0.293445 0.767212
vt 0.293445 0.973440
vt 0.299982 0.624452
vt 0.288687 0.624452
vt 0.288687 0.624452
vt 0.299982 0.624452
vt 0.345988 0.767212
vt 0.345988 0.973440
vt 0.345988 0.973440
vt 0.345988 0.767212
vt 0.410562 0.973440
vt 0.410562 0.767212
vt 0.410562 0.767212
vt 0.410562 0.973440
vt 0.358335 0.624452
vt 0.358335 0.624452
vt 0.398478 0.624452
vt 0.398478 0.624452
vt 0.421325 0.767212
vt 0.421325 0.973440
vt 0.421325 0.973440
vt 0.421325 0.767212
vt 0.459237 0.973440
vt 0.485900 0.973440
vt 0.485900 0.767212
vt 0.459237 0.767212
vt 0.485900 0.973440
vt 0.485900 0.767212
vt 0.427983 0.624452
vt 0.427983 0.624452
vt 0.468126 0.624452
vt 0.468126 0.624452
vt 0.443476 0.624452
vt 0.345988 0.973440
vt 0.345988 0.973438
vt 0.345988 0.767212
vt 0.345988 0.767212
vt 0.410562 0.973438
vt 0.410562 0.767212
vt 0.410562 0.767212
vt 0.410562 0.973440
vt 0.398478 0.624452
vt 0.398478 0.624452
vt 0.358335 0.624452
vt 0.358335 0.624452
vt 0.431901 0.973440
vt 0.431901 0.973438
vt 0.475323 0.973438
vt 0.475323 0.973440
vt 0.448660 0.973440
vt 0.281227 0.973440
vt 0.281227 0.973438
vt 0.324649 0.973438
vt 0.324649 0.973440
vt 0.307890 0.973440
vt 0.475323 0.973440
vt 0.463105 0.973440
vt 0.475323 0.973440
vt 0.463105 0.973440
vt 0.281227 0.973440
vt 0.281227 0.973440
vt 0.307890 0.973440
vt 0.324649 0.973440
vt 0.324649 0.973440
vt 0.281227 0.973440
vt 0.281227 0.973440
vt 0.293445 0.973440
vt 0.293445 0.973440
vt 0.356564 0.973440
vt 0.356564 0.973440
vt 0.399986 0.973440
vt 0.399986 0.973440
vt 0.431901 0.973440
vt 0.431901 0.973440
vt 0.475323 0.973440
vt 0.448660 0.973440
vt 0.475323 0.973440
vt 0.356564 0.973440
vt 0.356564 0.973438
vt 0.399986 0.973438
vt 0.399986 0.973440
vn -1.0000 0.0000 0.0000
vn 0.0000 0.0000 -1.0000
vn 1.0000 0.0000 0.0000
vn 0.0000 0.0000 1.0000
vn 0.0000 -1.0000 0.0000
vn 0.0000 1.0000 0.0000
vn -0.7071 -0.0000 0.7071
vn -0.7071 0.0000 -0.7071
vn 0.7071 -0.0000 -0.7071
vn 0.7071 -0.0000 0.7071
usemtl Material
s off
f 61/1/1 41/2/1 1/3/1 65/4/1
f 1/3/2 41/2/2 42/5/2 5/6/2
f 5/6/3 42/5/3 43/7/3 3/8/3
f 70/9/4 3/8/4 43/7/4 68/10/4
f 1/3/5 5/6/5 3/8/5 70/9/5 65/4/5
f 80/11/6 4/12/6 6/13/6 2/14/6 77/15/6
f 7/16/1 44/17/1 45/18/1 9/19/1
f 9/19/2 45/18/2 46/20/2 11/21/2
f 85/22/3 11/21/3 46/20/3 83/23/3
f 44/17/4 7/16/4 92/24/4 90/25/4
f 7/16/5 9/19/5 11/21/5 85/22/5 92/24/5
f 96/26/6 12/27/6 10/28/6 8/29/6 95/30/6
f 97/31/2 47/32/2 15/33/2 99/34/2
f 15/33/3 47/32/3 48/35/3 13/36/3
f 102/37/4 13/36/4 48/35/4 100/38/4
f 15/33/5 13/36/5 102/37/5 99/34/5
f 104/39/6 14/40/6 16/41/6 103/42/6
f 17/43/1 49/44/1 50/45/1 19/46/1
f 19/46/2 50/45/2 106/47/2 64/48/2
f 51/49/3 21/50/3 66/51/3 108/52/3
f 21/50/4 51/49/4 49/44/4 17/43/4
f 21/50/5 17/43/5 19/46/5 64/48/5 66/51/5
f 73/53/6 20/54/6 18/55/6 22/56/6 76/57/6
f 23/58/1 52/59/1 53/60/1 25/61/1
f 25/61/2 53/60/2 79/62/2 82/63/2
f 52/59/4 23/58/4 88/64/4 86/65/4
f 23/58/5 25/61/5 82/63/5 88/64/5
f 93/66/6 26/67/6 24/68/6 94/69/6
f 27/70/1 54/71/1 69/72/1 98/73/1
f 55/74/3 29/75/3 101/76/3 74/77/3
f 29/75/4 55/74/4 54/71/4 27/70/4
f 29/75/5 27/70/5 98/73/5 101/76/5
f 63/78/6 28/79/6 30/80/6 72/81/6
f 31/82/1 56/83/1 81/84/1 107/85/1
f 87/86/2 57/87/2 35/88/2 105/89/2
f 35/88/3 57/87/3 58/90/3 33/91/3
f 33/91/4 58/90/4 56/83/4 31/82/4
f 35/88/5 33/91/5 31/82/5 107/85/5 105/89/5
f 78/92/6 32/93/6 34/94/6 36/95/6 84/96/6
f 62/97/1 59/98/1 37/99/1 67/100/1
f 37/99/2 59/98/2 60/101/2 39/102/2
f 75/103/3 39/102/3 60/101/3 71/104/3
f 67/100/5 37/99/5 39/102/5 75/103/5
f 91/105/6 40/106/6 38/107/6 89/108/6
f 77/109/6 2/110/6 41/2/6 61/1/6
f 2/110/6 6/111/6 42/5/6 41/2/6
f 6/111/6 4/112/6 43/7/6 42/5/6
f 4/112/6 80/113/6 68/10/6 43/7/6
f 8/114/6 10/115/6 45/18/6 44/17/6
f 10/115/6 12/116/6 46/20/6 45/18/6
f 83/23/6 46/20/6 12/116/6 96/117/6
f 95/118/6 8/114/6 44/17/6 90/25/6
f 16/119/6 47/32/6 97/31/6 103/120/6
f 16/119/6 14/121/6 48/35/6 47/32/6
f 48/35/6 14/121/6 104/122/6 100/38/6
f 18/123/6 20/124/6 50/45/6 49/44/6
f 50/45/6 20/124/6 73/125/6 106/47/6
f 76/126/6 22/127/6 51/49/6 108/52/6
f 22/127/6 18/123/6 49/44/6 51/49/6
f 24/128/6 26/129/6 53/60/6 52/59/6
f 53/60/6 26/129/6 93/130/6 79/62/6
f 94/131/6 24/128/6 52/59/6 86/65/6
f 69/72/6 54/71/6 28/132/6 63/133/6
f 72/134/6 30/135/6 55/74/6 74/77/6
f 30/135/6 28/132/6 54/71/6 55/74/6
f 81/84/6 56/83/6 32/136/6 78/137/6
f 36/138/6 57/87/6 87/86/6 84/139/6
f 36/138/6 34/140/6 58/90/6 57/87/6
f 34/140/6 32/136/6 56/83/6 58/90/6
f 89/141/6 38/142/6 59/98/6 62/97/6
f 38/142/6 40/143/6 60/101/6 59/98/6
f 71/104/6 60/101/6 40/143/6 91/144/6
f 61/1/7 65/4/7 70/9/7 68/10/7 80/113/7 77/109/7
f 81/84/8 78/137/8 84/139/8 87/86/8 105/89/8 107/85/8
f 62/97/4 67/100/4 75/103/4 71/104/4 91/144/4 89/141/4
f 97/31/1 99/34/1 102/37/1 100/38/1 104/122/1 103/120/1
f 106/47/9 73/125/9 76/126/9 108/52/9 66/51/9 64/48/9
f 69/72/2 63/133/2 72/134/2 74/77/2 101/76/2 98/73/2
f 86/65/3 88/64/3 82/63/3 79/62/3 93/130/3 94/131/3
f 90/25/10 92/24/10 85/22/10 83/23/10 96/117/10 95/118/10
o Cube.001_Cube.003
v 1.000000 0.349480 0.400000
v -1.000000 0.349480 0.400000
v -1.000000 0.349480 -0.400000
v -1.000000 0.349480 -0.300000
v -1.000000 0.349480 0.300000
v 1.000000 0.200000 0.400000
v 0.752258 0.200000 0.400000
v 0.752258 0.349480 0.400000
v -1.000000 0.200000 0.300000
v -1.000000 0.200000 0.400000
v -1.000000 0.200000 -0.300000
v -1.000000 0.200000 -0.400000
v -0.300000 0.200000 -1.000000
v -0.300000 0.349480 -1.000000
v -0.300000 0.200000 -0.788203
v -0.300000 0.349480 -0.788203
v -0.400000 0.349480 -1.000000
v 0.300000 0.200000 -1.000000
v 0.400000 0.349480 -1.000000
v 0.300000 0.349480 -1.000000
v 0.300000 0.200000 -0.788203
v 0.300000 0.349480 -0.788203
v -0.400000 0.200000 -1.000000
v 0.400000 0.200000 -1.000000
v 0.400000 0.200000 -0.752258
v 0.400000 0.349480 -0.752258
v 1.000000 0.349480 -0.400000
v 1.000000 0.349480 -0.300000
v 1.000000 0.349480 0.300000
v 0.752258 0.200000 -0.400000
v 0.752258 0.349480 -0.400000
v 1.000000 0.200000 -0.400000
v 1.000000 0.200000 -0.300000
v 1.000000 0.200000 0.300000
v -0.400000 0.349480 1.000000
v -0.300000 0.349480 1.000000
v 0.400000 0.349480 1.000000
v 0.300000 0.349480 1.000000
v 0.400000 0.200000 0.752259
v 0.400000 0.349480 0.752259
v 0.400000 0.200000 1.000000
v 0.300000 0.200000 1.000000
v -0.300000 0.200000 1.000000
v -0.400000 0.200000 1.000000
v -0.400000 0.200000 -0.752258
v 0.788203 0.200000 0.300000
v 0.788203 0.200000 -0.300000
v 0.788203 0.349480 -0.300000
v 0.788203 0.349480 0.300000
v -0.752258 0.200000 0.400000
v -0.788203 0.200000 0.300000
v -0.752258 0.349480 0.400000
v -0.788203 0.200000 -0.300000
v -0.752258 0.200000 -0.400000
v -0.400000 0.200000 0.752258
v -0.400000 0.349480 0.752258
v -0.300000 0.200000 0.788203
v 0.300000 0.200000 0.788203
v -0.300000 0.349480 0.788203
v 0.300000 0.349480 0.788203
v -0.788203 0.349480 0.300000
v -0.788203 0.349480 -0.300000
v -0.752258 0.349480 -0.400000
v -0.400000 0.349480 -0.752258
v 0.680637 0.200000 0.314373
v 0.314373 0.200000 -0.680637
v 0.314373 0.349480 -0.680637
v 0.680638 0.200000 -0.314373
v 0.680638 0.349480 -0.314373
v 0.680637 0.349480 0.314373
v 0.314373 0.200000 0.680637
v 0.314373 0.349480 0.680637
v -0.314373 0.200000 -0.680637
v -0.300000 0.200000 -0.680637
v -0.314373 0.349480 -0.680637
v -0.300000 0.200000 0.680637
v -0.314373 0.200000 0.680637
v -0.314373 0.349480 0.680637
v -0.680638 0.200000 0.314373
v -0.680638 0.349480 0.314373
v -0.680638 0.200000 -0.314373
v -0.680638 0.349480 -0.314373
vt 0.058736 0.644412
vt 0.058736 0.651181
vt 0.058736 0.651181
vt 0.058736 0.644412
vt 0.058736 0.603793
vt 0.058736 0.597023
vt 0.058736 0.597023
vt 0.058736 0.603793
vt 0.099354 0.691800
vt 0.106124 0.691800
vt 0.106124 0.691800
vt 0.099354 0.691800
vt 0.153513 0.691800
vt 0.146743 0.691800
vt 0.146743 0.691800
vt 0.153513 0.691800
vt 0.194131 0.597023
vt 0.194131 0.597023
vt 0.194131 0.603793
vt 0.194131 0.603793
vt 0.194131 0.651181
vt 0.194131 0.651181
vt 0.194131 0.644412
vt 0.194131 0.644412
vt 0.099354 0.556405
vt 0.099354 0.556405
vt 0.106124 0.556405
vt 0.106124 0.556405
vt 0.153513 0.556405
vt 0.153513 0.556405
vt 0.146743 0.556405
vt 0.146743 0.556405
vt 0.179793 0.603793
vt 0.177360 0.597023
vt 0.153513 0.573176
vt 0.146743 0.570743
vt 0.106124 0.570743
vt 0.106124 0.578025
vt 0.147716 0.578025
vt 0.172511 0.602820
vt 0.172511 0.645384
vt 0.147716 0.670180
vt 0.106124 0.670180
vt 0.106124 0.677462
vt 0.146743 0.677462
vt 0.153513 0.675028
vt 0.177360 0.651181
vt 0.179793 0.644412
vt 0.105151 0.670180
vt 0.080356 0.645384
vt 0.080356 0.602820
vt 0.105151 0.578025
vt 0.099354 0.573176
vt 0.075507 0.597023
vt 0.073074 0.603793
vt 0.073074 0.644412
vt 0.075507 0.651181
vt 0.099354 0.675028
vt 0.153513 0.675028
vt 0.146743 0.677462
vt 0.147716 0.670180
vt 0.172511 0.645384
vt 0.172511 0.602820
vt 0.147716 0.578025
vt 0.105151 0.578025
vt 0.080356 0.602820
vt 0.073074 0.603793
vt 0.075507 0.597023
vt 0.099354 0.573176
vt 0.106124 0.570743
vt 0.146743 0.570743
vt 0.153513 0.573176
vt 0.177360 0.597023
vt 0.179793 0.603793
vt 0.179793 0.644412
vt 0.177360 0.651181
vt 0.075507 0.651181
vt 0.073074 0.644412
vt 0.080356 0.645384
vt 0.105151 0.670180
vt 0.106124 0.677462
vt 0.099354 0.675028
vn -1.0000 0.0000 0.0000
vn 0.0000 0.0000 -1.0000
vn 1.0000 0.0000 0.0000
vn 0.0000 0.0000 1.0000
vn 0.0000 -1.0000 -0.0000
vn 0.0000 1.0000 0.0000
vn 0.7071 0.0000 -0.7071
vn 0.7071 0.0000 0.7071
vn -0.7071 0.0000 0.7071
vn -0.7071 0.0000 -0.7071
usemtl Material
s off
f 112/145/11 111/146/11 120/147/11 119/148/11
f 117/149/11 118/150/11 110/151/11 113/152/11
f 125/153/12 122/154/12 121/155/12 131/156/12
f 132/157/12 126/158/12 128/159/12 127/160/12
f 109/161/13 114/162/13 142/163/13 137/164/13
f 140/165/13 135/166/13 136/167/13 141/168/13
f 143/169/14 152/170/14 151/171/14 144/172/14
f 149/173/14 145/174/14 146/175/14 150/176/14
f 154/177/15 142/163/15 114/162/15 115/178/15 147/179/15 149/173/15 150/176/15 166/180/15 165/181/15 184/182/15 179/183/15 173/184/15 176/185/15 174/186/15 182/187/15 123/188/15 129/189/15 126/158/15 132/157/15 133/190/15 138/191/15 140/165/15 141/168/15 155/192/15
f 131/156/15 121/155/15 123/188/15 182/187/15 181/193/15 189/194/15 187/195/15 185/196/15 184/182/15 165/181/15 151/171/15 152/170/15 163/197/15 158/198/15 118/150/15 117/149/15 159/199/15 161/200/15 119/148/15 120/147/15 162/201/15 153/202/15
f 134/203/16 127/160/16 128/159/16 130/204/16 175/205/16 177/206/16 178/207/16 180/208/16 186/209/16 188/210/16 169/211/16 113/152/16 110/151/16 160/212/16 164/213/16 143/169/16 144/172/16 167/214/16 168/215/16 146/175/16 145/174/16 148/216/16 116/217/16 109/161/16 137/164/16 157/218/16 156/219/16 136/167/16 135/166/16 139/220/16
f 171/221/16 111/146/16 112/145/16 170/222/16 169/211/16 188/210/16 190/223/16 183/224/16 175/205/16 130/204/16 124/225/16 122/154/16 125/153/16 172/226/16
f 132/157/13 127/160/13 134/203/13 133/190/13
f 140/165/12 138/191/12 139/220/12 135/166/12
f 131/156/11 153/202/11 172/226/11 125/153/11
f 111/146/12 171/221/12 162/201/12 120/147/12
f 141/168/14 136/167/14 156/219/14 155/192/14
f 142/163/12 154/177/12 157/218/12 137/164/12
f 110/151/14 118/150/14 158/198/14 160/212/14
f 143/169/11 164/213/11 163/197/11 152/170/11
f 112/145/14 119/148/14 161/200/14 170/222/14
f 117/149/12 113/152/12 169/211/12 159/199/12
f 144/172/13 151/171/13 165/181/13 167/214/13
f 150/176/11 146/175/11 168/215/11 166/180/11
f 145/174/13 149/173/13 147/179/13 148/216/13
f 114/162/14 109/161/14 116/217/14 115/178/14
f 121/155/13 122/154/13 124/225/13 123/188/13
f 126/158/11 129/189/11 130/204/11 128/159/11
f 133/190/17 134/203/17 139/220/17 138/191/17
f 115/178/18 116/217/18 148/216/18 147/179/18
f 124/225/12 130/204/12 129/189/12 123/188/12
f 157/218/13 154/177/13 155/192/13 156/219/13
f 160/212/19 158/198/19 163/197/19 164/213/19
f 167/214/14 165/181/14 166/180/14 168/215/14
f 161/200/11 159/199/11 169/211/11 170/222/11
f 153/202/20 162/201/20 171/221/20 172/226/20
f 175/205/19 174/186/19 176/185/19 177/206/19
f 173/184/20 179/183/20 180/208/20 178/207/20
f 182/187/14 174/186/14 175/205/14 183/224/14 181/193/14
f 177/206/11 176/185/11 173/184/11 178/207/11
f 185/196/17 187/195/17 188/210/17 186/209/17
f 185/196/12 186/209/12 180/208/12 179/183/12 184/182/12
f 189/194/13 190/223/13 188/210/13 187/195/13
f 190/223/18 189/194/18 181/193/18 183/224/18
o Cylinder_Cylinder.001
v 0.261696 0.400000 -0.553465
v 0.553465 0.400000 -0.261696
v 0.553465 0.400000 0.261696
v 0.261696 0.400000 0.553465
v -0.261696 0.400000 0.553465
v -0.553465 0.400000 0.261696
v -0.553465 0.400000 -0.261696
v -0.261696 0.400000 -0.553465
v 0.314373 0.200000 -0.680638
v 0.680638 0.200000 -0.314373
v 0.680638 0.400000 -0.314373
v 0.314373 0.400000 -0.680638
v 0.680638 0.200000 0.314373
v 0.314373 0.200000 0.680638
v 0.314373 0.400000 0.680638
v 0.680638 0.400000 0.314373
v -0.314373 0.400000 -0.680637
v -0.314373 0.200000 -0.680637
v -0.314373 0.200000 0.680638
v -0.680638 0.200000 0.314373
v -0.680638 0.400000 0.314373
v -0.314373 0.400000 0.680638
v -0.680638 0.200000 -0.314373
v -0.680638 0.400000 -0.314373
v -0.261696 0.349480 -0.553465
v -0.553465 0.349480 -0.261696
v -0.553465 0.349480 0.261696
v -0.261696 0.349480 0.553465
v 0.261696 0.349480 0.553465
v 0.553465 0.349480 0.261696
v 0.553465 0.349480 -0.261696
v 0.261696 0.349480 -0.553465
vt 0.412109 0.767212
vt 0.412109 0.973440
vt 0.451528 0.973440
vt 0.451528 0.767212
vt 0.451528 0.767212
vt 0.451528 0.973440
vt 0.412109 0.973440
vt 0.412109 0.767212
vt 0.344441 0.767212
vt 0.344441 0.973440
vt 0.344441 0.767212
vt 0.344441 0.973440
vt 0.305022 0.973440
vt 0.305022 0.767212
vt 0.305022 0.973440
vt 0.305022 0.767212
vt 0.406440 0.973440
vt 0.437842 0.973440
vt 0.437842 0.973440
vt 0.406440 0.973440
vt 0.350110 0.973440
vt 0.350110 0.973440
vt 0.318709 0.973440
vt 0.318709 0.973440
vt 0.318709 0.921347
vt 0.350110 0.921347
vt 0.406440 0.921347
vt 0.437842 0.921347
vt 0.406440 0.921347
vt 0.350110 0.921347
vt 0.318709 0.921347
vt 0.437842 0.921347
vt 0.311094 0.343525
vt 0.345956 0.308663
vt 0.408493 0.308663
vt 0.443355 0.343525
vt 0.443355 0.406062
vt 0.408493 0.440924
vt 0.345956 0.440924
vt 0.311094 0.406062
vn 0.7071 0.0000 -0.7071
vn 0.7071 0.0000 0.7071
vn -0.0000 0.0000 -1.0000
vn 1.0000 0.0000 0.0000
vn -0.7071 0.0000 0.7071
vn 0.0000 0.0000 1.0000
vn -1.0000 0.0000 0.0000
vn -0.7071 0.0000 -0.7071
vn 0.0000 1.0000 0.0000
vn 0.0000 -1.0000 0.0000
usemtl Material
s off
f 199/227/21 202/228/21 201/229/21 200/230/21
f 203/231/22 206/232/22 205/233/22 204/234/22
f 199/227/23 208/235/23 207/236/23 202/228/23
f 200/230/24 201/229/24 206/232/24 203/231/24
f 209/237/25 212/238/25 211/239/25 210/240/25
f 204/234/26 205/233/26 212/238/26 209/237/26
f 210/240/27 211/239/27 214/241/27 213/242/27
f 213/242/28 214/241/28 207/236/28 208/235/28
f 191/243/29 192/244/29 201/229/29 202/228/29
f 193/245/29 194/246/29 205/233/29 206/232/29
f 198/247/29 191/243/29 202/228/29 207/236/29
f 195/248/29 196/249/29 211/239/29 212/238/29
f 192/244/29 193/245/29 206/232/29 201/229/29
f 194/246/29 195/248/29 212/238/29 205/233/29
f 196/249/29 197/250/29 214/241/29 211/239/29
f 197/250/29 198/247/29 207/236/29 214/241/29
f 199/227/30 200/230/30 203/231/30 204/234/30 209/237/30 210/240/30 213/242/30 208/235/30
f 198/247/22 197/250/22 216/251/22 215/252/22
f 192/244/25 191/243/25 222/253/25 221/254/25
f 195/248/23 194/246/23 219/255/23 218/256/23
f 191/243/26 198/247/26 215/252/26 222/253/26
f 196/249/21 195/248/21 218/256/21 217/257/21
f 194/246/28 193/245/28 220/258/28 219/255/28
f 197/250/24 196/249/24 217/257/24 216/251/24
f 193/245/27 192/244/27 221/254/27 220/258/27
f 217/259/29 218/260/29 219/261/29 220/262/29 221/263/29 222/264/29 215/265/29 216/266/29
o Ground_Cube.004
v -1.000000 0.200000 1.000000
v -1.000000 -0.200000 1.000000
v -1.000000 0.200000 -1.000000
v -1.000000 -0.200000 -1.000000
v 1.000000 0.200000 1.000000
v 1.000000 -0.200000 1.000000
v 1.000000 0.200000 -1.000000
v 1.000000 -0.200000 -1.000000
vt 0.038678 0.494127
vt 0.038678 0.494127
vt 0.038678 0.256873
vt 0.038678 0.256873
vt 0.211966 0.494127
vt 0.211966 0.256873
vt 0.211966 0.494127
vt 0.211966 0.256873
vn -1.0000 0.0000 0.0000
vn 0.0000 0.0000 -1.0000
vn 1.0000 0.0000 0.0000
vn 0.0000 0.0000 1.0000
vn 0.0000 1.0000 0.0000
vn 0.0000 -1.0000 0.0000
usemtl Material
s off
f 223/267/31 225/268/31 226/269/31 224/270/31
f 225/268/32 229/271/32 230/272/32 226/269/32
f 229/271/33 227/273/33 228/274/33 230/272/33
f 227/273/34 223/267/34 224/270/34 228/274/34
f 225/268/35 223/267/35 227/273/35 229/271/35
f 230/272/36 228/274/36 224/270/36 226/269/36
