# Blender v3.0.0 OBJ File: 'grass sprites updated.blend'
# www.blender.org
mtllib Grass Sprites 1.mtl
o LPW_Grass_A1_40cm_01_LPW_Grass_A1_40cm_01.001
v -0.130033 -0.000000 0.043369
v -0.158007 0.255199 -0.005676
v -0.130033 -0.000000 -0.005977
v -0.021488 -0.000000 0.037162
v -0.080687 -0.000000 0.043369
v -0.007819 0.298382 0.061572
v -0.080687 -0.000000 -0.005977
v 0.021823 -0.000000 0.013517
v -0.001822 -0.000000 -0.029795
v -0.045134 -0.000000 -0.006149
v -0.029410 0.000000 -0.131225
v -0.035109 0.255199 -0.145743
v -0.050389 -0.000000 -0.093349
v 0.001762 0.224127 0.037801
v 0.012959 0.114745 0.018249
v -0.020802 0.114743 0.036681
v -0.015142 0.224149 0.047035
v -0.039234 0.114745 0.002920
v -0.024382 0.224092 0.030110
v -0.005473 0.114748 -0.015511
v -0.007468 0.224073 0.020865
v 0.001997 -0.000000 -0.104955
v -0.138989 0.168416 0.017464
v -0.129940 0.084437 0.033444
v -0.129940 0.084434 -0.005154
v -0.138992 0.168432 -0.005047
v -0.091342 0.084437 -0.005154
v -0.116464 0.168388 -0.005047
v -0.091342 0.084441 0.033443
v -0.116457 0.168374 0.017476
v -0.039022 0.174143 -0.120050
v -0.044678 0.079243 -0.100721
v -0.029808 0.079253 -0.130557
v -0.031909 0.174158 -0.135900
v -0.020149 0.174143 -0.125441
v -0.006445 0.079280 -0.110397
vt 0.455914 0.079128
vt 0.427588 0.303607
vt 0.324980 0.303597
vt 0.324733 0.079128
vt 0.455914 0.079128
vt 0.427589 0.303599
vt 0.324980 0.303589
vt 0.324733 0.079128
vt 0.550431 0.079128
vt 0.566116 0.384171
vt 0.655866 0.384177
vt 0.665571 0.079128
vt 0.360804 0.526776
vt 0.250365 0.757555
vt 0.360823 0.526737
vt 0.300915 0.526892
vt 0.300924 0.526849
vt 0.704866 0.384169
vt 0.728431 0.079128
vt 0.592231 0.079128
vt 0.591173 0.289816
vt 0.653282 0.289887
vt 0.675724 0.079128
vt 0.615115 0.384163
vt 0.613292 0.079128
vt 0.605597 0.674860
vt 0.649630 0.872355
vt 0.650563 0.674809
vt 0.630161 0.675011
vt 0.675099 0.674955
vt 0.551642 0.289791
vt 0.536461 0.079128
vt 0.585588 0.542114
vt 0.577080 0.757555
vt 0.616852 0.542076
vt 0.566679 0.542074
vn 0.0000 0.1167 0.9932
vn 0.9921 0.1252 -0.0000
vn -1.0000 0.0011 -0.0000
vn -0.0000 0.0097 -1.0000
vn -0.4771 0.0936 -0.8739
vn 0.9020 0.4317 -0.0000
vn 0.0000 -0.0072 -1.0000
vn -0.9768 -0.2141 0.0000
vn 0.8744 0.0872 -0.4774
vn 0.6466 0.0131 -0.7627
vn 0.4792 0.0008 0.8777
vn -0.8777 0.0073 0.4792
vn -0.4322 0.4317 -0.7917
vn -0.8777 -0.0072 0.4792
vn 0.4681 -0.2141 0.8574
vn 0.8645 0.1728 -0.4719
vn -0.4611 0.2726 -0.8444
vn -0.8777 0.0001 0.4792
vn 0.4765 -0.1072 0.8726
vn 0.8481 0.2576 -0.4630
vn 0.2278 0.0824 0.9702
vn 0.6631 -0.0644 -0.7457
vn -0.9090 -0.0855 -0.4080
vn -0.8837 0.0098 -0.4679
vn -0.0001 0.1869 0.9824
vn 0.9580 0.2867 -0.0001
vn 0.0000 0.0013 -1.0000
vn -0.9942 -0.1071 0.0000
vn 0.0000 0.2576 0.9662
vn 0.6569 -0.0262 -0.7535
vn 0.2507 0.1828 0.9506
vn -0.9004 -0.0395 -0.4333
vn 0.2637 0.2799 0.9231
usemtl Material
s off
f 5/1/1 29/2/1 24/3/1 1/4/1
f 7/5/2 27/6/2 29/2/2 5/1/2
f 1/4/3 24/3/3 25/7/3 3/8/3
f 3/8/4 25/7/4 27/6/4 7/5/4
f 10/9/5 18/10/5 20/11/5 9/12/5
f 28/13/6 2/14/6 30/15/6
f 26/16/7 2/14/7 28/13/7
f 23/17/8 2/14/8 26/16/8
f 9/12/9 20/11/9 15/18/9 8/19/9
f 11/20/10 33/21/10 36/22/10 22/23/10
f 8/19/11 15/18/11 16/24/11 4/25/11
f 4/25/12 16/24/12 18/10/12 10/9/12
f 19/26/13 6/27/13 21/28/13
f 17/29/14 6/27/14 19/26/14
f 14/30/15 6/27/15 17/29/15
f 21/28/16 14/30/16 15/18/16 20/11/16
f 19/26/17 21/28/17 20/11/17 18/10/17
f 17/29/18 19/26/18 18/10/18 16/24/18
f 14/30/19 17/29/19 16/24/19 15/18/19
f 21/28/20 6/27/20 14/30/20
f 22/23/21 36/22/21 32/31/21 13/32/21
f 34/33/22 12/34/22 35/35/22
f 31/36/23 12/34/23 34/33/23
f 13/32/24 32/31/24 33/21/24 11/20/24
f 30/15/25 23/17/25 24/3/25 29/2/25
f 28/13/26 30/15/26 29/2/26 27/6/26
f 26/16/27 28/13/27 27/6/27 25/7/27
f 23/17/28 26/16/28 25/7/28 24/3/28
f 30/15/29 2/14/29 23/17/29
f 34/33/30 35/35/30 36/22/30 33/21/30
f 35/35/31 31/36/31 32/31/31 36/22/31
f 31/36/32 34/33/32 33/21/32 32/31/32
f 12/34/33 31/36/33 35/35/33
