# Blender v3.0.0 OBJ File: 'Rocks.blend'
# www.blender.org
mtllib Rock 4.mtl
o Rock_4_Rock_Round_s_05.001
v 0.058984 -0.000000 0.058324
v 0.079410 -0.000000 -0.036996
v -0.004932 0.000000 -0.085877
v -0.077485 -0.000000 -0.020769
v -0.037982 -0.000000 0.068352
v 0.021072 0.058523 0.016077
v 0.027516 0.058523 -0.013994
v 0.000908 0.058523 -0.029415
v -0.021981 0.058523 -0.008875
v -0.009519 0.058523 0.019241
vt 0.782254 0.154827
vt 0.591567 0.868820
vt 0.437701 0.868820
vt 0.294538 0.154827
vt 0.095852 0.154827
vt 0.375019 0.868820
vt 0.490146 0.868820
vt 0.460774 0.154827
vt 0.884994 0.154827
vt 0.623979 0.868820
vn 0.0809 0.6173 0.7825
vn -0.5254 0.6173 -0.5855
vn 0.7692 0.6173 0.1648
vn -0.7192 0.6173 0.3188
vn 0.3945 0.6173 -0.6807
vn -0.0000 1.0000 0.0000
vn 0.0000 -1.0000 -0.0000
usemtl Material
s off
f 1/1/1 6/2/1 10/3/1 5/4/1
f 4/5/2 9/6/2 8/7/2 3/8/2
f 2/9/3 7/10/3 6/2/3 1/1/3
f 5/4/4 10/3/4 9/6/4 4/5/4
f 3/8/5 8/7/5 7/10/5 2/9/5
f 6/2/6 7/10/6 8/7/6
f 10/3/6 6/2/6 8/7/6 9/6/6
f 2/9/7 1/1/7 5/4/7 4/5/7
f 3/8/7 2/9/7 4/5/7
