# Blender v3.0.0 OBJ File: 'Rocks.blend'
# www.blender.org
mtllib Rock 9.mtl
o Rock_9_Rocks_Round_s_04.001
v 0.101339 0.000000 -0.368243
v 0.059172 0.000000 -0.337606
v 0.075278 0.000000 -0.288035
v 0.127400 0.000000 -0.288035
v 0.143507 0.000000 -0.337606
v 0.101339 0.060310 -0.341322
v 0.084775 0.060310 -0.329287
v 0.091102 0.060310 -0.309815
v 0.111576 0.060310 -0.309815
v 0.117903 0.060310 -0.329287
v 0.101803 0.000000 -0.025206
v 0.006967 0.000000 -0.092389
v -0.086234 0.000000 -0.022955
v -0.048999 0.000000 0.087140
v 0.067214 0.000000 0.085749
v 0.044938 0.083803 -0.005974
v 0.007685 0.083803 -0.032364
v -0.028925 0.083803 -0.005090
v -0.014299 0.083803 0.038157
v 0.031351 0.083803 0.037611
v -0.250490 -0.000000 0.142517
v -0.286586 0.000000 0.166587
v -0.271246 -0.000000 0.206810
v -0.229483 -0.000000 0.206810
v -0.216578 0.000000 0.167090
v -0.250365 0.056916 0.164113
v -0.263733 0.056916 0.173736
v -0.258567 0.056916 0.189358
v -0.242162 0.056916 0.189358
v -0.237093 0.056916 0.173756
v 0.145973 0.000000 0.232987
v 0.069507 0.000000 0.283977
v 0.102003 -0.000000 0.369186
v 0.190475 -0.000000 0.369186
v 0.217815 0.000000 0.285044
v 0.146239 0.072692 0.278738
v 0.117921 0.072692 0.299123
v 0.128863 0.072692 0.332217
v 0.163616 0.072692 0.332217
v 0.174355 0.072692 0.299165
vt 0.709477 0.275848
vt 0.709477 0.677752
vt 0.735670 0.677752
vt 0.776156 0.275848
vt 0.750687 0.275848
vt 0.725665 0.677752
vt 0.693289 0.677752
vt 0.668267 0.275848
vt 0.642798 0.275848
vt 0.683284 0.677752
vt 0.710210 0.275849
vt 0.620291 0.834312
vt 0.598806 0.834312
vt 0.655515 0.275849
vt 0.471749 0.275849
vt 0.526620 0.834312
vt 0.503491 0.834312
vt 0.412870 0.275849
vt 0.560247 0.275849
vt 0.561383 0.834312
vt 0.153133 0.275849
vt 0.153332 0.655133
vt 0.174319 0.655133
vt 0.206759 0.275849
vt 0.186352 0.275849
vt 0.166302 0.655133
vt 0.140361 0.655133
vt 0.120312 0.275849
vt 0.096055 0.275849
vt 0.132193 0.655133
vt 0.780057 0.275849
vt 0.780477 0.760268
vt 0.824936 0.760268
vt 0.893658 0.275849
vt 0.850427 0.275849
vt 0.807955 0.760268
vt 0.753000 0.760268
vt 0.710527 0.275849
vt 0.659141 0.275849
vt 0.735697 0.760268
vn 0.5528 0.3397 -0.7609
vn 0.0000 0.3397 0.9405
vn -0.5528 0.3397 -0.7609
vn 0.8945 0.3397 0.2906
vn -0.8945 0.3397 0.2906
vn 0.8260 0.5014 0.2575
vn -0.8196 0.5014 0.2772
vn 0.5001 0.5014 -0.7060
vn 0.0104 0.5014 0.8652
vn -0.5169 0.5014 -0.6938
vn 0.5613 0.2927 -0.7741
vn 0.0000 0.2931 0.9561
vn -0.5358 0.3068 -0.7866
vn 0.9093 0.2931 0.2954
vn -0.8930 0.3084 0.3279
vn 0.5234 0.4528 -0.7218
vn 0.0000 0.4533 0.8914
vn -0.4965 0.4715 -0.7288
vn 0.8477 0.4533 0.2754
vn -0.8268 0.4736 0.3036
vn 0.0000 1.0000 0.0000
vn -0.0000 -1.0000 -0.0000
usemtl Material
s off
f 1/1/1 6/2/1 10/3/1 5/4/1
f 4/5/2 9/6/2 8/7/2 3/8/2
f 2/9/3 7/10/3 6/2/3 1/1/3
f 5/4/4 10/3/4 9/6/4 4/5/4
f 3/8/5 8/7/5 7/10/5 2/9/5
f 11/11/6 16/12/6 20/13/6 15/14/6
f 14/15/7 19/16/7 18/17/7 13/18/7
f 12/19/8 17/20/8 16/12/8 11/11/8
f 15/14/9 20/13/9 19/16/9 14/15/9
f 13/18/10 18/17/10 17/20/10 12/19/10
f 21/21/11 26/22/11 30/23/11 25/24/11
f 24/25/12 29/26/12 28/27/12 23/28/12
f 22/29/13 27/30/13 26/22/13 21/21/13
f 25/24/14 30/23/14 29/26/14 24/25/14
f 23/28/15 28/27/15 27/30/15 22/29/15
f 31/31/16 36/32/16 40/33/16 35/34/16
f 34/35/17 39/36/17 38/37/17 33/38/17
f 32/39/18 37/40/18 36/32/18 31/31/18
f 35/34/19 40/33/19 39/36/19 34/35/19
f 33/38/20 38/37/20 37/40/20 32/39/20
f 19/16/21 20/13/21 16/12/21 18/17/21
f 8/7/21 9/6/21 10/3/21
f 16/12/21 17/20/21 18/17/21
f 8/7/21 10/3/21 6/2/21 7/10/21
f 28/27/21 29/26/21 30/23/21
f 28/27/21 30/23/21 26/22/21 27/30/21
f 38/37/21 39/36/21 40/33/21
f 38/37/21 40/33/21 36/32/21 37/40/21
f 23/28/22 22/29/22 25/24/22 24/25/22
f 21/21/22 25/24/22 22/29/22
f 14/15/22 13/18/22 11/11/22 15/14/22
f 12/19/22 11/11/22 13/18/22
f 33/38/22 32/39/22 35/34/22 34/35/22
f 31/31/22 35/34/22 32/39/22
f 3/8/22 2/9/22 5/4/22 4/5/22
f 1/1/22 5/4/22 2/9/22
