# Blender v3.0.0 OBJ File: 'Rocks.blend'
# www.blender.org
mtllib Rock 6.mtl
o Rock_6_Rocks_Round_s_01.001
v 0.281509 -0.000000 -0.237629
v 0.244303 -0.000000 -0.210597
v 0.258515 -0.000000 -0.166858
v 0.304504 -0.000000 -0.166858
v 0.318716 -0.000000 -0.210597
v 0.281509 0.067592 -0.213875
v 0.266894 0.067592 -0.203256
v 0.272477 0.067592 -0.186075
v 0.290542 0.067592 -0.186075
v 0.296125 0.067592 -0.203256
v -0.204018 -0.000000 0.151979
v -0.303976 -0.000000 0.174881
v -0.313083 -0.000000 0.277023
v -0.218754 -0.000000 0.317248
v -0.151349 -0.000000 0.239967
v -0.224795 0.087624 0.200700
v -0.264060 0.087624 0.209696
v -0.267637 0.087624 0.249819
v -0.230583 0.087624 0.265620
v -0.204105 0.087624 0.235263
v -0.077483 -0.000000 -0.376172
v -0.177440 -0.000000 -0.353270
v -0.186547 -0.000000 -0.251128
v -0.092219 -0.000000 -0.210903
v -0.024813 -0.000000 -0.288185
v -0.098259 0.087624 -0.327452
v -0.137524 0.087624 -0.318455
v -0.141101 0.087624 -0.278332
v -0.104048 0.087624 -0.262531
v -0.077570 0.087624 -0.292889
v 0.262408 -0.000000 0.054135
v 0.202918 -0.000000 0.097357
v 0.225641 0.000000 0.167292
v 0.299175 0.000000 0.167292
v 0.321898 -0.000000 0.097357
v 0.262408 0.077688 0.092116
v 0.239039 0.077688 0.109094
v 0.247965 0.077688 0.136565
v 0.276850 0.077688 0.136565
v 0.285776 0.077688 0.109094
v 0.079934 0.121018 0.004125
v -0.057072 0.121018 -0.018609
v 0.022798 0.121018 -0.075745
v 0.085038 -0.000000 -0.146483
v -0.144181 -0.000000 0.017493
v -0.073771 -0.000000 -0.114702
v 0.000149 0.121018 0.060716
v 0.064445 -0.000000 0.128140
v -0.083739 -0.000000 0.101983
v 0.157370 -0.000000 -0.045372
v 0.137467 -0.000000 0.075903
vt 0.869426 0.208726
vt 0.869426 0.559389
vt 0.889108 0.559389
vt 0.919532 0.208726
vt 0.900393 0.208727
vt 0.881590 0.559389
vt 0.857262 0.559389
vt 0.838459 0.208727
vt 0.819320 0.208726
vt 0.849744 0.559389
vt 0.215567 0.208727
vt 0.187588 0.663310
vt 0.215450 0.663310
vt 0.286497 0.208727
vt 0.195722 0.208727
vt 0.179792 0.663310
vt 0.129892 0.663310
vt 0.068690 0.208727
vt 0.080955 0.208727
vt 0.134710 0.663310
vt 0.385972 0.208726
vt 0.357993 0.663311
vt 0.385855 0.663311
vt 0.456902 0.208726
vt 0.366127 0.208726
vt 0.350197 0.663310
vt 0.300297 0.663310
vt 0.239095 0.208726
vt 0.251360 0.208726
vt 0.305115 0.663311
vt 0.843702 0.208727
vt 0.843702 0.611763
vt 0.875172 0.611763
vt 0.923817 0.208727
vt 0.893216 0.208727
vt 0.863152 0.611763
vt 0.824252 0.611763
vt 0.794188 0.208727
vt 0.763587 0.208727
vt 0.812231 0.611763
vt 0.490519 0.836557
vt 0.597964 0.836557
vt 0.521019 0.836557
vt 0.413460 0.836557
vt 0.577106 0.208727
vt 0.675444 0.208727
vt 0.702248 0.208727
vt 0.604839 0.208727
vt 0.390971 0.208727
vt 0.296151 0.208727
vt 0.377547 0.208727
vn 0.5654 0.2735 -0.7782
vn 0.0000 0.2735 0.9619
vn -0.5654 0.2735 -0.7782
vn 0.9148 0.2735 0.2972
vn -0.9148 0.2735 0.2972
vn 0.7708 0.4393 -0.4614
vn -0.3524 0.4393 0.8263
vn -0.2006 0.4393 -0.8756
vn 0.6770 0.4393 0.5905
vn -0.8948 0.4393 -0.0798
vn -0.0000 1.0000 0.0000
vn 0.5466 0.3678 -0.7523
vn 0.0000 0.3678 0.9299
vn -0.5466 0.3678 -0.7523
vn 0.8844 0.3678 0.2874
vn -0.8844 0.3678 0.2874
vn 0.4618 0.6053 0.6484
vn 0.6480 0.6043 -0.4636
vn -0.1774 0.4270 -0.8867
vn -0.4708 0.5875 -0.6581
vn -0.7910 0.4437 -0.4213
vn 0.8591 0.4920 0.1410
vn -0.1581 0.4151 0.8959
vn -0.6466 0.6052 0.4644
vn 0.0000 -1.0000 0.0000
usemtl Material
s off
f 1/1/1 6/2/1 10/3/1 5/4/1
f 4/5/2 9/6/2 8/7/2 3/8/2
f 2/9/3 7/10/3 6/2/3 1/1/3
f 5/4/4 10/3/4 9/6/4 4/5/4
f 3/8/5 8/7/5 7/10/5 2/9/5
f 11/11/6 16/12/6 20/13/6 15/14/6
f 14/15/7 19/16/7 18/17/7 13/18/7
f 12/19/8 17/20/8 16/12/8 11/11/8
f 15/14/9 20/13/9 19/16/9 14/15/9
f 13/18/10 18/17/10 17/20/10 12/19/10
f 19/16/11 20/13/11 16/12/11
f 21/21/6 26/22/6 30/23/6 25/24/6
f 24/25/7 29/26/7 28/27/7 23/28/7
f 22/29/8 27/30/8 26/22/8 21/21/8
f 25/24/9 30/23/9 29/26/9 24/25/9
f 23/28/10 28/27/10 27/30/10 22/29/10
f 29/26/11 30/23/11 26/22/11
f 31/31/12 36/32/12 40/33/12 35/34/12
f 34/35/13 39/36/13 38/37/13 33/38/13
f 32/39/14 37/40/14 36/32/14 31/31/14
f 35/34/15 40/33/15 39/36/15 34/35/15
f 33/38/16 38/37/16 37/40/16 32/39/16
f 47/41/11 41/42/11 43/43/11 42/44/11
f 48/45/17 51/46/17 41/42/17 47/41/17
f 43/43/18 41/42/18 50/47/18 44/48/18
f 43/43/19 44/48/19 46/49/19
f 42/44/20 43/43/20 46/49/20
f 45/50/21 42/44/21 46/49/21
f 50/47/22 41/42/22 51/46/22
f 48/45/23 47/41/23 49/51/23
f 45/50/24 49/51/24 47/41/24 42/44/24
f 18/17/11 19/16/11 16/12/11 17/20/11
f 8/7/11 9/6/11 10/3/11
f 28/27/11 29/26/11 26/22/11 27/30/11
f 40/33/11 36/32/11 38/37/11 39/36/11
f 36/32/11 37/40/11 38/37/11
f 8/7/11 10/3/11 6/2/11 7/10/11
f 14/15/25 13/18/25 11/11/25 15/14/25
f 12/19/25 11/11/25 13/18/25
f 49/51/25 45/50/25 51/46/25 48/45/25
f 45/50/25 46/49/25 50/47/25 51/46/25
f 50/47/25 46/49/25 44/48/25
f 33/38/25 32/39/25 35/34/25 34/35/25
f 31/31/25 35/34/25 32/39/25
f 3/8/25 2/9/25 5/4/25 4/5/25
f 1/1/25 5/4/25 2/9/25
f 23/28/25 22/29/25 25/24/25 24/25/25
f 21/21/25 25/24/25 22/29/25
