# Blender v3.0.0 OBJ File: 'Rocks.blend'
# www.blender.org
mtllib Rock 8.mtl
o Rock_8_Rocks_Round_s_03.001
v 0.125041 -0.000000 0.359541
v 0.112282 -0.000000 0.293903
v 0.045914 -0.000000 0.285753
v 0.017655 -0.000000 0.346356
v 0.066558 -0.000000 0.391959
v 0.093740 0.076654 0.344945
v 0.088728 0.076654 0.319161
v 0.062658 0.076654 0.315960
v 0.051557 0.076654 0.339766
v 0.070767 0.076654 0.357679
v -0.362048 -0.000000 -0.100491
v -0.330806 -0.000000 -0.246280
v -0.459806 -0.000000 -0.321045
v -0.570774 -0.000000 -0.221462
v -0.510356 -0.000000 -0.085152
v -0.413482 0.107498 -0.157806
v -0.401210 0.107498 -0.215074
v -0.451883 0.107498 -0.244443
v -0.495474 0.107498 -0.205325
v -0.471740 0.107498 -0.151780
v 0.369512 0.091582 -0.224717
v 0.338610 0.091582 -0.253534
v 0.356467 0.091582 -0.291828
v 0.398405 0.091582 -0.286679
v 0.406467 0.091582 -0.245202
v 0.362741 -0.000000 -0.169574
v 0.284073 -0.000000 -0.242933
v 0.329532 -0.000000 -0.340419
v 0.436294 -0.000000 -0.327310
v 0.456819 -0.000000 -0.221723
v 0.123791 -0.000000 -0.529184
v 0.115375 -0.000000 -0.584203
v 0.060291 -0.000000 -0.588175
v 0.037648 -0.000000 -0.539617
v 0.076832 -0.000000 -0.503077
v 0.098612 0.072222 -0.540747
v 0.094671 0.072222 -0.561508
v 0.073707 0.072222 -0.563972
v 0.064812 0.072222 -0.544898
v 0.080204 0.072222 -0.530544
v -0.225929 -0.000000 0.239989
v -0.243758 -0.000000 0.123436
v -0.360449 -0.000000 0.115021
v -0.408416 -0.000000 0.217888
v -0.325407 -0.000000 0.295295
v -0.279268 0.093244 0.215494
v -0.287617 0.093244 0.171515
v -0.332028 0.093244 0.166294
v -0.350870 0.093244 0.206702
v -0.318263 0.093244 0.237109
vt 0.610984 0.223873
vt 0.584560 0.629995
vt 0.565166 0.629995
vt 0.561613 0.223873
vt 0.520330 0.223873
vt 0.548949 0.629995
vt 0.558321 0.629995
vt 0.544186 0.223873
vt 0.600213 0.223873
vt 0.580329 0.629995
vt 0.199792 0.223873
vt 0.156372 0.793412
vt 0.107191 0.793412
vt 0.074593 0.223873
vt 0.023589 0.223873
vt 0.087156 0.793412
vt 0.123954 0.793412
vt 0.117266 0.223873
vt 0.226166 0.223873
vt 0.166732 0.793412
vt 0.783611 0.223873
vt 0.806349 0.709084
vt 0.841752 0.709084
vt 0.873738 0.223873
vt 0.848558 0.709084
vt 0.891064 0.223873
vt 0.745236 0.223873
vt 0.791274 0.709084
vt 0.811645 0.223873
vt 0.817361 0.709084
vt 0.609928 0.223873
vt 0.588672 0.606515
vt 0.573133 0.606515
vt 0.570286 0.223873
vt 0.537207 0.223873
vt 0.560139 0.606515
vt 0.567648 0.606514
vt 0.556322 0.223873
vt 0.602823 0.223873
vt 0.585346 0.606515
vt 0.314701 0.223873
vt 0.269673 0.717890
vt 0.236754 0.717890
vt 0.230723 0.223873
vt 0.160649 0.223873
vt 0.209228 0.717890
vt 0.225134 0.717890
vt 0.201142 0.223873
vt 0.299650 0.223873
vt 0.262625 0.717890
vn 0.4555 0.3425 0.8217
vn -0.8515 0.3425 -0.3971
vn 0.9223 0.3425 -0.1793
vn -0.6408 0.3425 0.6871
vn 0.1145 0.3425 -0.9325
vn 0.0890 0.5014 0.8606
vn -0.5779 0.5014 -0.6439
vn 0.8460 0.5014 0.1813
vn -0.7910 0.5014 0.3506
vn 0.4338 0.5014 -0.7486
vn 0.1094 0.4406 -0.8910
vn 0.8812 0.4406 -0.1713
vn -0.8136 0.4406 -0.3794
vn -0.6122 0.4406 0.6565
vn 0.4352 0.4406 0.7852
vn 0.4639 0.2957 0.8351
vn -0.8657 0.2961 -0.4037
vn 0.9384 0.3099 -0.1530
vn -0.6514 0.2961 0.6986
vn 0.0801 0.3115 -0.9469
vn 0.4330 0.4528 0.7794
vn -0.8078 0.4534 -0.3767
vn 0.8703 0.4716 -0.1419
vn -0.6079 0.4534 0.6519
vn 0.0743 0.4737 -0.8776
vn 0.0000 1.0000 0.0000
vn -0.0000 -1.0000 -0.0000
usemtl Material
s off
f 1/1/1 6/2/1 10/3/1 5/4/1
f 4/5/2 9/6/2 8/7/2 3/8/2
f 2/9/3 7/10/3 6/2/3 1/1/3
f 5/4/4 10/3/4 9/6/4 4/5/4
f 3/8/5 8/7/5 7/10/5 2/9/5
f 11/11/6 16/12/6 20/13/6 15/14/6
f 14/15/7 19/16/7 18/17/7 13/18/7
f 12/19/8 17/20/8 16/12/8 11/11/8
f 15/14/9 20/13/9 19/16/9 14/15/9
f 13/18/10 18/17/10 17/20/10 12/19/10
f 28/21/11 23/22/11 24/23/11 29/24/11
f 29/24/12 24/23/12 25/25/12 30/26/12
f 27/27/13 22/28/13 23/22/13 28/21/13
f 26/29/14 21/30/14 22/28/14 27/27/14
f 30/26/15 25/25/15 21/30/15 26/29/15
f 31/31/16 36/32/16 40/33/16 35/34/16
f 34/35/17 39/36/17 38/37/17 33/38/17
f 32/39/18 37/40/18 36/32/18 31/31/18
f 35/34/19 40/33/19 39/36/19 34/35/19
f 33/38/20 38/37/20 37/40/20 32/39/20
f 41/41/21 46/42/21 50/43/21 45/44/21
f 44/45/22 49/46/22 48/47/22 43/48/22
f 42/49/23 47/50/23 46/42/23 41/41/23
f 45/44/24 50/43/24 49/46/24 44/45/24
f 43/48/25 48/47/25 47/50/25 42/49/25
f 8/7/26 9/6/26 10/3/26
f 16/12/26 17/20/26 18/17/26
f 23/22/26 21/30/26 25/25/26 24/23/26
f 8/7/26 10/3/26 6/2/26 7/10/26
f 23/22/26 22/28/26 21/30/26
f 20/13/26 16/12/26 18/17/26 19/16/26
f 38/37/26 39/36/26 40/33/26
f 38/37/26 40/33/26 36/32/26 37/40/26
f 48/47/26 49/46/26 50/43/26
f 48/47/26 50/43/26 46/42/26 47/50/26
f 42/49/27 41/41/27 45/44/27 44/45/27
f 43/48/27 42/49/27 44/45/27
f 12/19/27 11/11/27 15/14/27 14/15/27
f 13/18/27 12/19/27 14/15/27
f 34/35/27 33/38/27 31/31/27 35/34/27
f 32/39/27 31/31/27 33/38/27
f 30/26/27 26/29/27 27/27/27 28/21/27
f 28/21/27 29/24/27 30/26/27
f 4/5/27 3/8/27 1/1/27 5/4/27
f 2/9/27 1/1/27 3/8/27
