# Blender v3.0.0 OBJ File: 'Rocks.blend'
# www.blender.org
mtllib Rock 5.mtl
o Rock_5_Rocks_Round_m_05.001
v -0.076912 0.063605 0.030089
v -0.055220 0.079746 -0.033393
v -0.059956 0.076936 -0.043115
v -0.073785 0.054148 0.045102
v -0.068382 0.053768 0.049266
v -0.057977 -0.000000 -0.041678
v -0.083131 0.023400 0.025635
v -0.071777 -0.000000 0.004819
v -0.090492 0.020937 0.000940
v -0.069864 0.070351 -0.040082
v -0.090776 0.055889 -0.015097
v -0.077159 0.017865 -0.036452
v -0.094204 0.025485 -0.014006
v -0.056079 0.077403 0.025320
v -0.052741 0.079892 0.015376
v -0.046198 0.069743 0.042438
v -0.000112 0.069073 -0.015033
v -0.031860 0.080178 -0.021916
v -0.005544 0.071118 -0.034920
v -0.032473 0.080215 0.000818
v -0.019355 0.066176 -0.054439
v -0.009177 0.067589 -0.046111
v -0.027443 0.025331 -0.050923
v -0.011953 0.025683 -0.037790
v -0.005041 -0.000000 -0.006791
v -0.008235 -0.000000 0.000870
v -0.061729 0.036578 0.047863
v -0.063843 0.000000 0.023669
v -0.073112 0.017900 0.031484
v -0.009326 0.018385 0.033374
v -0.012402 -0.000000 0.025633
v -0.028840 0.067581 0.037526
v -0.018266 0.075224 0.006776
v -0.000147 0.069083 -0.014736
v -0.000036 0.068953 -0.014717
v 0.001792 0.039673 0.029562
v 0.005780 0.043370 0.016644
v 0.046896 0.094552 0.052068
v 0.095805 0.098630 0.010849
v 0.056958 0.105033 0.018459
v 0.022041 0.105709 -0.008431
v -0.004511 -0.000000 -0.023972
v 0.099690 0.036121 -0.028419
v 0.063314 0.021090 -0.050069
v 0.051574 0.014239 -0.051230
v 0.047022 0.000000 -0.038968
v 0.043025 0.092324 -0.052076
v 0.046030 0.097018 -0.044592
v 0.096742 0.097076 0.001374
v 0.099783 0.064081 -0.029362
v 0.066968 0.073303 -0.049707
v 0.014744 0.080705 -0.054873
v -0.003081 0.082144 -0.038430
v 0.015315 0.023313 -0.054817
v -0.003155 0.015768 -0.037687
v -0.011462 0.038384 0.046295
v 0.012819 0.089309 0.048697
v -0.000088 0.100319 -0.002929
v -0.005771 0.094257 -0.011236
v -0.011462 0.021088 0.046295
v -0.006419 -0.000000 -0.004684
v 0.046473 0.000000 0.048297
v 0.035607 0.010570 0.050952
v 0.097805 0.028418 -0.009366
v 0.071591 -0.000000 0.005232
v 0.058940 0.000000 0.046651
v 0.062401 0.090243 0.053602
v 0.094926 0.095431 0.019735
v 0.068186 0.031233 0.054174
v 0.073073 0.022041 0.050182
v 0.094203 0.035744 0.027044
vt 0.435149 0.325888
vt 0.461781 0.142375
vt 0.257834 0.142375
vt 0.480637 0.635995
vt 0.481062 0.635066
vt 0.480771 0.635924
vt 0.375470 0.323373
vt 0.183930 0.270029
vt 0.243376 0.403735
vt 0.199521 0.270274
vt 0.235232 0.142375
vt 0.303216 0.640707
vt 0.370090 0.625257
vt 0.358453 0.715268
vt 0.118259 0.324475
vt 0.204667 0.142375
vt 0.132562 0.291977
vt 0.196929 0.529277
vt 0.160920 0.309572
vt 0.268455 0.712181
vt 0.278006 0.713227
vt 0.356093 0.715535
vt 0.184880 0.596852
vt 0.131467 0.541718
vt 0.445270 0.273742
vt 0.433421 0.142375
vt 0.217746 0.526561
vt 0.265144 0.695440
vt 0.503471 0.452266
vt 0.410829 0.679871
vt 0.488105 0.425847
vt 0.250207 0.692108
vt 0.212035 0.645055
vt 0.459842 0.650534
vt 0.445847 0.625316
vt 0.406632 0.615221
vt 0.449474 0.142375
vt 0.480863 0.859183
vt 0.437040 0.416638
vt 0.530591 0.780511
vt 0.700643 0.892864
vt 0.850312 0.847111
vt 0.853923 0.836011
vt 0.540206 0.308954
vt 0.679901 0.244117
vt 0.662363 0.142375
vt 0.566119 0.897697
vt 0.618385 0.217904
vt 0.456470 0.142375
vt 0.660251 0.142375
vt 0.743902 0.365541
vt 0.846925 0.824257
vt 0.844140 0.397776
vt 0.458967 0.815864
vt 0.661881 0.817978
vt 0.469331 0.729320
vt 0.858016 0.345427
vt 0.865637 0.600250
vt 0.739211 0.666142
vt 0.646964 0.802059
vt 0.658541 0.835596
vt 0.463821 0.142375
vt 0.469048 0.255045
vt 0.538006 0.719034
vt 0.757020 0.142375
vt 0.725134 0.293071
vt 0.865278 0.400472
vt 0.437040 0.293056
vt 0.762733 0.299867
vt 0.721614 0.787187
vt 0.708281 0.142375
vn 0.4173 -0.6519 -0.6332
vn 0.7555 0.6517 0.0673
vn -0.2772 -0.0165 -0.9607
vn -0.3127 -0.5114 0.8004
vn 0.2755 0.0282 0.9609
vn 0.9548 -0.1175 -0.2729
vn 0.3287 0.9444 0.0073
vn -0.6691 -0.7212 -0.1793
vn -0.7740 -0.5430 0.3257
vn -0.5966 -0.2919 0.7475
vn -0.6964 -0.6873 -0.2067
vn -0.0175 0.9998 -0.0021
vn -0.9548 0.1175 0.2729
vn 0.0160 -0.5034 0.8639
vn -0.3705 0.7492 0.5491
vn 0.9552 -0.1013 -0.2782
vn 0.6738 0.6288 0.3880
vn -0.5480 0.8361 0.0253
vn 0.1506 0.9277 -0.3415
vn 0.4511 -0.7307 -0.5124
vn -0.2755 -0.0282 -0.9609
vn -0.6970 -0.6349 0.3335
vn 0.2013 0.9322 0.3009
vn 0.8454 -0.4014 0.3525
vn 0.9600 -0.2286 0.1615
vn -0.7837 0.0662 -0.6176
vn 0.8932 -0.3889 0.2257
vn 0.6374 -0.1905 -0.7466
vn -0.8661 0.3987 0.3016
vn 0.1326 0.9801 -0.1476
vn -0.0829 -0.6349 -0.7681
vn -0.1712 0.9540 0.2462
vn -0.5247 -0.6710 0.5239
vn 0.0357 -0.2087 0.9773
vn 0.9951 0.0000 0.0984
vn 0.2186 0.9111 0.3495
vn -0.0984 -0.0000 0.9951
vn -0.9951 0.0000 -0.0984
vn 0.5363 0.6012 -0.5924
vn -0.2170 -0.6299 -0.7457
vn -0.2527 -0.7550 -0.6050
vn 0.0984 0.0000 -0.9951
vn 0.6067 -0.7083 -0.3609
vn -0.3111 0.8564 -0.4122
vn 0.5205 -0.0305 -0.8533
vn -0.2371 -0.9058 0.3512
vn 0.7132 0.0767 0.6967
vn -0.6783 -0.0075 -0.7347
vn 0.4458 -0.6617 -0.6029
vn 0.5043 -0.8167 -0.2803
vn 0.7691 -0.6076 0.1983
vn 0.1261 -0.2674 0.9553
vn 0.2178 -0.2890 0.9322
vn 0.7553 -0.5980 0.2683
vn -0.0000 -1.0000 0.0000
usemtl Material
s off
f 24/1/1 25/2/1 6/3/1
f 34/4/2 35/5/2 17/6/2
f 23/7/3 6/3/3 12/8/3
f 27/9/4 29/10/4 28/11/4
f 16/12/5 27/9/5 32/13/5
f 17/6/6 35/5/6 24/1/6
f 18/14/7 34/4/7 17/6/7
f 13/15/8 12/8/8 8/16/8 9/17/8
f 28/11/9 29/10/9 8/16/9
f 27/9/10 4/18/10 7/19/10 29/10/10
f 6/3/11 8/16/11 12/8/11
f 2/20/12 15/21/12 20/22/12 18/14/12
f 4/18/13 1/23/13 7/19/13
f 11/24/13 13/15/13 9/17/13
f 30/25/14 27/9/14 28/11/14 31/26/14
f 5/27/15 16/12/15 14/28/15 1/23/15
f 25/2/16 24/1/16 35/5/16 37/29/16
f 4/18/15 5/27/15 1/23/15
f 33/30/17 32/13/17 36/31/17 37/29/17
f 14/28/18 15/21/18 1/23/18
f 2/20/18 3/32/18 10/33/18
f 10/33/18 11/24/18 2/20/18
f 19/34/19 22/35/19 18/14/19
f 21/36/19 3/32/19 2/20/19
f 23/7/20 24/1/20 6/3/20
f 10/33/21 3/32/21 21/36/21
f 27/9/5 30/25/5 36/31/5 32/13/5
f 22/35/19 21/36/19 2/20/19 18/14/19
f 8/16/22 29/10/22 7/19/22 9/17/22
f 5/27/10 4/18/10 27/9/10
f 20/22/23 15/21/23 32/13/23 33/30/23
f 7/19/13 1/23/13 11/24/13 9/17/13
f 16/12/5 5/27/5 27/9/5
f 26/37/24 25/2/24 37/29/24
f 33/30/7 34/4/7 18/14/7 20/22/7
f 30/25/25 31/26/25 26/37/25
f 24/1/6 22/35/6 19/34/6
f 19/34/6 17/6/6 24/1/6
f 15/21/18 2/20/18 11/24/18 1/23/18
f 17/6/7 19/34/7 18/14/7
f 12/8/26 13/15/26 11/24/26 10/33/26
f 15/21/23 14/28/23 32/13/23
f 16/12/23 32/13/23 14/28/23
f 30/25/27 26/37/27 37/29/27 36/31/27
f 37/29/17 35/5/17 33/30/17
f 34/4/17 33/30/17 35/5/17
f 12/8/21 10/33/21 21/36/21 23/7/21
f 24/1/28 23/7/28 21/36/28 22/35/28
f 58/38/29 56/39/29 57/40/29
f 40/41/30 39/42/30 49/43/30
f 54/44/31 45/45/31 46/46/31
f 41/47/32 58/38/32 57/40/32
f 63/48/33 61/49/33 62/50/33
f 69/51/34 63/48/34 62/50/34
f 68/52/35 71/53/35 49/43/35
f 68/52/36 39/42/36 40/41/36
f 56/39/37 63/48/37 57/40/37
f 58/38/29 59/54/29 56/39/29
f 40/41/32 41/47/32 57/40/32 38/55/32
f 53/56/38 61/49/38 56/39/38 59/54/38
f 71/53/35 64/57/35 50/58/35 49/43/35
f 51/59/39 47/60/39 48/61/39
f 46/46/40 42/62/40 55/63/40
f 55/63/41 54/44/41 46/46/41
f 52/64/42 47/60/42 51/59/42
f 65/65/43 46/46/43 44/66/43 64/57/43
f 45/45/42 54/44/42 44/66/42
f 59/54/44 58/38/44 41/47/44
f 47/60/44 52/64/44 48/61/44
f 53/56/44 59/54/44 41/47/44
f 43/67/45 44/66/45 51/59/45 50/58/45
f 63/48/46 60/68/46 61/49/46
f 69/51/37 38/55/37 57/40/37 63/48/37
f 53/56/38 55/63/38 61/49/38
f 42/62/38 61/49/38 55/63/38
f 60/68/38 56/39/38 61/49/38
f 70/69/47 71/53/47 69/51/47
f 53/56/48 52/64/48 54/44/48 55/63/48
f 41/47/30 40/41/30 49/43/30 48/61/30
f 46/46/49 45/45/49 44/66/49
f 44/66/50 43/67/50 64/57/50
f 67/70/47 69/51/47 71/53/47 68/52/47
f 67/70/36 68/52/36 40/41/36 38/55/36
f 64/57/51 71/53/51 65/65/51
f 62/50/52 66/71/52 69/51/52
f 70/69/53 69/51/53 66/71/53
f 71/53/54 70/69/54 66/71/54 65/65/54
f 39/42/35 68/52/35 49/43/35
f 43/67/35 50/58/35 64/57/35
f 49/43/39 50/58/39 51/59/39 48/61/39
f 67/70/37 38/55/37 69/51/37
f 52/64/44 53/56/44 41/47/44 48/61/44
f 60/68/37 63/48/37 56/39/37
f 54/44/42 52/64/42 51/59/42 44/66/42
f 66/71/55 62/50/55 46/46/55 65/65/55
f 42/62/55 46/46/55 62/50/55 61/49/55
f 28/11/55 8/16/55 26/37/55 31/26/55
f 26/37/55 8/16/55 6/3/55 25/2/55
