# Blender v3.0.0 OBJ File: 'Rocks.blend'
# www.blender.org
mtllib Rock 2.mtl
o Rock_2_Rock_Round_s_03.001
v -0.106450 -0.000000 -0.047317
v -0.097436 -0.000000 0.050576
v -0.007171 -0.000000 0.108326
v 0.149241 -0.000000 -0.030925
v -0.075029 -0.000000 -0.098075
v 0.057353 -0.000000 -0.114756
v -0.038584 0.025977 -0.087955
v 0.047736 0.024571 -0.099317
v -0.005173 0.022963 0.095803
v 0.127268 -0.000000 0.050274
v 0.146836 -0.000000 -0.016938
v 0.078823 0.039151 0.054978
v 0.060823 0.035004 -0.079526
v 0.069631 0.053733 0.032796
v 0.109821 0.034665 -0.035117
v -0.082823 0.028198 -0.011849
v -0.082366 0.016680 0.047901
v -0.037612 0.048835 -0.041863
v -0.017828 0.030341 0.085956
v 0.036244 0.058924 0.030079
v -0.009000 0.055835 -0.029823
v 0.041927 -0.000000 -0.055304
v 0.001746 -0.000000 -0.002138
vt 0.242447 0.499842
vt 0.243723 0.408288
vt 0.448874 0.719512
vt 0.424189 0.516875
vt 0.201586 0.275706
vt 0.453989 0.275706
vt 0.634415 0.275706
vt 0.644117 0.553941
vt 0.781129 0.551245
vt 0.891355 0.275706
vt 0.668746 0.702808
vt 0.694451 0.586898
vt 0.575388 0.744069
vt 0.884632 0.275706
vt 0.368867 0.663872
vt 0.366149 0.482186
vt 0.607522 0.471010
vt 0.264242 0.275706
vt 0.176381 0.275706
vt 0.829914 0.275706
vt 0.459576 0.458227
vt 0.478924 0.275706
vt 0.591279 0.275706
vn -0.3054 0.9346 0.1825
vn -0.4997 0.4433 0.7442
vn 0.5582 0.5605 -0.6117
vn 0.6689 0.7174 0.1944
vn 0.6495 0.7521 0.1117
vn -0.0325 0.8957 -0.4435
vn 0.1651 0.9707 -0.1748
vn -0.0442 0.8971 -0.4397
vn 0.4915 0.5931 -0.6377
vn -0.1075 0.4935 -0.8631
vn -0.7864 0.6109 0.0919
vn 0.6266 0.7583 0.1798
vn 0.0896 0.8489 0.5209
vn 0.3589 0.3759 0.8543
vn -0.3538 0.4714 0.8079
vn -0.4947 0.8133 -0.3062
vn -0.5286 0.7820 -0.3301
vn 0.0000 -1.0000 0.0000
usemtl Material
s off
f 16/1/1 17/2/1 21/3/1
f 19/4/2 17/2/2 2/5/2 3/6/2
f 6/7/3 13/8/3 15/9/3 4/10/3
f 15/9/4 14/11/4 12/12/4
f 17/2/1 19/4/1 20/13/1 21/3/1
f 11/14/5 4/10/5 15/9/5
f 18/15/6 21/3/6 7/16/6
f 13/8/7 20/13/7 14/11/7 15/9/7
f 8/17/8 7/16/8 21/3/8 13/8/8
f 18/15/1 16/1/1 21/3/1
f 8/17/9 13/8/9 6/7/9
f 6/7/10 5/18/10 7/16/10 8/17/10
f 21/3/7 20/13/7 13/8/7
f 2/5/11 17/2/11 16/1/11 1/19/11
f 10/20/12 11/14/12 15/9/12 12/12/12
f 14/11/13 20/13/13 12/12/13
f 3/6/14 10/20/14 12/12/14 9/21/14
f 9/21/15 19/4/15 3/6/15
f 20/13/13 19/4/13 9/21/13 12/12/13
f 5/18/16 1/19/16 7/16/16
f 1/19/17 16/1/17 18/15/17 7/16/17
f 2/5/18 1/19/18 23/22/18
f 23/22/18 22/23/18 11/14/18 10/20/18
f 6/7/18 22/23/18 5/18/18
f 1/19/18 5/18/18 22/23/18 23/22/18
f 4/10/18 11/14/18 22/23/18 6/7/18
f 3/6/18 2/5/18 23/22/18
f 10/20/18 3/6/18 23/22/18
